<svg preserveAspectRatio="none" width="100%" height="100%" overflow="visible" style="display: block;" viewBox="0 0 306.944 336.264" fill="none" xmlns="http://www.w3.org/2000/svg">
<g id="Group">
<g id="Group_2">
<g id="Group_3">
<g id="Group_4">
<path id="Vector" d="M167.275 218.405C167.462 218.405 167.656 218.45 167.835 218.546L190.981 231.015C191.384 231.231 191.623 231.663 191.6 232.118L187.953 299.765C187.923 300.286 187.557 300.726 187.05 300.845C186.543 300.964 186.013 300.741 185.752 300.286L152.461 242.529C152.245 242.156 152.252 241.687 152.476 241.322L166.276 218.956C166.5 218.599 166.887 218.397 167.283 218.397L167.275 218.405ZM189.198 232.736L167.693 221.147L154.848 241.962L185.804 295.666L189.198 232.736Z" fill="var(--fill-0, #E5B785)"/>
<path id="Vector_2" d="M217.454 203.857C217.894 203.857 218.305 204.103 218.506 204.506L249.201 264.916C249.44 265.386 249.343 265.945 248.962 266.31C248.582 266.668 248.008 266.735 247.56 266.474L189.832 233.079C189.459 232.863 189.228 232.46 189.243 232.028L189.989 205.773C190.004 205.147 190.511 204.647 191.138 204.625L217.432 203.865H217.469L217.454 203.857ZM245.292 262.435L216.738 206.242L192.309 206.95L191.615 231.387L245.285 262.442L245.292 262.435Z" fill="var(--fill-0, #E5B785)"/>
<path id="Vector_3" d="M227.353 166.952C227.577 166.952 227.8 167.012 227.994 167.146L284.805 204.126C285.245 204.409 285.439 204.953 285.289 205.452C285.14 205.952 284.678 206.294 284.155 206.294L217.439 206.212C217.007 206.212 216.604 205.974 216.403 205.594L203.908 182.476C203.61 181.925 203.796 181.239 204.326 180.911L226.719 167.131C226.913 167.012 227.122 166.952 227.338 166.952H227.353ZM280.187 203.932L227.338 169.531L206.526 182.342L218.155 203.865L280.187 203.939V203.932Z" fill="var(--fill-0, #E5B785)"/>
<path id="Vector_4" d="M217.454 130.047C217.454 130.047 217.499 130.047 217.514 130.047L285.222 133.692C285.744 133.721 286.185 134.087 286.304 134.593C286.423 135.1 286.199 135.629 285.744 135.89L227.935 169.143C227.562 169.36 227.092 169.352 226.726 169.129L204.333 155.341C203.804 155.013 203.617 154.328 203.916 153.776L216.41 130.658C216.619 130.278 217.014 130.04 217.447 130.04L217.454 130.047ZM281.12 135.838L218.133 132.447L206.526 153.933L227.375 166.766L281.127 135.845L281.12 135.838Z" fill="var(--fill-0, #E5B785)"/>
<path id="Vector_5" d="M250.872 72.3644C251.185 72.3644 251.499 72.4911 251.73 72.7296C252.088 73.1097 252.155 73.676 251.894 74.1306L218.461 131.814C218.245 132.186 217.82 132.41 217.409 132.402L191.13 131.65C190.504 131.635 190.004 131.128 189.982 130.502L189.236 104.239C189.221 103.784 189.474 103.36 189.885 103.151L250.342 72.4837C250.514 72.3942 250.693 72.357 250.88 72.357L250.872 72.3644ZM216.776 130.025L247.858 76.3963L191.623 104.925L192.309 129.324L216.776 130.025Z" fill="var(--fill-0, #E5B785)"/>
<path id="Vector_6" d="M190.489 36.3834C190.601 36.3834 190.713 36.3983 190.824 36.4356C191.324 36.5847 191.667 37.0467 191.667 37.5684L191.585 104.224C191.585 104.656 191.347 105.051 190.966 105.26L167.82 117.736C167.268 118.034 166.582 117.847 166.253 117.318L152.469 94.9531C152.23 94.5656 152.237 94.0737 152.484 93.6936L189.497 36.9349C189.72 36.5921 190.093 36.3983 190.489 36.3983V36.3834ZM189.228 103.509L189.31 41.5331L154.878 94.3346L167.686 115.12L189.228 103.509Z" fill="var(--fill-0, #E5B785)"/>
<path id="Vector_7" d="M120.185 35.3848C120.602 35.3848 120.99 35.6009 121.207 35.9735L154.49 93.7383C154.706 94.111 154.699 94.5731 154.475 94.9457L140.683 117.311C140.355 117.84 139.668 118.026 139.116 117.728L115.985 105.245C115.582 105.029 115.344 104.597 115.366 104.142L119.014 36.4952C119.043 35.9735 119.409 35.5338 119.916 35.4146C120.006 35.3922 120.103 35.3848 120.192 35.3848H120.185ZM152.088 94.3047L121.147 40.6016L117.753 103.531L139.251 115.127L152.088 94.3122V94.3047Z" fill="var(--fill-0, #E5B785)"/>
<path id="Vector_8" d="M58.8019 69.6442C59.0033 69.6442 59.2047 69.6964 59.3912 69.8007L117.126 103.196C117.499 103.412 117.73 103.814 117.716 104.246L116.962 130.509C116.94 131.135 116.44 131.635 115.813 131.657L89.5342 132.402C89.0419 132.372 88.6541 132.164 88.4452 131.754L57.7502 71.3508C57.5115 70.8813 57.6083 70.3224 57.9887 69.9572C58.2125 69.7485 58.5035 69.6368 58.8019 69.6368V69.6442ZM115.336 104.88L61.6514 73.8326L90.2057 130.025L114.627 129.332L115.329 104.887L115.336 104.88Z" fill="var(--fill-0, #E5B785)"/>
<path id="Vector_9" d="M22.7808 129.973L89.4969 130.055C89.9295 130.055 90.3325 130.293 90.5339 130.673L103.028 153.799C103.327 154.35 103.14 155.036 102.61 155.364L80.2101 169.136C79.8222 169.374 79.3299 169.367 78.9495 169.121L22.1394 132.141C21.6993 131.858 21.5052 131.314 21.6544 130.815C21.8036 130.316 22.2661 129.973 22.7882 129.973H22.7808ZM88.7958 132.41L26.7641 132.335L79.6133 166.736L100.425 153.933L88.7958 132.41Z" fill="var(--fill-0, #E5B785)"/>
<path id="Vector_10" d="M79.5985 166.952C79.8148 166.952 80.0312 167.012 80.2177 167.131L102.611 180.918C103.14 181.246 103.327 181.932 103.028 182.483L90.5265 205.601C90.3102 206.004 89.8775 206.25 89.4225 206.22L21.7217 202.568C21.1995 202.538 20.7595 202.173 20.6401 201.666C20.5208 201.16 20.7446 200.63 21.1996 200.37L79.0093 167.116C79.1884 167.012 79.3971 166.96 79.5985 166.96V166.952ZM100.425 182.342L79.5835 169.509L25.8318 200.429L88.8108 203.82L100.425 182.342Z" fill="var(--fill-0, #E5B785)"/>
<path id="Vector_11" d="M89.4969 203.857H89.5267L115.806 204.61C116.433 204.625 116.932 205.132 116.955 205.758L117.701 232.021C117.716 232.475 117.462 232.9 117.052 233.109L56.6014 263.769C56.1389 264.007 55.5719 263.91 55.2064 263.53C54.8483 263.15 54.7812 262.584 55.0423 262.129L88.4601 204.454C88.669 204.089 89.0642 203.865 89.4819 203.865L89.4969 203.857ZM114.635 206.943L90.1683 206.242L59.0927 259.871L115.321 231.35L114.627 206.95L114.635 206.943Z" fill="var(--fill-0, #E5B785)"/>
<path id="Vector_12" d="M139.676 218.397C140.071 218.397 140.459 218.599 140.683 218.956L154.468 241.329C154.706 241.717 154.699 242.208 154.453 242.588L117.447 299.347C117.164 299.787 116.627 299.981 116.119 299.832C115.62 299.683 115.276 299.22 115.276 298.699L115.359 232.051C115.359 231.618 115.597 231.216 115.978 231.015L139.116 218.539C139.295 218.442 139.489 218.397 139.676 218.397ZM152.066 241.933L139.258 221.147L117.716 232.766L117.641 294.734L152.066 241.94V241.933Z" fill="var(--fill-0, #E5B785)"/>
</g>
<path id="Vector_13" d="M153.476 93.1421C153.886 93.1421 154.266 93.3508 154.483 93.7011L167.693 115.12L189.855 103.173C190.213 102.98 190.653 102.987 191.003 103.188C191.362 103.389 191.578 103.769 191.593 104.179L192.316 129.324L217.484 130.047C217.894 130.062 218.267 130.286 218.469 130.636C218.67 130.994 218.678 131.426 218.484 131.784L206.534 153.925L227.972 167.124C228.323 167.34 228.531 167.72 228.531 168.13C228.531 168.54 228.323 168.92 227.972 169.136L206.534 182.334L218.484 204.483C218.678 204.841 218.67 205.281 218.469 205.631C218.267 205.989 217.887 206.205 217.484 206.22L192.316 206.95L191.593 232.095C191.578 232.505 191.354 232.878 191.003 233.086C190.653 233.288 190.213 233.295 189.855 233.101L167.693 221.155L154.483 242.574C154.05 243.274 152.901 243.274 152.476 242.574L139.266 221.155L117.104 233.101C116.746 233.295 116.306 233.288 115.955 233.086C115.597 232.885 115.381 232.505 115.366 232.095L114.642 206.95L89.4745 206.22C89.0643 206.205 88.6915 205.981 88.49 205.631C88.2886 205.273 88.2812 204.841 88.4751 204.483L100.425 182.334L78.9943 169.136C78.6438 168.92 78.4349 168.54 78.4349 168.13C78.4349 167.72 78.6438 167.34 78.9943 167.124L100.425 153.925L88.4751 131.784C88.2812 131.426 88.2886 130.986 88.49 130.636C88.6915 130.278 89.0718 130.062 89.482 130.047L114.65 129.324L115.373 104.179C115.388 103.769 115.612 103.397 115.963 103.188C116.313 102.987 116.753 102.98 117.111 103.173L139.273 115.12L152.484 93.7011C152.7 93.3508 153.08 93.1421 153.491 93.1421H153.476ZM167.275 117.862C166.88 117.862 166.492 117.661 166.268 117.303L153.476 96.5703L140.683 117.303C140.355 117.833 139.668 118.019 139.116 117.721L117.663 106.154L116.962 130.502C116.94 131.128 116.44 131.627 115.813 131.65L91.4439 132.35L103.013 153.791C103.312 154.343 103.125 155.028 102.596 155.356L81.8437 168.137L102.596 180.911C103.125 181.239 103.312 181.925 103.013 182.476L91.4364 203.917L115.806 204.625C116.433 204.64 116.932 205.147 116.955 205.773L117.656 230.113L139.109 218.546C139.661 218.248 140.347 218.435 140.675 218.964L153.468 239.697L166.261 218.964C166.589 218.435 167.275 218.248 167.827 218.546L189.288 230.113L189.989 205.773C190.004 205.147 190.511 204.647 191.138 204.625L215.507 203.917L203.931 182.476C203.632 181.925 203.819 181.239 204.348 180.911L225.1 168.137L204.348 155.356C203.819 155.028 203.632 154.343 203.931 153.791L215.5 132.35L191.138 131.65C190.511 131.635 190.011 131.128 189.989 130.502L189.288 106.154L167.827 117.721C167.648 117.818 167.454 117.862 167.268 117.862H167.275Z" fill="var(--fill-0, #E5B785)"/>
</g>
<path id="Vector_14" d="M77.331 35.1836H229.62C230.046 35.1836 230.433 35.4071 230.642 35.7723L306.787 167.541C306.996 167.906 306.996 168.353 306.787 168.719L230.642 300.495C230.433 300.86 230.038 301.084 229.62 301.084H77.331C76.9058 301.084 76.5178 300.86 76.3089 300.495L0.156646 168.719C-0.0522153 168.353 -0.0522153 167.906 0.156646 167.541L76.3089 35.7723C76.5178 35.4071 76.9132 35.1836 77.331 35.1836ZM228.942 37.5386H78.0097L2.54377 168.13L78.0097 298.721H228.942L304.408 168.13L228.942 37.5386Z" fill="var(--fill-0, #E5B785)"/>
</g>
<path id="Vector_15" d="M20.558 200.489C20.9757 200.489 21.3637 200.712 21.58 201.078L57.0863 262.122C57.325 262.532 57.2952 263.046 57.0043 263.426C56.7134 263.806 56.2284 263.97 55.7659 263.851L7.52656 251.159C6.89252 250.995 6.51946 250.347 6.68357 249.721L19.4167 201.368C19.536 200.906 19.924 200.563 20.4014 200.496C20.4536 200.496 20.5058 200.489 20.558 200.489ZM53.6178 260.847L20.9757 204.729L9.27211 249.184L53.6178 260.847Z" fill="var(--fill-0, #E5B785)"/>
<path id="Vector_16" d="M284.155 203.947C284.208 203.947 284.253 203.947 284.305 203.954C284.775 204.014 285.17 204.357 285.297 204.811L298.41 252.895C298.582 253.521 298.209 254.17 297.582 254.341L249.313 267.495C248.858 267.614 248.366 267.458 248.067 267.078C247.776 266.698 247.739 266.183 247.978 265.773L283.126 204.536C283.335 204.163 283.73 203.939 284.148 203.939L284.155 203.947ZM295.822 252.389L283.76 208.18L251.446 264.484L295.822 252.389Z" fill="var(--fill-0, #E5B785)"/>
<path id="Vector_17" d="M186.744 298.52C187.222 298.52 187.647 298.803 187.833 299.243C188.02 299.683 187.915 300.189 187.58 300.525L152.461 335.917C152.006 336.379 151.253 336.379 150.79 335.917L115.254 300.733C114.918 300.398 114.814 299.891 114.993 299.452C115.172 299.012 115.605 298.721 116.082 298.721L186.737 298.513L186.744 298.52ZM151.618 333.428L183.91 300.89L118.954 301.084L151.626 333.435L151.618 333.428Z" fill="var(--fill-0, #E5B785)"/>
<path id="Vector_18" d="M155.325 0C155.624 0 155.922 0.111805 156.154 0.342834L191.69 35.5264C192.025 35.8617 192.13 36.3685 191.951 36.8082C191.772 37.2479 191.339 37.5386 190.862 37.5386L120.2 37.7473C119.722 37.7473 119.297 37.464 119.111 37.0243C118.924 36.5846 119.028 36.0779 119.364 35.7425L154.49 0.350249C154.721 0.119219 155.027 0 155.325 0ZM188.005 35.191L155.333 2.83943L123.041 35.3773L188.005 35.1836V35.191Z" fill="var(--fill-0, #E5B785)"/>
<path id="Vector_19" d="M57.9368 68.6754C58.3023 68.6754 58.6454 68.8394 58.8766 69.1375C59.1676 69.5175 59.1973 70.0318 58.9586 70.4417L23.6386 131.582C23.3999 131.992 22.945 132.231 22.4602 132.164C21.9828 132.104 21.5948 131.761 21.4755 131.299L8.59323 82.9917C8.42912 82.3583 8.80217 81.7174 9.42876 81.546L57.6233 68.7127C57.7278 68.6828 57.8249 68.6754 57.9293 68.6754H57.9368ZM23.0271 127.938L55.4975 71.7235L11.1891 83.5209L23.0271 127.938Z" fill="var(--fill-0, #E5B785)"/>
<path id="Vector_20" d="M250.872 72.3644C250.976 72.3644 251.081 72.3793 251.185 72.4091L299.462 85.5629C299.76 85.6449 300.022 85.8461 300.178 86.1144C300.335 86.3827 300.372 86.7106 300.29 87.0087L287.162 135.093C287.035 135.555 286.647 135.89 286.17 135.95C285.7 136.009 285.237 135.778 284.998 135.368L249.85 74.1306C249.611 73.7133 249.649 73.1991 249.94 72.8264C250.163 72.5358 250.514 72.3644 250.872 72.3644ZM297.709 87.5229L253.326 75.4274L285.64 131.724L297.717 87.5155L297.709 87.5229Z" fill="var(--fill-0, #E5B785)"/>
</g>
</svg>
