<svg preserveAspectRatio="none" width="100%" height="100%" overflow="visible" style="display: block;" viewBox="0 0 306.944 336.266" fill="none" xmlns="http://www.w3.org/2000/svg">
<g id="Group">
<g id="Group_2">
<g id="Group_3">
<g id="Group_4">
<path id="Vector" d="M167.275 218.405C167.469 218.405 167.656 218.45 167.835 218.546L190.981 231.015C191.384 231.231 191.623 231.663 191.6 232.118L187.953 299.765C187.923 300.286 187.557 300.726 187.05 300.845C186.535 300.972 186.013 300.733 185.752 300.286L152.461 242.529C152.245 242.156 152.252 241.687 152.484 241.322L166.276 218.956C166.5 218.599 166.887 218.397 167.283 218.397L167.275 218.405ZM189.198 232.736L167.693 221.147L154.848 241.962L185.797 295.666L189.191 232.736H189.198Z" fill="var(--fill-0, #E5B785)"/>
<path id="Vector_2" d="M217.454 203.857C217.894 203.857 218.305 204.103 218.506 204.506L249.201 264.916C249.44 265.386 249.343 265.945 248.962 266.31C248.582 266.668 248.008 266.735 247.56 266.474L189.832 233.079C189.459 232.863 189.236 232.46 189.243 232.028L189.989 205.773C190.004 205.147 190.511 204.647 191.138 204.625L217.432 203.865H217.469L217.454 203.857ZM245.292 262.435L216.738 206.242L192.309 206.95L191.615 231.387L245.285 262.442L245.292 262.435Z" fill="var(--fill-0, #E5B785)"/>
<path id="Vector_3" d="M227.353 166.952C227.576 166.952 227.8 167.012 228.002 167.146L284.812 204.126C285.245 204.409 285.446 204.953 285.297 205.452C285.148 205.952 284.685 206.294 284.163 206.294L217.447 206.212C217.014 206.212 216.619 205.974 216.41 205.594L203.916 182.476C203.617 181.925 203.804 181.239 204.333 180.911L226.726 167.131C226.92 167.012 227.129 166.952 227.345 166.952H227.353ZM280.187 203.932L227.338 169.531L206.534 182.342L218.163 203.865L280.195 203.939L280.187 203.932Z" fill="var(--fill-0, #E5B785)"/>
<path id="Vector_4" d="M217.454 130.047C217.454 130.047 217.499 130.047 217.521 130.047L285.23 133.692C285.752 133.721 286.192 134.087 286.311 134.593C286.431 135.1 286.207 135.629 285.752 135.89L227.942 169.143C227.569 169.36 227.107 169.352 226.734 169.129L204.341 155.341C203.811 155.013 203.625 154.328 203.923 153.776L216.417 130.658C216.626 130.278 217.029 130.04 217.454 130.04V130.047ZM281.127 135.838L218.133 132.447L206.526 153.933L227.375 166.766L281.127 135.845V135.838Z" fill="var(--fill-0, #E5B785)"/>
<path id="Vector_5" d="M250.879 72.3644C251.193 72.3644 251.506 72.4911 251.737 72.7296C252.095 73.1097 252.162 73.676 251.901 74.1306L218.469 131.814C218.252 132.186 217.857 132.38 217.409 132.402L191.13 131.65C190.504 131.635 190.004 131.128 189.982 130.502L189.236 104.239C189.221 103.784 189.474 103.36 189.885 103.151L250.342 72.4837C250.514 72.3942 250.693 72.357 250.879 72.357V72.3644ZM216.775 130.025L247.858 76.3963L191.623 104.925L192.309 129.324L216.775 130.025Z" fill="var(--fill-0, #E5B785)"/>
<path id="Vector_6" d="M190.489 36.3834C190.601 36.3834 190.713 36.3983 190.824 36.4356C191.324 36.5847 191.667 37.0467 191.667 37.5684L191.585 104.224C191.585 104.656 191.347 105.051 190.966 105.26L167.82 117.736C167.275 118.034 166.582 117.855 166.253 117.318L152.469 94.9531C152.23 94.5656 152.237 94.0737 152.483 93.6936L189.497 36.9349C189.72 36.5921 190.093 36.3984 190.489 36.3984V36.3834ZM189.228 103.509L189.31 41.5331L154.878 94.3346L167.686 115.12L189.228 103.509Z" fill="var(--fill-0, #E5B785)"/>
<path id="Vector_7" d="M120.185 35.3848C120.602 35.3848 120.998 35.6009 121.207 35.9736L154.49 93.7383C154.706 94.111 154.699 94.5731 154.475 94.9457L140.683 117.311C140.355 117.847 139.668 118.026 139.116 117.728L115.985 105.245C115.582 105.029 115.343 104.597 115.366 104.142L119.013 36.4952C119.043 35.9735 119.409 35.5338 119.916 35.4146C120.006 35.3923 120.103 35.3848 120.192 35.3848H120.185ZM152.088 94.3047L121.147 40.6016L117.753 103.531L139.251 115.127L152.088 94.3122V94.3047Z" fill="var(--fill-0, #E5B785)"/>
<path id="Vector_8" d="M58.8018 69.6442C59.0032 69.6442 59.2121 69.6964 59.3911 69.8007L117.126 103.196C117.499 103.412 117.723 103.814 117.716 104.246L116.962 130.509C116.947 131.135 116.44 131.635 115.813 131.657L89.5343 132.402C89.0643 132.402 88.6541 132.164 88.4452 131.754L57.7501 71.3509C57.5114 70.8813 57.6084 70.3224 57.9888 69.9572C58.2126 69.7486 58.5035 69.6368 58.8018 69.6368V69.6442ZM115.336 104.88L61.6588 73.8326L90.213 130.025L114.635 129.332L115.336 104.887V104.88Z" fill="var(--fill-0, #E5B785)"/>
<path id="Vector_9" d="M22.7808 129.973L89.497 130.055C89.9296 130.055 90.325 130.293 90.5338 130.673L103.028 153.799C103.327 154.35 103.14 155.036 102.603 155.364L80.2027 169.136C79.8148 169.374 79.3225 169.367 78.942 169.121L22.1318 132.141C21.6917 131.858 21.4978 131.314 21.647 130.815C21.7961 130.316 22.2586 129.973 22.7808 129.973ZM88.7958 132.41L26.7641 132.335L79.6134 166.736L100.425 153.933L88.7958 132.41Z" fill="var(--fill-0, #E5B785)"/>
<path id="Vector_10" d="M79.5984 166.952C79.8148 166.952 80.0236 167.012 80.2176 167.131L102.61 180.918C103.14 181.246 103.327 181.932 103.028 182.483L90.5263 205.601C90.31 206.004 89.9594 206.25 89.4224 206.22L21.7216 202.568C21.1994 202.538 20.7593 202.173 20.64 201.666C20.5206 201.16 20.7444 200.63 21.1994 200.37L79.0092 167.116C79.1882 167.012 79.397 166.96 79.5984 166.96V166.952ZM100.425 182.342L79.5761 169.509L25.8242 200.429L88.8032 203.82L100.417 182.342H100.425Z" fill="var(--fill-0, #E5B785)"/>
<path id="Vector_11" d="M89.4969 203.857H89.5343L115.813 204.61C116.44 204.625 116.94 205.132 116.962 205.758L117.708 232.021C117.716 232.475 117.469 232.9 117.059 233.109L56.6088 263.769C56.1389 264 55.5794 263.91 55.2139 263.53C54.8559 263.15 54.7887 262.584 55.0498 262.129L88.4676 204.454C88.6764 204.089 89.0718 203.865 89.4895 203.865L89.4969 203.857ZM114.635 206.943L90.1683 206.242L59.1002 259.871L115.329 231.35L114.635 206.95V206.943Z" fill="var(--fill-0, #E5B785)"/>
<path id="Vector_12" d="M139.676 218.397C140.071 218.397 140.459 218.599 140.683 218.956L154.468 241.329C154.706 241.717 154.699 242.208 154.453 242.588L117.447 299.347C117.164 299.787 116.619 299.988 116.119 299.832C115.62 299.683 115.276 299.22 115.276 298.699L115.358 232.051C115.358 231.618 115.597 231.216 115.978 231.015L139.116 218.539C139.295 218.442 139.482 218.397 139.676 218.397ZM152.066 241.933L139.258 221.147L117.716 232.766L117.641 294.734L152.066 241.94V241.933Z" fill="var(--fill-0, #E5B785)"/>
</g>
<path id="Vector_13" d="M153.476 93.1422C153.886 93.1422 154.266 93.3508 154.483 93.7011L167.693 115.12L189.862 103.173C190.22 102.98 190.66 102.987 191.011 103.188C191.369 103.389 191.593 103.77 191.6 104.179L192.324 129.324L217.491 130.047C217.902 130.062 218.275 130.286 218.476 130.636C218.678 130.994 218.685 131.426 218.491 131.784L206.534 153.925L227.972 167.124C228.322 167.34 228.531 167.72 228.531 168.13C228.531 168.54 228.322 168.92 227.972 169.136L206.534 182.334L218.491 204.483C218.685 204.841 218.678 205.281 218.476 205.631C218.275 205.989 217.894 206.205 217.491 206.22L192.324 206.95L191.6 232.095C191.585 232.505 191.361 232.878 191.011 233.086C190.653 233.288 190.22 233.295 189.862 233.101L167.693 221.155L154.483 242.574C154.057 243.274 152.901 243.274 152.476 242.574L139.258 221.155L117.096 233.101C116.738 233.295 116.298 233.288 115.948 233.086C115.59 232.885 115.366 232.505 115.358 232.095L114.635 206.95L89.4671 206.22C89.0569 206.205 88.6839 205.981 88.4825 205.631C88.2736 205.273 88.2736 204.841 88.4601 204.483L100.417 182.334L78.9793 169.136C78.6287 168.92 78.4199 168.54 78.4199 168.13C78.4199 167.72 78.6287 167.34 78.9793 167.124L100.417 153.925L88.4601 131.784C88.2662 131.426 88.2736 130.986 88.4825 130.636C88.6839 130.278 89.0643 130.062 89.4671 130.047L114.635 129.324L115.358 104.179C115.366 103.77 115.597 103.397 115.948 103.188C116.306 102.987 116.738 102.98 117.096 103.173L139.258 115.12L152.476 93.7011C152.692 93.3508 153.073 93.1422 153.483 93.1422H153.476ZM167.275 117.862C166.88 117.862 166.492 117.661 166.268 117.303L153.476 96.5704L140.683 117.303C140.355 117.84 139.661 118.019 139.116 117.721L117.663 106.154L116.962 130.502C116.947 131.128 116.44 131.627 115.813 131.65L91.4439 132.35L103.021 153.791C103.319 154.343 103.133 155.028 102.603 155.356L81.8512 168.137L102.603 180.911C103.133 181.239 103.319 181.925 103.021 182.476L91.4439 203.917L115.813 204.625C116.44 204.64 116.94 205.147 116.962 205.773L117.663 230.113L139.116 218.546C139.661 218.256 140.355 218.435 140.683 218.964L153.476 239.697L166.268 218.964C166.597 218.427 167.29 218.256 167.835 218.546L189.295 230.113L189.996 205.773C190.011 205.147 190.519 204.647 191.145 204.625L215.507 203.917L203.93 182.476C203.632 181.925 203.819 181.239 204.348 180.911L225.1 168.137L204.348 155.356C203.819 155.028 203.632 154.343 203.93 153.791L215.507 132.35L191.145 131.65C190.519 131.635 190.019 131.128 189.996 130.502L189.295 106.154L167.835 117.721C167.656 117.818 167.469 117.862 167.275 117.862Z" fill="var(--fill-0, #E5B785)"/>
</g>
<path id="Vector_14" d="M77.3308 35.1836H229.62C230.046 35.1836 230.433 35.4071 230.642 35.7723L306.787 167.541C306.996 167.906 306.996 168.353 306.787 168.719L230.642 300.495C230.433 300.86 230.046 301.084 229.62 301.084H77.3308C76.9056 301.084 76.5177 300.86 76.3089 300.495L0.156646 168.719C-0.052215 168.353 -0.052215 167.906 0.156646 167.541L76.3089 35.7723C76.5177 35.4071 76.9056 35.1836 77.3308 35.1836ZM228.942 37.5386H78.0171L2.54363 168.13L78.0171 298.721H228.942L304.408 168.13L228.942 37.5386Z" fill="var(--fill-0, #E5B785)"/>
</g>
<path id="Vector_15" d="M20.5579 200.489C20.9756 200.489 21.3635 200.712 21.5798 201.078L57.0862 262.122C57.3249 262.532 57.2951 263.046 57.0041 263.426C56.7207 263.806 56.2284 263.977 55.7659 263.851L7.52646 251.159C6.89241 250.995 6.51946 250.347 6.68356 249.721L19.4092 201.368C19.5285 200.906 19.9164 200.563 20.3938 200.496C20.446 200.496 20.4982 200.489 20.5504 200.489H20.5579ZM53.6251 260.847L20.9756 204.729L9.27195 249.184L53.6176 260.847H53.6251Z" fill="var(--fill-0, #E5B785)"/>
<path id="Vector_16" d="M284.155 203.947C284.2 203.947 284.252 203.947 284.305 203.954C284.775 204.014 285.17 204.357 285.297 204.811L298.418 252.895C298.589 253.521 298.216 254.17 297.59 254.341L249.32 267.495C248.858 267.614 248.366 267.458 248.075 267.078C247.784 266.698 247.746 266.183 247.985 265.773L283.134 204.536C283.342 204.163 283.738 203.939 284.155 203.939V203.947ZM295.822 252.389L283.76 208.18L251.446 264.484L295.822 252.389Z" fill="var(--fill-0, #E5B785)"/>
<path id="Vector_17" d="M186.752 298.52C187.229 298.52 187.654 298.803 187.841 299.243C188.027 299.683 187.923 300.189 187.595 300.525L152.476 335.917C152.014 336.379 151.268 336.386 150.805 335.917L115.269 300.733C114.926 300.398 114.829 299.891 115.008 299.452C115.187 299.012 115.62 298.721 116.097 298.721L186.759 298.513L186.752 298.52ZM151.618 333.428L183.91 300.89L118.946 301.084L151.618 333.435V333.428Z" fill="var(--fill-0, #E5B785)"/>
<path id="Vector_18" d="M155.325 6.56603e-06C155.624 6.56603e-06 155.93 0.111811 156.153 0.342841L191.69 35.5264C192.033 35.8617 192.13 36.3685 191.951 36.8082C191.772 37.2479 191.339 37.5386 190.862 37.5386L120.2 37.7473C119.722 37.7473 119.297 37.464 119.11 37.0243C118.924 36.5846 119.028 36.0779 119.357 35.7425L154.475 0.350255C154.706 0.119226 155.012 6.56603e-06 155.318 6.56603e-06H155.325ZM188.005 35.191L155.333 2.83943L123.042 35.3773L188.005 35.1836V35.191Z" fill="var(--fill-0, #E5B785)"/>
<path id="Vector_19" d="M57.9366 68.6754C58.3021 68.6754 58.6452 68.8394 58.869 69.1375C59.1599 69.5175 59.1972 70.0318 58.951 70.4417L23.6386 131.582C23.3999 131.992 22.93 132.223 22.46 132.164C21.9826 132.104 21.5947 131.761 21.4754 131.299L8.59314 82.9918C8.42158 82.3583 8.802 81.7174 9.42858 81.546L57.6233 68.7127C57.7277 68.6829 57.8247 68.6754 57.9291 68.6754H57.9366ZM23.0269 127.938L55.4974 71.7235L11.189 83.5209L23.0269 127.938Z" fill="var(--fill-0, #E5B785)"/>
<path id="Vector_20" d="M250.879 72.3644C250.984 72.3644 251.088 72.3793 251.193 72.4091L299.469 85.5629C299.768 85.6449 300.029 85.8461 300.186 86.1144C300.342 86.3827 300.379 86.7106 300.297 87.0087L287.169 135.093C287.042 135.555 286.654 135.89 286.177 135.95C285.685 136.002 285.245 135.778 285.006 135.368L249.857 74.1306C249.619 73.7133 249.656 73.1991 249.947 72.8265C250.171 72.5358 250.521 72.3644 250.879 72.3644ZM297.702 87.5229L253.319 75.4274L285.632 131.724L297.702 87.5155V87.5229Z" fill="var(--fill-0, #E5B785)"/>
</g>
</svg>
