<svg preserveAspectRatio="none" width="100%" height="100%" overflow="visible" style="display: block;" viewBox="0 0 306.944 336.271" fill="none" xmlns="http://www.w3.org/2000/svg">
<g id="Group">
<g id="Group_2">
<g id="Group_3">
<g id="Group_4">
<path id="Vector" d="M167.275 218.412C167.462 218.412 167.656 218.457 167.835 218.554L190.981 231.022C191.384 231.238 191.623 231.67 191.6 232.125L187.953 299.772C187.923 300.294 187.557 300.733 187.05 300.853C186.543 300.972 186.013 300.748 185.752 300.294L152.461 242.536C152.245 242.164 152.252 241.702 152.476 241.329L166.268 218.964C166.492 218.606 166.88 218.405 167.275 218.405V218.412ZM189.198 232.744L167.693 221.155L154.848 241.97L185.804 295.673L189.198 232.744Z" fill="var(--fill-0, #E5B785)"/>
<path id="Vector_2" d="M217.454 203.865C217.894 203.865 218.305 204.111 218.506 204.513L249.201 264.924C249.44 265.393 249.343 265.952 248.962 266.317C248.582 266.675 248.015 266.742 247.56 266.481L189.832 233.086C189.459 232.87 189.236 232.468 189.243 232.036L189.981 205.78C189.996 205.154 190.504 204.655 191.13 204.633L217.424 203.872H217.462L217.454 203.865ZM245.292 262.442L216.738 206.25L192.309 206.958L191.615 231.395L245.285 262.45L245.292 262.442Z" fill="var(--fill-0, #E5B785)"/>
<path id="Vector_3" d="M227.353 166.96C227.577 166.96 227.8 167.019 227.994 167.154L284.804 204.133C285.244 204.416 285.438 204.96 285.289 205.46C285.14 205.959 284.678 206.302 284.155 206.302L217.439 206.22C217.007 206.22 216.604 205.981 216.402 205.601L203.908 182.484C203.61 181.932 203.796 181.246 204.326 180.919L226.719 167.139C226.913 167.019 227.121 166.967 227.338 166.967L227.353 166.96ZM280.187 203.939L227.338 169.538L206.526 182.349L218.155 203.872L280.187 203.947V203.939Z" fill="var(--fill-0, #E5B785)"/>
<path id="Vector_4" d="M217.454 130.055C217.454 130.055 217.499 130.055 217.514 130.055L285.222 133.699C285.744 133.729 286.184 134.094 286.304 134.601C286.423 135.108 286.199 135.637 285.744 135.898L227.935 169.151C227.562 169.367 227.092 169.36 226.726 169.136L204.333 155.356C203.804 155.028 203.617 154.343 203.916 153.791L216.41 130.673C216.619 130.293 217.014 130.055 217.447 130.055H217.454ZM281.12 135.838L218.133 132.447L206.526 153.933L227.375 166.766L281.127 135.845L281.12 135.838Z" fill="var(--fill-0, #E5B785)"/>
<path id="Vector_5" d="M250.872 72.3719C251.193 72.3719 251.499 72.4986 251.73 72.737C252.088 73.1171 252.155 73.6835 251.894 74.1381L218.461 131.821C218.245 132.194 217.797 132.402 217.409 132.41L191.13 131.657C190.504 131.642 190.004 131.135 189.981 130.509L189.243 104.246C189.228 103.792 189.482 103.367 189.884 103.158L250.342 72.4911C250.514 72.4017 250.693 72.3644 250.879 72.3644L250.872 72.3719ZM216.775 130.032L247.858 76.4037L191.623 104.932L192.309 129.332L216.775 130.032Z" fill="var(--fill-0, #E5B785)"/>
<path id="Vector_6" d="M190.489 36.3834C190.601 36.3834 190.712 36.3983 190.824 36.4356C191.324 36.5847 191.667 37.0467 191.667 37.5684L191.585 104.224C191.585 104.656 191.347 105.059 190.966 105.26L167.82 117.736C167.268 118.026 166.582 117.847 166.253 117.318L152.469 94.9531C152.23 94.5656 152.237 94.0737 152.484 93.6937L189.497 36.9349C189.72 36.5921 190.093 36.3983 190.489 36.3983V36.3834ZM189.228 103.516L189.31 41.5406L154.878 94.342L167.686 115.127L189.228 103.516Z" fill="var(--fill-0, #E5B785)"/>
<path id="Vector_7" d="M120.185 35.3848C120.602 35.3848 120.998 35.6084 121.207 35.9735L154.49 93.7384C154.706 94.111 154.699 94.5805 154.475 94.9457L140.683 117.311C140.355 117.84 139.668 118.026 139.116 117.728L115.985 105.245C115.582 105.029 115.344 104.597 115.366 104.142L119.014 36.4952C119.043 35.9735 119.409 35.5338 119.916 35.4146C120.006 35.3922 120.103 35.3848 120.192 35.3848H120.185ZM152.088 94.3122L121.147 40.609L117.753 103.539L139.251 115.135L152.088 94.3197V94.3122Z" fill="var(--fill-0, #E5B785)"/>
<path id="Vector_8" d="M58.8018 69.6442C59.0032 69.6442 59.2121 69.6964 59.3911 69.8007L117.126 103.196C117.499 103.412 117.723 103.814 117.716 104.254L116.955 130.517C116.94 131.143 116.433 131.642 115.806 131.664L89.5268 132.41C89.0345 132.41 88.6466 132.171 88.4377 131.761L57.7427 71.3583C57.504 70.8888 57.6009 70.3299 57.9813 69.9647C58.2051 69.756 58.496 69.6442 58.7944 69.6442H58.8018ZM115.336 104.887L61.6588 73.84L90.213 130.032L114.627 129.339L115.336 104.895V104.887Z" fill="var(--fill-0, #E5B785)"/>
<path id="Vector_9" d="M22.7808 129.98L89.5044 130.062C89.937 130.062 90.3324 130.301 90.5412 130.681L103.036 153.806C103.334 154.358 103.147 155.043 102.61 155.371L80.2101 169.143C79.8222 169.382 79.3298 169.374 78.9494 169.129L22.1392 132.149C21.6991 131.866 21.5052 131.322 21.6469 130.822C21.7961 130.323 22.2586 129.98 22.7808 129.98ZM88.7958 132.417L26.764 132.343L79.6133 166.744L100.425 153.94L88.7958 132.417Z" fill="var(--fill-0, #E5B785)"/>
<path id="Vector_10" d="M79.5984 166.96C79.8147 166.96 80.0236 167.019 80.2176 167.131L102.61 180.919C103.14 181.246 103.327 181.932 103.028 182.484L90.5263 205.601C90.31 206.004 89.9445 206.25 89.4223 206.22L21.7215 202.568C21.1994 202.538 20.7593 202.173 20.64 201.666C20.5206 201.16 20.7444 200.631 21.1994 200.37L79.0092 167.116C79.1882 167.012 79.397 166.96 79.5984 166.96ZM100.425 182.349L79.576 169.516L25.8241 200.437L88.8033 203.828L100.417 182.349H100.425Z" fill="var(--fill-0, #E5B785)"/>
<path id="Vector_11" d="M89.4969 203.865H89.5343L115.813 204.618C116.44 204.633 116.94 205.139 116.962 205.765L117.708 232.028C117.723 232.483 117.469 232.908 117.059 233.116L56.6163 263.776C56.1463 264.015 55.5869 263.91 55.2214 263.538C54.8633 263.158 54.7961 262.591 55.0572 262.137L88.475 204.454C88.6839 204.088 89.0792 203.865 89.4969 203.865ZM114.627 206.95L90.1608 206.25L59.0927 259.878L115.321 231.357L114.627 206.958V206.95Z" fill="var(--fill-0, #E5B785)"/>
<path id="Vector_12" d="M139.676 218.405C140.071 218.405 140.459 218.606 140.683 218.964L154.468 241.336C154.706 241.724 154.699 242.216 154.453 242.596L117.447 299.355C117.164 299.794 116.619 299.996 116.119 299.839C115.62 299.69 115.276 299.228 115.276 298.706L115.358 232.058C115.358 231.626 115.597 231.223 115.978 231.022L139.116 218.546C139.295 218.45 139.489 218.405 139.676 218.405ZM152.066 241.933L139.258 221.147L117.716 232.766L117.641 294.734L152.066 241.94V241.933Z" fill="var(--fill-0, #E5B785)"/>
</g>
<path id="Vector_13" d="M153.476 93.1496C153.886 93.1496 154.266 93.3583 154.483 93.7086L167.693 115.127L189.855 103.181C190.213 102.987 190.653 102.994 191.003 103.196C191.361 103.397 191.578 103.777 191.593 104.187L192.316 129.332L217.484 130.055C217.894 130.07 218.267 130.293 218.469 130.643C218.67 131.001 218.678 131.433 218.484 131.791L206.534 153.933L227.972 167.131C228.322 167.347 228.531 167.727 228.531 168.137C228.531 168.547 228.322 168.927 227.972 169.143L206.534 182.342L218.484 204.491C218.678 204.849 218.67 205.288 218.469 205.639C218.267 205.996 217.887 206.212 217.484 206.227L192.316 206.958L191.593 232.103C191.578 232.513 191.354 232.885 191.003 233.094C190.653 233.295 190.213 233.303 189.855 233.109L167.693 221.162L154.483 242.581C154.05 243.282 152.901 243.282 152.476 242.581L139.258 221.162L117.096 233.109C116.738 233.303 116.298 233.295 115.948 233.094C115.59 232.885 115.366 232.513 115.358 232.11L114.635 206.965L89.4671 206.235C89.0568 206.22 88.6839 205.996 88.4825 205.646C88.2811 205.288 88.2736 204.856 88.4676 204.498L100.425 182.349L78.9868 169.151C78.6362 168.935 78.4273 168.555 78.4273 168.145C78.4273 167.735 78.6362 167.355 78.9868 167.139L100.425 153.94L88.4676 131.799C88.2736 131.441 88.2811 131.001 88.4825 130.651C88.6839 130.293 89.0643 130.077 89.4671 130.062L114.635 129.339L115.358 104.194C115.373 103.784 115.597 103.412 115.948 103.211C116.306 103.002 116.738 103.002 117.096 103.196L139.258 115.142L152.476 93.7235C152.692 93.3732 153.073 93.1645 153.483 93.1645L153.476 93.1496ZM167.275 117.87C166.88 117.87 166.492 117.669 166.268 117.311L153.476 96.5778L140.683 117.311C140.355 117.84 139.668 118.026 139.116 117.728L117.663 106.162L116.962 130.509C116.947 131.135 116.44 131.635 115.813 131.657L91.4438 132.358L103.021 153.799C103.319 154.35 103.133 155.036 102.603 155.364L81.8511 168.145L102.603 180.918C103.133 181.246 103.319 181.932 103.021 182.484L91.4438 203.925L115.813 204.633C116.44 204.647 116.94 205.154 116.962 205.78L117.663 230.12L139.116 218.554C139.668 218.256 140.355 218.442 140.683 218.971L153.476 239.704L166.268 218.971C166.597 218.442 167.283 218.256 167.835 218.554L189.295 230.12L189.996 205.78C190.011 205.154 190.519 204.655 191.145 204.633L215.507 203.925L203.93 182.484C203.632 181.932 203.819 181.246 204.348 180.918L225.1 168.145L204.348 155.364C203.819 155.036 203.632 154.35 203.93 153.799L215.5 132.358L191.138 131.657C190.511 131.642 190.011 131.135 189.989 130.509L189.288 106.162L167.827 117.728C167.648 117.825 167.454 117.87 167.268 117.87H167.275Z" fill="var(--fill-0, #E5B785)"/>
</g>
<path id="Vector_14" d="M77.3309 35.191H229.62C230.046 35.191 230.433 35.4146 230.642 35.7798L306.787 167.549C306.996 167.914 306.996 168.361 306.787 168.726L230.642 300.502C230.433 300.867 230.046 301.091 229.62 301.091H77.3309C76.9057 301.091 76.5178 300.867 76.3089 300.502L0.156646 168.726C-0.0522153 168.361 -0.0522153 167.914 0.156646 167.549L76.3089 35.7798C76.5178 35.4146 76.9057 35.191 77.3309 35.191ZM228.942 37.546H78.0171L2.54368 168.137L78.0171 298.729H228.942L304.408 168.137L228.942 37.546Z" fill="var(--fill-0, #E5B785)"/>
</g>
<path id="Vector_15" d="M20.5578 200.496C20.9755 200.496 21.3634 200.72 21.5797 201.085L57.0936 262.129C57.3323 262.539 57.3024 263.061 57.0115 263.433C56.7281 263.813 56.2358 263.985 55.7733 263.858L7.53385 251.166C6.89981 251.002 6.52684 250.354 6.69095 249.728L19.4166 201.376C19.5359 200.914 19.9238 200.571 20.4012 200.504C20.4534 200.504 20.5056 200.496 20.5578 200.496ZM53.6176 260.855L20.9681 204.737L9.26447 249.191L53.6101 260.855H53.6176Z" fill="var(--fill-0, #E5B785)"/>
<path id="Vector_16" d="M284.155 203.954C284.208 203.954 284.252 203.954 284.305 203.962C284.782 204.021 285.17 204.364 285.297 204.819L298.418 252.903C298.589 253.529 298.216 254.177 297.59 254.349L249.32 267.502C248.865 267.629 248.373 267.465 248.075 267.085C247.784 266.705 247.746 266.191 247.985 265.781L283.133 204.543C283.342 204.17 283.738 203.947 284.155 203.947V203.954ZM295.822 252.396L283.76 208.187L251.446 264.492L295.822 252.396Z" fill="var(--fill-0, #E5B785)"/>
<path id="Vector_17" d="M186.744 298.527C187.222 298.527 187.647 298.811 187.833 299.25C188.02 299.69 187.915 300.197 187.58 300.532L152.461 335.924C151.999 336.386 151.26 336.386 150.79 335.924L115.254 300.741C114.911 300.405 114.814 299.899 114.993 299.459C115.172 299.019 115.605 298.729 116.082 298.729L186.744 298.52V298.527ZM151.618 333.428L183.91 300.89L118.954 301.084L151.626 333.435L151.618 333.428Z" fill="var(--fill-0, #E5B785)"/>
<path id="Vector_18" d="M155.325 0C155.624 0 155.922 0.111805 156.153 0.342834L191.69 35.5264C192.025 35.8618 192.13 36.3685 191.951 36.8082C191.772 37.2479 191.339 37.5386 190.862 37.5386L120.2 37.7473C119.722 37.7473 119.297 37.4641 119.11 37.0244C118.924 36.5847 119.028 36.0779 119.364 35.7425L154.483 0.350271C154.714 0.119242 155.02 0 155.318 0H155.325ZM188.005 35.1985L155.333 2.84689L123.042 35.3848L188.005 35.191V35.1985Z" fill="var(--fill-0, #E5B785)"/>
<path id="Vector_19" d="M57.9366 68.6828C58.3021 68.6828 58.6452 68.8468 58.869 69.1449C59.1599 69.525 59.1972 70.0392 58.951 70.4491L23.6311 131.59C23.3924 132 22.9299 132.238 22.4525 132.171C21.9751 132.112 21.5873 131.769 21.4679 131.307L8.59313 82.9992C8.42156 82.3658 8.80199 81.7248 9.42857 81.5534L57.6232 68.7201C57.7277 68.6903 57.8247 68.6828 57.9291 68.6828H57.9366ZM23.0269 127.946L55.4974 71.7309L11.189 83.5284L23.0269 127.946Z" fill="var(--fill-0, #E5B785)"/>
<path id="Vector_20" d="M250.872 72.3719C250.976 72.3719 251.081 72.3868 251.185 72.4166L299.462 85.5704C299.76 85.6523 300.021 85.8535 300.178 86.1218C300.335 86.3901 300.372 86.7181 300.29 87.0162L287.162 135.1C287.035 135.562 286.647 135.898 286.169 135.957C285.692 136.017 285.237 135.786 284.998 135.376L249.85 74.1381C249.611 73.7282 249.649 73.2066 249.939 72.8339C250.163 72.5433 250.514 72.3793 250.872 72.3793V72.3719ZM297.702 87.5304L253.319 75.4349L285.632 131.732L297.709 87.5229L297.702 87.5304Z" fill="var(--fill-0, #E5B785)"/>
</g>
</svg>
