<svg preserveAspectRatio="none" width="100%" height="100%" overflow="visible" style="display: block;" viewBox="0 0 306.944 336.264" fill="none" xmlns="http://www.w3.org/2000/svg">
<g id="Group">
<g id="Group_2">
<g id="Group_3">
<g id="Group_4">
<path id="Vector" d="M167.275 218.405C167.462 218.405 167.656 218.45 167.835 218.546L190.981 231.015C191.384 231.231 191.623 231.663 191.6 232.118L187.952 299.765C187.923 300.286 187.557 300.726 187.05 300.845C186.543 300.964 186.013 300.741 185.752 300.286L152.461 242.529C152.245 242.156 152.252 241.687 152.476 241.322L166.268 218.956C166.492 218.599 166.88 218.397 167.275 218.397V218.405ZM189.198 232.736L167.693 221.147L154.848 241.962L185.797 295.666L189.191 232.736H189.198Z" fill="var(--fill-0, #E5B785)"/>
<path id="Vector_2" d="M217.454 203.857C217.894 203.857 218.305 204.103 218.506 204.506L249.201 264.916C249.44 265.386 249.343 265.945 248.962 266.31C248.582 266.668 248.015 266.735 247.56 266.474L189.832 233.079C189.459 232.863 189.228 232.46 189.243 232.028L189.989 205.773C190.004 205.147 190.511 204.647 191.138 204.625L217.432 203.865H217.469L217.454 203.857ZM245.292 262.435L216.738 206.242L192.309 206.95L191.615 231.387L245.285 262.442L245.292 262.435Z" fill="var(--fill-0, #E5B785)"/>
<path id="Vector_3" d="M227.353 166.952C227.577 166.952 227.8 167.012 227.994 167.146L284.804 204.126C285.245 204.409 285.438 204.953 285.289 205.452C285.14 205.952 284.678 206.294 284.156 206.294L217.439 206.212C217.007 206.212 216.604 205.974 216.403 205.594L203.908 182.476C203.61 181.925 203.796 181.239 204.326 180.911L226.719 167.131C226.913 167.012 227.122 166.952 227.338 166.952H227.353ZM280.187 203.932L227.338 169.531L206.526 182.342L218.155 203.865L280.187 203.939V203.932Z" fill="var(--fill-0, #E5B785)"/>
<path id="Vector_4" d="M217.454 130.047C217.454 130.047 217.499 130.047 217.514 130.047L285.222 133.692C285.744 133.721 286.184 134.087 286.304 134.593C286.423 135.1 286.199 135.629 285.744 135.89L227.935 169.143C227.562 169.36 227.092 169.352 226.726 169.129L204.333 155.341C203.804 155.013 203.617 154.328 203.916 153.776L216.41 130.658C216.619 130.278 217.014 130.04 217.447 130.04L217.454 130.047ZM281.127 135.838L218.141 132.447L206.534 153.933L227.383 166.766L281.135 135.845L281.127 135.838Z" fill="var(--fill-0, #E5B785)"/>
<path id="Vector_5" d="M250.879 72.3644C251.193 72.3644 251.506 72.4911 251.737 72.7296C252.095 73.1097 252.162 73.676 251.901 74.1306L218.469 131.814C218.252 132.186 217.82 132.41 217.417 132.402L191.138 131.65C190.511 131.635 190.011 131.128 189.989 130.502L189.243 104.239C189.228 103.784 189.482 103.36 189.892 103.151L250.35 72.4837C250.521 72.3942 250.7 72.357 250.887 72.357L250.879 72.3644ZM216.775 130.025L247.858 76.3963L191.623 104.925L192.309 129.324L216.775 130.025Z" fill="var(--fill-0, #E5B785)"/>
<path id="Vector_6" d="M190.489 36.3834C190.601 36.3834 190.712 36.3983 190.824 36.4356C191.324 36.5847 191.667 37.0467 191.667 37.5684L191.585 104.224C191.585 104.656 191.346 105.051 190.966 105.26L167.82 117.736C167.268 118.034 166.582 117.847 166.253 117.318L152.469 94.9531C152.23 94.5656 152.237 94.0737 152.483 93.6936L189.497 36.9349C189.72 36.5921 190.093 36.3984 190.489 36.3984V36.3834ZM189.228 103.509L189.31 41.5331L154.878 94.3346L167.686 115.12L189.228 103.509Z" fill="var(--fill-0, #E5B785)"/>
<path id="Vector_7" d="M120.185 35.3848C120.602 35.3848 120.99 35.6009 121.207 35.9736L154.49 93.7383C154.706 94.111 154.699 94.5731 154.475 94.9457L140.683 117.311C140.355 117.84 139.668 118.026 139.116 117.728L115.985 105.245C115.582 105.029 115.343 104.597 115.366 104.142L119.013 36.4952C119.043 35.9735 119.409 35.5338 119.916 35.4146C120.006 35.3923 120.103 35.3848 120.192 35.3848H120.185ZM152.088 94.3047L121.147 40.6016L117.753 103.531L139.251 115.127L152.088 94.3122V94.3047Z" fill="var(--fill-0, #E5B785)"/>
<path id="Vector_8" d="M58.8018 69.6442C59.0032 69.6442 59.2121 69.6964 59.3911 69.8007L117.126 103.196C117.499 103.412 117.723 103.814 117.716 104.246L116.962 130.509C116.947 131.135 116.44 131.635 115.813 131.657L89.5342 132.402C89.0568 132.372 88.654 132.164 88.4451 131.754L57.75 71.3509C57.5113 70.8813 57.6083 70.3224 57.9888 69.9572C58.2125 69.7486 58.5034 69.6368 58.8018 69.6368V69.6442ZM115.336 104.88L61.6512 73.8326L90.2055 130.025L114.627 129.332L115.329 104.887L115.336 104.88Z" fill="var(--fill-0, #E5B785)"/>
<path id="Vector_9" d="M22.7807 129.973L89.4969 130.055C89.9296 130.055 90.3324 130.293 90.5338 130.673L103.028 153.799C103.327 154.35 103.14 155.036 102.61 155.364L80.21 169.136C79.8221 169.374 79.3299 169.367 78.9494 169.121L22.1392 132.141C21.6991 131.858 21.5051 131.314 21.6543 130.815C21.8035 130.316 22.266 129.973 22.7882 129.973H22.7807ZM88.7957 132.41L26.764 132.335L79.6133 166.736L100.425 153.933L88.7957 132.41Z" fill="var(--fill-0, #E5B785)"/>
<path id="Vector_10" d="M79.5984 166.952C79.8147 166.952 80.031 167.012 80.2175 167.131L102.61 180.918C103.14 181.246 103.327 181.932 103.028 182.483L90.5263 205.601C90.31 206.004 89.8848 206.25 89.4224 206.22L21.7215 202.568C21.1994 202.538 20.7592 202.173 20.6399 201.666C20.5205 201.16 20.7443 200.63 21.1993 200.37L79.0091 167.116C79.1881 167.012 79.397 166.96 79.5984 166.96V166.952ZM100.425 182.342L79.576 169.509L25.8242 200.429L88.8032 203.82L100.417 182.342H100.425Z" fill="var(--fill-0, #E5B785)"/>
<path id="Vector_11" d="M89.497 203.857H89.5342L115.813 204.61C116.44 204.625 116.94 205.132 116.962 205.758L117.708 232.021C117.723 232.475 117.469 232.9 117.067 233.109L56.6162 263.769C56.1463 264.007 55.5868 263.91 55.2213 263.53C54.8633 263.15 54.7962 262.584 55.0573 262.129L88.4751 204.454C88.6839 204.089 89.0793 203.865 89.497 203.865V203.857ZM114.635 206.943L90.1683 206.242L59.0928 259.871L115.321 231.35L114.627 206.95L114.635 206.943Z" fill="var(--fill-0, #E5B785)"/>
<path id="Vector_12" d="M139.676 218.397C140.071 218.397 140.459 218.599 140.683 218.956L154.468 241.329C154.706 241.717 154.699 242.208 154.453 242.588L117.447 299.347C117.164 299.787 116.626 299.981 116.119 299.832C115.619 299.683 115.276 299.22 115.276 298.699L115.358 232.051C115.358 231.618 115.597 231.216 115.978 231.015L139.116 218.539C139.295 218.442 139.489 218.397 139.676 218.397ZM152.066 241.933L139.258 221.147L117.716 232.766L117.641 294.734L152.066 241.94V241.933Z" fill="var(--fill-0, #E5B785)"/>
</g>
<path id="Vector_13" d="M153.476 93.1422C153.886 93.1422 154.266 93.3508 154.483 93.7011L167.693 115.12L189.855 103.173C190.213 102.98 190.653 102.987 191.003 103.188C191.361 103.389 191.578 103.77 191.593 104.179L192.316 129.324L217.484 130.047C217.894 130.062 218.267 130.286 218.469 130.636C218.67 130.994 218.678 131.426 218.484 131.784L206.534 153.925L227.972 167.124C228.322 167.34 228.531 167.72 228.531 168.13C228.531 168.54 228.322 168.92 227.972 169.136L206.534 182.334L218.484 204.483C218.678 204.841 218.67 205.281 218.469 205.631C218.267 205.989 217.887 206.205 217.484 206.22L192.316 206.95L191.593 232.095C191.578 232.505 191.354 232.878 191.003 233.086C190.645 233.288 190.213 233.295 189.855 233.101L167.693 221.155L154.483 242.574C154.05 243.274 152.901 243.274 152.476 242.574L139.258 221.155L117.096 233.101C116.738 233.295 116.298 233.288 115.948 233.086C115.59 232.885 115.373 232.505 115.358 232.095L114.635 206.95L89.4671 206.22C89.0568 206.205 88.6839 205.981 88.4825 205.631C88.2811 205.273 88.2736 204.841 88.4676 204.483L100.417 182.334L78.9867 169.136C78.6361 168.92 78.4273 168.54 78.4273 168.13C78.4273 167.72 78.6361 167.34 78.9867 167.124L100.417 153.925L88.4676 131.784C88.2736 131.426 88.2811 130.986 88.4825 130.636C88.6839 130.278 89.0643 130.062 89.4746 130.047L114.642 129.324L115.366 104.179C115.381 103.77 115.605 103.397 115.955 103.188C116.306 102.987 116.746 102.98 117.104 103.173L139.266 115.12L152.483 93.7011C152.7 93.3508 153.08 93.1422 153.49 93.1422H153.476ZM167.275 117.862C166.88 117.862 166.492 117.661 166.268 117.303L153.476 96.5704L140.683 117.303C140.355 117.833 139.668 118.019 139.116 117.721L117.663 106.154L116.962 130.502C116.947 131.128 116.44 131.627 115.813 131.65L91.4438 132.35L103.013 153.791C103.312 154.343 103.125 155.028 102.595 155.356L81.8437 168.137L102.595 180.911C103.125 181.239 103.312 181.925 103.013 182.476L91.4364 203.917L115.806 204.625C116.433 204.64 116.932 205.147 116.955 205.773L117.656 230.113L139.109 218.546C139.653 218.248 140.347 218.435 140.675 218.964L153.468 239.697L166.261 218.964C166.589 218.435 167.275 218.248 167.827 218.546L189.288 230.113L189.989 205.773C190.004 205.147 190.511 204.647 191.138 204.625L215.5 203.917L203.923 182.476C203.625 181.925 203.811 181.239 204.341 180.911L225.092 168.137L204.341 155.356C203.811 155.028 203.625 154.343 203.923 153.791L215.492 132.35L191.13 131.65C190.504 131.635 190.004 131.128 189.982 130.502L189.28 106.154L167.82 117.721C167.641 117.818 167.447 117.862 167.26 117.862H167.275Z" fill="var(--fill-0, #E5B785)"/>
</g>
<path id="Vector_14" d="M77.3308 35.1836H229.62C230.046 35.1836 230.433 35.4071 230.642 35.7723L306.787 167.541C306.996 167.906 306.996 168.353 306.787 168.719L230.642 300.495C230.433 300.86 230.038 301.084 229.62 301.084H77.3308C76.9056 301.084 76.5177 300.86 76.3089 300.495L0.156657 168.719C-0.0522044 168.353 -0.0522044 167.906 0.156657 167.541L76.3089 35.7723C76.5177 35.4071 76.9131 35.1836 77.3308 35.1836ZM228.942 37.5386H78.0096L2.5436 168.13L78.0096 298.721H228.942L304.408 168.13L228.942 37.5386Z" fill="var(--fill-0, #E5B785)"/>
</g>
<path id="Vector_15" d="M20.5654 200.489C20.9831 200.489 21.371 200.712 21.5873 201.078L57.0936 262.122C57.3323 262.532 57.3025 263.046 57.0116 263.426C56.7207 263.806 56.2358 263.97 55.7733 263.851L7.53394 251.159C6.90736 250.995 6.52693 250.347 6.69103 249.721L19.4166 201.368C19.5359 200.906 19.9239 200.563 20.4013 200.496C20.4535 200.496 20.5057 200.489 20.5579 200.489H20.5654ZM53.625 260.847L20.9831 204.729L9.27939 249.184L53.625 260.847Z" fill="var(--fill-0, #E5B785)"/>
<path id="Vector_16" d="M284.156 203.947C284.208 203.947 284.252 203.947 284.305 203.954C284.782 204.014 285.17 204.357 285.297 204.811L298.418 252.895C298.589 253.521 298.216 254.17 297.59 254.341L249.32 267.495C248.865 267.614 248.373 267.458 248.075 267.078C247.784 266.698 247.746 266.183 247.985 265.773L283.134 204.536C283.342 204.163 283.738 203.939 284.156 203.939V203.947ZM295.829 252.389L283.768 208.18L251.454 264.484L295.829 252.389Z" fill="var(--fill-0, #E5B785)"/>
<path id="Vector_17" d="M186.752 298.52C187.229 298.52 187.654 298.803 187.841 299.243C188.027 299.683 187.923 300.189 187.587 300.525L152.469 335.917C152.014 336.379 151.26 336.379 150.798 335.917L115.261 300.733C114.926 300.398 114.821 299.891 115 299.452C115.179 299.012 115.612 298.721 116.089 298.721L186.752 298.513V298.52ZM151.618 333.428L183.91 300.89L118.946 301.084L151.618 333.435V333.428Z" fill="var(--fill-0, #E5B785)"/>
<path id="Vector_18" d="M155.333 6.56603e-06C155.631 6.56603e-06 155.937 0.111811 156.161 0.342841L191.697 35.5264C192.033 35.8617 192.137 36.3685 191.958 36.8082C191.779 37.2479 191.347 37.5386 190.869 37.5386L120.207 37.7473C119.73 37.7473 119.304 37.464 119.118 37.0243C118.931 36.5846 119.036 36.0779 119.372 35.7425L154.498 0.350255C154.729 0.119226 155.035 6.56603e-06 155.333 6.56603e-06ZM188.005 35.191L155.333 2.83943L123.042 35.3773L188.005 35.1836V35.191Z" fill="var(--fill-0, #E5B785)"/>
<path id="Vector_19" d="M57.944 68.6754C58.3095 68.6754 58.6526 68.8394 58.8838 69.1375C59.1747 69.5175 59.2046 70.0318 58.9659 70.4417L23.6535 131.582C23.4148 131.992 22.9598 132.231 22.4749 132.164C21.9975 132.104 21.6096 131.761 21.4902 131.299L8.60798 82.9918C8.43642 82.3583 8.81684 81.7174 9.44342 81.546L57.6381 68.7127C57.7425 68.6829 57.8395 68.6754 57.944 68.6754ZM23.0344 127.938L55.4973 71.7235L11.189 83.5209L23.0344 127.938Z" fill="var(--fill-0, #E5B785)"/>
<path id="Vector_20" d="M250.879 72.3644C250.984 72.3644 251.088 72.3793 251.193 72.4091L299.469 85.5629C299.768 85.6449 300.029 85.8461 300.186 86.1144C300.342 86.3827 300.38 86.7106 300.297 87.0087L287.169 135.093C287.042 135.555 286.654 135.89 286.177 135.95C285.7 136.009 285.245 135.778 285.006 135.368L249.857 74.1306C249.619 73.7133 249.656 73.1991 249.947 72.8265C250.171 72.5358 250.521 72.3644 250.879 72.3644ZM297.709 87.5229L253.326 75.4274L285.64 131.724L297.717 87.5155L297.709 87.5229Z" fill="var(--fill-0, #E5B785)"/>
</g>
</svg>
