<svg preserveAspectRatio="none" width="100%" height="100%" overflow="visible" style="display: block;" viewBox="0 0 306.944 336.266" fill="none" xmlns="http://www.w3.org/2000/svg">
<g id="Group">
<g id="Group_2">
<g id="Group_3">
<g id="Group_4">
<path id="Vector" d="M167.268 218.405C167.462 218.405 167.648 218.45 167.827 218.546L190.974 231.015C191.376 231.231 191.615 231.656 191.593 232.118L187.945 299.765C187.915 300.286 187.55 300.726 187.043 300.845C186.52 300.972 186.006 300.741 185.745 300.286L152.454 242.529C152.237 242.156 152.245 241.694 152.469 241.322L166.268 218.956C166.492 218.599 166.88 218.397 167.275 218.397L167.268 218.405ZM189.198 232.744L167.693 221.155L154.848 241.97L185.797 295.673L189.191 232.744H189.198Z" fill="var(--fill-0, #E5B785)"/>
<path id="Vector_2" d="M217.447 203.865C217.887 203.865 218.297 204.111 218.498 204.506L249.194 264.916C249.432 265.386 249.335 265.945 248.955 266.31C248.574 266.668 248.008 266.735 247.553 266.474L189.825 233.079C189.452 232.863 189.228 232.46 189.236 232.028L189.982 205.773C189.996 205.147 190.504 204.647 191.13 204.625L217.424 203.865H217.462H217.447ZM245.285 262.442L216.731 206.25L192.301 206.958L191.608 231.395L245.277 262.45L245.285 262.442Z" fill="var(--fill-0, #E5B785)"/>
<path id="Vector_3" d="M227.353 166.96C227.576 166.96 227.8 167.027 228.002 167.154L284.812 204.141C285.245 204.424 285.446 204.968 285.297 205.467C285.148 205.967 284.685 206.309 284.163 206.309L217.447 206.227C217.014 206.227 216.619 205.989 216.41 205.609L203.916 182.491C203.617 181.939 203.804 181.254 204.333 180.926L226.726 167.146C226.92 167.027 227.129 166.967 227.345 166.967L227.353 166.96ZM280.18 203.939L227.33 169.538L206.526 182.349L218.155 203.872L280.187 203.947L280.18 203.939Z" fill="var(--fill-0, #E5B785)"/>
<path id="Vector_4" d="M217.447 130.047C217.447 130.047 217.492 130.047 217.514 130.047L285.222 133.692C285.744 133.721 286.184 134.087 286.304 134.593C286.423 135.1 286.199 135.629 285.744 135.89L227.935 169.143C227.562 169.36 227.099 169.352 226.726 169.129L204.333 155.349C203.804 155.021 203.617 154.335 203.916 153.784L216.41 130.666C216.619 130.286 217.022 130.047 217.447 130.047ZM281.12 135.838L218.126 132.447L206.519 153.933L227.368 166.766L281.12 135.845V135.838Z" fill="var(--fill-0, #E5B785)"/>
<path id="Vector_5" d="M250.872 72.3719C251.185 72.3719 251.499 72.4986 251.73 72.737C252.088 73.1171 252.155 73.6835 251.894 74.1381L218.461 131.821C218.245 132.194 217.842 132.417 217.402 132.41L191.123 131.657C190.496 131.642 189.996 131.135 189.974 130.509L189.228 104.246C189.213 103.792 189.467 103.367 189.877 103.158L250.335 72.4911C250.506 72.4017 250.685 72.3644 250.872 72.3644V72.3719ZM216.768 130.032L247.851 76.4037L191.615 104.932L192.301 129.332L216.768 130.032Z" fill="var(--fill-0, #E5B785)"/>
<path id="Vector_6" d="M190.489 36.3834C190.601 36.3834 190.713 36.3983 190.824 36.4356C191.324 36.5846 191.667 37.0467 191.667 37.5684L191.585 104.224C191.585 104.656 191.347 105.059 190.966 105.26L167.82 117.736C167.275 118.034 166.582 117.855 166.253 117.318L152.469 94.9531C152.23 94.5656 152.237 94.0737 152.483 93.6936L189.497 36.9349C189.72 36.5921 190.093 36.3983 190.489 36.3983V36.3834ZM189.221 103.516L189.303 41.5406L154.87 94.342L167.678 115.127L189.221 103.516Z" fill="var(--fill-0, #E5B785)"/>
<path id="Vector_7" d="M120.177 35.3848C120.595 35.3848 120.983 35.6084 121.199 35.9735L154.483 93.7384C154.699 94.111 154.691 94.573 154.468 94.9457L140.675 117.311C140.347 117.847 139.661 118.026 139.109 117.728L115.978 105.245C115.575 105.029 115.336 104.597 115.358 104.142L119.006 36.4952C119.036 35.9735 119.401 35.5338 119.909 35.4146C119.998 35.3922 120.095 35.3848 120.185 35.3848H120.177ZM152.088 94.3122L121.147 40.609L117.753 103.538L139.251 115.135L152.088 94.3197V94.3122Z" fill="var(--fill-0, #E5B785)"/>
<path id="Vector_8" d="M58.7944 69.6442C58.9958 69.6442 59.2046 69.6964 59.3837 69.8007L117.119 103.196C117.492 103.412 117.716 103.814 117.708 104.246L116.955 130.509C116.94 131.135 116.433 131.635 115.806 131.657L89.5268 132.402C89.0569 132.387 88.6466 132.164 88.4377 131.761L57.7352 71.3583C57.4965 70.8888 57.5935 70.3298 57.9739 69.9647C58.1977 69.756 58.4886 69.6442 58.7869 69.6442H58.7944ZM115.329 104.887L61.6513 73.84L90.2056 130.032L114.627 129.339L115.329 104.895V104.887Z" fill="var(--fill-0, #E5B785)"/>
<path id="Vector_9" d="M22.7733 129.973L89.4895 130.055C89.9222 130.055 90.3175 130.293 90.5263 130.673L103.021 153.799C103.319 154.35 103.133 155.036 102.596 155.364L80.1952 169.136C79.8073 169.374 79.315 169.367 78.9346 169.121L22.1244 132.141C21.6843 131.858 21.4903 131.314 21.632 130.815C21.7812 130.316 22.2437 129.973 22.7659 129.973H22.7733ZM88.7884 132.417L26.7566 132.343L79.6059 166.744L100.417 153.948L88.7884 132.425V132.417Z" fill="var(--fill-0, #E5B785)"/>
<path id="Vector_10" d="M79.591 166.96C79.8073 166.96 80.0162 167.019 80.2101 167.139L102.603 180.926C103.133 181.254 103.319 181.939 103.021 182.491L90.5189 205.609C90.3026 206.011 89.9222 206.272 89.4149 206.227L21.7141 202.576C21.1919 202.546 20.7519 202.181 20.6325 201.674C20.5132 201.167 20.737 200.638 21.192 200.377L79.0017 167.124C79.1808 167.019 79.3896 166.967 79.591 166.967V166.96ZM100.417 182.342L79.5686 169.509L25.8167 200.429L88.7958 203.828L100.41 182.349L100.417 182.342Z" fill="var(--fill-0, #E5B785)"/>
<path id="Vector_11" d="M89.497 203.865H89.5343L115.813 204.618C116.44 204.633 116.94 205.139 116.962 205.765L117.708 232.028C117.723 232.483 117.469 232.908 117.067 233.116L56.6163 263.776C56.1464 264.015 55.5869 263.918 55.2214 263.538C54.8634 263.158 54.7962 262.591 55.0573 262.137L88.475 204.461C88.6839 204.096 89.0792 203.872 89.497 203.872V203.865ZM114.627 206.943L90.1609 206.242L59.0928 259.871L115.321 231.35L114.627 206.95V206.943Z" fill="var(--fill-0, #E5B785)"/>
<path id="Vector_12" d="M139.676 218.397C140.071 218.397 140.459 218.599 140.683 218.956L154.468 241.329C154.706 241.717 154.699 242.208 154.453 242.588L117.447 299.347C117.164 299.787 116.619 299.981 116.119 299.832C115.619 299.683 115.276 299.22 115.276 298.699L115.358 232.051C115.358 231.618 115.597 231.216 115.978 231.015L139.116 218.539C139.295 218.442 139.482 218.397 139.676 218.397ZM152.066 241.933L139.258 221.147L117.716 232.759L117.641 294.727L152.066 241.933Z" fill="var(--fill-0, #E5B785)"/>
</g>
<path id="Vector_13" d="M153.476 93.1496C153.886 93.1496 154.266 93.3583 154.483 93.7085L167.693 115.127L189.855 103.181C190.213 102.987 190.645 102.994 191.003 103.196C191.361 103.404 191.585 103.777 191.593 104.187L192.316 129.332L217.484 130.055C217.894 130.07 218.267 130.293 218.469 130.643C218.67 131.001 218.678 131.433 218.484 131.791L206.526 153.933L227.964 167.131C228.315 167.347 228.524 167.727 228.524 168.137C228.524 168.547 228.315 168.927 227.964 169.143L206.526 182.342L218.484 204.491C218.678 204.849 218.67 205.288 218.469 205.639C218.267 205.996 217.887 206.212 217.484 206.227L192.316 206.958L191.593 232.103C191.578 232.513 191.354 232.885 191.003 233.094C190.645 233.303 190.213 233.303 189.855 233.109L167.693 221.162L154.483 242.581C154.057 243.282 152.901 243.282 152.476 242.581L139.258 221.162L117.096 233.109C116.738 233.303 116.298 233.295 115.948 233.094C115.59 232.893 115.366 232.513 115.358 232.103L114.635 206.958L89.4671 206.227C89.0569 206.212 88.6839 205.989 88.4825 205.639C88.2811 205.281 88.2737 204.849 88.4676 204.491L100.425 182.342L78.9868 169.143C78.6362 168.927 78.4273 168.547 78.4273 168.137C78.4273 167.727 78.6362 167.347 78.9868 167.131L100.425 153.933L88.4676 131.791C88.2737 131.433 88.2811 130.994 88.4825 130.643C88.6839 130.286 89.0643 130.07 89.4671 130.055L114.635 129.332L115.358 104.187C115.373 103.777 115.597 103.404 115.948 103.196C116.306 102.994 116.738 102.987 117.096 103.181L139.258 115.127L152.476 93.7085C152.692 93.3583 153.073 93.1496 153.483 93.1496H153.476ZM167.268 117.87C166.873 117.87 166.485 117.669 166.261 117.311L153.468 96.5778L140.675 117.311C140.347 117.847 139.661 118.026 139.109 117.728L117.656 106.162L116.955 130.509C116.94 131.135 116.433 131.635 115.806 131.657L91.4364 132.358L103.013 153.799C103.312 154.35 103.125 155.036 102.596 155.364L81.8437 168.145L102.596 180.918C103.125 181.246 103.312 181.932 103.013 182.484L91.4364 203.925L115.806 204.633C116.433 204.647 116.932 205.154 116.955 205.78L117.656 230.12L139.109 218.554C139.661 218.263 140.347 218.442 140.675 218.971L153.468 239.704L166.261 218.971C166.589 218.435 167.283 218.256 167.827 218.554L189.288 230.12L189.989 205.78C190.004 205.154 190.511 204.655 191.138 204.633L215.5 203.925L203.923 182.484C203.625 181.932 203.811 181.246 204.341 180.918L225.093 168.145L204.341 155.364C203.811 155.036 203.625 154.35 203.923 153.799L215.5 132.358L191.138 131.657C190.511 131.642 190.011 131.135 189.989 130.509L189.288 106.162L167.827 117.728C167.648 117.825 167.462 117.87 167.268 117.87Z" fill="var(--fill-0, #E5B785)"/>
</g>
<path id="Vector_14" d="M77.3308 35.191H229.62C230.046 35.191 230.433 35.4146 230.642 35.7798L306.787 167.549C306.996 167.914 306.996 168.361 306.787 168.726L230.642 300.502C230.433 300.867 230.046 301.091 229.62 301.091H77.3308C76.9056 301.091 76.5177 300.867 76.3088 300.502L0.156648 168.726C-0.0522132 168.361 -0.0522132 167.914 0.156648 167.549L76.3088 35.7798C76.5177 35.4146 76.9056 35.191 77.3308 35.191ZM228.934 37.546H78.0096L2.53617 168.137L78.0096 298.729H228.934L304.4 168.137L228.934 37.546Z" fill="var(--fill-0, #E5B785)"/>
</g>
<path id="Vector_15" d="M20.5579 200.496C20.9756 200.496 21.3635 200.72 21.5798 201.085L57.0862 262.129C57.3249 262.539 57.295 263.061 57.0041 263.433C56.7132 263.813 56.2284 263.985 55.7659 263.858L7.52648 251.166C6.89244 251.002 6.51947 250.354 6.68357 249.728L19.4092 201.376C19.5285 200.914 19.9164 200.571 20.3938 200.504C20.446 200.504 20.4982 200.496 20.5504 200.496H20.5579ZM53.6176 260.847L20.9681 204.729L9.26447 249.184L53.6176 260.847Z" fill="var(--fill-0, #E5B785)"/>
<path id="Vector_16" d="M284.155 203.954C284.2 203.954 284.252 203.954 284.305 203.962C284.775 204.021 285.17 204.364 285.297 204.819L298.418 252.903C298.589 253.529 298.216 254.177 297.59 254.349L249.32 267.502C248.858 267.629 248.366 267.465 248.075 267.085C247.784 266.705 247.746 266.191 247.985 265.781L283.134 204.543C283.342 204.17 283.738 203.947 284.155 203.947V203.954ZM295.822 252.389L283.76 208.18L251.446 264.484L295.822 252.389Z" fill="var(--fill-0, #E5B785)"/>
<path id="Vector_17" d="M186.744 298.52C187.222 298.52 187.647 298.803 187.833 299.243C188.02 299.683 187.915 300.189 187.587 300.525L152.469 335.917C152.006 336.379 151.26 336.386 150.798 335.917L115.261 300.733C114.918 300.398 114.821 299.891 115 299.452C115.179 299.012 115.612 298.721 116.089 298.721L186.752 298.512L186.744 298.52ZM151.618 333.428L183.91 300.89L118.946 301.084L151.618 333.435V333.428Z" fill="var(--fill-0, #E5B785)"/>
<path id="Vector_18" d="M155.325 0C155.624 0 155.93 0.111788 156.153 0.342818L191.69 35.5264C192.033 35.8617 192.13 36.3685 191.951 36.8082C191.772 37.2479 191.339 37.5386 190.862 37.5386L120.2 37.7472C119.722 37.7472 119.297 37.464 119.11 37.0243C118.924 36.5846 119.028 36.0779 119.357 35.7425L154.483 0.350271C154.714 0.119241 155.02 0 155.325 0ZM188.005 35.1985L155.333 2.84688L123.042 35.3848L188.005 35.191V35.1985Z" fill="var(--fill-0, #E5B785)"/>
<path id="Vector_19" d="M57.9366 68.6754C58.3021 68.6754 58.6452 68.8393 58.869 69.1374C59.1599 69.5175 59.1972 70.0317 58.9511 70.4416L23.6386 131.582C23.3999 131.992 22.93 132.231 22.46 132.164C21.9826 132.104 21.5947 131.761 21.4754 131.299L8.59318 82.9918C8.42161 82.3657 8.80203 81.7174 9.42862 81.546L57.6233 68.7126C57.7277 68.6828 57.8247 68.6754 57.9292 68.6754H57.9366ZM23.0269 127.938L55.4974 71.7235L11.189 83.5209L23.0269 127.938Z" fill="var(--fill-0, #E5B785)"/>
<path id="Vector_20" d="M250.872 72.3719C250.976 72.3719 251.081 72.3868 251.185 72.4166L299.462 85.5704C299.76 85.6523 300.021 85.8536 300.178 86.1218C300.335 86.3901 300.372 86.7181 300.29 87.0162L287.162 135.1C287.035 135.562 286.647 135.898 286.169 135.957C285.685 136.017 285.23 135.786 284.998 135.376L249.85 74.1381C249.611 73.7282 249.649 73.2066 249.94 72.8339C250.163 72.5433 250.514 72.3719 250.872 72.3719ZM297.702 87.5304L253.319 75.4349L285.632 131.732L297.702 87.5229V87.5304Z" fill="var(--fill-0, #E5B785)"/>
</g>
</svg>
