<svg preserveAspectRatio="none" width="100%" height="100%" overflow="visible" style="display: block;" viewBox="0 0 306.936 336.266" fill="none" xmlns="http://www.w3.org/2000/svg">
<g id="Group">
<g id="Group_2">
<g id="Group_3">
<g id="Group_4">
<path id="Vector" d="M167.26 218.405C167.454 218.405 167.641 218.45 167.82 218.546L190.966 231.015C191.369 231.231 191.608 231.656 191.585 232.118L187.938 299.765C187.908 300.286 187.542 300.726 187.035 300.845C186.52 300.972 185.998 300.741 185.737 300.286L152.446 242.529C152.23 242.156 152.237 241.694 152.461 241.322L166.253 218.956C166.477 218.599 166.865 218.397 167.26 218.397V218.405ZM189.191 232.744L167.686 221.155L154.841 241.97L185.797 295.673L189.191 232.744Z" fill="var(--fill-0, #E5B785)"/>
<path id="Vector_2" d="M217.447 203.865C217.887 203.865 218.297 204.111 218.499 204.506L249.194 264.916C249.432 265.386 249.335 265.945 248.955 266.31C248.574 266.668 248 266.735 247.553 266.474L189.825 233.079C189.452 232.863 189.228 232.46 189.236 232.028L189.974 205.773C189.996 205.147 190.496 204.647 191.123 204.625L217.417 203.865H217.454H217.447ZM245.285 262.442L216.731 206.25L192.301 206.958L191.608 231.395L245.285 262.45V262.442Z" fill="var(--fill-0, #E5B785)"/>
<path id="Vector_3" d="M227.345 166.96C227.569 166.96 227.793 167.027 227.994 167.154L284.804 204.141C285.237 204.424 285.439 204.968 285.289 205.467C285.14 205.967 284.678 206.309 284.156 206.309L217.439 206.227C217.007 206.227 216.611 205.989 216.403 205.609L203.908 182.491C203.61 181.939 203.796 181.254 204.326 180.926L226.719 167.146C226.913 167.027 227.121 166.967 227.338 166.967L227.345 166.96ZM280.172 203.939L227.323 169.538L206.511 182.349L218.141 203.872L280.165 203.947L280.172 203.939Z" fill="var(--fill-0, #E5B785)"/>
<path id="Vector_4" d="M217.447 130.047C217.447 130.047 217.492 130.047 217.514 130.047L285.222 133.692C285.744 133.721 286.184 134.087 286.304 134.593C286.423 135.1 286.199 135.629 285.744 135.89L227.935 169.143C227.562 169.36 227.099 169.352 226.726 169.129L204.333 155.349C203.804 155.021 203.617 154.335 203.916 153.784L216.41 130.666C216.619 130.286 217.022 130.047 217.447 130.047ZM281.112 135.838L218.126 132.447L206.519 153.933L227.368 166.766L281.12 135.845L281.112 135.838Z" fill="var(--fill-0, #E5B785)"/>
<path id="Vector_5" d="M250.865 72.3719C251.178 72.3719 251.491 72.4986 251.722 72.737C252.08 73.1171 252.148 73.6835 251.886 74.1381L218.454 131.821C218.237 132.194 217.82 132.417 217.395 132.41L191.108 131.657C190.481 131.642 189.981 131.135 189.959 130.509L189.221 104.246C189.206 103.792 189.459 103.367 189.87 103.158L250.327 72.4911C250.499 72.4017 250.678 72.3644 250.865 72.3644V72.3719ZM216.768 130.032L247.851 76.4037L191.615 104.932L192.301 129.332L216.768 130.032Z" fill="var(--fill-0, #E5B785)"/>
<path id="Vector_6" d="M190.481 36.3834C190.593 36.3834 190.705 36.3983 190.817 36.4356C191.317 36.5846 191.66 37.0467 191.66 37.5684L191.578 104.224C191.578 104.656 191.339 105.059 190.959 105.26L167.82 117.736C167.275 118.034 166.582 117.855 166.253 117.318L152.469 94.9531C152.23 94.5656 152.237 94.0737 152.483 93.6936L189.497 36.9349C189.72 36.5921 190.093 36.3983 190.489 36.3983L190.481 36.3834ZM189.213 103.516L189.295 41.5406L154.863 94.342L167.671 115.127L189.213 103.516Z" fill="var(--fill-0, #E5B785)"/>
<path id="Vector_7" d="M120.17 35.3848C120.587 35.3848 120.975 35.6084 121.192 35.9735L154.475 93.7384C154.691 94.111 154.684 94.573 154.46 94.9457L140.668 117.311C140.34 117.847 139.646 118.026 139.102 117.728L115.97 105.245C115.567 105.029 115.329 104.597 115.351 104.142L118.999 36.4952C119.028 35.9735 119.394 35.5338 119.901 35.4146C119.991 35.3922 120.088 35.3848 120.177 35.3848H120.17ZM152.081 94.3122L121.139 40.609L117.753 103.538L139.243 115.135L152.081 94.3197V94.3122Z" fill="var(--fill-0, #E5B785)"/>
<path id="Vector_8" d="M58.7869 69.6442C58.9883 69.6442 59.1972 69.6964 59.3763 69.8007L117.119 103.196C117.492 103.412 117.716 103.814 117.708 104.254L116.947 130.517C116.932 131.143 116.425 131.642 115.799 131.664L89.5193 132.41C89.0494 132.395 88.6391 132.171 88.4303 131.769L57.7352 71.3658C57.4965 70.8962 57.5935 70.3373 57.9739 69.9721C58.1977 69.7635 58.4886 69.6517 58.7869 69.6517V69.6442ZM115.329 104.887L61.6438 73.84L90.1981 130.032L114.62 129.339L115.329 104.895V104.887Z" fill="var(--fill-0, #E5B785)"/>
<path id="Vector_9" d="M22.7658 129.973L89.4895 130.055C89.9222 130.055 90.3175 130.293 90.5264 130.673L103.021 153.799C103.319 154.35 103.133 155.036 102.596 155.364L80.1952 169.136C79.8073 169.374 79.315 169.367 78.9346 169.121L22.1243 132.141C21.6842 131.858 21.4903 131.314 21.6395 130.815C21.7887 130.316 22.2511 129.973 22.7733 129.973H22.7658ZM88.7808 132.417L26.7492 132.343L79.5985 166.744L100.41 153.948L88.7808 132.425V132.417Z" fill="var(--fill-0, #E5B785)"/>
<path id="Vector_10" d="M79.591 166.96C79.8073 166.96 80.0161 167.019 80.2101 167.139L102.603 180.926C103.133 181.254 103.319 181.939 103.021 182.491L90.5189 205.609C90.3026 206.011 89.9222 206.272 89.415 206.227L21.7141 202.576C21.192 202.546 20.7518 202.181 20.6325 201.674C20.5131 201.167 20.7369 200.638 21.1919 200.377L79.0017 167.124C79.1807 167.019 79.3896 166.967 79.591 166.967V166.96ZM100.41 182.342L79.5611 169.509L25.8093 200.429L88.7883 203.828L100.403 182.349L100.41 182.342Z" fill="var(--fill-0, #E5B785)"/>
<path id="Vector_11" d="M89.4896 203.865H89.5268L115.806 204.618C116.433 204.633 116.932 205.139 116.955 205.765L117.701 232.028C117.716 232.483 117.462 232.908 117.052 233.116L56.6014 263.776C56.1314 264.015 55.572 263.918 55.2065 263.538C54.8484 263.158 54.7813 262.591 55.0424 262.137L88.4602 204.461C88.6691 204.096 89.0644 203.872 89.4821 203.872L89.4896 203.865ZM114.62 206.943L90.1535 206.242L59.0854 259.871L115.314 231.35L114.62 206.95V206.943Z" fill="var(--fill-0, #E5B785)"/>
<path id="Vector_12" d="M139.668 218.397C140.064 218.397 140.452 218.599 140.675 218.956L154.46 241.329C154.699 241.717 154.691 242.208 154.445 242.588L117.44 299.347C117.156 299.787 116.612 299.981 116.112 299.832C115.612 299.683 115.269 299.22 115.269 298.699L115.351 232.051C115.351 231.618 115.59 231.216 115.97 231.015L139.109 218.539C139.288 218.442 139.474 218.397 139.668 218.397ZM152.058 241.933L139.251 221.147L117.708 232.759L117.626 294.727L152.051 241.933H152.058Z" fill="var(--fill-0, #E5B785)"/>
</g>
<path id="Vector_13" d="M153.468 93.1496C153.878 93.1496 154.259 93.3583 154.475 93.7085L167.686 115.127L189.847 103.181C190.205 102.987 190.645 102.994 190.996 103.196C191.354 103.404 191.578 103.777 191.585 104.187L192.309 129.332L217.477 130.055C217.887 130.07 218.26 130.293 218.461 130.643C218.67 131.001 218.67 131.433 218.476 131.791L206.519 153.933L227.957 167.131C228.308 167.347 228.516 167.727 228.516 168.137C228.516 168.547 228.308 168.927 227.957 169.143L206.519 182.342L218.476 204.491C218.67 204.849 218.663 205.288 218.461 205.639C218.26 205.996 217.879 206.212 217.477 206.227L192.309 206.958L191.585 232.103C191.57 232.513 191.347 232.885 190.996 233.094C190.638 233.303 190.205 233.303 189.847 233.109L167.686 221.162L154.475 242.581C154.05 243.282 152.894 243.282 152.469 242.581L139.258 221.162L117.097 233.109C116.738 233.303 116.298 233.295 115.948 233.094C115.59 232.893 115.366 232.513 115.358 232.11L114.635 206.965L89.4672 206.235C89.0569 206.22 88.684 205.996 88.4826 205.646C88.2812 205.288 88.2737 204.856 88.4676 204.498L100.425 182.349L78.9868 169.151C78.6362 168.935 78.4273 168.555 78.4273 168.145C78.4273 167.735 78.6362 167.355 78.9868 167.139L100.425 153.94L88.4676 131.799C88.2737 131.441 88.2812 131.001 88.4826 130.651C88.684 130.293 89.0644 130.077 89.4672 130.062L114.635 129.339L115.358 104.194C115.373 103.784 115.597 103.412 115.948 103.211C116.306 103.009 116.738 103.002 117.097 103.196L139.258 115.142L152.469 93.7235C152.685 93.3732 153.065 93.1645 153.476 93.1645L153.468 93.1496ZM167.26 117.87C166.865 117.87 166.477 117.669 166.253 117.311L153.461 96.5778L140.668 117.311C140.332 117.847 139.654 118.026 139.102 117.728L117.649 106.162L116.947 130.509C116.932 131.135 116.425 131.635 115.799 131.657L91.429 132.358L103.006 153.799C103.304 154.35 103.118 155.036 102.588 155.364L81.8363 168.145L102.588 180.918C103.118 181.246 103.304 181.932 103.006 182.484L91.429 203.925L115.799 204.633C116.425 204.647 116.925 205.154 116.947 205.78L117.649 230.12L139.102 218.554C139.654 218.263 140.332 218.442 140.668 218.971L153.461 239.704L166.253 218.971C166.589 218.435 167.275 218.256 167.82 218.554L189.28 230.12L189.982 205.78C189.996 205.154 190.504 204.655 191.13 204.633L215.5 203.925L203.923 182.484C203.625 181.932 203.811 181.246 204.341 180.918L225.093 168.145L204.341 155.364C203.811 155.036 203.625 154.35 203.923 153.799L215.5 132.358L191.13 131.657C190.504 131.642 190.004 131.135 189.982 130.509L189.28 106.162L167.82 117.728C167.641 117.825 167.454 117.87 167.26 117.87Z" fill="var(--fill-0, #E5B785)"/>
</g>
<path id="Vector_14" d="M77.3233 35.191H229.613C230.038 35.191 230.426 35.4146 230.635 35.7798L306.78 167.549C306.988 167.914 306.988 168.361 306.78 168.726L230.635 300.502C230.426 300.867 230.038 301.091 229.613 301.091H77.3233C76.8982 301.091 76.5103 300.867 76.3014 300.502L0.156676 168.726C-0.0521848 168.361 -0.0521848 167.914 0.156676 167.549L76.3014 35.7798C76.5103 35.4146 76.8982 35.191 77.3233 35.191ZM228.927 37.546H78.0022L2.5362 168.137L78.0022 298.729H228.927L304.393 168.137L228.927 37.546Z" fill="var(--fill-0, #E5B785)"/>
</g>
<path id="Vector_15" d="M20.5504 200.496C20.9681 200.496 21.356 200.72 21.5723 201.085L57.0862 262.129C57.3249 262.539 57.295 263.061 57.0041 263.433C56.7207 263.813 56.2358 263.985 55.7658 263.858L7.52646 251.166C6.89242 251.002 6.51945 250.354 6.68356 249.728L19.4091 201.376C19.5285 200.914 19.9164 200.571 20.3938 200.504C20.446 200.504 20.4982 200.496 20.5504 200.496ZM53.6102 260.847L20.9607 204.729L9.25699 249.184L53.6027 260.847H53.6102Z" fill="var(--fill-0, #E5B785)"/>
<path id="Vector_16" d="M284.148 203.954C284.2 203.954 284.245 203.954 284.297 203.962C284.767 204.021 285.162 204.364 285.289 204.819L298.41 252.903C298.582 253.529 298.209 254.177 297.582 254.349L249.313 267.502C248.851 267.629 248.358 267.465 248.067 267.085C247.776 266.705 247.739 266.191 247.978 265.781L283.126 204.543C283.335 204.17 283.73 203.947 284.148 203.947V203.954ZM295.814 252.389L283.753 208.18L251.439 264.484L295.814 252.389Z" fill="var(--fill-0, #E5B785)"/>
<path id="Vector_17" d="M186.737 298.52C187.214 298.52 187.639 298.803 187.826 299.243C188.012 299.683 187.908 300.189 187.58 300.525L152.461 335.917C152.006 336.379 151.253 336.386 150.79 335.917L115.254 300.733C114.911 300.398 114.814 299.891 114.993 299.452C115.172 299.012 115.605 298.721 116.082 298.721L186.744 298.512L186.737 298.52ZM151.611 333.428L183.895 300.89L118.931 301.084L151.603 333.435L151.611 333.428Z" fill="var(--fill-0, #E5B785)"/>
<path id="Vector_18" d="M155.318 0C155.617 0 155.922 0.111788 156.146 0.342818L191.682 35.5264C192.025 35.8617 192.122 36.3685 191.943 36.8082C191.764 37.2479 191.332 37.5386 190.854 37.5386L120.192 37.7472C119.715 37.7472 119.29 37.464 119.103 37.0243C118.917 36.5846 119.021 36.0779 119.349 35.7425L154.475 0.350271C154.706 0.119241 155.012 0 155.311 0H155.318ZM187.997 35.1985L155.326 2.84688L123.034 35.3848L187.997 35.191V35.1985Z" fill="var(--fill-0, #E5B785)"/>
<path id="Vector_19" d="M57.9291 68.6754C58.2946 68.6754 58.6377 68.8393 58.8615 69.1374C59.1524 69.5175 59.1897 70.0317 58.9435 70.4416L23.6237 131.582C23.385 131.992 22.9225 132.231 22.4451 132.164C21.9677 132.104 21.5798 131.761 21.4604 131.299L8.57817 82.9918C8.40661 82.3657 8.78712 81.7174 9.41371 81.546L57.6158 68.7126C57.7203 68.6828 57.8172 68.6754 57.9216 68.6754H57.9291ZM23.0195 127.938L55.4899 71.7235L11.1816 83.5209L23.0195 127.938Z" fill="var(--fill-0, #E5B785)"/>
<path id="Vector_20" d="M250.865 72.3719C250.969 72.3719 251.073 72.3868 251.178 72.4166L299.455 85.5704C299.753 85.6523 300.014 85.8536 300.171 86.1218C300.327 86.3901 300.365 86.7181 300.283 87.0162L287.154 135.1C287.027 135.562 286.639 135.898 286.162 135.957C285.677 136.017 285.23 135.786 284.991 135.376L249.843 74.1381C249.604 73.7282 249.641 73.2066 249.932 72.8339C250.156 72.5433 250.506 72.3719 250.865 72.3719ZM297.694 87.5304L253.311 75.4349L285.625 131.732L297.694 87.5229V87.5304Z" fill="var(--fill-0, #E5B785)"/>
</g>
</svg>
