<svg preserveAspectRatio="none" width="100%" height="100%" overflow="visible" style="display: block;" viewBox="0 0 306.936 336.266" fill="none" xmlns="http://www.w3.org/2000/svg">
<g id="Group">
<g id="Group_2">
<g id="Group_3">
<g id="Group_4">
<path id="Vector" d="M167.26 218.405C167.454 218.405 167.641 218.45 167.82 218.546L190.966 231.015C191.369 231.231 191.608 231.663 191.585 232.118L187.938 299.765C187.908 300.286 187.542 300.726 187.035 300.845C186.52 300.972 185.998 300.733 185.737 300.286L152.446 242.529C152.23 242.156 152.237 241.687 152.461 241.322L166.253 218.956C166.477 218.599 166.865 218.397 167.26 218.397V218.405ZM189.191 232.736L167.686 221.147L154.841 241.962L185.797 295.666L189.191 232.736Z" fill="var(--fill-0, #E5B785)"/>
<path id="Vector_2" d="M217.447 203.857C217.887 203.857 218.297 204.103 218.499 204.506L249.194 264.916C249.432 265.386 249.335 265.945 248.955 266.31C248.574 266.668 248 266.735 247.553 266.474L189.825 233.079C189.452 232.863 189.228 232.46 189.236 232.028L189.974 205.773C189.996 205.147 190.496 204.647 191.123 204.625L217.417 203.865H217.454L217.447 203.857ZM245.285 262.435L216.731 206.242L192.301 206.95L191.608 231.387L245.285 262.442V262.435Z" fill="var(--fill-0, #E5B785)"/>
<path id="Vector_3" d="M227.345 166.952C227.569 166.952 227.793 167.012 227.994 167.146L284.804 204.126C285.237 204.409 285.439 204.953 285.289 205.452C285.14 205.952 284.678 206.294 284.156 206.294L217.439 206.212C217.007 206.212 216.611 205.974 216.403 205.594L203.908 182.476C203.61 181.925 203.796 181.239 204.326 180.911L226.719 167.131C226.913 167.012 227.121 166.952 227.338 166.952H227.345ZM280.172 203.932L227.323 169.531L206.511 182.342L218.141 203.865L280.165 203.939L280.172 203.932Z" fill="var(--fill-0, #E5B785)"/>
<path id="Vector_4" d="M217.447 130.047C217.447 130.047 217.492 130.047 217.514 130.047L285.222 133.692C285.744 133.721 286.184 134.087 286.304 134.593C286.423 135.1 286.199 135.629 285.744 135.89L227.935 169.143C227.562 169.36 227.099 169.352 226.726 169.129L204.333 155.341C203.804 155.013 203.617 154.328 203.916 153.776L216.41 130.658C216.619 130.278 217.022 130.04 217.447 130.04V130.047ZM281.112 135.838L218.126 132.447L206.519 153.933L227.368 166.766L281.12 135.845L281.112 135.838Z" fill="var(--fill-0, #E5B785)"/>
<path id="Vector_5" d="M250.865 72.3644C251.178 72.3644 251.491 72.4911 251.722 72.7296C252.08 73.1097 252.148 73.676 251.886 74.1306L218.454 131.814C218.237 132.186 217.82 132.38 217.395 132.402L191.108 131.65C190.481 131.635 189.981 131.128 189.959 130.502L189.221 104.239C189.206 103.784 189.459 103.36 189.87 103.151L250.327 72.4837C250.499 72.3942 250.678 72.357 250.865 72.357V72.3644ZM216.768 130.025L247.851 76.3963L191.615 104.925L192.301 129.324L216.768 130.025Z" fill="var(--fill-0, #E5B785)"/>
<path id="Vector_6" d="M190.481 36.3834C190.593 36.3834 190.705 36.3983 190.817 36.4356C191.317 36.5847 191.66 37.0467 191.66 37.5684L191.578 104.224C191.578 104.656 191.339 105.051 190.959 105.26L167.82 117.736C167.275 118.034 166.582 117.855 166.253 117.318L152.469 94.9531C152.23 94.5656 152.237 94.0737 152.483 93.6936L189.497 36.9349C189.72 36.5921 190.093 36.3984 190.489 36.3984L190.481 36.3834ZM189.213 103.509L189.295 41.5331L154.863 94.3346L167.671 115.12L189.213 103.509Z" fill="var(--fill-0, #E5B785)"/>
<path id="Vector_7" d="M120.17 35.3848C120.587 35.3848 120.975 35.6009 121.192 35.9736L154.475 93.7383C154.691 94.111 154.684 94.5731 154.46 94.9457L140.668 117.311C140.34 117.847 139.646 118.026 139.102 117.728L115.97 105.245C115.567 105.029 115.329 104.597 115.351 104.142L118.999 36.4952C119.028 35.9735 119.394 35.5338 119.901 35.4146C119.991 35.3923 120.088 35.3848 120.177 35.3848H120.17ZM152.081 94.3047L121.139 40.6016L117.753 103.531L139.243 115.127L152.081 94.3122V94.3047Z" fill="var(--fill-0, #E5B785)"/>
<path id="Vector_8" d="M58.7869 69.6442C58.9883 69.6442 59.1972 69.6964 59.3763 69.8007L117.119 103.196C117.492 103.412 117.716 103.814 117.708 104.254L116.947 130.517C116.932 131.143 116.425 131.642 115.799 131.664L89.5193 132.41C89.0494 132.41 88.6391 132.171 88.4303 131.761L57.7352 71.3583C57.4965 70.8888 57.5935 70.3299 57.9739 69.9647C58.1977 69.756 58.4886 69.6442 58.7869 69.6442ZM115.329 104.88L61.6438 73.8326L90.1981 130.025L114.62 129.332L115.329 104.887V104.88Z" fill="var(--fill-0, #E5B785)"/>
<path id="Vector_9" d="M22.7658 129.973L89.4895 130.055C89.9222 130.055 90.3175 130.293 90.5264 130.673L103.021 153.799C103.319 154.35 103.133 155.036 102.596 155.364L80.1952 169.136C79.8073 169.374 79.315 169.367 78.9346 169.121L22.1243 132.141C21.6842 131.858 21.4903 131.314 21.6395 130.815C21.7887 130.316 22.2511 129.973 22.7733 129.973H22.7658ZM88.7808 132.41L26.7492 132.335L79.5985 166.736L100.41 153.933L88.7808 132.41Z" fill="var(--fill-0, #E5B785)"/>
<path id="Vector_10" d="M79.591 166.952C79.8073 166.952 80.0161 167.012 80.2101 167.131L102.603 180.918C103.133 181.246 103.319 181.932 103.021 182.483L90.5189 205.601C90.3026 206.004 89.9222 206.25 89.415 206.22L21.7141 202.568C21.192 202.538 20.7518 202.173 20.6325 201.666C20.5131 201.16 20.7369 200.63 21.1919 200.37L79.0017 167.116C79.1807 167.012 79.3896 166.96 79.591 166.96V166.952ZM100.41 182.342L79.5611 169.509L25.8093 200.429L88.7883 203.82L100.403 182.342H100.41Z" fill="var(--fill-0, #E5B785)"/>
<path id="Vector_11" d="M89.4896 203.857H89.5268L115.806 204.61C116.433 204.625 116.932 205.132 116.955 205.758L117.701 232.021C117.716 232.475 117.462 232.9 117.052 233.109L56.6014 263.769C56.1314 264 55.572 263.91 55.2065 263.53C54.8484 263.15 54.7813 262.584 55.0424 262.129L88.4602 204.454C88.6691 204.089 89.0644 203.865 89.4821 203.865L89.4896 203.857ZM114.62 206.943L90.1535 206.242L59.0854 259.871L115.314 231.35L114.62 206.95V206.943Z" fill="var(--fill-0, #E5B785)"/>
<path id="Vector_12" d="M139.668 218.397C140.064 218.397 140.452 218.599 140.675 218.956L154.46 241.329C154.699 241.717 154.691 242.208 154.445 242.588L117.44 299.347C117.156 299.787 116.612 299.988 116.112 299.832C115.612 299.683 115.269 299.22 115.269 298.699L115.351 232.051C115.351 231.618 115.59 231.216 115.97 231.015L139.109 218.539C139.288 218.442 139.474 218.397 139.668 218.397ZM152.058 241.933L139.251 221.147L117.708 232.766L117.626 294.734L152.051 241.94L152.058 241.933Z" fill="var(--fill-0, #E5B785)"/>
</g>
<path id="Vector_13" d="M153.468 93.1422C153.878 93.1422 154.259 93.3508 154.475 93.7011L167.686 115.12L189.847 103.173C190.205 102.98 190.645 102.987 190.996 103.188C191.354 103.389 191.578 103.77 191.585 104.179L192.309 129.324L217.477 130.047C217.887 130.062 218.26 130.286 218.461 130.636C218.67 130.994 218.67 131.426 218.476 131.784L206.519 153.925L227.957 167.124C228.308 167.34 228.516 167.72 228.516 168.13C228.516 168.54 228.308 168.92 227.957 169.136L206.519 182.334L218.476 204.483C218.67 204.841 218.663 205.281 218.461 205.631C218.26 205.989 217.879 206.205 217.477 206.22L192.309 206.95L191.585 232.095C191.57 232.505 191.347 232.878 190.996 233.086C190.638 233.288 190.205 233.295 189.847 233.101L167.686 221.155L154.475 242.574C154.05 243.274 152.894 243.274 152.469 242.574L139.258 221.155L117.097 233.101C116.738 233.295 116.298 233.288 115.948 233.086C115.59 232.885 115.366 232.505 115.358 232.103L114.635 206.958L89.4672 206.227C89.0569 206.212 88.684 205.989 88.4826 205.639C88.2812 205.281 88.2737 204.849 88.4676 204.491L100.425 182.342L78.9868 169.143C78.6362 168.927 78.4273 168.547 78.4273 168.137C78.4273 167.727 78.6362 167.347 78.9868 167.131L100.425 153.933L88.4676 131.791C88.2737 131.433 88.2812 130.994 88.4826 130.643C88.684 130.286 89.0644 130.07 89.4672 130.055L114.635 129.332L115.358 104.187C115.373 103.777 115.597 103.404 115.948 103.203C116.306 103.002 116.738 102.994 117.097 103.188L139.258 115.135L152.469 93.716C152.685 93.3657 153.065 93.1571 153.476 93.1571L153.468 93.1422ZM167.26 117.862C166.865 117.862 166.477 117.661 166.253 117.303L153.461 96.5704L140.668 117.303C140.332 117.84 139.654 118.019 139.102 117.721L117.649 106.154L116.947 130.502C116.932 131.128 116.425 131.627 115.799 131.65L91.429 132.35L103.006 153.791C103.304 154.343 103.118 155.028 102.588 155.356L81.8363 168.137L102.588 180.911C103.118 181.239 103.304 181.925 103.006 182.476L91.429 203.917L115.799 204.625C116.425 204.64 116.925 205.147 116.947 205.773L117.649 230.113L139.102 218.546C139.654 218.256 140.332 218.435 140.668 218.964L153.461 239.697L166.253 218.964C166.589 218.427 167.275 218.256 167.82 218.546L189.28 230.113L189.982 205.773C189.996 205.147 190.504 204.647 191.13 204.625L215.5 203.917L203.923 182.476C203.625 181.925 203.811 181.239 204.341 180.911L225.093 168.137L204.341 155.356C203.811 155.028 203.625 154.343 203.923 153.791L215.5 132.35L191.13 131.65C190.504 131.635 190.004 131.128 189.982 130.502L189.28 106.154L167.82 117.721C167.641 117.818 167.454 117.862 167.26 117.862Z" fill="var(--fill-0, #E5B785)"/>
</g>
<path id="Vector_14" d="M77.3233 35.1836H229.613C230.038 35.1836 230.426 35.4071 230.635 35.7723L306.78 167.541C306.988 167.906 306.988 168.353 306.78 168.719L230.635 300.495C230.426 300.86 230.038 301.084 229.613 301.084H77.3233C76.8982 301.084 76.5103 300.86 76.3014 300.495L0.156676 168.719C-0.0521848 168.353 -0.0521848 167.906 0.156676 167.541L76.3014 35.7723C76.5103 35.4071 76.8982 35.1836 77.3233 35.1836ZM228.927 37.5386H78.0022L2.5362 168.13L78.0022 298.721H228.927L304.393 168.13L228.927 37.5386Z" fill="var(--fill-0, #E5B785)"/>
</g>
<path id="Vector_15" d="M20.5504 200.489C20.9681 200.489 21.356 200.712 21.5723 201.078L57.0862 262.122C57.3249 262.532 57.295 263.046 57.0041 263.426C56.7207 263.806 56.2358 263.977 55.7658 263.851L7.52646 251.159C6.89242 250.995 6.51945 250.347 6.68356 249.721L19.4091 201.368C19.5285 200.906 19.9164 200.563 20.3938 200.496C20.446 200.496 20.4982 200.489 20.5504 200.489ZM53.6102 260.847L20.9607 204.729L9.25699 249.184L53.6027 260.847H53.6102Z" fill="var(--fill-0, #E5B785)"/>
<path id="Vector_16" d="M284.148 203.947C284.2 203.947 284.245 203.947 284.297 203.954C284.767 204.014 285.162 204.357 285.289 204.811L298.41 252.895C298.582 253.521 298.209 254.17 297.582 254.341L249.313 267.495C248.851 267.614 248.358 267.458 248.067 267.078C247.776 266.698 247.739 266.183 247.978 265.773L283.126 204.536C283.335 204.163 283.73 203.939 284.148 203.939V203.947ZM295.814 252.389L283.753 208.18L251.439 264.484L295.814 252.389Z" fill="var(--fill-0, #E5B785)"/>
<path id="Vector_17" d="M186.737 298.52C187.214 298.52 187.639 298.803 187.826 299.243C188.012 299.683 187.908 300.189 187.58 300.525L152.461 335.917C152.006 336.379 151.253 336.386 150.79 335.917L115.254 300.733C114.911 300.398 114.814 299.891 114.993 299.452C115.172 299.012 115.605 298.721 116.082 298.721L186.744 298.513L186.737 298.52ZM151.611 333.428L183.895 300.89L118.931 301.084L151.603 333.435L151.611 333.428Z" fill="var(--fill-0, #E5B785)"/>
<path id="Vector_18" d="M155.318 6.56603e-06C155.617 6.56603e-06 155.922 0.111811 156.146 0.342841L191.682 35.5264C192.025 35.8617 192.122 36.3685 191.943 36.8082C191.764 37.2479 191.332 37.5386 190.854 37.5386L120.192 37.7473C119.715 37.7473 119.29 37.464 119.103 37.0243C118.917 36.5846 119.021 36.0779 119.349 35.7425L154.468 0.350255C154.699 0.119226 155.005 6.56603e-06 155.303 6.56603e-06H155.318ZM187.997 35.191L155.326 2.83943L123.034 35.3773L187.997 35.1836V35.191Z" fill="var(--fill-0, #E5B785)"/>
<path id="Vector_19" d="M57.9291 68.6754C58.2946 68.6754 58.6377 68.8394 58.8615 69.1375C59.1524 69.5175 59.1897 70.0318 58.9435 70.4417L23.6237 131.582C23.385 131.992 22.9225 132.223 22.4451 132.164C21.9677 132.104 21.5798 131.761 21.4604 131.299L8.57817 82.9918C8.40661 82.3583 8.78712 81.7174 9.41371 81.546L57.6158 68.7127C57.7203 68.6829 57.8172 68.6754 57.9216 68.6754H57.9291ZM23.0195 127.938L55.4899 71.7235L11.1816 83.5209L23.0195 127.938Z" fill="var(--fill-0, #E5B785)"/>
<path id="Vector_20" d="M250.865 72.3644C250.969 72.3644 251.073 72.3793 251.178 72.4091L299.455 85.5629C299.753 85.6449 300.014 85.8461 300.171 86.1144C300.327 86.3827 300.365 86.7106 300.283 87.0087L287.154 135.093C287.027 135.555 286.639 135.89 286.162 135.95C285.677 136.002 285.23 135.778 284.991 135.368L249.843 74.1306C249.604 73.7133 249.641 73.1991 249.932 72.8265C250.156 72.5358 250.506 72.3644 250.865 72.3644ZM297.694 87.5229L253.311 75.4274L285.625 131.724L297.694 87.5155V87.5229Z" fill="var(--fill-0, #E5B785)"/>
</g>
</svg>
