<svg preserveAspectRatio="none" width="100%" height="100%" overflow="visible" style="display: block;" viewBox="0 0 306.944 336.266" fill="none" xmlns="http://www.w3.org/2000/svg">
<g id="Group">
<g id="Group_2">
<g id="Group_3">
<g id="Group_4">
<path id="Vector" d="M167.275 218.405C167.469 218.405 167.656 218.45 167.835 218.546L190.981 231.015C191.384 231.231 191.623 231.663 191.6 232.118L187.953 299.765C187.923 300.286 187.557 300.726 187.05 300.845C186.535 300.972 186.013 300.741 185.752 300.286L152.461 242.529C152.245 242.156 152.252 241.687 152.483 241.322L166.276 218.956C166.5 218.599 166.887 218.397 167.283 218.397L167.275 218.405ZM189.198 232.744L167.693 221.155L154.848 241.97L185.797 295.673L189.191 232.744H189.198Z" fill="var(--fill-0, #E5B785)"/>
<path id="Vector_2" d="M217.454 203.865C217.894 203.865 218.305 204.111 218.506 204.513L249.201 264.924C249.44 265.393 249.343 265.952 248.962 266.317C248.582 266.675 248.015 266.742 247.56 266.481L189.832 233.086C189.459 232.87 189.236 232.468 189.243 232.036L189.989 205.78C190.004 205.154 190.511 204.655 191.138 204.633L217.432 203.872H217.469L217.454 203.865ZM245.292 262.435L216.738 206.242L192.309 206.95L191.615 231.387L245.285 262.442L245.292 262.435Z" fill="var(--fill-0, #E5B785)"/>
<path id="Vector_3" d="M227.353 166.96C227.577 166.96 227.8 167.019 228.002 167.154L284.812 204.141C285.244 204.424 285.446 204.968 285.297 205.467C285.148 205.967 284.685 206.309 284.163 206.309L217.447 206.227C217.014 206.227 216.619 205.989 216.41 205.609L203.916 182.491C203.617 181.939 203.804 181.254 204.333 180.926L226.726 167.146C226.92 167.027 227.129 166.975 227.345 166.975L227.353 166.96ZM280.187 203.939L227.338 169.538L206.534 182.349L218.163 203.872L280.195 203.947L280.187 203.939Z" fill="var(--fill-0, #E5B785)"/>
<path id="Vector_4" d="M217.454 130.047C217.454 130.047 217.499 130.047 217.521 130.047L285.23 133.692C285.752 133.721 286.192 134.087 286.311 134.593C286.431 135.1 286.207 135.629 285.752 135.89L227.942 169.144C227.569 169.36 227.107 169.352 226.734 169.129L204.341 155.349C203.811 155.021 203.625 154.335 203.923 153.784L216.417 130.666C216.626 130.286 217.029 130.047 217.454 130.047ZM281.127 135.838L218.133 132.447L206.526 153.933L227.375 166.766L281.127 135.845V135.838Z" fill="var(--fill-0, #E5B785)"/>
<path id="Vector_5" d="M250.879 72.3719C251.193 72.3719 251.506 72.4986 251.737 72.7371C252.095 73.1172 252.162 73.6835 251.901 74.1381L218.469 131.821C218.252 132.194 217.835 132.395 217.409 132.41L191.13 131.657C190.504 131.642 190.004 131.135 189.981 130.509L189.236 104.247C189.221 103.792 189.474 103.367 189.885 103.158L250.342 72.4911C250.514 72.4017 250.693 72.3645 250.879 72.3645V72.3719ZM216.775 130.032L247.858 76.4037L191.623 104.932L192.309 129.332L216.775 130.032Z" fill="var(--fill-0, #E5B785)"/>
<path id="Vector_6" d="M190.489 36.3835C190.601 36.3835 190.712 36.3984 190.824 36.4356C191.324 36.5847 191.667 37.0467 191.667 37.5684L191.585 104.224C191.585 104.656 191.347 105.059 190.966 105.26L167.82 117.736C167.275 118.034 166.582 117.855 166.253 117.318L152.469 94.9532C152.23 94.5656 152.237 94.0738 152.483 93.6937L189.497 36.935C189.72 36.5922 190.093 36.3984 190.489 36.3984V36.3835ZM189.228 103.516L189.31 41.5406L154.878 94.3421L167.686 115.127L189.228 103.516Z" fill="var(--fill-0, #E5B785)"/>
<path id="Vector_7" d="M120.185 35.3848C120.602 35.3848 120.99 35.6009 121.207 35.9736L154.49 93.7384C154.706 94.111 154.699 94.5805 154.475 94.9457L140.683 117.311C140.355 117.847 139.661 118.026 139.116 117.728L115.985 105.245C115.582 105.029 115.344 104.597 115.366 104.142L119.013 36.4953C119.043 35.9736 119.409 35.5339 119.916 35.4146C120.006 35.3923 120.103 35.3848 120.192 35.3848H120.185ZM152.088 94.3123L121.147 40.609L117.753 103.539L139.251 115.135L152.088 94.3197V94.3123Z" fill="var(--fill-0, #E5B785)"/>
<path id="Vector_8" d="M58.8019 69.6443C59.0033 69.6443 59.2121 69.6964 59.3911 69.8008L117.126 103.196C117.499 103.412 117.723 103.814 117.716 104.247L116.962 130.509C116.947 131.135 116.44 131.635 115.813 131.657L89.5343 132.402C89.0494 132.373 88.6541 132.164 88.4452 131.754L57.7501 71.3509C57.5114 70.8814 57.6084 70.3224 57.9888 69.9573C58.2126 69.7486 58.5035 69.6368 58.8019 69.6368V69.6443ZM115.336 104.887L61.6588 73.8401L90.2131 130.032L114.635 129.339L115.336 104.895V104.887Z" fill="var(--fill-0, #E5B785)"/>
<path id="Vector_9" d="M22.7808 129.973L89.4969 130.055C89.9296 130.055 90.3249 130.293 90.5338 130.673L103.028 153.791C103.327 154.343 103.14 155.028 102.603 155.356L80.2027 169.129C79.8148 169.367 79.3225 169.367 78.942 169.114L22.1318 132.134C21.6917 131.851 21.4978 131.307 21.647 130.807C21.7962 130.308 22.2586 129.965 22.7808 129.965V129.973ZM88.7958 132.41L26.7641 132.335L79.6133 166.736L100.425 153.933L88.7958 132.41Z" fill="var(--fill-0, #E5B785)"/>
<path id="Vector_10" d="M79.5985 166.96C79.8148 166.96 80.0236 167.019 80.2176 167.131L102.61 180.918C103.14 181.246 103.327 181.932 103.028 182.484L90.5264 205.601C90.31 206.004 89.9446 206.265 89.4224 206.22L21.7216 202.568C21.1994 202.538 20.7593 202.173 20.64 201.666C20.5206 201.16 20.7444 200.631 21.1994 200.37L79.0092 167.116C79.1882 167.012 79.3971 166.96 79.5985 166.96ZM100.425 182.342L79.5761 169.509L25.8242 200.429L88.8033 203.82L100.417 182.342H100.425Z" fill="var(--fill-0, #E5B785)"/>
<path id="Vector_11" d="M89.497 203.865H89.5343L115.813 204.618C116.44 204.633 116.94 205.139 116.962 205.765L117.708 232.028C117.716 232.483 117.469 232.908 117.059 233.116L56.6088 263.776C56.1389 264.007 55.5795 263.918 55.214 263.538C54.8559 263.158 54.7887 262.591 55.0498 262.137L88.4676 204.461C88.6764 204.096 89.0718 203.872 89.4895 203.872L89.497 203.865ZM114.635 206.943L90.1683 206.242L59.1002 259.871L115.329 231.35L114.635 206.95V206.943Z" fill="var(--fill-0, #E5B785)"/>
<path id="Vector_12" d="M139.676 218.397C140.071 218.397 140.459 218.599 140.683 218.956L154.468 241.329C154.706 241.717 154.699 242.208 154.453 242.588L117.447 299.347C117.164 299.787 116.619 299.981 116.119 299.832C115.62 299.683 115.276 299.221 115.276 298.699L115.358 232.051C115.358 231.618 115.597 231.216 115.978 231.015L139.116 218.539C139.295 218.442 139.482 218.397 139.676 218.397ZM152.066 241.933L139.258 221.147L117.716 232.766L117.641 294.734L152.066 241.94V241.933Z" fill="var(--fill-0, #E5B785)"/>
</g>
<path id="Vector_13" d="M153.476 93.1496C153.886 93.1496 154.266 93.3583 154.483 93.7086L167.693 115.127L189.862 103.181C190.22 102.987 190.653 102.995 191.011 103.196C191.369 103.397 191.593 103.777 191.6 104.187L192.324 129.332L217.491 130.055C217.902 130.07 218.275 130.293 218.476 130.644C218.678 131.001 218.685 131.434 218.491 131.791L206.534 153.933L227.972 167.131C228.322 167.347 228.531 167.727 228.531 168.137C228.531 168.547 228.322 168.927 227.972 169.144L206.534 182.342L218.491 204.491C218.685 204.849 218.678 205.288 218.476 205.639C218.275 205.996 217.894 206.213 217.491 206.227L192.324 206.958L191.6 232.103C191.585 232.513 191.361 232.885 191.011 233.094C190.653 233.295 190.22 233.303 189.862 233.109L167.693 221.162L154.483 242.581C154.057 243.282 152.901 243.282 152.476 242.581L139.258 221.162L117.096 233.109C116.738 233.303 116.306 233.295 115.948 233.094C115.59 232.893 115.366 232.513 115.358 232.103L114.635 206.958L89.4671 206.227C89.0569 206.213 88.6839 205.989 88.4825 205.639C88.2736 205.281 88.2736 204.849 88.4676 204.491L100.425 182.342L78.9868 169.144C78.6362 168.927 78.4274 168.547 78.4274 168.137C78.4274 167.727 78.6362 167.347 78.9868 167.131L100.425 153.933L88.4676 131.791C88.2736 131.434 88.2811 130.994 88.4825 130.644C88.6839 130.286 89.0643 130.07 89.4671 130.055L114.635 129.332L115.358 104.187C115.373 103.777 115.597 103.404 115.948 103.196C116.306 102.995 116.738 102.987 117.096 103.181L139.258 115.127L152.476 93.7086C152.692 93.3583 153.073 93.1496 153.483 93.1496H153.476ZM167.275 117.87C166.88 117.87 166.492 117.669 166.268 117.311L153.476 96.5779L140.683 117.311C140.355 117.847 139.661 118.026 139.116 117.728L117.663 106.162L116.962 130.509C116.947 131.135 116.44 131.635 115.813 131.657L91.4439 132.358L103.021 153.799C103.319 154.35 103.133 155.036 102.603 155.364L81.8512 168.145L102.603 180.918C103.133 181.246 103.319 181.932 103.021 182.484L91.4439 203.925L115.813 204.633C116.44 204.648 116.94 205.154 116.962 205.78L117.663 230.12L139.116 218.554C139.661 218.263 140.347 218.442 140.683 218.971L153.476 239.704L166.268 218.971C166.597 218.442 167.29 218.263 167.835 218.554L189.295 230.12L189.996 205.78C190.011 205.154 190.519 204.655 191.145 204.633L215.507 203.925L203.93 182.484C203.632 181.932 203.819 181.246 204.348 180.918L225.1 168.145L204.348 155.364C203.819 155.036 203.632 154.35 203.93 153.799L215.507 132.358L191.145 131.657C190.519 131.635 190.019 131.135 189.996 130.509L189.295 106.162L167.835 117.728C167.656 117.825 167.469 117.87 167.275 117.87Z" fill="var(--fill-0, #E5B785)"/>
</g>
<path id="Vector_14" d="M77.3308 35.1836H229.62C230.045 35.1836 230.433 35.4072 230.642 35.7723L306.787 167.541C306.996 167.906 306.996 168.353 306.787 168.719L230.642 300.495C230.433 300.86 230.045 301.084 229.62 301.084H77.3308C76.9056 301.084 76.5177 300.86 76.3089 300.495L0.156662 168.719C-0.0521991 168.353 -0.0521991 167.906 0.156662 167.541L76.3089 35.7723C76.5177 35.4072 76.9056 35.1836 77.3308 35.1836ZM228.942 37.546H78.0171L2.54361 168.137L78.0171 298.729H228.942L304.407 168.137L228.942 37.546Z" fill="var(--fill-0, #E5B785)"/>
</g>
<path id="Vector_15" d="M20.5654 200.489C20.9831 200.489 21.371 200.713 21.5873 201.078L57.0937 262.122C57.3324 262.532 57.3025 263.046 57.0116 263.426C56.7282 263.806 56.2359 263.977 55.7734 263.851L7.53392 251.159C6.89987 250.995 6.5269 250.347 6.69101 249.721L19.4167 201.368C19.536 200.906 19.9239 200.563 20.4012 200.496C20.4535 200.496 20.5057 200.489 20.5579 200.489H20.5654ZM53.6251 260.847L20.9756 204.729L9.27195 249.184L53.6176 260.847H53.6251Z" fill="var(--fill-0, #E5B785)"/>
<path id="Vector_16" d="M284.155 203.954C284.2 203.954 284.252 203.954 284.305 203.962C284.775 204.021 285.17 204.364 285.297 204.819L298.418 252.903C298.589 253.529 298.216 254.177 297.59 254.349L249.32 267.502C248.858 267.629 248.366 267.465 248.075 267.085C247.784 266.705 247.746 266.191 247.985 265.781L283.134 204.543C283.342 204.171 283.738 203.947 284.155 203.947V203.954ZM295.829 252.389L283.768 208.18L251.454 264.484L295.829 252.389Z" fill="var(--fill-0, #E5B785)"/>
<path id="Vector_17" d="M186.752 298.52C187.229 298.52 187.654 298.803 187.841 299.243C188.027 299.683 187.923 300.189 187.595 300.525L152.476 335.917C152.014 336.379 151.268 336.386 150.805 335.917L115.269 300.733C114.926 300.398 114.829 299.891 115.008 299.452C115.187 299.012 115.62 298.721 116.097 298.721L186.759 298.513L186.752 298.52ZM151.618 333.428L183.91 300.89L118.946 301.084L151.618 333.435V333.428Z" fill="var(--fill-0, #E5B785)"/>
<path id="Vector_18" d="M155.333 2.23175e-05C155.631 2.23175e-05 155.937 0.111873 156.161 0.342902L191.697 35.5264C192.04 35.8618 192.137 36.3686 191.958 36.8083C191.779 37.248 191.347 37.5386 190.869 37.5386L120.207 37.7473C119.73 37.7473 119.304 37.4641 119.118 37.0244C118.931 36.5847 119.036 36.078 119.364 35.7426L154.49 0.350362C154.721 0.119333 155.027 2.23175e-05 155.325 2.23175e-05H155.333ZM188.012 35.1911L155.34 2.83949L123.049 35.3774L188.012 35.1836V35.1911Z" fill="var(--fill-0, #E5B785)"/>
<path id="Vector_19" d="M57.9441 68.6754C58.3096 68.6754 58.6527 68.8394 58.8765 69.1375C59.1674 69.5176 59.2047 70.0318 58.9585 70.4417L23.6461 131.583C23.4074 131.992 22.9375 132.223 22.4675 132.164C21.9901 132.104 21.6022 131.761 21.4829 131.299L8.60066 82.9918C8.42909 82.3658 8.80951 81.7174 9.4361 81.546L57.6308 68.7127C57.7352 68.6829 57.8322 68.6754 57.9366 68.6754H57.9441ZM23.0344 127.938L55.4974 71.7235L11.189 83.521L23.027 127.938H23.0344Z" fill="var(--fill-0, #E5B785)"/>
<path id="Vector_20" d="M250.879 72.3719C250.984 72.3719 251.088 72.3868 251.193 72.4166L299.469 85.5704C299.768 85.6524 300.029 85.8536 300.186 86.1219C300.342 86.3977 300.379 86.7181 300.297 87.0162L287.169 135.1C287.042 135.562 286.654 135.898 286.177 135.957C285.685 136.017 285.244 135.786 285.006 135.376L249.857 74.1381C249.619 73.7208 249.656 73.2066 249.947 72.8339C250.171 72.5433 250.521 72.3719 250.879 72.3719ZM297.709 87.5305L253.326 75.435L285.64 131.732L297.709 87.523V87.5305Z" fill="var(--fill-0, #E5B785)"/>
</g>
</svg>
