<svg preserveAspectRatio="none" width="100%" height="100%" overflow="visible" style="display: block;" viewBox="0 0 306.944 336.263" fill="none" xmlns="http://www.w3.org/2000/svg">
<g id="Group">
<g id="Group_2">
<g id="Group_3">
<g id="Group_4">
<path id="Vector" d="M167.275 218.405C167.462 218.405 167.656 218.45 167.835 218.546L190.981 231.015C191.384 231.231 191.623 231.663 191.6 232.118L187.953 299.765C187.923 300.286 187.557 300.726 187.05 300.845C186.543 300.964 186.013 300.741 185.752 300.286L152.461 242.529C152.245 242.156 152.252 241.687 152.476 241.322L166.268 218.956C166.492 218.599 166.88 218.397 167.275 218.397V218.405ZM189.198 232.744L167.693 221.155L154.848 241.97L185.797 295.673L189.191 232.744H189.198Z" fill="var(--fill-0, #E5B785)"/>
<path id="Vector_2" d="M217.454 203.865C217.894 203.865 218.304 204.111 218.506 204.513L249.201 264.924C249.44 265.393 249.343 265.952 248.962 266.317C248.582 266.675 248.015 266.742 247.56 266.481L189.832 233.086C189.459 232.87 189.228 232.468 189.243 232.036L189.981 205.78C189.996 205.154 190.504 204.655 191.13 204.633L217.424 203.872H217.462L217.454 203.865ZM245.292 262.435L216.738 206.242L192.309 206.95L191.615 231.387L245.285 262.442L245.292 262.435Z" fill="var(--fill-0, #E5B785)"/>
<path id="Vector_3" d="M227.353 166.96C227.576 166.96 227.8 167.019 227.994 167.154L284.804 204.141C285.245 204.424 285.438 204.968 285.289 205.467C285.14 205.967 284.678 206.309 284.155 206.309L217.439 206.227C217.007 206.227 216.604 205.989 216.402 205.609L203.908 182.491C203.61 181.939 203.796 181.254 204.326 180.926L226.719 167.146C226.905 167.027 227.121 166.975 227.338 166.975L227.353 166.96ZM280.187 203.939L227.338 169.538L206.526 182.349L218.155 203.872L280.187 203.947V203.939Z" fill="var(--fill-0, #E5B785)"/>
<path id="Vector_4" d="M217.454 130.047C217.454 130.047 217.499 130.047 217.514 130.047L285.222 133.692C285.744 133.721 286.185 134.087 286.304 134.593C286.423 135.1 286.199 135.629 285.744 135.89L227.935 169.144C227.554 169.36 227.092 169.352 226.726 169.129L204.333 155.349C203.804 155.021 203.617 154.335 203.916 153.784L216.41 130.666C216.619 130.286 217.014 130.047 217.447 130.047H217.454ZM281.127 135.838L218.141 132.447L206.534 153.933L227.383 166.766L281.134 135.845L281.127 135.838Z" fill="var(--fill-0, #E5B785)"/>
<path id="Vector_5" d="M250.88 72.3719C251.2 72.3719 251.506 72.4986 251.737 72.7371C252.095 73.1172 252.163 73.6835 251.901 74.1381L218.469 131.821C218.252 132.194 217.827 132.402 217.417 132.41L191.138 131.657C190.511 131.642 190.011 131.135 189.989 130.509L189.251 104.247C189.236 103.792 189.489 103.367 189.9 103.158L250.357 72.4911C250.529 72.4017 250.708 72.3645 250.895 72.3645L250.88 72.3719ZM216.776 130.032L247.859 76.4037L191.623 104.932L192.309 129.332L216.776 130.032Z" fill="var(--fill-0, #E5B785)"/>
<path id="Vector_6" d="M190.489 36.3835C190.601 36.3835 190.713 36.3984 190.824 36.4356C191.324 36.5847 191.667 37.0467 191.667 37.5684L191.585 104.224C191.585 104.656 191.347 105.059 190.966 105.26L167.82 117.736C167.268 118.034 166.582 117.847 166.253 117.318L152.469 94.9532C152.23 94.5656 152.237 94.0738 152.483 93.6937L189.497 36.935C189.72 36.5922 190.093 36.3984 190.489 36.3984V36.3835ZM189.228 103.516L189.31 41.5406L154.878 94.3421L167.686 115.127L189.228 103.516Z" fill="var(--fill-0, #E5B785)"/>
<path id="Vector_7" d="M120.185 35.3848C120.602 35.3848 120.99 35.6009 121.207 35.9736L154.49 93.7384C154.706 94.111 154.699 94.5805 154.475 94.9457L140.683 117.311C140.355 117.84 139.668 118.026 139.116 117.728L115.985 105.245C115.582 105.029 115.343 104.597 115.366 104.142L119.014 36.4953C119.043 35.9736 119.409 35.5339 119.916 35.4146C120.006 35.3923 120.102 35.3848 120.192 35.3848H120.185ZM152.088 94.3123L121.147 40.609L117.753 103.539L139.251 115.135L152.088 94.3197V94.3123Z" fill="var(--fill-0, #E5B785)"/>
<path id="Vector_8" d="M58.802 69.6443C59.0034 69.6443 59.2121 69.6964 59.3911 69.8008L117.126 103.196C117.499 103.412 117.723 103.814 117.716 104.247L116.962 130.509C116.947 131.135 116.44 131.635 115.814 131.657L89.5344 132.402C89.0644 132.38 88.6542 132.164 88.4454 131.754L57.7501 71.3509C57.5114 70.8814 57.6085 70.3224 57.9889 69.9573C58.2127 69.7486 58.5036 69.6368 58.802 69.6368V69.6443ZM115.336 104.887L61.6513 73.8401L90.2057 130.032L114.627 129.339L115.329 104.895L115.336 104.887Z" fill="var(--fill-0, #E5B785)"/>
<path id="Vector_9" d="M22.7808 129.973L89.5044 130.055C89.9371 130.055 90.3398 130.293 90.5412 130.673L103.036 153.791C103.334 154.343 103.148 155.028 102.618 155.356L80.2176 169.129C79.8297 169.367 79.3374 169.36 78.957 169.114L22.1467 132.134C21.7066 131.851 21.5127 131.307 21.6619 130.807C21.8111 130.308 22.2736 129.965 22.7958 129.965L22.7808 129.973ZM88.7958 132.41L26.764 132.335L79.6134 166.736L100.425 153.933L88.7958 132.41Z" fill="var(--fill-0, #E5B785)"/>
<path id="Vector_10" d="M79.5985 166.96C79.8148 166.96 80.0312 167.019 80.2177 167.131L102.611 180.918C103.14 181.246 103.327 181.932 103.028 182.484L90.5265 205.601C90.3102 206.004 89.8849 206.25 89.4224 206.22L21.7215 202.568C21.1994 202.538 20.7593 202.173 20.64 201.666C20.5206 201.16 20.7444 200.631 21.1994 200.37L79.0092 167.116C79.1882 167.012 79.3971 166.96 79.5985 166.96ZM100.425 182.342L79.5761 169.509L25.8242 200.429L88.8034 203.82L100.417 182.342H100.425Z" fill="var(--fill-0, #E5B785)"/>
<path id="Vector_11" d="M89.4969 203.865H89.5342L115.813 204.618C116.44 204.633 116.94 205.139 116.962 205.765L117.708 232.028C117.723 232.483 117.469 232.908 117.059 233.116L56.6087 263.776C56.1462 264.015 55.5794 263.918 55.2139 263.538C54.8558 263.158 54.7887 262.591 55.0498 262.137L88.4676 204.461C88.6765 204.096 89.0717 203.872 89.4894 203.872L89.4969 203.865ZM114.635 206.943L90.1682 206.242L59.0927 259.871L115.321 231.35L114.627 206.95L114.635 206.943Z" fill="var(--fill-0, #E5B785)"/>
<path id="Vector_12" d="M139.676 218.397C140.071 218.397 140.459 218.599 140.683 218.956L154.468 241.329C154.706 241.717 154.699 242.208 154.453 242.588L117.447 299.347C117.164 299.787 116.626 299.981 116.119 299.832C115.619 299.683 115.276 299.221 115.276 298.699L115.358 232.051C115.358 231.618 115.597 231.216 115.978 231.015L139.116 218.539C139.295 218.442 139.489 218.397 139.676 218.397ZM152.066 241.933L139.258 221.147L117.716 232.766L117.641 294.734L152.066 241.94V241.933Z" fill="var(--fill-0, #E5B785)"/>
</g>
<path id="Vector_13" d="M153.476 93.1496C153.886 93.1496 154.266 93.3583 154.483 93.7086L167.693 115.127L189.855 103.181C190.213 102.987 190.653 102.995 191.004 103.196C191.362 103.397 191.578 103.777 191.593 104.187L192.316 129.332L217.484 130.055C217.894 130.07 218.267 130.293 218.469 130.644C218.67 131.001 218.677 131.434 218.484 131.791L206.534 153.933L227.972 167.131C228.322 167.347 228.531 167.727 228.531 168.137C228.531 168.547 228.322 168.927 227.972 169.144L206.534 182.342L218.484 204.491C218.677 204.849 218.67 205.288 218.469 205.639C218.26 205.996 217.887 206.213 217.484 206.227L192.316 206.958L191.593 232.103C191.578 232.513 191.354 232.885 191.004 233.094C190.645 233.295 190.213 233.303 189.855 233.109L167.693 221.162L154.483 242.581C154.05 243.282 152.901 243.282 152.476 242.581L139.258 221.162L117.096 233.109C116.738 233.303 116.298 233.295 115.948 233.094C115.59 232.893 115.373 232.513 115.358 232.103L114.635 206.958L89.4671 206.227C89.0568 206.213 88.6838 205.989 88.4824 205.639C88.281 205.281 88.2737 204.849 88.4677 204.491L100.417 182.342L78.9867 169.144C78.6361 168.927 78.4273 168.547 78.4273 168.137C78.4273 167.727 78.6361 167.347 78.9867 167.131L100.417 153.933L88.4677 131.791C88.2737 131.434 88.281 130.994 88.4824 130.644C88.6913 130.286 89.0643 130.07 89.4746 130.055L114.642 129.332L115.366 104.187C115.381 103.777 115.605 103.404 115.955 103.196C116.306 102.995 116.746 102.987 117.104 103.181L139.266 115.127L152.483 93.7086C152.7 93.3583 153.08 93.1496 153.491 93.1496H153.476ZM167.275 117.87C166.88 117.87 166.492 117.669 166.268 117.311L153.476 96.5779L140.683 117.311C140.355 117.84 139.668 118.026 139.116 117.728L117.663 106.162L116.962 130.509C116.947 131.135 116.44 131.635 115.813 131.657L91.4439 132.358L103.013 153.799C103.312 154.35 103.125 155.036 102.596 155.364L81.8437 168.145L102.596 180.918C103.125 181.246 103.312 181.932 103.013 182.484L91.4365 203.925L115.806 204.633C116.433 204.648 116.932 205.154 116.955 205.78L117.656 230.12L139.109 218.554C139.653 218.256 140.347 218.442 140.675 218.971L153.468 239.704L166.261 218.971C166.589 218.435 167.268 218.256 167.827 218.554L189.288 230.12L189.989 205.78C190.004 205.154 190.511 204.655 191.138 204.633L215.5 203.925L203.923 182.484C203.625 181.932 203.811 181.246 204.341 180.918L225.093 168.145L204.341 155.364C203.811 155.036 203.625 154.35 203.923 153.799L215.492 132.358L191.13 131.657C190.504 131.635 190.004 131.135 189.981 130.509L189.28 106.162L167.82 117.728C167.641 117.825 167.447 117.87 167.26 117.87H167.275Z" fill="var(--fill-0, #E5B785)"/>
</g>
<path id="Vector_14" d="M77.3308 35.1836H229.62C230.046 35.1836 230.433 35.4072 230.642 35.7723L306.787 167.541C306.996 167.906 306.996 168.353 306.787 168.719L230.642 300.495C230.433 300.86 230.038 301.084 229.62 301.084H77.3308C76.9056 301.084 76.5178 300.86 76.309 300.495L0.156676 168.719C-0.0521849 168.353 -0.0521849 167.906 0.156676 167.541L76.309 35.7723C76.5178 35.4072 76.9056 35.1836 77.3308 35.1836ZM228.942 37.546H78.0172L2.55118 168.137L78.0172 298.729H228.942L304.408 168.137L228.942 37.546Z" fill="var(--fill-0, #E5B785)"/>
</g>
<path id="Vector_15" d="M20.5655 200.489C20.9832 200.489 21.371 200.713 21.5873 201.078L57.0937 262.122C57.3324 262.532 57.3025 263.046 57.0116 263.426C56.7207 263.806 56.2359 263.97 55.7734 263.851L7.53404 251.159C6.90746 250.995 6.52694 250.347 6.69104 249.721L19.4167 201.368C19.536 200.906 19.924 200.563 20.4014 200.496C20.4536 200.496 20.5058 200.489 20.558 200.489H20.5655ZM53.625 260.847L20.983 204.729L9.27941 249.184L53.625 260.847Z" fill="var(--fill-0, #E5B785)"/>
<path id="Vector_16" d="M284.155 203.954C284.208 203.954 284.252 203.954 284.305 203.962C284.782 204.021 285.17 204.364 285.297 204.819L298.418 252.903C298.589 253.529 298.216 254.177 297.59 254.349L249.32 267.502C248.865 267.629 248.373 267.465 248.075 267.085C247.784 266.705 247.747 266.191 247.985 265.781L283.134 204.543C283.343 204.171 283.738 203.947 284.155 203.947V203.954ZM295.829 252.389L283.768 208.18L251.454 264.484L295.829 252.389Z" fill="var(--fill-0, #E5B785)"/>
<path id="Vector_17" d="M186.752 298.52C187.229 298.52 187.654 298.803 187.841 299.243C188.027 299.683 187.923 300.189 187.587 300.525L152.469 335.917C152.006 336.379 151.26 336.379 150.798 335.917L115.262 300.733C114.926 300.398 114.821 299.891 115 299.452C115.179 299.012 115.612 298.721 116.089 298.721L186.752 298.513V298.52ZM151.618 333.428L183.91 300.89L118.946 301.084L151.618 333.435V333.428Z" fill="var(--fill-0, #E5B785)"/>
<path id="Vector_18" d="M155.333 2.23175e-05C155.631 2.23175e-05 155.937 0.111873 156.161 0.342902L191.697 35.5264C192.033 35.8618 192.137 36.3686 191.958 36.8083C191.779 37.248 191.346 37.5386 190.869 37.5386L120.207 37.7473C119.729 37.7473 119.304 37.4641 119.118 37.0244C118.931 36.5847 119.036 36.078 119.372 35.7426L154.49 0.350362C154.721 0.119333 155.027 2.23175e-05 155.325 2.23175e-05H155.333ZM188.005 35.1911L155.333 2.83949L123.041 35.3774L188.005 35.1836V35.1911Z" fill="var(--fill-0, #E5B785)"/>
<path id="Vector_19" d="M57.9441 68.6754C58.3021 68.6754 58.6527 68.8394 58.884 69.1375C59.1749 69.5176 59.2048 70.0318 58.9661 70.4417L23.6536 131.583C23.4149 131.992 22.9598 132.231 22.475 132.164C21.9976 132.104 21.6098 131.761 21.4905 131.299L8.60819 82.9918C8.43663 82.3658 8.81696 81.7174 9.44354 81.546L57.6383 68.7127C57.7427 68.6829 57.8396 68.6754 57.9441 68.6754ZM23.0344 127.938L55.4974 71.7235L11.1891 83.521L23.0344 127.938Z" fill="var(--fill-0, #E5B785)"/>
<path id="Vector_20" d="M250.88 72.3719C250.984 72.3719 251.088 72.3868 251.193 72.4166L299.47 85.5704C299.768 85.6524 300.029 85.8536 300.186 86.1219C300.342 86.3977 300.38 86.7181 300.298 87.0162L287.162 135.1C287.035 135.562 286.647 135.898 286.169 135.957C285.692 136.017 285.237 135.786 284.998 135.376L249.85 74.1381C249.611 73.7208 249.649 73.2066 249.94 72.8339C250.163 72.5433 250.514 72.3719 250.872 72.3719H250.88ZM297.709 87.5305L253.326 75.435L285.64 131.732L297.716 87.523L297.709 87.5305Z" fill="var(--fill-0, #E5B785)"/>
</g>
</svg>
