<svg preserveAspectRatio="none" width="100%" height="100%" overflow="visible" style="display: block;" viewBox="0 0 306.944 336.274" fill="none" xmlns="http://www.w3.org/2000/svg">
<g id="Group">
<g id="Group_2">
<g id="Group_3">
<g id="Group_4">
<path id="Vector" d="M167.268 218.412C167.462 218.412 167.648 218.457 167.827 218.554L190.974 231.022C191.376 231.238 191.615 231.671 191.593 232.125L187.945 299.772C187.915 300.294 187.55 300.733 187.043 300.853C186.528 300.979 186.006 300.748 185.745 300.294L152.454 242.536C152.237 242.164 152.245 241.702 152.469 241.329L166.268 218.964C166.492 218.606 166.88 218.405 167.275 218.405L167.268 218.412ZM189.198 232.744L167.693 221.155L154.848 241.97L185.797 295.673L189.191 232.744H189.198Z" fill="var(--fill-0, #E5B785)"/>
<path id="Vector_2" d="M217.447 203.865C217.887 203.865 218.297 204.111 218.499 204.513L249.194 264.924C249.432 265.393 249.335 265.952 248.955 266.317C248.574 266.675 248 266.742 247.553 266.481L189.825 233.086C189.452 232.87 189.228 232.468 189.236 232.036L189.981 205.78C189.996 205.154 190.504 204.655 191.13 204.632L217.424 203.872H217.462L217.447 203.865ZM245.285 262.442L216.731 206.25L192.301 206.958L191.608 231.395L245.277 262.45L245.285 262.442Z" fill="var(--fill-0, #E5B785)"/>
<path id="Vector_3" d="M227.353 166.96C227.577 166.96 227.8 167.019 228.002 167.154L284.812 204.141C285.245 204.424 285.446 204.968 285.297 205.467C285.148 205.967 284.685 206.309 284.163 206.309L217.447 206.227C217.014 206.227 216.619 205.989 216.41 205.609L203.916 182.491C203.617 181.939 203.804 181.254 204.333 180.926L226.726 167.146C226.92 167.027 227.129 166.975 227.345 166.975L227.353 166.96ZM280.187 203.939L227.338 169.538L206.526 182.349L218.155 203.872L280.187 203.947V203.939Z" fill="var(--fill-0, #E5B785)"/>
<path id="Vector_4" d="M217.447 130.055C217.447 130.055 217.492 130.055 217.514 130.055L285.222 133.699C285.744 133.729 286.184 134.094 286.304 134.601C286.423 135.108 286.199 135.637 285.744 135.898L227.935 169.151C227.562 169.367 227.099 169.36 226.726 169.136L204.333 155.356C203.804 155.028 203.617 154.343 203.916 153.791L216.41 130.673C216.619 130.293 217.022 130.055 217.447 130.055ZM281.12 135.845L218.126 132.454L206.519 153.94L227.368 166.774L281.12 135.853V135.845Z" fill="var(--fill-0, #E5B785)"/>
<path id="Vector_5" d="M250.872 72.3718C251.185 72.3718 251.499 72.4985 251.73 72.737C252.088 73.1171 252.155 73.6835 251.894 74.1381L218.461 131.821C218.245 132.194 217.812 132.41 217.402 132.41L191.123 131.657C190.496 131.642 189.996 131.135 189.974 130.509L189.228 104.246C189.221 103.792 189.467 103.367 189.877 103.158L250.335 72.4911C250.506 72.4017 250.685 72.3644 250.872 72.3644V72.3718ZM216.775 130.032L247.858 76.4037L191.623 104.932L192.309 129.332L216.775 130.032Z" fill="var(--fill-0, #E5B785)"/>
<path id="Vector_6" d="M190.489 36.3908C190.601 36.3908 190.712 36.4058 190.824 36.4431C191.324 36.5921 191.667 37.0542 191.667 37.5759L191.585 104.232C191.585 104.664 191.347 105.066 190.966 105.267L167.82 117.743C167.275 118.041 166.582 117.862 166.253 117.326L152.469 94.9606C152.23 94.5731 152.237 94.0812 152.484 93.7011L189.497 36.9423C189.72 36.5995 190.093 36.4058 190.489 36.4058V36.3908ZM189.221 103.516L189.303 41.5406L154.87 94.342L167.678 115.127L189.221 103.516Z" fill="var(--fill-0, #E5B785)"/>
<path id="Vector_7" d="M120.177 35.3922C120.595 35.3922 120.983 35.6158 121.199 35.981L154.483 93.7458C154.699 94.1185 154.691 94.5805 154.468 94.9532L140.675 117.318C140.347 117.855 139.661 118.034 139.109 117.736L115.978 105.253C115.575 105.036 115.336 104.604 115.358 104.15L119.006 36.5026C119.036 35.981 119.401 35.5413 119.909 35.4221C119.998 35.3997 120.095 35.3922 120.185 35.3922H120.177ZM152.088 94.3122L121.147 40.609L117.753 103.538L139.251 115.135L152.088 94.3196V94.3122Z" fill="var(--fill-0, #E5B785)"/>
<path id="Vector_8" d="M58.7944 69.6516C58.9958 69.6516 59.2047 69.7039 59.3837 69.8082L117.119 103.203C117.492 103.419 117.716 103.822 117.708 104.254L116.955 130.517C116.94 131.143 116.433 131.642 115.806 131.664L89.5268 132.41C89.042 132.402 88.6466 132.171 88.4377 131.761L57.7352 71.3583C57.4965 70.8888 57.5934 70.3299 57.9739 69.9647C58.1976 69.756 58.4885 69.6442 58.7869 69.6442L58.7944 69.6516ZM115.336 104.887L61.6588 73.84L90.213 130.032L114.635 129.339L115.336 104.895V104.887Z" fill="var(--fill-0, #E5B785)"/>
<path id="Vector_9" d="M22.7733 129.98L89.4895 130.062C89.9221 130.062 90.3175 130.301 90.5263 130.681L103.021 153.806C103.319 154.358 103.133 155.043 102.596 155.371L80.1952 169.143C79.8073 169.382 79.3149 169.374 78.9345 169.128L22.1244 132.149C21.6843 131.866 21.4903 131.322 21.6395 130.822C21.7887 130.323 22.2512 129.98 22.7733 129.98ZM88.7883 132.417L26.7566 132.343L79.6059 166.744L100.417 153.948L88.7883 132.425V132.417Z" fill="var(--fill-0, #E5B785)"/>
<path id="Vector_10" d="M79.5984 166.96C79.8147 166.96 80.0236 167.019 80.2176 167.131L102.61 180.918C103.14 181.246 103.327 181.932 103.028 182.483L90.5263 205.601C90.31 206.004 89.9445 206.25 89.4224 206.22L21.7215 202.568C21.1994 202.538 20.7593 202.173 20.64 201.666C20.5206 201.16 20.7444 200.63 21.1994 200.37L79.0092 167.116C79.1882 167.012 79.397 166.96 79.5984 166.96ZM100.425 182.349L79.576 169.516L25.8242 200.437L88.8033 203.828L100.417 182.349H100.425Z" fill="var(--fill-0, #E5B785)"/>
<path id="Vector_11" d="M89.497 203.865H89.5343L115.813 204.618C116.44 204.632 116.94 205.139 116.962 205.765L117.708 232.028C117.723 232.483 117.469 232.908 117.067 233.116L56.6163 263.776C56.1464 264.015 55.5794 263.918 55.2214 263.538C54.8634 263.158 54.7962 262.591 55.0572 262.136L88.475 204.461C88.6839 204.096 89.0792 203.872 89.497 203.872V203.865ZM114.627 206.95L90.1608 206.25L59.0927 259.878L115.321 231.357L114.627 206.958V206.95Z" fill="var(--fill-0, #E5B785)"/>
<path id="Vector_12" d="M139.676 218.405C140.071 218.405 140.459 218.606 140.683 218.964L154.468 241.336C154.706 241.724 154.699 242.216 154.453 242.596L117.447 299.355C117.164 299.794 116.619 299.996 116.119 299.839C115.62 299.69 115.276 299.228 115.276 298.706L115.358 232.058C115.358 231.626 115.597 231.223 115.978 231.022L139.116 218.546C139.295 218.45 139.482 218.405 139.676 218.405ZM152.066 241.94L139.258 221.155L117.716 232.766L117.641 294.734L152.066 241.94Z" fill="var(--fill-0, #E5B785)"/>
</g>
<path id="Vector_13" d="M153.476 93.1496C153.886 93.1496 154.266 93.3583 154.483 93.7085L167.693 115.127L189.855 103.181C190.213 102.987 190.653 102.994 191.003 103.196C191.361 103.404 191.585 103.777 191.593 104.187L192.316 129.332L217.484 130.055C217.894 130.07 218.267 130.293 218.469 130.643C218.67 131.001 218.678 131.433 218.484 131.791L206.526 153.933L227.964 167.131C228.315 167.347 228.524 167.727 228.524 168.137C228.524 168.547 228.315 168.927 227.964 169.143L206.526 182.334L218.484 204.483C218.678 204.841 218.67 205.281 218.469 205.631C218.267 205.989 217.887 206.205 217.484 206.22L192.316 206.95L191.593 232.095C191.578 232.505 191.354 232.878 191.003 233.086C190.645 233.288 190.213 233.295 189.855 233.101L167.693 221.155L154.483 242.573C154.057 243.274 152.901 243.274 152.476 242.573L139.258 221.155L117.096 233.101C116.738 233.295 116.298 233.288 115.948 233.086C115.59 232.878 115.366 232.505 115.358 232.095L114.635 206.95L89.4671 206.22C89.0568 206.205 88.6839 205.981 88.4825 205.631C88.2811 205.273 88.2736 204.841 88.4676 204.483L100.425 182.334L78.9868 169.143C78.6362 168.927 78.4274 168.547 78.4274 168.137C78.4274 167.727 78.6362 167.347 78.9868 167.131L100.425 153.933L88.4676 131.791C88.2736 131.433 88.2811 130.994 88.4825 130.643C88.6839 130.286 89.0643 130.07 89.4671 130.055L114.635 129.332L115.358 104.187C115.373 103.777 115.597 103.404 115.948 103.196C116.306 102.994 116.738 102.987 117.096 103.181L139.258 115.127L152.476 93.7085C152.692 93.3583 153.073 93.1496 153.483 93.1496H153.476ZM167.268 117.87C166.873 117.87 166.485 117.669 166.261 117.311L153.468 96.5778L140.675 117.311C140.347 117.847 139.653 118.026 139.109 117.728L117.656 106.162L116.955 130.509C116.94 131.135 116.433 131.635 115.806 131.657L91.4364 132.358L103.013 153.799C103.312 154.35 103.125 155.036 102.596 155.364L81.8437 168.145L102.596 180.918C103.125 181.246 103.312 181.932 103.013 182.483L91.4364 203.925L115.806 204.632C116.433 204.655 116.932 205.154 116.955 205.78L117.656 230.12L139.109 218.554C139.653 218.263 140.347 218.442 140.675 218.971L153.468 239.704L166.261 218.971C166.589 218.435 167.283 218.263 167.827 218.554L189.288 230.12L189.989 205.78C190.004 205.154 190.511 204.655 191.138 204.632L215.5 203.925L203.923 182.483C203.625 181.932 203.811 181.246 204.341 180.918L225.093 168.145L204.341 155.364C203.811 155.036 203.625 154.35 203.923 153.799L215.5 132.358L191.138 131.657C190.511 131.642 190.011 131.135 189.989 130.509L189.288 106.162L167.827 117.728C167.648 117.825 167.462 117.87 167.268 117.87Z" fill="var(--fill-0, #E5B785)"/>
</g>
<path id="Vector_14" d="M77.3309 35.191H229.62C230.046 35.191 230.433 35.4146 230.642 35.7798L306.787 167.549C306.996 167.914 306.996 168.361 306.787 168.726L230.642 300.502C230.433 300.868 230.046 301.091 229.62 301.091H77.3309C76.9057 301.091 76.5178 300.868 76.309 300.502L0.15666 168.726C-0.0522012 168.361 -0.0522012 167.914 0.15666 167.549L76.309 35.7798C76.5178 35.4146 76.9057 35.191 77.3309 35.191ZM228.934 37.546H78.0096L2.53623 168.137L78.0096 298.729H228.934L304.4 168.137L228.934 37.546Z" fill="var(--fill-0, #E5B785)"/>
</g>
<path id="Vector_15" d="M20.5578 200.496C20.9755 200.496 21.3634 200.72 21.5797 201.085L57.0862 262.129C57.3249 262.539 57.2951 263.061 57.0042 263.433C56.7132 263.813 56.2358 263.985 55.7659 263.858L7.5264 251.166C6.89236 251.002 6.51939 250.354 6.68349 249.728L19.4091 201.376C19.5285 200.914 19.9163 200.571 20.3937 200.504C20.4459 200.504 20.4982 200.496 20.5504 200.496H20.5578ZM53.6176 260.855L20.9681 204.737L9.26448 249.191L53.6176 260.855Z" fill="var(--fill-0, #E5B785)"/>
<path id="Vector_16" d="M284.155 203.954C284.208 203.954 284.252 203.954 284.305 203.962C284.775 204.021 285.17 204.364 285.297 204.819L298.418 252.903C298.589 253.529 298.216 254.177 297.59 254.349L249.32 267.502C248.858 267.629 248.366 267.465 248.075 267.085C247.784 266.705 247.746 266.191 247.985 265.781L283.133 204.543C283.342 204.17 283.738 203.947 284.155 203.947V203.954ZM295.822 252.396L283.76 208.187L251.446 264.492L295.822 252.396Z" fill="var(--fill-0, #E5B785)"/>
<path id="Vector_17" d="M186.744 298.527C187.222 298.527 187.647 298.811 187.833 299.25C188.02 299.69 187.915 300.197 187.587 300.532L152.469 335.924C152.006 336.386 151.26 336.394 150.798 335.924L115.261 300.741C114.918 300.405 114.821 299.899 115 299.459C115.179 299.019 115.612 298.729 116.089 298.729L186.752 298.52L186.744 298.527ZM151.618 333.435L183.91 300.897L118.946 301.091L151.618 333.443V333.435Z" fill="var(--fill-0, #E5B785)"/>
<path id="Vector_18" d="M155.326 0C155.624 0 155.93 0.111759 156.153 0.342789L191.69 35.5264C192.033 35.8618 192.13 36.3685 191.951 36.8082C191.772 37.2479 191.339 37.5386 190.862 37.5386L120.2 37.7473C119.722 37.7473 119.297 37.464 119.11 37.0243C118.924 36.5846 119.028 36.0778 119.357 35.7425L154.475 0.350249C154.706 0.119219 155.012 0 155.318 0H155.326ZM188.005 35.1985L155.333 2.84684L123.042 35.3848L188.005 35.191V35.1985Z" fill="var(--fill-0, #E5B785)"/>
<path id="Vector_19" d="M57.9366 68.6829C58.3021 68.6829 58.6452 68.8468 58.869 69.1449C59.1599 69.525 59.1972 70.0392 58.951 70.4491L23.6385 131.59C23.3998 132 22.9374 132.238 22.46 132.171C21.9826 132.112 21.5948 131.769 21.4754 131.307L8.59314 82.9992C8.42158 82.3657 8.802 81.7248 9.42858 81.5534L57.6233 68.7201C57.7277 68.6903 57.8247 68.6829 57.9291 68.6829H57.9366ZM23.0269 127.946L55.4974 71.7309L11.189 83.5283L23.0269 127.946Z" fill="var(--fill-0, #E5B785)"/>
<path id="Vector_20" d="M250.872 72.3718C250.976 72.3718 251.081 72.3868 251.185 72.4166L299.462 85.5703C299.76 85.6523 300.021 85.8535 300.178 86.1218C300.335 86.3901 300.372 86.7181 300.29 87.0162L287.162 135.1C287.035 135.562 286.647 135.897 286.169 135.957C285.677 136.009 285.23 135.786 284.998 135.376L249.85 74.1381C249.611 73.7282 249.649 73.2065 249.939 72.8339C250.163 72.5433 250.514 72.3793 250.872 72.3793V72.3718ZM297.702 87.5303L253.319 75.4348L285.632 131.732L297.702 87.5229V87.5303Z" fill="var(--fill-0, #E5B785)"/>
</g>
</svg>
