<svg preserveAspectRatio="none" width="100%" height="100%" overflow="visible" style="display: block;" viewBox="0 0 306.944 336.263" fill="none" xmlns="http://www.w3.org/2000/svg">
<g id="Group">
<g id="Group_2">
<g id="Group_3">
<g id="Group_4">
<path id="Vector" d="M167.268 218.405C167.454 218.405 167.648 218.45 167.827 218.546L190.974 231.015C191.376 231.231 191.615 231.663 191.593 232.118L187.945 299.765C187.915 300.286 187.55 300.726 187.043 300.845C186.535 300.964 186.006 300.741 185.745 300.286L152.454 242.529C152.237 242.156 152.245 241.687 152.469 241.322L166.268 218.956C166.492 218.599 166.88 218.397 167.275 218.397L167.268 218.405ZM189.198 232.744L167.693 221.155L154.848 241.97L185.797 295.673L189.191 232.744H189.198Z" fill="var(--fill-0, #E5B785)"/>
<path id="Vector_2" d="M217.447 203.865C217.887 203.865 218.297 204.111 218.498 204.513L249.194 264.924C249.432 265.393 249.335 265.952 248.955 266.317C248.574 266.675 248.007 266.742 247.552 266.481L189.825 233.086C189.452 232.87 189.221 232.468 189.236 232.036L189.981 205.78C189.996 205.154 190.504 204.655 191.13 204.633L217.424 203.872H217.462L217.447 203.865ZM245.285 262.435L216.731 206.242L192.301 206.95L191.608 231.387L245.278 262.442L245.285 262.435Z" fill="var(--fill-0, #E5B785)"/>
<path id="Vector_3" d="M227.353 166.96C227.577 166.96 227.8 167.019 227.994 167.154L284.805 204.141C285.245 204.424 285.439 204.968 285.289 205.467C285.14 205.967 284.678 206.309 284.156 206.309L217.439 206.227C217.007 206.227 216.604 205.989 216.402 205.609L203.908 182.491C203.61 181.939 203.796 181.254 204.326 180.926L226.719 167.146C226.905 167.027 227.122 166.975 227.338 166.975L227.353 166.96ZM280.18 203.939L227.33 169.538L206.519 182.349L218.148 203.872L280.18 203.947V203.939Z" fill="var(--fill-0, #E5B785)"/>
<path id="Vector_4" d="M217.447 130.047C217.447 130.047 217.492 130.047 217.507 130.047L285.215 133.692C285.737 133.721 286.177 134.087 286.296 134.593C286.416 135.1 286.192 135.629 285.737 135.89L227.927 169.144C227.554 169.36 227.084 169.352 226.719 169.129L204.326 155.349C203.796 155.021 203.61 154.335 203.908 153.784L216.402 130.666C216.611 130.286 217.007 130.047 217.439 130.047H217.447ZM281.12 135.838L218.133 132.447L206.526 153.933L227.375 166.766L281.127 135.845L281.12 135.838Z" fill="var(--fill-0, #E5B785)"/>
<path id="Vector_5" d="M250.872 72.3719C251.185 72.3719 251.499 72.4986 251.73 72.7371C252.088 73.1172 252.155 73.6835 251.894 74.1381L218.461 131.821C218.245 132.194 217.805 132.402 217.41 132.41L191.13 131.657C190.504 131.642 190.004 131.135 189.982 130.509L189.236 104.247C189.221 103.792 189.474 103.367 189.885 103.158L250.342 72.4911C250.514 72.4017 250.693 72.3645 250.88 72.3645L250.872 72.3719ZM216.768 130.032L247.851 76.4037L191.615 104.932L192.302 129.332L216.768 130.032Z" fill="var(--fill-0, #E5B785)"/>
<path id="Vector_6" d="M190.489 36.3835C190.601 36.3835 190.713 36.3984 190.824 36.4356C191.324 36.5847 191.667 37.0467 191.667 37.5684L191.585 104.224C191.585 104.656 191.347 105.059 190.966 105.26L167.82 117.736C167.268 118.034 166.582 117.847 166.253 117.318L152.469 94.9532C152.23 94.5656 152.237 94.0738 152.483 93.6937L189.497 36.935C189.72 36.5922 190.093 36.3984 190.489 36.3984V36.3835ZM189.221 103.516L189.303 41.5406L154.87 94.3421L167.678 115.127L189.221 103.516Z" fill="var(--fill-0, #E5B785)"/>
<path id="Vector_7" d="M120.177 35.3848C120.595 35.3848 120.983 35.6009 121.199 35.9736L154.483 93.7384C154.699 94.111 154.692 94.5805 154.468 94.9457L140.675 117.311C140.347 117.84 139.661 118.026 139.109 117.728L115.978 105.245C115.575 105.029 115.336 104.597 115.358 104.142L119.006 36.4953C119.036 35.9736 119.401 35.5339 119.909 35.4146C119.998 35.3923 120.095 35.3848 120.185 35.3848H120.177ZM152.088 94.3123L121.147 40.609L117.753 103.539L139.251 115.135L152.088 94.3197V94.3123Z" fill="var(--fill-0, #E5B785)"/>
<path id="Vector_8" d="M58.7945 69.6443C58.9959 69.6443 59.2047 69.6964 59.3837 69.8008L117.119 103.196C117.492 103.412 117.723 103.814 117.708 104.247L116.955 130.509C116.94 131.135 116.433 131.635 115.806 131.657L89.5269 132.402C89.0495 132.38 88.6467 132.164 88.4379 131.754L57.7427 71.3509C57.504 70.8814 57.601 70.3224 57.9814 69.9573C58.2052 69.7486 58.4962 69.6368 58.7945 69.6368V69.6443ZM115.336 104.887L61.6513 73.8401L90.2057 130.032L114.627 129.339L115.329 104.895L115.336 104.887Z" fill="var(--fill-0, #E5B785)"/>
<path id="Vector_9" d="M22.7733 129.973L89.4895 130.055C89.9221 130.055 90.3249 130.293 90.5263 130.673L103.021 153.791C103.319 154.343 103.133 155.028 102.603 155.356L80.2027 169.129C79.8148 169.367 79.3225 169.36 78.9421 169.114L22.1318 132.134C21.6917 131.851 21.4978 131.307 21.647 130.807C21.7962 130.308 22.2587 129.965 22.7808 129.965L22.7733 129.973ZM88.7884 132.41L26.7565 132.335L79.6059 166.736L100.417 153.933L88.7884 132.41Z" fill="var(--fill-0, #E5B785)"/>
<path id="Vector_10" d="M79.591 166.96C79.8074 166.96 80.0237 167.019 80.2102 167.131L102.603 180.918C103.133 181.246 103.319 181.932 103.021 182.484L90.5191 205.601C90.3027 206.004 89.8699 206.25 89.4149 206.22L21.7141 202.568C21.1919 202.538 20.7519 202.173 20.6325 201.666C20.5132 201.16 20.7369 200.631 21.192 200.37L79.0017 167.116C79.1807 167.012 79.3896 166.96 79.591 166.96ZM100.417 182.342L79.5686 169.509L25.8167 200.429L88.7959 203.82L100.41 182.342H100.417Z" fill="var(--fill-0, #E5B785)"/>
<path id="Vector_11" d="M89.4969 203.865H89.5268L115.806 204.618C116.433 204.633 116.932 205.139 116.955 205.765L117.701 232.028C117.716 232.483 117.462 232.908 117.059 233.116L56.6087 263.776C56.1462 264.015 55.5794 263.918 55.2139 263.538C54.8558 263.158 54.7887 262.591 55.0498 262.137L88.4676 204.461C88.6765 204.096 89.0717 203.872 89.4894 203.872L89.4969 203.865ZM114.627 206.943L90.1607 206.242L59.0852 259.871L115.314 231.35L114.62 206.95L114.627 206.943Z" fill="var(--fill-0, #E5B785)"/>
<path id="Vector_12" d="M139.668 218.397C140.064 218.397 140.452 218.599 140.675 218.956L154.46 241.329C154.699 241.717 154.692 242.208 154.445 242.588L117.44 299.347C117.156 299.787 116.619 299.981 116.112 299.832C115.612 299.683 115.269 299.221 115.269 298.699L115.351 232.051C115.351 231.618 115.59 231.216 115.97 231.015L139.109 218.539C139.288 218.442 139.482 218.397 139.668 218.397ZM152.066 241.933L139.258 221.147L117.716 232.766L117.641 294.734L152.066 241.94V241.933Z" fill="var(--fill-0, #E5B785)"/>
</g>
<path id="Vector_13" d="M153.476 93.1496C153.886 93.1496 154.266 93.3583 154.483 93.7086L167.693 115.127L189.855 103.181C190.22 102.987 190.653 102.995 191.004 103.196C191.362 103.397 191.578 103.777 191.593 104.187L192.316 129.332L217.484 130.055C217.894 130.07 218.267 130.293 218.469 130.644C218.67 131.001 218.677 131.434 218.484 131.791L206.534 153.933L227.972 167.131C228.322 167.347 228.531 167.727 228.531 168.137C228.531 168.547 228.322 168.927 227.972 169.144L206.534 182.342L218.484 204.491C218.677 204.849 218.67 205.288 218.469 205.639C218.267 205.996 217.887 206.213 217.484 206.227L192.316 206.958L191.593 232.103C191.578 232.513 191.354 232.885 191.004 233.094C190.645 233.295 190.213 233.303 189.855 233.109L167.693 221.162L154.483 242.581C154.05 243.282 152.901 243.282 152.476 242.581L139.258 221.162L117.096 233.109C116.738 233.303 116.298 233.295 115.948 233.094C115.59 232.893 115.373 232.513 115.358 232.103L114.635 206.958L89.4671 206.227C89.0568 206.213 88.6838 205.989 88.4824 205.639C88.281 205.281 88.2737 204.849 88.4677 204.491L100.417 182.342L78.9867 169.144C78.6361 168.927 78.4273 168.547 78.4273 168.137C78.4273 167.727 78.6361 167.347 78.9867 167.131L100.417 153.933L88.4677 131.791C88.2737 131.434 88.281 130.994 88.4824 130.644C88.6838 130.286 89.0643 130.07 89.4746 130.055L114.642 129.332L115.366 104.187C115.381 103.777 115.605 103.404 115.955 103.196C116.306 102.995 116.746 102.987 117.104 103.181L139.266 115.127L152.483 93.7086C152.7 93.3583 153.08 93.1496 153.491 93.1496H153.476ZM167.268 117.87C166.873 117.87 166.485 117.669 166.261 117.311L153.468 96.5779L140.675 117.311C140.347 117.84 139.661 118.026 139.109 117.728L117.656 106.162L116.955 130.509C116.94 131.135 116.433 131.635 115.806 131.657L91.4365 132.358L103.006 153.799C103.304 154.35 103.118 155.036 102.588 155.364L81.8362 168.145L102.588 180.918C103.118 181.246 103.304 181.932 103.006 182.484L91.429 203.925L115.799 204.633C116.425 204.648 116.925 205.154 116.947 205.78L117.648 230.12L139.101 218.554C139.653 218.256 140.34 218.442 140.668 218.971L153.461 239.704L166.253 218.971C166.582 218.435 167.268 218.256 167.82 218.554L189.28 230.12L189.981 205.78C190.004 205.154 190.504 204.655 191.13 204.633L215.492 203.925L203.915 182.484C203.617 181.932 203.804 181.246 204.333 180.918L225.085 168.145L204.333 155.364C203.804 155.036 203.617 154.35 203.915 153.799L215.485 132.358L191.123 131.657C190.496 131.635 189.996 131.135 189.974 130.509L189.273 106.162L167.812 117.728C167.633 117.825 167.439 117.87 167.253 117.87H167.268Z" fill="var(--fill-0, #E5B785)"/>
</g>
<path id="Vector_14" d="M77.3308 35.1836H229.62C230.046 35.1836 230.433 35.4072 230.642 35.7723L306.787 167.541C306.996 167.906 306.996 168.353 306.787 168.719L230.642 300.495C230.433 300.86 230.038 301.084 229.62 301.084H77.3308C76.9056 301.084 76.5178 300.86 76.309 300.495L0.156674 168.719C-0.052187 168.353 -0.052187 167.906 0.156674 167.541L76.309 35.7723C76.5178 35.4072 76.9131 35.1836 77.3308 35.1836ZM228.934 37.546H78.0023L2.53615 168.137L78.0023 298.729H228.934L304.4 168.137L228.934 37.546Z" fill="var(--fill-0, #E5B785)"/>
</g>
<path id="Vector_15" d="M20.558 200.489C20.9757 200.489 21.3635 200.713 21.5798 201.078L57.0863 262.122C57.325 262.532 57.2951 263.046 57.0042 263.426C56.7132 263.806 56.2285 263.97 55.766 263.851L7.52659 251.159C6.89255 250.995 6.51949 250.347 6.68359 249.721L19.4092 201.368C19.5286 200.906 19.9165 200.563 20.3939 200.496C20.4461 200.496 20.4983 200.489 20.5505 200.489H20.558ZM53.6176 260.847L20.9756 204.729L9.27196 249.184L53.6176 260.847Z" fill="var(--fill-0, #E5B785)"/>
<path id="Vector_16" d="M284.148 203.954C284.2 203.954 284.245 203.954 284.297 203.962C284.775 204.021 285.163 204.364 285.289 204.819L298.41 252.903C298.582 253.529 298.209 254.177 297.582 254.349L249.313 267.502C248.851 267.629 248.358 267.465 248.067 267.085C247.776 266.705 247.739 266.191 247.978 265.781L283.126 204.543C283.335 204.171 283.73 203.947 284.148 203.947V203.954ZM295.822 252.389L283.76 208.18L251.446 264.484L295.822 252.389Z" fill="var(--fill-0, #E5B785)"/>
<path id="Vector_17" d="M186.744 298.52C187.222 298.52 187.647 298.803 187.833 299.243C188.02 299.683 187.915 300.189 187.58 300.525L152.454 335.917C151.999 336.379 151.245 336.379 150.783 335.917L115.247 300.733C114.911 300.398 114.806 299.891 114.985 299.452C115.164 299.012 115.597 298.721 116.074 298.721L186.737 298.513L186.744 298.52ZM151.618 333.428L183.91 300.89L118.946 301.084L151.618 333.435V333.428Z" fill="var(--fill-0, #E5B785)"/>
<path id="Vector_18" d="M155.325 2.23175e-05C155.624 2.23175e-05 155.93 0.111873 156.153 0.342902L191.69 35.5264C192.025 35.8618 192.13 36.3686 191.951 36.8083C191.772 37.248 191.339 37.5386 190.862 37.5386L120.199 37.7473C119.722 37.7473 119.297 37.4641 119.11 37.0244C118.924 36.5847 119.028 36.078 119.364 35.7426L154.49 0.350362C154.721 0.119333 155.027 2.23175e-05 155.325 2.23175e-05ZM188.005 35.1911L155.333 2.83949L123.041 35.3774L188.005 35.1836V35.1911Z" fill="var(--fill-0, #E5B785)"/>
<path id="Vector_19" d="M57.9366 68.6754C58.3021 68.6754 58.6453 68.8394 58.8765 69.1375C59.1674 69.5176 59.1973 70.0318 58.9586 70.4417L23.6461 131.583C23.4074 131.992 22.9523 132.231 22.4675 132.164C21.9901 132.104 21.6023 131.761 21.483 131.299L8.60072 82.9918C8.42916 82.3658 8.80949 81.7174 9.43607 81.546L57.6308 68.7127C57.7353 68.6829 57.8322 68.6754 57.9366 68.6754ZM23.0269 127.938L55.4899 71.7235L11.1816 83.521L23.0269 127.938Z" fill="var(--fill-0, #E5B785)"/>
<path id="Vector_20" d="M250.872 72.3719C250.977 72.3719 251.081 72.3868 251.185 72.4166L299.462 85.5704C299.76 85.6524 300.021 85.8536 300.178 86.1219C300.335 86.3977 300.372 86.7181 300.29 87.0162L287.162 135.1C287.035 135.562 286.647 135.898 286.169 135.957C285.692 136.017 285.237 135.786 284.998 135.376L249.85 74.1381C249.611 73.7208 249.649 73.2066 249.94 72.8339C250.163 72.5433 250.514 72.3719 250.872 72.3719ZM297.702 87.5305L253.319 75.435L285.632 131.732L297.709 87.523L297.702 87.5305Z" fill="var(--fill-0, #E5B785)"/>
</g>
</svg>
