<svg preserveAspectRatio="none" width="100%" height="100%" overflow="visible" style="display: block;" viewBox="0 0 306.944 336.266" fill="none" xmlns="http://www.w3.org/2000/svg">
<g id="Group">
<g id="Group_2">
<g id="Group_3">
<g id="Group_4">
<path id="Vector" d="M167.275 218.405C167.462 218.405 167.656 218.45 167.835 218.546L190.981 231.015C191.384 231.231 191.623 231.656 191.6 232.118L187.952 299.765C187.923 300.286 187.557 300.726 187.05 300.845C186.543 300.964 186.013 300.741 185.752 300.286L152.461 242.529C152.245 242.156 152.252 241.694 152.476 241.322L166.268 218.956C166.492 218.599 166.88 218.397 167.275 218.397V218.405ZM189.198 232.744L167.693 221.155L154.848 241.97L185.797 295.673L189.191 232.744H189.198Z" fill="var(--fill-0, #E5B785)"/>
<path id="Vector_2" d="M217.454 203.865C217.894 203.865 218.305 204.111 218.506 204.506L249.201 264.916C249.44 265.386 249.343 265.945 248.962 266.31C248.582 266.668 248.015 266.735 247.56 266.474L189.832 233.079C189.459 232.863 189.228 232.46 189.243 232.028L189.989 205.773C190.004 205.147 190.511 204.647 191.138 204.625L217.432 203.865H217.469H217.454ZM245.292 262.442L216.738 206.25L192.309 206.958L191.615 231.395L245.285 262.45L245.292 262.442Z" fill="var(--fill-0, #E5B785)"/>
<path id="Vector_3" d="M227.353 166.96C227.577 166.96 227.8 167.027 227.994 167.154L284.804 204.141C285.245 204.424 285.438 204.968 285.289 205.467C285.14 205.967 284.678 206.309 284.156 206.309L217.439 206.227C217.007 206.227 216.604 205.989 216.403 205.609L203.908 182.491C203.61 181.939 203.796 181.254 204.326 180.926L226.719 167.146C226.913 167.027 227.122 166.967 227.338 166.967L227.353 166.96ZM280.187 203.939L227.338 169.538L206.526 182.349L218.155 203.872L280.187 203.947V203.939Z" fill="var(--fill-0, #E5B785)"/>
<path id="Vector_4" d="M217.454 130.047C217.454 130.047 217.499 130.047 217.514 130.047L285.222 133.692C285.744 133.721 286.184 134.087 286.304 134.593C286.423 135.1 286.199 135.629 285.744 135.89L227.935 169.143C227.562 169.36 227.092 169.352 226.726 169.129L204.333 155.349C203.804 155.021 203.617 154.335 203.916 153.784L216.41 130.666C216.619 130.286 217.014 130.047 217.447 130.047H217.454ZM281.127 135.838L218.141 132.447L206.534 153.933L227.383 166.766L281.135 135.845L281.127 135.838Z" fill="var(--fill-0, #E5B785)"/>
<path id="Vector_5" d="M250.879 72.3719C251.193 72.3719 251.506 72.4986 251.737 72.737C252.095 73.1171 252.162 73.6835 251.901 74.1381L218.469 131.821C218.252 132.194 217.82 132.417 217.417 132.41L191.138 131.657C190.511 131.642 190.011 131.135 189.989 130.509L189.243 104.246C189.228 103.792 189.482 103.367 189.892 103.158L250.35 72.4911C250.521 72.4017 250.7 72.3644 250.887 72.3644L250.879 72.3719ZM216.775 130.032L247.858 76.4037L191.623 104.932L192.309 129.332L216.775 130.032Z" fill="var(--fill-0, #E5B785)"/>
<path id="Vector_6" d="M190.489 36.3834C190.601 36.3834 190.712 36.3983 190.824 36.4356C191.324 36.5846 191.667 37.0467 191.667 37.5684L191.585 104.224C191.585 104.656 191.346 105.059 190.966 105.26L167.82 117.736C167.268 118.034 166.582 117.847 166.253 117.318L152.469 94.9531C152.23 94.5656 152.237 94.0737 152.483 93.6936L189.497 36.9349C189.72 36.5921 190.093 36.3983 190.489 36.3983V36.3834ZM189.228 103.516L189.31 41.5406L154.878 94.342L167.686 115.127L189.228 103.516Z" fill="var(--fill-0, #E5B785)"/>
<path id="Vector_7" d="M120.185 35.3848C120.602 35.3848 120.99 35.6084 121.207 35.9735L154.49 93.7384C154.706 94.111 154.699 94.5731 154.475 94.9457L140.683 117.311C140.355 117.84 139.668 118.026 139.116 117.728L115.985 105.245C115.582 105.029 115.343 104.597 115.366 104.142L119.013 36.4952C119.043 35.9735 119.409 35.5338 119.916 35.4146C120.006 35.3922 120.103 35.3848 120.192 35.3848H120.185ZM152.088 94.3122L121.147 40.609L117.753 103.538L139.251 115.135L152.088 94.3197V94.3122Z" fill="var(--fill-0, #E5B785)"/>
<path id="Vector_8" d="M58.8018 69.6442C59.0032 69.6442 59.2121 69.6964 59.3911 69.8007L117.126 103.196C117.499 103.412 117.723 103.814 117.716 104.246L116.962 130.509C116.947 131.135 116.44 131.635 115.813 131.657L89.5342 132.402C89.0568 132.38 88.654 132.164 88.4451 131.761L57.75 71.3583C57.5113 70.8888 57.6083 70.3298 57.9888 69.9647C58.2125 69.756 58.5034 69.6442 58.8018 69.6442ZM115.336 104.887L61.6512 73.84L90.2055 130.032L114.627 129.339L115.329 104.895L115.336 104.887Z" fill="var(--fill-0, #E5B785)"/>
<path id="Vector_9" d="M22.7807 129.973L89.4969 130.055C89.9296 130.055 90.3324 130.293 90.5338 130.673L103.028 153.799C103.327 154.35 103.14 155.036 102.61 155.364L80.21 169.136C79.8221 169.374 79.3299 169.367 78.9494 169.121L22.1392 132.141C21.6991 131.858 21.5051 131.314 21.6543 130.815C21.8035 130.316 22.266 129.973 22.7882 129.973H22.7807ZM88.7957 132.417L26.764 132.343L79.6133 166.744L100.425 153.948L88.7957 132.425V132.417Z" fill="var(--fill-0, #E5B785)"/>
<path id="Vector_10" d="M79.5984 166.96C79.8147 166.96 80.031 167.019 80.2175 167.139L102.61 180.926C103.14 181.254 103.327 181.939 103.028 182.491L90.5263 205.609C90.31 206.011 89.8848 206.25 89.4224 206.227L21.7215 202.576C21.1994 202.546 20.7592 202.181 20.6399 201.674C20.5205 201.167 20.7443 200.638 21.1993 200.377L79.0091 167.124C79.1881 167.019 79.397 166.967 79.5984 166.967V166.96ZM100.425 182.342L79.576 169.509L25.8242 200.429L88.8032 203.828L100.417 182.349L100.425 182.342Z" fill="var(--fill-0, #E5B785)"/>
<path id="Vector_11" d="M89.497 203.865H89.5342L115.813 204.618C116.44 204.633 116.94 205.139 116.962 205.765L117.708 232.028C117.723 232.483 117.469 232.908 117.067 233.116L56.6162 263.776C56.1463 264.015 55.5868 263.918 55.2213 263.538C54.8633 263.158 54.7962 262.591 55.0573 262.137L88.4751 204.461C88.6839 204.096 89.0793 203.872 89.497 203.872V203.865ZM114.635 206.943L90.1683 206.242L59.0928 259.871L115.321 231.35L114.627 206.95L114.635 206.943Z" fill="var(--fill-0, #E5B785)"/>
<path id="Vector_12" d="M139.676 218.397C140.071 218.397 140.459 218.599 140.683 218.956L154.468 241.329C154.706 241.717 154.699 242.208 154.453 242.588L117.447 299.347C117.164 299.787 116.626 299.981 116.119 299.832C115.619 299.683 115.276 299.22 115.276 298.699L115.358 232.051C115.358 231.618 115.597 231.216 115.978 231.015L139.116 218.539C139.295 218.442 139.489 218.397 139.676 218.397ZM152.066 241.933L139.258 221.147L117.716 232.759L117.641 294.727L152.066 241.933Z" fill="var(--fill-0, #E5B785)"/>
</g>
<path id="Vector_13" d="M153.476 93.1496C153.886 93.1496 154.266 93.3583 154.483 93.7085L167.693 115.127L189.855 103.181C190.213 102.987 190.653 102.994 191.003 103.196C191.361 103.404 191.578 103.777 191.593 104.187L192.316 129.332L217.484 130.055C217.894 130.07 218.267 130.293 218.469 130.643C218.67 131.001 218.678 131.433 218.484 131.791L206.534 153.933L227.972 167.131C228.322 167.347 228.531 167.727 228.531 168.137C228.531 168.547 228.322 168.927 227.972 169.143L206.534 182.342L218.484 204.491C218.678 204.849 218.67 205.288 218.469 205.639C218.267 205.996 217.887 206.212 217.484 206.227L192.316 206.958L191.593 232.103C191.578 232.513 191.354 232.885 191.003 233.094C190.645 233.295 190.213 233.303 189.855 233.109L167.693 221.162L154.483 242.581C154.05 243.282 152.901 243.282 152.476 242.581L139.258 221.162L117.096 233.109C116.738 233.303 116.298 233.295 115.948 233.094C115.59 232.893 115.373 232.513 115.358 232.103L114.635 206.958L89.4671 206.227C89.0568 206.212 88.6839 205.989 88.4825 205.639C88.2811 205.281 88.2736 204.849 88.4676 204.491L100.417 182.342L78.9867 169.143C78.6361 168.927 78.4273 168.547 78.4273 168.137C78.4273 167.727 78.6361 167.347 78.9867 167.131L100.417 153.933L88.4676 131.791C88.2736 131.433 88.2811 130.994 88.4825 130.643C88.6839 130.286 89.0643 130.07 89.4746 130.055L114.642 129.332L115.366 104.187C115.381 103.777 115.605 103.404 115.955 103.196C116.306 102.994 116.746 102.987 117.104 103.181L139.266 115.127L152.483 93.7085C152.7 93.3583 153.08 93.1496 153.49 93.1496H153.476ZM167.275 117.87C166.88 117.87 166.492 117.669 166.268 117.311L153.476 96.5778L140.683 117.311C140.355 117.84 139.668 118.026 139.116 117.728L117.663 106.162L116.962 130.509C116.947 131.135 116.44 131.635 115.813 131.657L91.4438 132.358L103.013 153.799C103.312 154.35 103.125 155.036 102.595 155.364L81.8437 168.145L102.595 180.918C103.125 181.246 103.312 181.932 103.013 182.484L91.4364 203.925L115.806 204.633C116.433 204.647 116.932 205.154 116.955 205.78L117.656 230.12L139.109 218.554C139.653 218.256 140.347 218.442 140.675 218.971L153.468 239.704L166.261 218.971C166.589 218.435 167.275 218.256 167.827 218.554L189.288 230.12L189.989 205.78C190.004 205.154 190.511 204.655 191.138 204.633L215.5 203.925L203.923 182.484C203.625 181.932 203.811 181.246 204.341 180.918L225.092 168.145L204.341 155.364C203.811 155.036 203.625 154.35 203.923 153.799L215.492 132.358L191.13 131.657C190.504 131.642 190.004 131.135 189.982 130.509L189.28 106.162L167.82 117.728C167.641 117.825 167.447 117.87 167.26 117.87H167.275Z" fill="var(--fill-0, #E5B785)"/>
</g>
<path id="Vector_14" d="M77.3308 35.191H229.62C230.046 35.191 230.433 35.4146 230.642 35.7798L306.787 167.549C306.996 167.914 306.996 168.361 306.787 168.726L230.642 300.502C230.433 300.867 230.038 301.091 229.62 301.091H77.3308C76.9056 301.091 76.5177 300.867 76.3089 300.502L0.156657 168.726C-0.0522044 168.361 -0.0522044 167.914 0.156657 167.549L76.3089 35.7798C76.5177 35.4146 76.9131 35.191 77.3308 35.191ZM228.942 37.546H78.0096L2.5436 168.137L78.0096 298.729H228.942L304.408 168.137L228.942 37.546Z" fill="var(--fill-0, #E5B785)"/>
</g>
<path id="Vector_15" d="M20.5654 200.496C20.9831 200.496 21.371 200.72 21.5873 201.085L57.0936 262.129C57.3323 262.539 57.3025 263.061 57.0116 263.433C56.7207 263.813 56.2358 263.977 55.7733 263.858L7.53394 251.166C6.90736 251.002 6.52693 250.354 6.69103 249.728L19.4166 201.376C19.5359 200.914 19.9239 200.571 20.4013 200.504C20.4535 200.504 20.5057 200.496 20.5579 200.496H20.5654ZM53.625 260.847L20.9831 204.729L9.27939 249.184L53.625 260.847Z" fill="var(--fill-0, #E5B785)"/>
<path id="Vector_16" d="M284.156 203.954C284.208 203.954 284.252 203.954 284.305 203.962C284.782 204.021 285.17 204.364 285.297 204.819L298.418 252.903C298.589 253.529 298.216 254.177 297.59 254.349L249.32 267.502C248.865 267.629 248.373 267.465 248.075 267.085C247.784 266.705 247.746 266.191 247.985 265.781L283.134 204.543C283.342 204.17 283.738 203.947 284.156 203.947V203.954ZM295.829 252.389L283.768 208.18L251.454 264.484L295.829 252.389Z" fill="var(--fill-0, #E5B785)"/>
<path id="Vector_17" d="M186.752 298.52C187.229 298.52 187.654 298.803 187.841 299.243C188.027 299.683 187.923 300.189 187.587 300.525L152.469 335.917C152.014 336.379 151.26 336.386 150.798 335.917L115.261 300.733C114.926 300.398 114.821 299.891 115 299.452C115.179 299.012 115.612 298.721 116.089 298.721L186.752 298.512V298.52ZM151.618 333.428L183.91 300.89L118.946 301.084L151.618 333.435V333.428Z" fill="var(--fill-0, #E5B785)"/>
<path id="Vector_18" d="M155.333 0C155.631 0 155.937 0.111788 156.161 0.342818L191.697 35.5264C192.033 35.8617 192.137 36.3685 191.958 36.8082C191.779 37.2479 191.347 37.5386 190.869 37.5386L120.207 37.7472C119.73 37.7472 119.304 37.464 119.118 37.0243C118.931 36.5846 119.036 36.0779 119.372 35.7425L154.49 0.350271C154.721 0.119241 155.027 0 155.326 0H155.333ZM188.005 35.1985L155.333 2.84688L123.042 35.3848L188.005 35.191V35.1985Z" fill="var(--fill-0, #E5B785)"/>
<path id="Vector_19" d="M57.944 68.6754C58.3095 68.6754 58.6526 68.8393 58.8838 69.1374C59.1747 69.5175 59.2046 70.0317 58.9659 70.4416L23.6535 131.582C23.4148 131.992 22.9598 132.231 22.4749 132.164C21.9975 132.104 21.6096 131.761 21.4902 131.299L8.60798 82.9918C8.43642 82.3657 8.81684 81.7174 9.44342 81.546L57.6381 68.7126C57.7425 68.6828 57.8395 68.6754 57.944 68.6754ZM23.0344 127.938L55.4973 71.7235L11.189 83.5209L23.0344 127.938Z" fill="var(--fill-0, #E5B785)"/>
<path id="Vector_20" d="M250.879 72.3719C250.984 72.3719 251.088 72.3868 251.193 72.4166L299.469 85.5704C299.768 85.6523 300.029 85.8536 300.186 86.1218C300.342 86.3901 300.38 86.7181 300.297 87.0162L287.169 135.1C287.042 135.562 286.654 135.898 286.177 135.957C285.7 136.009 285.245 135.786 285.006 135.376L249.857 74.1381C249.619 73.7282 249.656 73.2066 249.947 72.8339C250.171 72.5433 250.521 72.3719 250.879 72.3719ZM297.709 87.5304L253.326 75.4349L285.64 131.732L297.717 87.5229L297.709 87.5304Z" fill="var(--fill-0, #E5B785)"/>
</g>
</svg>
