<svg preserveAspectRatio="none" width="100%" height="100%" overflow="visible" style="display: block;" viewBox="0 0 306.944 336.274" fill="none" xmlns="http://www.w3.org/2000/svg">
<g id="Group">
<g id="Group_2">
<g id="Group_3">
<g id="Group_4">
<path id="Vector" d="M167.275 218.405C167.469 218.405 167.656 218.45 167.835 218.546L190.981 231.022C191.384 231.238 191.623 231.663 191.6 232.125L187.953 299.772C187.923 300.294 187.557 300.733 187.05 300.853C186.528 300.979 186.013 300.748 185.752 300.294L152.461 242.536C152.245 242.164 152.252 241.702 152.476 241.329L166.268 218.964C166.492 218.606 166.88 218.405 167.275 218.405ZM189.198 232.744L167.693 221.155L154.848 241.97L185.797 295.673L189.191 232.744H189.198Z" fill="var(--fill-0, #E5B785)"/>
<path id="Vector_2" d="M217.454 203.865C217.894 203.865 218.305 204.111 218.506 204.506L249.201 264.916C249.44 265.386 249.343 265.945 248.962 266.31C248.582 266.668 248.015 266.735 247.56 266.474L189.832 233.079C189.459 232.863 189.236 232.46 189.243 232.028L189.981 205.773C189.996 205.147 190.504 204.647 191.13 204.625L217.424 203.865H217.462H217.454ZM245.292 262.442L216.738 206.25L192.309 206.958L191.615 231.395L245.285 262.45L245.292 262.442Z" fill="var(--fill-0, #E5B785)"/>
<path id="Vector_3" d="M227.353 166.96C227.576 166.96 227.8 167.027 227.994 167.154L284.804 204.141C285.244 204.424 285.438 204.968 285.289 205.467C285.14 205.967 284.678 206.309 284.155 206.309L217.439 206.227C217.007 206.227 216.611 205.989 216.402 205.609L203.908 182.491C203.61 181.939 203.796 181.254 204.326 180.926L226.719 167.146C226.913 167.027 227.121 166.967 227.338 166.967L227.353 166.96ZM280.187 203.939L227.338 169.538L206.526 182.349L218.155 203.872L280.187 203.947V203.939Z" fill="var(--fill-0, #E5B785)"/>
<path id="Vector_4" d="M217.454 130.055C217.454 130.055 217.499 130.055 217.521 130.055L285.23 133.699C285.752 133.729 286.192 134.094 286.311 134.601C286.431 135.108 286.207 135.637 285.752 135.898L227.942 169.151C227.569 169.367 227.107 169.36 226.734 169.136L204.341 155.356C203.811 155.028 203.625 154.343 203.923 153.791L216.417 130.673C216.626 130.293 217.029 130.055 217.454 130.055ZM281.127 135.838L218.14 132.447L206.534 153.933L227.383 166.766L281.134 135.845L281.127 135.838Z" fill="var(--fill-0, #E5B785)"/>
<path id="Vector_5" d="M250.872 72.3718C251.185 72.3718 251.498 72.4985 251.73 72.737C252.088 73.1171 252.155 73.6835 251.894 74.1381L218.461 131.821C218.245 132.194 217.82 132.402 217.402 132.41L191.123 131.657C190.496 131.642 189.996 131.135 189.974 130.509L189.235 104.246C189.221 103.792 189.474 103.367 189.877 103.158L250.335 72.4911C250.506 72.4017 250.685 72.3644 250.872 72.3644V72.3718ZM216.775 130.032L247.858 76.4037L191.622 104.932L192.309 129.332L216.775 130.032Z" fill="var(--fill-0, #E5B785)"/>
<path id="Vector_6" d="M190.489 36.3834C190.601 36.3834 190.712 36.3983 190.824 36.4356C191.324 36.5847 191.667 37.0467 191.667 37.5684L191.585 104.224C191.585 104.656 191.346 105.059 190.966 105.26L167.82 117.736C167.275 118.026 166.582 117.847 166.253 117.318L152.468 94.9532C152.23 94.5656 152.237 94.0737 152.483 93.6936L189.497 36.935C189.72 36.5921 190.093 36.3983 190.489 36.3983V36.3834ZM189.221 103.516L189.303 41.5406L154.87 94.342L167.678 115.127L189.221 103.516Z" fill="var(--fill-0, #E5B785)"/>
<path id="Vector_7" d="M120.185 35.3848C120.602 35.3848 120.998 35.6084 121.207 35.9735L154.49 93.7384C154.706 94.111 154.699 94.5731 154.475 94.9457L140.683 117.311C140.355 117.847 139.661 118.026 139.116 117.728L115.985 105.245C115.582 105.029 115.343 104.597 115.366 104.142L119.013 36.4952C119.043 35.9735 119.409 35.5338 119.916 35.4146C120.005 35.3922 120.103 35.3848 120.192 35.3848H120.185ZM152.088 94.3122L121.147 40.609L117.753 103.539L139.251 115.135L152.088 94.3197V94.3122Z" fill="var(--fill-0, #E5B785)"/>
<path id="Vector_8" d="M58.8018 69.6442C59.0032 69.6442 59.2121 69.6964 59.3911 69.8007L117.126 103.196C117.499 103.412 117.723 103.814 117.716 104.246L116.962 130.509C116.947 131.135 116.44 131.635 115.813 131.657L89.5342 132.402C89.0568 132.372 88.654 132.164 88.4451 131.761L57.75 71.3583C57.5113 70.8888 57.6083 70.3299 57.9888 69.9647C58.2125 69.756 58.5034 69.6442 58.8018 69.6442ZM115.336 104.887L61.6587 73.84L90.213 130.032L114.635 129.339L115.336 104.895V104.887Z" fill="var(--fill-0, #E5B785)"/>
<path id="Vector_9" d="M22.7807 129.973L89.4969 130.055C89.9296 130.055 90.3249 130.293 90.5338 130.673L103.028 153.799C103.327 154.35 103.14 155.036 102.603 155.364L80.2025 169.136C79.8147 169.374 79.3224 169.374 78.942 169.121L22.1317 132.141C21.6916 131.858 21.4977 131.314 21.6469 130.815C21.796 130.316 22.2585 129.973 22.7807 129.973ZM88.7957 132.417L26.764 132.343L79.6133 166.744L100.425 153.948L88.7957 132.425V132.417Z" fill="var(--fill-0, #E5B785)"/>
<path id="Vector_10" d="M79.5984 166.96C79.8147 166.96 80.0235 167.019 80.2175 167.139L102.61 180.926C103.14 181.254 103.327 181.939 103.028 182.491L90.5263 205.609C90.31 206.011 89.9296 206.25 89.4223 206.227L21.7215 202.576C21.1994 202.546 20.7592 202.181 20.6399 201.674C20.5205 201.167 20.7443 200.638 21.1993 200.377L79.0091 167.124C79.1881 167.019 79.397 166.967 79.5984 166.967V166.96ZM100.425 182.349L79.576 169.516L25.8241 200.437L88.8032 203.835L100.417 182.357L100.425 182.349Z" fill="var(--fill-0, #E5B785)"/>
<path id="Vector_11" d="M89.497 203.865H89.5342L115.813 204.618C116.44 204.633 116.94 205.139 116.962 205.765L117.708 232.028C117.723 232.483 117.469 232.908 117.059 233.116L56.6088 263.776C56.1388 264.015 55.5794 263.918 55.2139 263.538C54.8558 263.158 54.7887 262.591 55.0498 262.137L88.4676 204.461C88.6764 204.096 89.0718 203.872 89.4895 203.872L89.497 203.865ZM114.635 206.943L90.1683 206.242L59.1002 259.871L115.329 231.35L114.635 206.95V206.943Z" fill="var(--fill-0, #E5B785)"/>
<path id="Vector_12" d="M139.676 218.405C140.071 218.405 140.459 218.606 140.683 218.964L154.468 241.336C154.706 241.724 154.699 242.216 154.453 242.596L117.447 299.355C117.164 299.794 116.619 299.996 116.119 299.839C115.619 299.69 115.276 299.228 115.276 298.706L115.358 232.058C115.358 231.626 115.597 231.223 115.978 231.022L139.116 218.546C139.295 218.45 139.482 218.405 139.676 218.405ZM152.066 241.933L139.258 221.147L117.716 232.766L117.641 294.734L152.066 241.94V241.933Z" fill="var(--fill-0, #E5B785)"/>
</g>
<path id="Vector_13" d="M153.476 93.1496C153.886 93.1496 154.266 93.3583 154.483 93.7085L167.693 115.127L189.855 103.181C190.213 102.987 190.653 102.994 191.003 103.196C191.361 103.397 191.585 103.777 191.593 104.187L192.316 129.332L217.484 130.055C217.894 130.07 218.267 130.293 218.469 130.643C218.67 131.001 218.677 131.433 218.484 131.791L206.526 153.933L227.964 167.131C228.315 167.347 228.524 167.727 228.524 168.137C228.524 168.547 228.315 168.927 227.964 169.143L206.526 182.342L218.484 204.491C218.677 204.849 218.67 205.288 218.469 205.639C218.267 205.996 217.887 206.212 217.484 206.227L192.316 206.958L191.593 232.103C191.585 232.513 191.354 232.885 191.003 233.094C190.645 233.303 190.213 233.303 189.855 233.109L167.693 221.162L154.483 242.581C154.057 243.282 152.901 243.282 152.476 242.581L139.258 221.162L117.096 233.109C116.738 233.303 116.298 233.295 115.948 233.094C115.59 232.893 115.366 232.513 115.358 232.103L114.635 206.958L89.4671 206.227C89.0568 206.212 88.6839 205.989 88.4825 205.639C88.2811 205.281 88.2736 204.849 88.4676 204.491L100.425 182.342L78.9867 169.143C78.6361 168.927 78.4272 168.547 78.4272 168.137C78.4272 167.727 78.6361 167.347 78.9867 167.131L100.425 153.933L88.4676 131.791C88.2736 131.433 88.2811 130.994 88.4825 130.643C88.6839 130.286 89.0643 130.07 89.4671 130.055L114.635 129.332L115.358 104.187C115.373 103.777 115.597 103.404 115.948 103.196C116.306 102.994 116.738 102.987 117.096 103.181L139.258 115.127L152.476 93.7085C152.692 93.3583 153.073 93.1496 153.483 93.1496H153.476ZM167.275 117.87C166.88 117.87 166.492 117.669 166.268 117.311L153.476 96.5778L140.683 117.311C140.355 117.847 139.661 118.026 139.116 117.728L117.663 106.162L116.962 130.509C116.947 131.135 116.44 131.635 115.813 131.657L91.4438 132.358L103.021 153.799C103.319 154.35 103.133 155.036 102.603 155.364L81.8511 168.145L102.603 180.918C103.133 181.246 103.319 181.932 103.021 182.483L91.4438 203.925L115.813 204.632C116.44 204.647 116.94 205.154 116.962 205.78L117.663 230.12L139.116 218.554C139.661 218.263 140.347 218.442 140.683 218.971L153.476 239.704L166.268 218.971C166.604 218.435 167.29 218.263 167.835 218.554L189.295 230.12L189.996 205.78C190.011 205.154 190.519 204.655 191.145 204.632L215.507 203.925L203.93 182.483C203.632 181.932 203.819 181.246 204.348 180.918L225.1 168.145L204.348 155.364C203.819 155.036 203.632 154.35 203.93 153.799L215.507 132.358L191.145 131.657C190.519 131.642 190.019 131.135 189.996 130.509L189.295 106.162L167.835 117.728C167.656 117.825 167.469 117.87 167.275 117.87Z" fill="var(--fill-0, #E5B785)"/>
</g>
<path id="Vector_14" d="M77.3308 35.191H229.62C230.046 35.191 230.433 35.4146 230.642 35.7798L306.787 167.549C306.996 167.914 306.996 168.361 306.787 168.726L230.642 300.502C230.433 300.867 230.046 301.091 229.62 301.091H77.3308C76.9056 301.091 76.5177 300.867 76.3089 300.502L0.156646 168.726C-0.0522153 168.361 -0.0522153 167.914 0.156646 167.549L76.3089 35.7798C76.5177 35.4146 76.9056 35.191 77.3308 35.191ZM228.942 37.546H78.0171L2.54359 168.137L78.0171 298.729H228.942L304.408 168.137L228.942 37.546Z" fill="var(--fill-0, #E5B785)"/>
</g>
<path id="Vector_15" d="M20.5578 200.496C20.9755 200.496 21.3634 200.712 21.5797 201.085L57.0861 262.129C57.3248 262.539 57.295 263.061 57.004 263.433C56.7206 263.813 56.2283 263.985 55.7658 263.858L7.52639 251.166C6.89235 251.002 6.51938 250.354 6.68348 249.728L19.409 201.376C19.5284 200.914 19.9163 200.571 20.3937 200.504C20.4459 200.504 20.4981 200.496 20.5503 200.496H20.5578ZM53.625 260.855L20.9756 204.737L9.27184 249.191L53.6176 260.855H53.625Z" fill="var(--fill-0, #E5B785)"/>
<path id="Vector_16" d="M284.155 203.954C284.208 203.954 284.252 203.954 284.305 203.962C284.782 204.021 285.17 204.364 285.297 204.819L298.418 252.903C298.589 253.529 298.216 254.177 297.59 254.349L249.32 267.502C248.858 267.629 248.366 267.465 248.075 267.085C247.784 266.705 247.746 266.191 247.985 265.781L283.133 204.543C283.342 204.17 283.738 203.947 284.155 203.947V203.954ZM295.822 252.389L283.76 208.18L251.446 264.484L295.822 252.389Z" fill="var(--fill-0, #E5B785)"/>
<path id="Vector_17" d="M186.752 298.527C187.229 298.527 187.654 298.811 187.841 299.25C188.027 299.69 187.923 300.197 187.595 300.532L152.468 335.924C152.006 336.386 151.26 336.394 150.798 335.924L115.261 300.733C114.918 300.398 114.821 299.891 115 299.452C115.179 299.012 115.612 298.721 116.089 298.721L186.752 298.513V298.527ZM151.618 333.428L183.91 300.89L118.946 301.084L151.618 333.435V333.428Z" fill="var(--fill-0, #E5B785)"/>
<path id="Vector_18" d="M155.326 0C155.624 0 155.93 0.111759 156.153 0.342789L191.69 35.5339C192.033 35.8692 192.13 36.376 191.951 36.8157C191.772 37.2554 191.339 37.546 190.862 37.546L120.199 37.7547C119.722 37.7547 119.297 37.4715 119.11 37.0318C118.924 36.5921 119.028 36.0853 119.357 35.7499L154.483 0.357709C154.714 0.126679 155.02 0.00745984 155.318 0.00745984L155.326 0ZM188.005 35.1984L155.333 2.84684L123.042 35.3848L188.005 35.191V35.1984Z" fill="var(--fill-0, #E5B785)"/>
<path id="Vector_19" d="M57.9365 68.6829C58.2945 68.6829 58.6451 68.8468 58.8689 69.1449C59.1598 69.525 59.1971 70.0392 58.9509 70.4491L23.6385 131.59C23.3998 132 22.9299 132.238 22.46 132.171C21.9826 132.112 21.5947 131.769 21.4753 131.307L8.59304 82.9992C8.42147 82.3732 8.80189 81.7249 9.42848 81.5535L57.6232 68.7201C57.7277 68.6903 57.8246 68.6829 57.929 68.6829H57.9365ZM23.0269 127.946L55.4973 71.7309L11.189 83.5283L23.0269 127.946Z" fill="var(--fill-0, #E5B785)"/>
<path id="Vector_20" d="M250.872 72.3718C250.976 72.3718 251.081 72.3868 251.185 72.4166L299.462 85.5703C299.76 85.6523 300.021 85.8536 300.178 86.1219C300.335 86.3902 300.372 86.7181 300.29 87.0162L287.162 135.1C287.035 135.562 286.647 135.898 286.169 135.957C285.699 136.009 285.237 135.786 284.998 135.376L249.85 74.1381C249.611 73.7282 249.649 73.2065 249.939 72.8339C250.163 72.5433 250.514 72.3718 250.872 72.3718ZM297.709 87.5303L253.319 75.4348L285.632 131.732L297.709 87.523V87.5303Z" fill="var(--fill-0, #E5B785)"/>
</g>
</svg>
