<svg preserveAspectRatio="none" width="100%" height="100%" overflow="visible" style="display: block;" viewBox="0 0 306.944 336.264" fill="none" xmlns="http://www.w3.org/2000/svg">
<g id="Group">
<g id="Group_2">
<g id="Group_3">
<g id="Group_4">
<path id="Vector" d="M167.268 218.405C167.454 218.405 167.648 218.45 167.827 218.546L190.974 231.015C191.376 231.231 191.615 231.663 191.593 232.118L187.945 299.765C187.915 300.286 187.55 300.726 187.043 300.845C186.535 300.964 186.006 300.741 185.745 300.286L152.454 242.529C152.237 242.156 152.245 241.687 152.469 241.322L166.268 218.956C166.492 218.599 166.88 218.397 167.275 218.397L167.268 218.405ZM189.198 232.736L167.693 221.147L154.848 241.962L185.797 295.666L189.191 232.736H189.198Z" fill="var(--fill-0, #E5B785)"/>
<path id="Vector_2" d="M217.447 203.857C217.887 203.857 218.297 204.103 218.499 204.506L249.194 264.916C249.432 265.378 249.335 265.945 248.955 266.303C248.574 266.66 248 266.727 247.553 266.466L189.825 233.072C189.452 232.855 189.228 232.453 189.236 232.021L189.981 205.765C189.996 205.139 190.504 204.64 191.13 204.618L217.424 203.857H217.462H217.447ZM245.285 262.435L216.731 206.242L192.301 206.95L191.615 231.387L245.285 262.442V262.435Z" fill="var(--fill-0, #E5B785)"/>
<path id="Vector_3" d="M227.353 166.952C227.577 166.952 227.8 167.012 227.994 167.146L284.805 204.126C285.245 204.409 285.439 204.953 285.289 205.452C285.14 205.952 284.678 206.294 284.155 206.294L217.439 206.212C217.007 206.212 216.604 205.974 216.403 205.594L203.908 182.476C203.61 181.925 203.796 181.239 204.326 180.911L226.719 167.131C226.905 167.012 227.122 166.952 227.338 166.952H227.353ZM280.18 203.932L227.33 169.531L206.519 182.342L218.148 203.865L280.18 203.939V203.932Z" fill="var(--fill-0, #E5B785)"/>
<path id="Vector_4" d="M217.447 130.047C217.447 130.047 217.492 130.047 217.507 130.047L285.215 133.692C285.737 133.721 286.177 134.087 286.296 134.593C286.416 135.1 286.192 135.629 285.737 135.89L227.927 169.143C227.554 169.36 227.084 169.352 226.719 169.129L204.326 155.341C203.796 155.013 203.61 154.328 203.908 153.776L216.403 130.658C216.611 130.278 217.007 130.04 217.439 130.04L217.447 130.047ZM281.12 135.838L218.133 132.447L206.526 153.933L227.375 166.766L281.127 135.845L281.12 135.838Z" fill="var(--fill-0, #E5B785)"/>
<path id="Vector_5" d="M250.872 72.3644C251.185 72.3644 251.499 72.4911 251.73 72.7296C252.088 73.1097 252.155 73.676 251.894 74.1306L218.461 131.814C218.245 132.186 217.797 132.41 217.409 132.402L191.123 131.65C190.496 131.635 189.997 131.128 189.974 130.502L189.228 104.239C189.213 103.784 189.467 103.36 189.877 103.151L250.335 72.4837C250.507 72.3942 250.686 72.357 250.872 72.357V72.3644ZM216.768 130.025L247.851 76.3963L191.615 104.925L192.301 129.324L216.768 130.025Z" fill="var(--fill-0, #E5B785)"/>
<path id="Vector_6" d="M190.489 36.3834C190.601 36.3834 190.713 36.3983 190.824 36.4356C191.324 36.5847 191.667 37.0467 191.667 37.5684L191.585 104.224C191.585 104.656 191.347 105.051 190.966 105.26L167.82 117.736C167.268 118.034 166.582 117.847 166.253 117.318L152.469 94.9531C152.23 94.5656 152.237 94.0737 152.484 93.6936L189.497 36.9349C189.72 36.5921 190.093 36.3984 190.489 36.3984V36.3834ZM189.221 103.509L189.303 41.5331L154.871 94.3346L167.678 115.12L189.221 103.509Z" fill="var(--fill-0, #E5B785)"/>
<path id="Vector_7" d="M120.177 35.3848C120.595 35.3848 120.983 35.6009 121.199 35.9736L154.483 93.7383C154.699 94.111 154.692 94.5731 154.468 94.9457L140.675 117.311C140.347 117.84 139.661 118.026 139.109 117.728L115.978 105.245C115.575 105.029 115.336 104.597 115.359 104.142L119.006 36.4952C119.036 35.9735 119.401 35.5338 119.909 35.4146C119.998 35.3923 120.095 35.3848 120.185 35.3848H120.177ZM152.088 94.3047L121.147 40.6016L117.753 103.531L139.251 115.127L152.088 94.3122V94.3047Z" fill="var(--fill-0, #E5B785)"/>
<path id="Vector_8" d="M58.7944 69.6442C58.9958 69.6442 59.2047 69.6964 59.3837 69.8007L117.119 103.196C117.492 103.412 117.716 103.814 117.708 104.246L116.947 130.509C116.932 131.135 116.425 131.635 115.798 131.657L89.5193 132.402C89.0344 132.372 88.6391 132.164 88.4303 131.754L57.7352 71.3509C57.4965 70.8813 57.5934 70.3224 57.9738 69.9572C58.1976 69.7486 58.4885 69.6368 58.7869 69.6368L58.7944 69.6442ZM115.336 104.88L61.6514 73.8326L90.2057 130.025L114.627 129.332L115.336 104.887V104.88Z" fill="var(--fill-0, #E5B785)"/>
<path id="Vector_9" d="M22.7733 129.973L89.4894 130.055C89.9221 130.055 90.325 130.293 90.5264 130.673L103.021 153.799C103.319 154.35 103.133 155.036 102.603 155.364L80.2026 169.136C79.8147 169.374 79.3225 169.367 78.942 169.121L22.1319 132.141C21.6918 131.858 21.4977 131.314 21.6469 130.815C21.7961 130.316 22.2586 129.973 22.7808 129.973H22.7733ZM88.7883 132.41L26.7566 132.335L79.6058 166.736L100.417 153.933L88.7883 132.41Z" fill="var(--fill-0, #E5B785)"/>
<path id="Vector_10" d="M79.591 166.952C79.8073 166.952 80.0237 167.012 80.2102 167.131L102.603 180.918C103.133 181.246 103.319 181.932 103.021 182.483L90.519 205.601C90.3027 206.004 89.8775 206.25 89.4151 206.22L21.7142 202.568C21.1921 202.538 20.752 202.173 20.6327 201.666C20.5133 201.16 20.7371 200.63 21.1921 200.37L79.0019 167.116C79.1809 167.012 79.3896 166.96 79.591 166.96V166.952ZM100.418 182.342L79.5688 169.509L25.8169 200.429L88.7959 203.82L100.41 182.342H100.418Z" fill="var(--fill-0, #E5B785)"/>
<path id="Vector_11" d="M89.4969 203.857H89.5268L115.806 204.61C116.433 204.625 116.932 205.132 116.955 205.758L117.701 232.021C117.716 232.475 117.462 232.9 117.059 233.109L56.6088 263.769C56.1389 264.007 55.5794 263.91 55.2139 263.53C54.8558 263.15 54.7887 262.584 55.0498 262.129L88.4676 204.454C88.6764 204.089 89.0717 203.865 89.4894 203.865L89.4969 203.857ZM114.627 206.943L90.1609 206.242L59.0852 259.871L115.314 231.35L114.62 206.95L114.627 206.943Z" fill="var(--fill-0, #E5B785)"/>
<path id="Vector_12" d="M139.668 218.397C140.064 218.397 140.452 218.599 140.675 218.956L154.46 241.329C154.699 241.717 154.691 242.208 154.445 242.588L117.44 299.347C117.156 299.787 116.619 299.981 116.112 299.832C115.612 299.683 115.269 299.22 115.269 298.699L115.351 232.051C115.351 231.618 115.59 231.216 115.97 231.015L139.109 218.539C139.288 218.442 139.482 218.397 139.668 218.397ZM152.066 241.933L139.258 221.147L117.716 232.766L117.641 294.734L152.066 241.94V241.933Z" fill="var(--fill-0, #E5B785)"/>
</g>
<path id="Vector_13" d="M153.476 93.1422C153.886 93.1422 154.266 93.3508 154.483 93.7011L167.693 115.12L189.855 103.173C190.22 102.98 190.653 102.987 191.003 103.188C191.362 103.389 191.578 103.77 191.593 104.179L192.316 129.324L217.484 130.047C217.894 130.062 218.267 130.286 218.476 130.636C218.678 130.994 218.685 131.426 218.491 131.784L206.534 153.925L227.972 167.124C228.323 167.34 228.531 167.72 228.531 168.13C228.531 168.54 228.323 168.92 227.972 169.136L206.534 182.334L218.491 204.483C218.685 204.841 218.678 205.281 218.476 205.631C218.267 205.989 217.894 206.205 217.492 206.22L192.324 206.95L191.6 232.095C191.585 232.505 191.362 232.878 191.011 233.086C190.66 233.288 190.22 233.295 189.862 233.101L167.701 221.155L154.49 242.574C154.057 243.274 152.909 243.274 152.484 242.574L139.266 221.155L117.104 233.101C116.746 233.295 116.306 233.288 115.955 233.086C115.597 232.885 115.381 232.505 115.366 232.095L114.642 206.95L89.4745 206.22C89.0643 206.205 88.6915 205.981 88.4901 205.631C88.2886 205.273 88.2812 204.841 88.4751 204.483L100.432 182.334L78.9943 169.136C78.6438 168.92 78.4349 168.54 78.4349 168.13C78.4349 167.72 78.6438 167.34 78.9943 167.124L100.432 153.925L88.4751 131.784C88.2812 131.426 88.2886 130.986 88.4901 130.636C88.6915 130.278 89.0718 130.062 89.482 130.047L114.65 129.324L115.373 104.179C115.388 103.77 115.612 103.397 115.963 103.188C116.321 102.987 116.753 102.98 117.111 103.173L139.273 115.12L152.491 93.7011C152.707 93.3508 153.088 93.1422 153.498 93.1422H153.476ZM167.268 117.862C166.873 117.862 166.485 117.661 166.261 117.303L153.468 96.5704L140.675 117.303C140.347 117.833 139.661 118.019 139.109 117.721L117.656 106.154L116.955 130.502C116.94 131.128 116.433 131.627 115.806 131.65L91.4364 132.35L103.013 153.791C103.312 154.343 103.125 155.028 102.596 155.356L81.8437 168.137L102.596 180.911C103.125 181.239 103.312 181.925 103.013 182.476L91.4364 203.917L115.806 204.625C116.433 204.64 116.932 205.147 116.955 205.773L117.656 230.113L139.109 218.546C139.661 218.248 140.347 218.435 140.675 218.964L153.468 239.697L166.261 218.964C166.589 218.435 167.275 218.248 167.827 218.546L189.288 230.113L189.989 205.773C190.004 205.147 190.511 204.647 191.138 204.625L215.507 203.917L203.931 182.476C203.632 181.925 203.819 181.239 204.348 180.911L225.1 168.137L204.348 155.356C203.819 155.028 203.632 154.343 203.931 153.791L215.507 132.35L191.145 131.65C190.519 131.635 190.019 131.128 189.996 130.502L189.295 106.154L167.835 117.721C167.656 117.818 167.462 117.862 167.275 117.862H167.268Z" fill="var(--fill-0, #E5B785)"/>
</g>
<path id="Vector_14" d="M77.331 35.1836H229.62C230.046 35.1836 230.433 35.4071 230.642 35.7723L306.787 167.541C306.996 167.906 306.996 168.353 306.787 168.719L230.642 300.495C230.433 300.86 230.046 301.084 229.62 301.084H77.331C76.9058 301.084 76.5178 300.86 76.3089 300.495L0.156646 168.719C-0.0522153 168.353 -0.0522153 167.906 0.156646 167.541L76.3089 35.7723C76.5178 35.4071 76.9132 35.1836 77.331 35.1836ZM228.942 37.5386H78.0097L2.54377 168.13L78.0097 298.721H228.942L304.408 168.13L228.942 37.5386Z" fill="var(--fill-0, #E5B785)"/>
</g>
<path id="Vector_15" d="M20.558 200.489C20.9757 200.489 21.3637 200.712 21.58 201.078L57.0863 262.122C57.325 262.532 57.2952 263.046 57.0043 263.426C56.7134 263.806 56.221 263.97 55.7659 263.851L7.52656 251.159C6.89252 250.995 6.51946 250.347 6.68356 249.721L19.4092 201.368C19.5286 200.906 19.9165 200.563 20.3939 200.496C20.4461 200.496 20.4983 200.489 20.5505 200.489H20.558ZM53.6178 260.847L20.9757 204.729L9.27211 249.184L53.6178 260.847Z" fill="var(--fill-0, #E5B785)"/>
<path id="Vector_16" d="M284.155 203.947C284.208 203.947 284.253 203.947 284.305 203.954C284.775 204.014 285.17 204.357 285.297 204.811L298.418 252.895C298.589 253.521 298.216 254.17 297.59 254.341L249.32 267.495C248.865 267.614 248.373 267.458 248.075 267.078C247.784 266.698 247.747 266.183 247.985 265.773L283.134 204.536C283.342 204.163 283.738 203.939 284.155 203.939V203.947ZM295.822 252.389L283.76 208.18L251.446 264.484L295.822 252.389Z" fill="var(--fill-0, #E5B785)"/>
<path id="Vector_17" d="M186.744 298.52C187.222 298.52 187.647 298.803 187.833 299.243C188.02 299.683 187.915 300.189 187.58 300.525L152.454 335.917C151.999 336.379 151.245 336.379 150.783 335.917L115.247 300.733C114.911 300.398 114.807 299.891 114.986 299.452C115.165 299.012 115.597 298.721 116.075 298.721L186.737 298.513L186.744 298.52ZM151.618 333.428L183.91 300.89L118.946 301.084L151.618 333.435V333.428Z" fill="var(--fill-0, #E5B785)"/>
<path id="Vector_18" d="M155.325 6.56603e-06C155.624 6.56603e-06 155.922 0.111811 156.154 0.342841L191.69 35.5264C192.025 35.8617 192.13 36.3685 191.951 36.8082C191.772 37.2479 191.339 37.5386 190.862 37.5386L120.2 37.7473C119.722 37.7473 119.297 37.464 119.111 37.0243C118.924 36.5846 119.028 36.0779 119.364 35.7425L154.483 0.350255C154.714 0.119226 155.02 6.56603e-06 155.318 6.56603e-06H155.325ZM188.005 35.191L155.333 2.83943L123.041 35.3773L188.005 35.1836V35.191Z" fill="var(--fill-0, #E5B785)"/>
<path id="Vector_19" d="M57.9367 68.6754C58.2948 68.6754 58.6454 68.8394 58.8766 69.1375C59.1675 69.5175 59.1973 70.0318 58.9586 70.4417L23.6386 131.582C23.3999 131.992 22.945 132.231 22.4602 132.164C21.9828 132.104 21.5948 131.761 21.4755 131.299L8.59321 82.9918C8.42165 82.3583 8.80216 81.7174 9.42874 81.546L57.6233 68.7127C57.7278 68.6829 57.8248 68.6754 57.9293 68.6754H57.9367ZM23.0271 127.938L55.4975 71.7235L11.189 83.5209L23.0345 127.938H23.0271Z" fill="var(--fill-0, #E5B785)"/>
<path id="Vector_20" d="M250.872 72.3644C250.976 72.3644 251.081 72.3793 251.185 72.4091L299.462 85.5629C299.76 85.6449 300.022 85.8461 300.178 86.1144C300.335 86.3827 300.372 86.7106 300.29 87.0087L287.162 135.093C287.035 135.555 286.647 135.89 286.17 135.95C285.692 136.009 285.237 135.778 284.998 135.368L249.85 74.1306C249.611 73.7133 249.649 73.1991 249.94 72.8265C250.163 72.5358 250.514 72.3644 250.872 72.3644ZM297.702 87.5229L253.319 75.4274L285.633 131.724L297.709 87.5155L297.702 87.5229Z" fill="var(--fill-0, #E5B785)"/>
</g>
</svg>
