<svg preserveAspectRatio="none" width="100%" height="100%" overflow="visible" style="display: block;" viewBox="0 0 306.944 336.266" fill="none" xmlns="http://www.w3.org/2000/svg">
<g id="Group">
<g id="Group_2">
<g id="Group_3">
<g id="Group_4">
<path id="Vector" d="M167.268 218.405C167.462 218.405 167.648 218.45 167.827 218.546L190.974 231.015C191.376 231.231 191.615 231.663 191.593 232.118L187.945 299.765C187.915 300.286 187.55 300.726 187.043 300.845C186.52 300.972 186.006 300.733 185.745 300.286L152.454 242.529C152.237 242.156 152.245 241.687 152.469 241.322L166.268 218.956C166.492 218.599 166.88 218.397 167.275 218.397L167.268 218.405ZM189.198 232.736L167.693 221.147L154.848 241.962L185.797 295.666L189.191 232.736H189.198Z" fill="var(--fill-0, #E5B785)"/>
<path id="Vector_2" d="M217.447 203.857C217.887 203.857 218.297 204.103 218.498 204.506L249.194 264.916C249.432 265.386 249.335 265.945 248.955 266.31C248.574 266.668 248.008 266.735 247.553 266.474L189.825 233.079C189.452 232.863 189.228 232.46 189.236 232.028L189.982 205.773C189.996 205.147 190.504 204.647 191.13 204.625L217.424 203.865H217.462L217.447 203.857ZM245.285 262.435L216.731 206.242L192.301 206.95L191.608 231.387L245.277 262.442L245.285 262.435Z" fill="var(--fill-0, #E5B785)"/>
<path id="Vector_3" d="M227.353 166.952C227.576 166.952 227.8 167.012 228.002 167.146L284.812 204.126C285.245 204.409 285.446 204.953 285.297 205.452C285.148 205.952 284.685 206.294 284.163 206.294L217.447 206.212C217.014 206.212 216.619 205.974 216.41 205.594L203.916 182.476C203.617 181.925 203.804 181.239 204.333 180.911L226.726 167.131C226.92 167.012 227.129 166.952 227.345 166.952H227.353ZM280.18 203.932L227.33 169.531L206.526 182.342L218.155 203.865L280.187 203.939L280.18 203.932Z" fill="var(--fill-0, #E5B785)"/>
<path id="Vector_4" d="M217.447 130.047C217.447 130.047 217.492 130.047 217.514 130.047L285.222 133.692C285.744 133.721 286.184 134.087 286.304 134.593C286.423 135.1 286.199 135.629 285.744 135.89L227.935 169.143C227.562 169.36 227.099 169.352 226.726 169.129L204.333 155.341C203.804 155.013 203.617 154.328 203.916 153.776L216.41 130.658C216.619 130.278 217.022 130.04 217.447 130.04V130.047ZM281.12 135.838L218.126 132.447L206.519 153.933L227.368 166.766L281.12 135.845V135.838Z" fill="var(--fill-0, #E5B785)"/>
<path id="Vector_5" d="M250.872 72.3644C251.185 72.3644 251.499 72.4911 251.73 72.7296C252.088 73.1097 252.155 73.676 251.894 74.1306L218.461 131.814C218.245 132.186 217.842 132.38 217.402 132.402L191.123 131.65C190.496 131.635 189.996 131.128 189.974 130.502L189.228 104.239C189.213 103.784 189.467 103.36 189.877 103.151L250.335 72.4837C250.506 72.3942 250.685 72.357 250.872 72.357V72.3644ZM216.768 130.025L247.851 76.3963L191.615 104.925L192.301 129.324L216.768 130.025Z" fill="var(--fill-0, #E5B785)"/>
<path id="Vector_6" d="M190.489 36.3834C190.601 36.3834 190.713 36.3983 190.824 36.4356C191.324 36.5847 191.667 37.0467 191.667 37.5684L191.585 104.224C191.585 104.656 191.347 105.051 190.966 105.26L167.82 117.736C167.275 118.034 166.582 117.855 166.253 117.318L152.469 94.9531C152.23 94.5656 152.237 94.0737 152.483 93.6936L189.497 36.9349C189.72 36.5921 190.093 36.3984 190.489 36.3984V36.3834ZM189.221 103.509L189.303 41.5331L154.87 94.3346L167.678 115.12L189.221 103.509Z" fill="var(--fill-0, #E5B785)"/>
<path id="Vector_7" d="M120.177 35.3848C120.595 35.3848 120.983 35.6009 121.199 35.9736L154.483 93.7383C154.699 94.111 154.691 94.5731 154.468 94.9457L140.675 117.311C140.347 117.847 139.661 118.026 139.109 117.728L115.978 105.245C115.575 105.029 115.336 104.597 115.358 104.142L119.006 36.4952C119.036 35.9735 119.401 35.5338 119.909 35.4146C119.998 35.3923 120.095 35.3848 120.185 35.3848H120.177ZM152.088 94.3047L121.147 40.6016L117.753 103.531L139.251 115.127L152.088 94.3122V94.3047Z" fill="var(--fill-0, #E5B785)"/>
<path id="Vector_8" d="M58.7944 69.6442C58.9958 69.6442 59.2046 69.6964 59.3837 69.8007L117.119 103.196C117.492 103.412 117.716 103.814 117.708 104.246L116.955 130.509C116.94 131.135 116.433 131.635 115.806 131.657L89.5268 132.402C89.0569 132.402 88.6466 132.164 88.4377 131.754L57.7352 71.3509C57.4965 70.8813 57.5935 70.3224 57.9739 69.9572C58.1977 69.7486 58.4886 69.6368 58.7869 69.6368L58.7944 69.6442ZM115.329 104.88L61.6513 73.8326L90.2056 130.025L114.627 129.332L115.329 104.887V104.88Z" fill="var(--fill-0, #E5B785)"/>
<path id="Vector_9" d="M22.7733 129.973L89.4895 130.055C89.9222 130.055 90.3175 130.293 90.5263 130.673L103.021 153.799C103.319 154.35 103.133 155.036 102.596 155.364L80.1952 169.136C79.8073 169.374 79.315 169.367 78.9346 169.121L22.1244 132.141C21.6843 131.858 21.4903 131.314 21.632 130.815C21.7812 130.316 22.2437 129.973 22.7659 129.973H22.7733ZM88.7884 132.41L26.7566 132.335L79.6059 166.736L100.417 153.933L88.7884 132.41Z" fill="var(--fill-0, #E5B785)"/>
<path id="Vector_10" d="M79.591 166.952C79.8073 166.952 80.0162 167.012 80.2101 167.131L102.603 180.918C103.133 181.246 103.319 181.932 103.021 182.483L90.5189 205.601C90.3026 206.004 89.9222 206.25 89.4149 206.22L21.7141 202.568C21.1919 202.538 20.7519 202.173 20.6325 201.666C20.5132 201.16 20.737 200.63 21.192 200.37L79.0017 167.116C79.1808 167.012 79.3896 166.96 79.591 166.96V166.952ZM100.417 182.342L79.5686 169.509L25.8167 200.429L88.7958 203.82L100.41 182.342H100.417Z" fill="var(--fill-0, #E5B785)"/>
<path id="Vector_11" d="M89.497 203.857H89.5343L115.813 204.61C116.44 204.625 116.94 205.132 116.962 205.758L117.708 232.021C117.723 232.475 117.469 232.9 117.067 233.109L56.6163 263.769C56.1464 264 55.5869 263.91 55.2214 263.53C54.8634 263.15 54.7962 262.584 55.0573 262.129L88.475 204.454C88.6839 204.089 89.0792 203.865 89.497 203.865V203.857ZM114.627 206.943L90.1609 206.242L59.0928 259.871L115.321 231.35L114.627 206.95V206.943Z" fill="var(--fill-0, #E5B785)"/>
<path id="Vector_12" d="M139.676 218.397C140.071 218.397 140.459 218.599 140.683 218.956L154.468 241.329C154.706 241.717 154.699 242.208 154.453 242.588L117.447 299.347C117.164 299.787 116.619 299.988 116.119 299.832C115.619 299.683 115.276 299.22 115.276 298.699L115.358 232.051C115.358 231.618 115.597 231.216 115.978 231.015L139.116 218.539C139.295 218.442 139.482 218.397 139.676 218.397ZM152.066 241.933L139.258 221.147L117.716 232.766L117.641 294.734L152.066 241.94V241.933Z" fill="var(--fill-0, #E5B785)"/>
</g>
<path id="Vector_13" d="M153.476 93.1422C153.886 93.1422 154.266 93.3508 154.483 93.7011L167.693 115.12L189.855 103.173C190.213 102.98 190.645 102.987 191.003 103.188C191.361 103.389 191.585 103.77 191.593 104.179L192.316 129.324L217.484 130.047C217.894 130.062 218.267 130.286 218.469 130.636C218.67 130.994 218.678 131.426 218.484 131.784L206.526 153.925L227.964 167.124C228.315 167.34 228.524 167.72 228.524 168.13C228.524 168.54 228.315 168.92 227.964 169.136L206.526 182.334L218.484 204.483C218.678 204.841 218.67 205.281 218.469 205.631C218.267 205.989 217.887 206.205 217.484 206.22L192.316 206.95L191.593 232.095C191.578 232.505 191.354 232.878 191.003 233.086C190.645 233.288 190.213 233.295 189.855 233.101L167.693 221.155L154.483 242.574C154.057 243.274 152.901 243.274 152.476 242.574L139.258 221.155L117.096 233.101C116.738 233.295 116.298 233.288 115.948 233.086C115.59 232.885 115.366 232.505 115.358 232.095L114.635 206.95L89.4671 206.22C89.0569 206.205 88.6839 205.981 88.4825 205.631C88.2811 205.273 88.2737 204.841 88.4676 204.483L100.425 182.334L78.9868 169.136C78.6362 168.92 78.4273 168.54 78.4273 168.13C78.4273 167.72 78.6362 167.34 78.9868 167.124L100.425 153.925L88.4676 131.784C88.2737 131.426 88.2811 130.986 88.4825 130.636C88.6839 130.278 89.0643 130.062 89.4671 130.047L114.635 129.324L115.358 104.179C115.373 103.77 115.597 103.397 115.948 103.188C116.306 102.987 116.738 102.98 117.096 103.173L139.258 115.12L152.476 93.7011C152.692 93.3508 153.073 93.1422 153.483 93.1422H153.476ZM167.268 117.862C166.873 117.862 166.485 117.661 166.261 117.303L153.468 96.5704L140.675 117.303C140.347 117.84 139.661 118.019 139.109 117.721L117.656 106.154L116.955 130.502C116.94 131.128 116.433 131.627 115.806 131.65L91.4364 132.35L103.013 153.791C103.312 154.343 103.125 155.028 102.596 155.356L81.8437 168.137L102.596 180.911C103.125 181.239 103.312 181.925 103.013 182.476L91.4364 203.917L115.806 204.625C116.433 204.64 116.932 205.147 116.955 205.773L117.656 230.113L139.109 218.546C139.661 218.256 140.347 218.435 140.675 218.964L153.468 239.697L166.261 218.964C166.589 218.427 167.283 218.256 167.827 218.546L189.288 230.113L189.989 205.773C190.004 205.147 190.511 204.647 191.138 204.625L215.5 203.917L203.923 182.476C203.625 181.925 203.811 181.239 204.341 180.911L225.093 168.137L204.341 155.356C203.811 155.028 203.625 154.343 203.923 153.791L215.5 132.35L191.138 131.65C190.511 131.635 190.011 131.128 189.989 130.502L189.288 106.154L167.827 117.721C167.648 117.818 167.462 117.862 167.268 117.862Z" fill="var(--fill-0, #E5B785)"/>
</g>
<path id="Vector_14" d="M77.3308 35.1836H229.62C230.046 35.1836 230.433 35.4071 230.642 35.7723L306.787 167.541C306.996 167.906 306.996 168.353 306.787 168.719L230.642 300.495C230.433 300.86 230.046 301.084 229.62 301.084H77.3308C76.9056 301.084 76.5177 300.86 76.3088 300.495L0.156648 168.719C-0.0522132 168.353 -0.0522132 167.906 0.156648 167.541L76.3088 35.7723C76.5177 35.4071 76.9056 35.1836 77.3308 35.1836ZM228.934 37.5386H78.0096L2.53617 168.13L78.0096 298.721H228.934L304.4 168.13L228.934 37.5386Z" fill="var(--fill-0, #E5B785)"/>
</g>
<path id="Vector_15" d="M20.5579 200.489C20.9756 200.489 21.3635 200.712 21.5798 201.078L57.0862 262.122C57.3249 262.532 57.295 263.046 57.0041 263.426C56.7132 263.806 56.2284 263.977 55.7659 263.851L7.52648 251.159C6.89244 250.995 6.51947 250.347 6.68357 249.721L19.4092 201.368C19.5285 200.906 19.9164 200.563 20.3938 200.496C20.446 200.496 20.4982 200.489 20.5504 200.489H20.5579ZM53.6176 260.847L20.9681 204.729L9.26447 249.184L53.6176 260.847Z" fill="var(--fill-0, #E5B785)"/>
<path id="Vector_16" d="M284.155 203.947C284.2 203.947 284.252 203.947 284.305 203.954C284.775 204.014 285.17 204.357 285.297 204.811L298.418 252.895C298.589 253.521 298.216 254.17 297.59 254.341L249.32 267.495C248.858 267.614 248.366 267.458 248.075 267.078C247.784 266.698 247.746 266.183 247.985 265.773L283.134 204.536C283.342 204.163 283.738 203.939 284.155 203.939V203.947ZM295.822 252.389L283.76 208.18L251.446 264.484L295.822 252.389Z" fill="var(--fill-0, #E5B785)"/>
<path id="Vector_17" d="M186.744 298.52C187.222 298.52 187.647 298.803 187.833 299.243C188.02 299.683 187.915 300.189 187.587 300.525L152.469 335.917C152.006 336.379 151.26 336.386 150.798 335.917L115.261 300.733C114.918 300.398 114.821 299.891 115 299.452C115.179 299.012 115.612 298.721 116.089 298.721L186.752 298.513L186.744 298.52ZM151.618 333.428L183.91 300.89L118.946 301.084L151.618 333.435V333.428Z" fill="var(--fill-0, #E5B785)"/>
<path id="Vector_18" d="M155.325 6.56603e-06C155.624 6.56603e-06 155.93 0.111811 156.153 0.342841L191.69 35.5264C192.033 35.8617 192.13 36.3685 191.951 36.8082C191.772 37.2479 191.339 37.5386 190.862 37.5386L120.2 37.7473C119.722 37.7473 119.297 37.464 119.11 37.0243C118.924 36.5846 119.028 36.0779 119.357 35.7425L154.475 0.350255C154.706 0.119226 155.012 6.56603e-06 155.318 6.56603e-06H155.325ZM188.005 35.191L155.333 2.83943L123.042 35.3773L188.005 35.1836V35.191Z" fill="var(--fill-0, #E5B785)"/>
<path id="Vector_19" d="M57.9366 68.6754C58.3021 68.6754 58.6452 68.8394 58.869 69.1375C59.1599 69.5175 59.1972 70.0318 58.9511 70.4417L23.6386 131.582C23.3999 131.992 22.93 132.223 22.46 132.164C21.9826 132.104 21.5947 131.761 21.4754 131.299L8.59318 82.9918C8.42161 82.3583 8.80203 81.7174 9.42862 81.546L57.6233 68.7127C57.7277 68.6829 57.8247 68.6754 57.9292 68.6754H57.9366ZM23.0269 127.938L55.4974 71.7235L11.189 83.5209L23.0269 127.938Z" fill="var(--fill-0, #E5B785)"/>
<path id="Vector_20" d="M250.872 72.3644C250.976 72.3644 251.081 72.3793 251.185 72.4091L299.462 85.5629C299.76 85.6449 300.021 85.8461 300.178 86.1144C300.335 86.3827 300.372 86.7106 300.29 87.0087L287.162 135.093C287.035 135.555 286.647 135.89 286.169 135.95C285.685 136.002 285.23 135.778 284.998 135.368L249.85 74.1306C249.611 73.7133 249.649 73.1991 249.94 72.8265C250.163 72.5358 250.514 72.3644 250.872 72.3644ZM297.702 87.5229L253.319 75.4274L285.632 131.724L297.702 87.5155V87.5229Z" fill="var(--fill-0, #E5B785)"/>
</g>
</svg>
