<svg preserveAspectRatio="none" width="100%" height="100%" overflow="visible" style="display: block;" viewBox="0 0 306.944 336.266" fill="none" xmlns="http://www.w3.org/2000/svg">
<g id="Group">
<g id="Group_2">
<g id="Group_3">
<g id="Group_4">
<path id="Vector" d="M167.275 218.405C167.462 218.405 167.656 218.45 167.835 218.546L190.981 231.015C191.384 231.231 191.623 231.656 191.6 232.118L187.953 299.765C187.923 300.286 187.557 300.726 187.05 300.845C186.543 300.964 186.013 300.741 185.752 300.286L152.461 242.529C152.245 242.156 152.252 241.694 152.476 241.322L166.276 218.956C166.5 218.599 166.887 218.397 167.283 218.397L167.275 218.405ZM189.198 232.744L167.693 221.155L154.848 241.97L185.804 295.673L189.198 232.744Z" fill="var(--fill-0, #E5B785)"/>
<path id="Vector_2" d="M217.454 203.865C217.894 203.865 218.305 204.111 218.506 204.506L249.201 264.916C249.44 265.386 249.343 265.945 248.962 266.31C248.582 266.668 248.008 266.735 247.56 266.474L189.832 233.079C189.459 232.863 189.228 232.46 189.243 232.028L189.989 205.773C190.004 205.147 190.511 204.647 191.138 204.625L217.432 203.865H217.469H217.454ZM245.292 262.442L216.738 206.25L192.309 206.958L191.615 231.395L245.285 262.45L245.292 262.442Z" fill="var(--fill-0, #E5B785)"/>
<path id="Vector_3" d="M227.353 166.96C227.577 166.96 227.8 167.027 227.994 167.154L284.805 204.141C285.245 204.424 285.439 204.968 285.289 205.467C285.14 205.967 284.678 206.309 284.155 206.309L217.439 206.227C217.007 206.227 216.604 205.989 216.403 205.609L203.908 182.491C203.61 181.939 203.796 181.254 204.326 180.926L226.719 167.146C226.913 167.027 227.122 166.967 227.338 166.967L227.353 166.96ZM280.187 203.939L227.338 169.538L206.526 182.349L218.155 203.872L280.187 203.947V203.939Z" fill="var(--fill-0, #E5B785)"/>
<path id="Vector_4" d="M217.454 130.047C217.454 130.047 217.499 130.047 217.514 130.047L285.222 133.692C285.744 133.721 286.185 134.087 286.304 134.593C286.423 135.1 286.199 135.629 285.744 135.89L227.935 169.143C227.562 169.36 227.092 169.352 226.726 169.129L204.333 155.349C203.804 155.021 203.617 154.335 203.916 153.784L216.41 130.666C216.619 130.286 217.014 130.047 217.447 130.047H217.454ZM281.12 135.838L218.133 132.447L206.526 153.933L227.375 166.766L281.127 135.845L281.12 135.838Z" fill="var(--fill-0, #E5B785)"/>
<path id="Vector_5" d="M250.872 72.3719C251.185 72.3719 251.499 72.4986 251.73 72.737C252.088 73.1171 252.155 73.6835 251.894 74.1381L218.461 131.821C218.245 132.194 217.82 132.417 217.409 132.41L191.13 131.657C190.504 131.642 190.004 131.135 189.982 130.509L189.236 104.246C189.221 103.792 189.474 103.367 189.885 103.158L250.342 72.4911C250.514 72.4017 250.693 72.3644 250.88 72.3644L250.872 72.3719ZM216.776 130.032L247.858 76.4037L191.623 104.932L192.309 129.332L216.776 130.032Z" fill="var(--fill-0, #E5B785)"/>
<path id="Vector_6" d="M190.489 36.3834C190.601 36.3834 190.713 36.3983 190.824 36.4356C191.324 36.5846 191.667 37.0467 191.667 37.5684L191.585 104.224C191.585 104.656 191.347 105.059 190.966 105.26L167.82 117.736C167.268 118.034 166.582 117.847 166.253 117.318L152.469 94.9531C152.23 94.5656 152.237 94.0737 152.484 93.6936L189.497 36.9349C189.72 36.5921 190.093 36.3983 190.489 36.3983V36.3834ZM189.228 103.516L189.31 41.5406L154.878 94.342L167.686 115.127L189.228 103.516Z" fill="var(--fill-0, #E5B785)"/>
<path id="Vector_7" d="M120.185 35.3848C120.602 35.3848 120.99 35.6084 121.207 35.9735L154.49 93.7384C154.706 94.111 154.699 94.5731 154.475 94.9457L140.683 117.311C140.355 117.84 139.668 118.026 139.116 117.728L115.985 105.245C115.582 105.029 115.344 104.597 115.366 104.142L119.014 36.4952C119.043 35.9735 119.409 35.5338 119.916 35.4146C120.006 35.3922 120.103 35.3848 120.192 35.3848H120.185ZM152.088 94.3122L121.147 40.609L117.753 103.538L139.251 115.135L152.088 94.3197V94.3122Z" fill="var(--fill-0, #E5B785)"/>
<path id="Vector_8" d="M58.8019 69.6442C59.0033 69.6442 59.2047 69.6964 59.3912 69.8007L117.126 103.196C117.499 103.412 117.73 103.814 117.716 104.246L116.962 130.509C116.94 131.135 116.44 131.635 115.813 131.657L89.5342 132.402C89.0419 132.38 88.6541 132.164 88.4452 131.761L57.7502 71.3583C57.5115 70.8888 57.6083 70.3298 57.9887 69.9647C58.2125 69.756 58.5035 69.6442 58.8019 69.6442ZM115.336 104.887L61.6514 73.84L90.2057 130.032L114.627 129.339L115.329 104.895L115.336 104.887Z" fill="var(--fill-0, #E5B785)"/>
<path id="Vector_9" d="M22.7808 129.973L89.4969 130.055C89.9295 130.055 90.3325 130.293 90.5339 130.673L103.028 153.799C103.327 154.35 103.14 155.036 102.61 155.364L80.2101 169.136C79.8222 169.374 79.3299 169.367 78.9495 169.121L22.1394 132.141C21.6993 131.858 21.5052 131.314 21.6544 130.815C21.8036 130.316 22.2661 129.973 22.7882 129.973H22.7808ZM88.7958 132.417L26.7641 132.343L79.6133 166.744L100.425 153.948L88.7958 132.425V132.417Z" fill="var(--fill-0, #E5B785)"/>
<path id="Vector_10" d="M79.5985 166.96C79.8148 166.96 80.0312 167.019 80.2177 167.139L102.611 180.926C103.14 181.254 103.327 181.939 103.028 182.491L90.5265 205.609C90.3102 206.011 89.8775 206.25 89.4225 206.227L21.7217 202.576C21.1995 202.546 20.7595 202.181 20.6401 201.674C20.5208 201.167 20.7446 200.638 21.1996 200.377L79.0093 167.124C79.1884 167.019 79.3971 166.967 79.5985 166.967V166.96ZM100.425 182.342L79.5835 169.509L25.8318 200.429L88.8108 203.828L100.425 182.349V182.342Z" fill="var(--fill-0, #E5B785)"/>
<path id="Vector_11" d="M89.4969 203.865H89.5267L115.806 204.618C116.433 204.633 116.932 205.139 116.955 205.765L117.701 232.028C117.716 232.483 117.462 232.908 117.052 233.116L56.6014 263.776C56.1389 264.015 55.5719 263.918 55.2064 263.538C54.8483 263.158 54.7812 262.591 55.0423 262.137L88.4601 204.461C88.669 204.096 89.0642 203.872 89.4819 203.872L89.4969 203.865ZM114.635 206.943L90.1683 206.242L59.0927 259.871L115.321 231.35L114.627 206.95L114.635 206.943Z" fill="var(--fill-0, #E5B785)"/>
<path id="Vector_12" d="M139.676 218.397C140.071 218.397 140.459 218.599 140.683 218.956L154.468 241.329C154.706 241.717 154.699 242.208 154.453 242.588L117.447 299.347C117.164 299.787 116.627 299.981 116.119 299.832C115.62 299.683 115.276 299.22 115.276 298.699L115.359 232.051C115.359 231.618 115.597 231.216 115.978 231.015L139.116 218.539C139.295 218.442 139.489 218.397 139.676 218.397ZM152.066 241.933L139.258 221.147L117.716 232.759L117.641 294.727L152.066 241.933Z" fill="var(--fill-0, #E5B785)"/>
</g>
<path id="Vector_13" d="M153.476 93.1496C153.886 93.1496 154.266 93.3583 154.483 93.7085L167.693 115.127L189.855 103.181C190.213 102.987 190.653 102.994 191.003 103.196C191.362 103.404 191.578 103.777 191.593 104.187L192.316 129.332L217.484 130.055C217.894 130.07 218.267 130.293 218.469 130.643C218.67 131.001 218.678 131.433 218.484 131.791L206.534 153.933L227.972 167.131C228.323 167.347 228.531 167.727 228.531 168.137C228.531 168.547 228.323 168.927 227.972 169.143L206.534 182.342L218.484 204.491C218.678 204.849 218.67 205.288 218.469 205.639C218.267 205.996 217.887 206.212 217.484 206.227L192.316 206.958L191.593 232.103C191.578 232.513 191.354 232.885 191.003 233.094C190.653 233.295 190.213 233.303 189.855 233.109L167.693 221.162L154.483 242.581C154.05 243.282 152.901 243.282 152.476 242.581L139.266 221.162L117.104 233.109C116.746 233.303 116.306 233.295 115.955 233.094C115.597 232.893 115.381 232.513 115.366 232.103L114.642 206.958L89.4745 206.227C89.0643 206.212 88.6915 205.989 88.49 205.639C88.2886 205.281 88.2812 204.849 88.4751 204.491L100.425 182.342L78.9943 169.143C78.6438 168.927 78.4349 168.547 78.4349 168.137C78.4349 167.727 78.6438 167.347 78.9943 167.131L100.425 153.933L88.4751 131.791C88.2812 131.433 88.2886 130.994 88.49 130.643C88.6915 130.286 89.0718 130.07 89.482 130.055L114.65 129.332L115.373 104.187C115.388 103.777 115.612 103.404 115.963 103.196C116.313 102.994 116.753 102.987 117.111 103.181L139.273 115.127L152.484 93.7085C152.7 93.3583 153.08 93.1496 153.491 93.1496H153.476ZM167.275 117.87C166.88 117.87 166.492 117.669 166.268 117.311L153.476 96.5778L140.683 117.311C140.355 117.84 139.668 118.026 139.116 117.728L117.663 106.162L116.962 130.509C116.94 131.135 116.44 131.635 115.813 131.657L91.4439 132.358L103.013 153.799C103.312 154.35 103.125 155.036 102.596 155.364L81.8437 168.145L102.596 180.918C103.125 181.246 103.312 181.932 103.013 182.484L91.4364 203.925L115.806 204.633C116.433 204.647 116.932 205.154 116.955 205.78L117.656 230.12L139.109 218.554C139.661 218.256 140.347 218.442 140.675 218.971L153.468 239.704L166.261 218.971C166.589 218.435 167.275 218.256 167.827 218.554L189.288 230.12L189.989 205.78C190.004 205.154 190.511 204.655 191.138 204.633L215.507 203.925L203.931 182.484C203.632 181.932 203.819 181.246 204.348 180.918L225.1 168.145L204.348 155.364C203.819 155.036 203.632 154.35 203.931 153.799L215.5 132.358L191.138 131.657C190.511 131.642 190.011 131.135 189.989 130.509L189.288 106.162L167.827 117.728C167.648 117.825 167.454 117.87 167.268 117.87H167.275Z" fill="var(--fill-0, #E5B785)"/>
</g>
<path id="Vector_14" d="M77.331 35.191H229.62C230.046 35.191 230.433 35.4146 230.642 35.7798L306.787 167.549C306.996 167.914 306.996 168.361 306.787 168.726L230.642 300.502C230.433 300.867 230.038 301.091 229.62 301.091H77.331C76.9058 301.091 76.5178 300.867 76.3089 300.502L0.156646 168.726C-0.0522153 168.361 -0.0522153 167.914 0.156646 167.549L76.3089 35.7798C76.5178 35.4146 76.9132 35.191 77.331 35.191ZM228.942 37.546H78.0097L2.54377 168.137L78.0097 298.729H228.942L304.408 168.137L228.942 37.546Z" fill="var(--fill-0, #E5B785)"/>
</g>
<path id="Vector_15" d="M20.558 200.496C20.9757 200.496 21.3637 200.72 21.58 201.085L57.0863 262.129C57.325 262.539 57.2952 263.061 57.0043 263.433C56.7134 263.813 56.2284 263.977 55.7659 263.858L7.52656 251.166C6.89252 251.002 6.51946 250.354 6.68357 249.728L19.4167 201.376C19.536 200.914 19.924 200.571 20.4014 200.504C20.4536 200.504 20.5058 200.496 20.558 200.496ZM53.6178 260.847L20.9757 204.729L9.27211 249.184L53.6178 260.847Z" fill="var(--fill-0, #E5B785)"/>
<path id="Vector_16" d="M284.155 203.954C284.208 203.954 284.253 203.954 284.305 203.962C284.775 204.021 285.17 204.364 285.297 204.819L298.41 252.903C298.582 253.529 298.209 254.177 297.582 254.349L249.313 267.502C248.858 267.629 248.366 267.465 248.067 267.085C247.776 266.705 247.739 266.191 247.978 265.781L283.126 204.543C283.335 204.17 283.73 203.947 284.148 203.947L284.155 203.954ZM295.822 252.389L283.76 208.18L251.446 264.484L295.822 252.389Z" fill="var(--fill-0, #E5B785)"/>
<path id="Vector_17" d="M186.744 298.52C187.222 298.52 187.647 298.803 187.833 299.243C188.02 299.683 187.915 300.189 187.58 300.525L152.461 335.917C152.006 336.379 151.253 336.386 150.79 335.917L115.254 300.733C114.918 300.398 114.814 299.891 114.993 299.452C115.172 299.012 115.605 298.721 116.082 298.721L186.737 298.512L186.744 298.52ZM151.618 333.428L183.91 300.89L118.954 301.084L151.626 333.435L151.618 333.428Z" fill="var(--fill-0, #E5B785)"/>
<path id="Vector_18" d="M155.325 0C155.624 0 155.922 0.111788 156.154 0.342818L191.69 35.5264C192.025 35.8617 192.13 36.3685 191.951 36.8082C191.772 37.2479 191.339 37.5386 190.862 37.5386L120.2 37.7472C119.722 37.7472 119.297 37.464 119.111 37.0243C118.924 36.5846 119.028 36.0779 119.364 35.7425L154.49 0.350271C154.721 0.119241 155.027 0 155.325 0ZM188.005 35.1985L155.333 2.84688L123.041 35.3848L188.005 35.191V35.1985Z" fill="var(--fill-0, #E5B785)"/>
<path id="Vector_19" d="M57.9368 68.6754C58.3023 68.6754 58.6454 68.8393 58.8766 69.1374C59.1676 69.5175 59.1973 70.0317 58.9586 70.4416L23.6386 131.582C23.3999 131.992 22.945 132.231 22.4602 132.164C21.9828 132.104 21.5948 131.761 21.4755 131.299L8.59323 82.9918C8.42912 82.3657 8.80217 81.7174 9.42876 81.546L57.6233 68.7126C57.7278 68.6828 57.8249 68.6754 57.9293 68.6754H57.9368ZM23.0271 127.938L55.4975 71.7235L11.1891 83.5209L23.0271 127.938Z" fill="var(--fill-0, #E5B785)"/>
<path id="Vector_20" d="M250.872 72.3719C250.976 72.3719 251.081 72.3868 251.185 72.4166L299.462 85.5704C299.76 85.6523 300.022 85.8536 300.178 86.1218C300.335 86.3901 300.372 86.7181 300.29 87.0162L287.162 135.1C287.035 135.562 286.647 135.898 286.17 135.957C285.7 136.009 285.237 135.786 284.998 135.376L249.85 74.1381C249.611 73.7282 249.649 73.2066 249.94 72.8339C250.163 72.5433 250.514 72.3719 250.872 72.3719ZM297.709 87.5304L253.326 75.4349L285.64 131.732L297.717 87.5229L297.709 87.5304Z" fill="var(--fill-0, #E5B785)"/>
</g>
</svg>
