<svg preserveAspectRatio="none" width="100%" height="100%" overflow="visible" style="display: block;" viewBox="0 0 306.944 336.274" fill="none" xmlns="http://www.w3.org/2000/svg">
<g id="Group">
<g id="Group_2">
<g id="Group_3">
<g id="Group_4">
<path id="Vector" d="M167.268 218.405C167.454 218.405 167.648 218.45 167.827 218.546L190.974 231.022C191.376 231.238 191.615 231.663 191.593 232.125L187.945 299.772C187.915 300.294 187.55 300.733 187.043 300.853C186.535 300.972 186.006 300.748 185.745 300.294L152.454 242.536C152.237 242.164 152.245 241.702 152.469 241.329L166.268 218.964C166.492 218.606 166.88 218.405 167.275 218.405H167.268ZM189.198 232.744L167.693 221.155L154.848 241.97L185.797 295.673L189.191 232.744H189.198Z" fill="var(--fill-0, #E5B785)"/>
<path id="Vector_2" d="M217.447 203.865C217.887 203.865 218.297 204.111 218.499 204.513L249.194 264.924C249.432 265.386 249.335 265.952 248.955 266.31C248.574 266.668 248 266.735 247.553 266.474L189.825 233.079C189.452 232.863 189.228 232.46 189.236 232.028L189.981 205.773C189.996 205.147 190.504 204.647 191.13 204.625L217.424 203.865H217.462H217.447ZM245.285 262.442L216.731 206.25L192.301 206.958L191.615 231.395L245.285 262.45V262.442Z" fill="var(--fill-0, #E5B785)"/>
<path id="Vector_3" d="M227.353 166.96C227.577 166.96 227.8 167.027 227.994 167.154L284.805 204.141C285.245 204.424 285.439 204.968 285.289 205.467C285.14 205.967 284.678 206.309 284.155 206.309L217.439 206.227C217.007 206.227 216.604 205.989 216.403 205.609L203.908 182.491C203.61 181.939 203.796 181.254 204.326 180.926L226.719 167.146C226.905 167.027 227.122 166.967 227.338 166.967L227.353 166.96ZM280.18 203.939L227.33 169.538L206.519 182.349L218.148 203.872L280.18 203.947V203.939Z" fill="var(--fill-0, #E5B785)"/>
<path id="Vector_4" d="M217.447 130.055C217.447 130.055 217.492 130.055 217.507 130.055L285.215 133.699C285.737 133.729 286.177 134.094 286.296 134.601C286.416 135.108 286.192 135.637 285.737 135.898L227.927 169.151C227.554 169.367 227.084 169.36 226.719 169.136L204.326 155.356C203.796 155.028 203.61 154.343 203.908 153.791L216.403 130.673C216.611 130.293 217.007 130.055 217.439 130.055H217.447ZM281.12 135.838L218.133 132.447L206.526 153.933L227.375 166.766L281.127 135.845L281.12 135.838Z" fill="var(--fill-0, #E5B785)"/>
<path id="Vector_5" d="M250.872 72.3718C251.185 72.3718 251.499 72.4985 251.73 72.737C252.088 73.1171 252.155 73.6835 251.894 74.1381L218.461 131.821C218.245 132.194 217.797 132.417 217.409 132.41L191.123 131.657C190.496 131.642 189.997 131.135 189.974 130.509L189.228 104.246C189.213 103.792 189.467 103.367 189.877 103.158L250.335 72.4911C250.507 72.4017 250.686 72.3644 250.872 72.3644V72.3718ZM216.768 130.032L247.851 76.4037L191.615 104.932L192.301 129.332L216.768 130.032Z" fill="var(--fill-0, #E5B785)"/>
<path id="Vector_6" d="M190.489 36.3834C190.601 36.3834 190.713 36.3983 190.824 36.4356C191.324 36.5847 191.667 37.0467 191.667 37.5684L191.585 104.224C191.585 104.656 191.347 105.059 190.966 105.26L167.82 117.736C167.268 118.034 166.582 117.847 166.253 117.318L152.469 94.9532C152.23 94.5656 152.237 94.0737 152.484 93.6936L189.497 36.935C189.72 36.5921 190.093 36.3983 190.489 36.3983V36.3834ZM189.221 103.516L189.303 41.5406L154.871 94.342L167.678 115.127L189.221 103.516Z" fill="var(--fill-0, #E5B785)"/>
<path id="Vector_7" d="M120.177 35.3848C120.595 35.3848 120.983 35.6084 121.199 35.9735L154.483 93.7384C154.699 94.111 154.692 94.5731 154.468 94.9457L140.675 117.311C140.347 117.84 139.661 118.026 139.109 117.728L115.978 105.245C115.575 105.029 115.336 104.597 115.359 104.142L119.006 36.4952C119.036 35.9735 119.401 35.5338 119.909 35.4146C119.998 35.3922 120.095 35.3848 120.185 35.3848H120.177ZM152.088 94.3122L121.147 40.609L117.753 103.539L139.251 115.135L152.088 94.3197V94.3122Z" fill="var(--fill-0, #E5B785)"/>
<path id="Vector_8" d="M58.7944 69.6442C58.9958 69.6442 59.2047 69.6964 59.3837 69.8007L117.119 103.196C117.492 103.412 117.716 103.814 117.708 104.246L116.947 130.509C116.932 131.135 116.425 131.635 115.798 131.657L89.5193 132.402C89.0344 132.402 88.6391 132.164 88.4303 131.761L57.7352 71.3583C57.4965 70.8888 57.5934 70.3299 57.9738 69.9647C58.1976 69.756 58.4885 69.6442 58.7869 69.6442H58.7944ZM115.336 104.887L61.6514 73.84L90.2057 130.032L114.627 129.339L115.336 104.895V104.887Z" fill="var(--fill-0, #E5B785)"/>
<path id="Vector_9" d="M22.7733 129.973L89.4894 130.055C89.9221 130.055 90.325 130.293 90.5264 130.673L103.021 153.799C103.319 154.35 103.133 155.036 102.603 155.364L80.2026 169.136C79.8147 169.374 79.3225 169.367 78.942 169.121L22.1319 132.141C21.6918 131.858 21.4977 131.314 21.6469 130.815C21.7961 130.316 22.2586 129.973 22.7808 129.973H22.7733ZM88.7883 132.417L26.7566 132.343L79.6058 166.744L100.417 153.948L88.7883 132.425V132.417Z" fill="var(--fill-0, #E5B785)"/>
<path id="Vector_10" d="M79.591 166.96C79.8073 166.96 80.0237 167.019 80.2102 167.139L102.603 180.926C103.133 181.254 103.319 181.939 103.021 182.491L90.519 205.609C90.3027 206.011 89.8775 206.257 89.4151 206.227L21.7142 202.576C21.1921 202.546 20.752 202.181 20.6327 201.674C20.5133 201.167 20.7371 200.638 21.1921 200.377L79.0019 167.124C79.1809 167.019 79.3896 166.967 79.591 166.967V166.96ZM100.418 182.349L79.5688 169.516L25.8169 200.437L88.7959 203.835L100.41 182.357L100.418 182.349Z" fill="var(--fill-0, #E5B785)"/>
<path id="Vector_11" d="M89.4969 203.865H89.5268L115.806 204.618C116.433 204.633 116.932 205.139 116.955 205.765L117.701 232.028C117.716 232.483 117.462 232.908 117.059 233.116L56.6088 263.776C56.1389 264.015 55.5794 263.918 55.2139 263.538C54.8558 263.158 54.7887 262.591 55.0498 262.137L88.4676 204.461C88.6764 204.096 89.0717 203.872 89.4894 203.872L89.4969 203.865ZM114.627 206.943L90.1609 206.242L59.0852 259.871L115.314 231.35L114.62 206.95L114.627 206.943Z" fill="var(--fill-0, #E5B785)"/>
<path id="Vector_12" d="M139.668 218.405C140.064 218.405 140.452 218.606 140.675 218.964L154.46 241.336C154.699 241.724 154.691 242.216 154.445 242.596L117.44 299.355C117.156 299.794 116.619 299.988 116.112 299.839C115.612 299.69 115.269 299.228 115.269 298.706L115.351 232.058C115.351 231.626 115.59 231.223 115.97 231.022L139.109 218.546C139.288 218.45 139.482 218.405 139.668 218.405ZM152.066 241.933L139.258 221.147L117.716 232.766L117.641 294.734L152.066 241.94V241.933Z" fill="var(--fill-0, #E5B785)"/>
</g>
<path id="Vector_13" d="M153.476 93.1496C153.886 93.1496 154.266 93.3583 154.483 93.7085L167.693 115.127L189.855 103.181C190.22 102.987 190.653 102.994 191.003 103.196C191.362 103.397 191.578 103.777 191.593 104.187L192.316 129.332L217.484 130.055C217.894 130.07 218.267 130.293 218.476 130.643C218.678 131.001 218.685 131.433 218.491 131.791L206.534 153.933L227.972 167.131C228.323 167.347 228.531 167.727 228.531 168.137C228.531 168.547 228.323 168.927 227.972 169.143L206.534 182.342L218.491 204.491C218.685 204.849 218.678 205.288 218.476 205.639C218.267 205.996 217.894 206.212 217.492 206.227L192.324 206.958L191.6 232.103C191.585 232.513 191.362 232.885 191.011 233.094C190.66 233.295 190.22 233.303 189.862 233.109L167.701 221.162L154.49 242.581C154.057 243.282 152.909 243.282 152.484 242.581L139.266 221.162L117.104 233.109C116.746 233.303 116.306 233.295 115.955 233.094C115.597 232.893 115.381 232.513 115.366 232.103L114.642 206.958L89.4745 206.227C89.0643 206.212 88.6915 205.989 88.4901 205.639C88.2886 205.281 88.2812 204.849 88.4751 204.491L100.432 182.342L78.9943 169.143C78.6438 168.927 78.4349 168.547 78.4349 168.137C78.4349 167.727 78.6438 167.347 78.9943 167.131L100.432 153.933L88.4751 131.791C88.2812 131.433 88.2886 130.994 88.4901 130.643C88.6915 130.286 89.0718 130.07 89.482 130.055L114.65 129.332L115.373 104.187C115.388 103.777 115.612 103.404 115.963 103.196C116.321 102.994 116.753 102.987 117.111 103.181L139.273 115.127L152.491 93.7085C152.707 93.3583 153.088 93.1496 153.498 93.1496H153.476ZM167.268 117.87C166.873 117.87 166.485 117.669 166.261 117.311L153.468 96.5778L140.675 117.311C140.347 117.84 139.661 118.026 139.109 117.728L117.656 106.162L116.955 130.509C116.94 131.135 116.433 131.635 115.806 131.657L91.4364 132.358L103.013 153.799C103.312 154.35 103.125 155.036 102.596 155.364L81.8437 168.145L102.596 180.918C103.125 181.246 103.312 181.932 103.013 182.483L91.4364 203.925L115.806 204.632C116.433 204.647 116.932 205.154 116.955 205.78L117.656 230.12L139.109 218.554C139.661 218.256 140.347 218.442 140.675 218.971L153.468 239.704L166.261 218.971C166.589 218.442 167.275 218.256 167.827 218.554L189.288 230.12L189.989 205.78C190.004 205.154 190.511 204.655 191.138 204.632L215.507 203.925L203.931 182.483C203.632 181.932 203.819 181.246 204.348 180.918L225.1 168.145L204.348 155.364C203.819 155.036 203.632 154.35 203.931 153.799L215.507 132.358L191.145 131.657C190.519 131.642 190.019 131.135 189.996 130.509L189.295 106.162L167.835 117.728C167.656 117.825 167.462 117.87 167.275 117.87H167.268Z" fill="var(--fill-0, #E5B785)"/>
</g>
<path id="Vector_14" d="M77.331 35.191H229.62C230.046 35.191 230.433 35.4146 230.642 35.7798L306.787 167.549C306.996 167.914 306.996 168.361 306.787 168.726L230.642 300.502C230.433 300.867 230.046 301.091 229.62 301.091H77.331C76.9058 301.091 76.5178 300.867 76.3089 300.502L0.156646 168.726C-0.0522153 168.361 -0.0522153 167.914 0.156646 167.549L76.3089 35.7798C76.5178 35.4146 76.9132 35.191 77.331 35.191ZM228.942 37.546H78.0097L2.54377 168.137L78.0097 298.729H228.942L304.408 168.137L228.942 37.546Z" fill="var(--fill-0, #E5B785)"/>
</g>
<path id="Vector_15" d="M20.558 200.496C20.9757 200.496 21.3637 200.712 21.58 201.085L57.0863 262.129C57.325 262.539 57.2952 263.061 57.0043 263.433C56.7134 263.813 56.221 263.977 55.7659 263.858L7.52656 251.166C6.89252 251.002 6.51946 250.354 6.68356 249.728L19.4092 201.376C19.5286 200.914 19.9165 200.571 20.3939 200.504C20.4461 200.504 20.4983 200.496 20.5505 200.496H20.558ZM53.6178 260.855L20.9757 204.737L9.27211 249.191L53.6178 260.855Z" fill="var(--fill-0, #E5B785)"/>
<path id="Vector_16" d="M284.155 203.954C284.208 203.954 284.253 203.954 284.305 203.962C284.775 204.021 285.17 204.364 285.297 204.819L298.418 252.903C298.589 253.529 298.216 254.177 297.59 254.349L249.32 267.502C248.865 267.629 248.373 267.465 248.075 267.085C247.784 266.705 247.747 266.191 247.985 265.781L283.134 204.543C283.342 204.17 283.738 203.947 284.155 203.947V203.954ZM295.822 252.389L283.76 208.18L251.446 264.484L295.822 252.389Z" fill="var(--fill-0, #E5B785)"/>
<path id="Vector_17" d="M186.744 298.527C187.222 298.527 187.647 298.811 187.833 299.25C188.02 299.69 187.915 300.197 187.58 300.532L152.454 335.924C151.999 336.386 151.245 336.394 150.783 335.924L115.247 300.733C114.911 300.398 114.807 299.891 114.986 299.452C115.165 299.012 115.597 298.721 116.075 298.721L186.737 298.513L186.744 298.527ZM151.618 333.428L183.91 300.89L118.946 301.084L151.618 333.435V333.428Z" fill="var(--fill-0, #E5B785)"/>
<path id="Vector_18" d="M155.325 0C155.624 0 155.922 0.111759 156.154 0.342789L191.69 35.5339C192.025 35.8692 192.13 36.376 191.951 36.8157C191.772 37.2554 191.339 37.546 190.862 37.546L120.2 37.7547C119.797 37.7845 119.29 37.4715 119.111 37.0318C118.924 36.5921 119.028 36.0853 119.364 35.7499L154.483 0.357709C154.714 0.126679 155.02 0.00745984 155.318 0.00745984L155.325 0ZM188.005 35.1984L155.333 2.84684L123.041 35.3848L188.005 35.191V35.1984Z" fill="var(--fill-0, #E5B785)"/>
<path id="Vector_19" d="M57.9367 68.6829C58.2948 68.6829 58.6454 68.8468 58.8766 69.1449C59.1675 69.525 59.1973 70.0392 58.9586 70.4491L23.6386 131.59C23.3999 132 22.945 132.231 22.4602 132.171C21.9828 132.112 21.5948 131.769 21.4755 131.307L8.59321 82.9992C8.42165 82.3732 8.80216 81.7249 9.42874 81.5535L57.6233 68.7201C57.7278 68.6903 57.8248 68.6829 57.9293 68.6829H57.9367ZM23.0271 127.946L55.4975 71.7309L11.189 83.5283L23.0345 127.946H23.0271Z" fill="var(--fill-0, #E5B785)"/>
<path id="Vector_20" d="M250.872 72.3718C250.976 72.3718 251.081 72.3868 251.185 72.4166L299.462 85.5703C299.76 85.6523 300.022 85.8536 300.178 86.1219C300.335 86.3902 300.372 86.7181 300.29 87.0162L287.162 135.1C287.035 135.562 286.647 135.898 286.17 135.957C285.692 136.009 285.237 135.786 284.998 135.376L249.85 74.1381C249.611 73.7282 249.649 73.2065 249.94 72.8339C250.163 72.5433 250.514 72.3718 250.872 72.3718ZM297.702 87.5303L253.319 75.4348L285.633 131.732L297.709 87.523L297.702 87.5303Z" fill="var(--fill-0, #E5B785)"/>
</g>
</svg>
