<svg width="156" height="156" viewBox="0 0 156 156" fill="none" xmlns="http://www.w3.org/2000/svg">
<g transform="translate(156, 0) scale(-1, 1)">
<path opacity="0.3" fill-rule="evenodd" clip-rule="evenodd" d="M113.701 110.452L19.4915 110.452L19.4915 35.7345C19.4915 23.1755 29.6726 12.9944 42.2316 12.9944L107.203 12.9944C119.762 12.9944 129.943 23.1755 129.943 35.7345L129.943 126.695C129.943 117.724 122.671 110.452 113.701 110.452ZM74.7175 35.7345L67.1056 43.3464H56.3407V54.1113L48.7288 61.7232L56.3407 69.3351V80.1H67.1056L74.7175 87.7119L82.3294 80.1H93.0943V69.3351L100.706 61.7232L93.0943 54.1113V43.3464H82.3294L74.7175 35.7345Z" fill="#A67851"/>
<path d="M19.4915 110.452L113.701 110.452C122.671 110.452 129.943 117.724 129.943 126.695C129.943 135.666 122.671 142.938 113.701 142.938L19.4915 142.938" stroke="#A67851" stroke-width="2" stroke-linecap="round"/>
<path d="M19.4916 142.938C28.4623 142.938 35.7345 135.666 35.7345 126.695C35.7345 117.724 28.4623 110.452 19.4916 110.452" stroke="#A67851" stroke-width="2" stroke-linecap="round"/>
<path d="M67.1055 43.3464L74.7175 35.7345L82.3294 43.3464L93.0943 43.3464V54.1113L100.706 61.7232L93.0943 69.3351V80.1H82.3294L74.7175 87.7119L67.1056 80.1L56.3407 80.1L56.3407 69.3351L48.7288 61.7232L56.3407 54.1113L56.3407 43.3464L67.1055 43.3464Z" stroke="#A67851" stroke-width="2" stroke-linecap="round" stroke-linejoin="round"/>
<path d="M129.943 126.695L129.943 35.7345C129.943 23.1755 119.762 12.9944 107.203 12.9944L42.2316 12.9944C29.6726 12.9944 19.4915 23.1755 19.4915 35.7345L19.4915 110.452" stroke="#A67851" stroke-width="2" stroke-linecap="round" stroke-linejoin="round"/>
</g>
</svg>
