<svg width="136" height="150" viewBox="0 0 136 150" fill="none" xmlns="http://www.w3.org/2000/svg">
<path opacity="0.3" fill-rule="evenodd" clip-rule="evenodd" d="M29.2429 107.458L123.452 107.458L123.452 32.7401C123.452 20.1811 113.271 10 100.712 10L35.7401 10C23.1811 10 13 20.1811 13 32.7401L13 123.701C13 114.73 20.2722 107.458 29.2429 107.458ZM68.226 32.7401L75.8379 40.352H86.6028V51.1169L94.2147 58.7288L86.6028 66.3407V77.1056H75.8379L68.226 84.7175L60.6141 77.1056H49.8492V66.3407L42.2373 58.7288L49.8492 51.1169V40.352H60.6141L68.226 32.7401Z" fill="#193624"/>
<path d="M123.452 107.458L29.2429 107.458C20.2722 107.458 13 114.73 13 123.7C13 132.671 20.2722 139.943 29.2429 139.943L123.452 139.943" stroke="#193624" stroke-width="2" stroke-linecap="round"/>
<path d="M123.452 139.943C114.481 139.943 107.209 132.671 107.209 123.7C107.209 114.73 114.481 107.458 123.452 107.458" stroke="#193624" stroke-width="2" stroke-linecap="round"/>
<path d="M75.8378 40.3519L68.2259 32.74L60.614 40.3519L49.8491 40.3519L49.8491 51.1168L42.2372 58.7287L49.8491 66.3406L49.8491 77.1055H60.614L68.2259 84.7174L75.8378 77.1055L86.6027 77.1055L86.6027 66.3406L94.2146 58.7287L86.6027 51.1168V40.3519L75.8378 40.3519Z" stroke="#193624" stroke-width="2" stroke-linecap="round" stroke-linejoin="round"/>
<path d="M13 123.701L13 32.7401C13 20.1811 23.1811 10 35.7401 10L100.712 10C113.271 10 123.452 20.1811 123.452 32.7401L123.452 107.458" stroke="#193624" stroke-width="2" stroke-linecap="round" stroke-linejoin="round"/>
</svg>
