<svg preserveAspectRatio="none" width="100%" height="100%" overflow="visible" style="display: block;" viewBox="0 0 26 26" fill="none" xmlns="http://www.w3.org/2000/svg">
<g id="Elements">
<path id="Vector" opacity="0.3" d="M13.0009 23.8333C10.5976 23.8333 8.72252 21.8518 8.66878 19.5056H17.3331C17.2793 21.8518 15.4042 23.8333 13.0009 23.8333Z" fill="var(--fill-0, #193624)"/>
<g id="Vector_2" opacity="0.3">
<path d="M13 8.6677C13.0327 8.6677 13.0653 8.66833 13.0978 8.66959C13.2666 8.67614 13.3511 8.67942 14.2589 9.6231C14.7238 10.1064 14.9506 10.481 15.0613 10.8735L15.1667 10.8344L15.1667 10.8344C18.6806 9.8307 20.4376 9.32886 21.5084 8.03523C21.6122 7.90988 21.7102 7.77992 21.8023 7.64574C22.6237 6.44849 22.7349 4.92082 22.75 2.1677L3.25 2.1677C3.26506 4.92082 3.37626 6.44849 4.19771 7.64574C4.28977 7.77992 4.38783 7.90988 4.49159 8.03523C5.56243 9.32886 7.3194 9.8307 10.8333 10.8344L10.9402 10.8685C11.0513 10.4778 11.2782 10.1043 11.7411 9.6231C12.6489 8.67942 12.7334 8.67614 12.9022 8.66959C12.9347 8.66833 12.9673 8.6677 13 8.6677Z" fill="var(--fill-0, #030315)"/>
<path d="M13.0978 8.66959L13.1268 7.92016L13.1268 7.92016L13.0978 8.66959ZM12.9022 8.66959L12.8732 7.92016L12.8732 7.92016L12.9022 8.66959ZM14.2589 9.6231L14.7994 9.10315L14.7994 9.10315L14.2589 9.6231ZM11.7411 9.6231L12.2816 10.1431L12.2816 10.1431L11.7411 9.6231ZM10.8333 10.8344L11.0393 10.1132L11.0506 10.1164L11.0617 10.12L10.8333 10.8344ZM4.49159 8.03523L3.91385 8.51347H3.91385L4.49159 8.03523ZM4.19771 7.64574L3.57928 8.07005L3.57928 8.07005L4.19771 7.64574ZM3.25 2.1677L2.50001 2.1718L2.49589 1.4177H3.25L3.25 2.1677ZM15.1667 10.8344L15.4559 11.5264L15.442 11.5322L15.4279 11.5374L15.1667 10.8344ZM15.1667 10.8344L14.8774 10.1424L14.9182 10.1253L14.9607 10.1132L15.1667 10.8344ZM21.5084 8.03523L20.9307 7.55699L20.9307 7.55698L21.5084 8.03523ZM21.8023 7.64574L21.1839 7.22143L21.1839 7.22143L21.8023 7.64574ZM22.75 2.1677V1.4177H23.5041L23.5 2.1718L22.75 2.1677ZM15.0613 10.8735L15.3225 11.5766L14.5601 11.8599L14.3394 11.077L15.0613 10.8735ZM10.9402 10.8685L11.6615 11.0737L11.4496 11.8187L10.7118 11.5829L10.9402 10.8685ZM13.0978 8.66959L13.0687 9.41903C13.0459 9.41815 13.023 9.4177 13 9.4177V8.6677V7.9177C13.0424 7.9177 13.0847 7.91852 13.1268 7.92016L13.0978 8.66959ZM12.9022 8.66959L12.8732 7.92016C12.9153 7.91852 12.9576 7.9177 13 7.9177V8.6677V9.4177C12.977 9.4177 12.9541 9.41815 12.9313 9.41903L12.9022 8.66959ZM13.0978 8.66959L13.1268 7.92016C13.1688 7.92178 13.3071 7.9238 13.4695 7.98039C13.6212 8.03322 13.7483 8.11577 13.8581 8.20015C14.0656 8.3595 14.3513 8.63733 14.7994 9.10315L14.2589 9.6231L13.7184 10.1431C13.2587 9.66519 13.0483 9.46954 12.9443 9.38969C12.8985 9.35448 12.9161 9.376 12.976 9.39688C13.0468 9.42152 13.1112 9.42068 13.0687 9.41903L13.0978 8.66959ZM12.9022 8.66959L12.9313 9.41903C12.8888 9.42068 12.9532 9.42152 13.024 9.39688C13.0839 9.376 13.1015 9.35448 13.0557 9.38969C12.9517 9.46954 12.7413 9.66519 12.2816 10.1431L11.7411 9.6231L11.2006 9.10315C11.6487 8.63733 11.9344 8.3595 12.1419 8.20015C12.2517 8.11577 12.3788 8.03322 12.5305 7.98039C12.6929 7.9238 12.8312 7.92178 12.8732 7.92016L12.9022 8.66959ZM10.8333 10.8344L10.6274 11.5555C8.88626 11.0582 7.52223 10.6697 6.46322 10.2381C5.38792 9.79978 4.55734 9.29084 3.91385 8.51347L4.49159 8.03523L5.06933 7.55699C5.49669 8.07325 6.08 8.46205 7.02938 8.84901C7.99505 9.24261 9.26647 9.60684 11.0393 10.1132L10.8333 10.8344ZM4.49159 8.03523L3.91385 8.51347C3.79572 8.37076 3.68408 8.22281 3.57928 8.07005L4.19771 7.64574L4.81614 7.22143C4.89545 7.33702 4.97994 7.44899 5.06933 7.55699L4.49159 8.03523ZM3.25 2.1677L3.99999 2.1636C4.01532 4.96647 4.1474 6.24674 4.81614 7.22143L4.19771 7.64574L3.57928 8.07005C2.60513 6.65024 2.51479 4.87517 2.50001 2.1718L3.25 2.1677ZM15.1667 10.8344L14.8774 10.1424L14.8774 10.1424L15.1667 10.8344L15.4559 11.5264L15.4559 11.5264L15.1667 10.8344ZM15.1667 10.8344L14.9607 10.1132C16.7335 9.60683 18.005 9.24261 18.9706 8.84901C19.92 8.46205 20.5033 8.07325 20.9307 7.55699L21.5084 8.03523L22.0862 8.51347C21.4427 9.29084 20.6121 9.79977 19.5368 10.2381C18.4778 10.6697 17.1137 11.0582 15.3727 11.5555L15.1667 10.8344ZM21.5084 8.03523L20.9307 7.55698C21.0201 7.44899 21.1045 7.33703 21.1839 7.22143L21.8023 7.64574L22.4207 8.07005C22.3159 8.2228 22.2043 8.37076 22.0861 8.51347L21.5084 8.03523ZM22.75 2.1677L23.5 2.1718C23.4852 4.87517 23.3949 6.65024 22.4207 8.07005L21.8023 7.64574L21.1839 7.22143C21.8526 6.24674 21.9847 4.96647 22 2.1636L22.75 2.1677ZM15.0613 10.8735L14.3394 11.077C14.2735 10.8432 14.1321 10.5731 13.7184 10.1431L14.2589 9.6231L14.7994 9.10315C15.3155 9.63968 15.6277 10.1187 15.7831 10.6701L15.0613 10.8735ZM15.0613 10.8735L14.8 10.1705L14.9054 10.1313L15.1667 10.8344L15.4279 11.5374L15.3225 11.5766L15.0613 10.8735ZM10.9402 10.8685L10.2188 10.6633C10.3749 10.1146 10.6868 9.63726 11.2006 9.10315L11.7411 9.6231L12.2816 10.1431C11.8696 10.5714 11.7278 10.841 11.6615 11.0737L10.9402 10.8685ZM10.9402 10.8685L10.7118 11.5829L10.605 11.5488L10.8333 10.8344L11.0617 10.12L11.1685 10.1541L10.9402 10.8685ZM3.25 2.1677L3.25 1.4177L22.75 1.4177V2.1677V2.9177L3.25 2.9177V2.1677Z" fill="var(--stroke-0, #193624)"/>
</g>
<path id="Vector_3" d="M16.7922 16.1869L17.2477 18.5219C17.7838 21.2697 15.7336 23.8333 13 23.8333C10.2664 23.8333 8.21616 21.2697 8.75226 18.5219L9.20782 16.1869C9.56935 14.3338 11.1565 13 13 13C14.8435 13 16.4307 14.3339 16.7922 16.1869Z" stroke="var(--stroke-0, #193624)" stroke-width="1.5" stroke-linecap="round"/>
<path id="Vector_4" d="M11.5833 13.5417C11.5833 13.9559 11.2475 14.2917 10.8333 14.2917C10.4191 14.2917 10.0833 13.9559 10.0833 13.5417H10.8333H11.5833ZM15.9167 13.5417C15.9167 13.9559 15.5809 14.2917 15.1667 14.2917C14.7525 14.2917 14.4167 13.9559 14.4167 13.5417H15.1667H15.9167ZM13.0978 8.66856L13.0687 9.418H13.0687L13.0978 8.66856ZM12.9022 8.66856L12.9313 9.418H12.9313L12.9022 8.66856ZM14.2589 9.62207L14.7994 9.10212L14.2589 9.62207ZM10.8333 13.5417H10.0833V12.153H10.8333H11.5833V13.5417H10.8333ZM15.1667 13.5417H14.4167V12.153H15.1667H15.9167V13.5417H15.1667ZM13.0978 8.66856L13.0687 9.418C13.0459 9.41711 13.023 9.41667 13 9.41667V8.66667V7.91667C13.0424 7.91667 13.0847 7.91749 13.1268 7.91912L13.0978 8.66856ZM12.9022 8.66856L12.8732 7.91912C12.9153 7.91749 12.9576 7.91667 13 7.91667V8.66667V9.41667C12.977 9.41667 12.9541 9.41711 12.9313 9.418L12.9022 8.66856ZM15.1667 12.153H14.4167C14.4167 11.5966 14.4108 11.3161 14.3342 11.0579C14.2664 10.8295 14.1229 10.5626 13.7184 10.142L14.2589 9.62207L14.7994 9.10212C15.3026 9.62526 15.613 10.0947 15.7722 10.6313C15.9226 11.1381 15.9167 11.6512 15.9167 12.153H15.1667ZM13.0978 8.66856L13.1268 7.91912C13.1688 7.92075 13.3071 7.92277 13.4695 7.97936C13.6212 8.03218 13.7483 8.11474 13.8581 8.19912C14.0656 8.35847 14.3513 8.63629 14.7994 9.10212L14.2589 9.62207L13.7184 10.142C13.2587 9.66416 13.0483 9.46851 12.9443 9.38866C12.8985 9.35344 12.9161 9.37497 12.976 9.39585C13.0468 9.42049 13.1112 9.41965 13.0687 9.418L13.0978 8.66856ZM10.8333 12.153H10.0833C10.0833 11.6512 10.0774 11.1381 10.2278 10.6313C10.387 10.0947 10.6974 9.62526 11.2006 9.10212L11.7411 9.62207L12.2816 10.142C11.8771 10.5626 11.7336 10.8295 11.6658 11.0579C11.5892 11.3161 11.5833 11.5966 11.5833 12.153H10.8333ZM12.9022 8.66856L12.9313 9.418C12.8888 9.41965 12.9532 9.42049 13.024 9.39585C13.0839 9.37497 13.1015 9.35344 13.0557 9.38866C12.9517 9.46851 12.7413 9.66416 12.2816 10.142L11.7411 9.62207L11.2006 9.10212C11.6487 8.63629 11.9344 8.35847 12.1419 8.19912C12.2517 8.11474 12.3788 8.03218 12.5305 7.97936C12.6929 7.92277 12.8312 7.92075 12.8732 7.91912L12.9022 8.66856Z" fill="var(--stroke-0, #193624)"/>
<path id="Vector_5" d="M10.8333 10.8333C7.3194 9.82966 5.56243 9.32783 4.49159 8.03419C4.38783 7.90884 4.28977 7.77888 4.19771 7.64471C3.37626 6.44746 3.26506 4.91979 3.25 2.16667M15.1667 10.8333C18.6806 9.82966 20.4376 9.32783 21.5084 8.03419C21.6122 7.90884 21.7102 7.77888 21.8023 7.64471C22.6237 6.44746 22.7349 4.91979 22.75 2.16667" stroke="var(--stroke-0, #193624)" stroke-width="1.5" stroke-linecap="round"/>
<path id="Vector_6" d="M13 8.66667V4.33333" stroke="var(--stroke-0, #030315)" stroke-width="1.5" stroke-linecap="round"/>
<path id="Vector_7" d="M8.66667 19.5H17.3333" stroke="var(--stroke-0, #030315)" stroke-width="1.5" stroke-linecap="round" stroke-linejoin="round"/>
<g id="Vector_8" opacity="0">
</g>
</g>
</svg>
