<svg preserveAspectRatio="none" width="100%" height="100%" overflow="visible" style="display: block;" viewBox="0 0 24 24" fill="none" xmlns="http://www.w3.org/2000/svg">
<g id="Elements">
<path id="Vector" opacity="0.3" d="M2.5 12C2.5 16.4783 2.5 18.7175 3.89124 20.1088C5.28249 21.5 7.52166 21.5 12 21.5C16.4783 21.5 18.7175 21.5 20.1088 20.1088C21.5 18.7175 21.5 16.4783 21.5 12C21.5 7.52166 21.5 5.28249 20.1088 3.89124C18.7175 2.5 16.4783 2.5 12 2.5C7.52166 2.5 5.28249 2.5 3.89124 3.89124C2.5 5.28249 2.5 7.52166 2.5 12Z" fill="var(--fill-0, #193624)"/>
<path id="Vector_2" d="M2.5 12C2.5 16.4783 2.5 18.7175 3.89124 20.1088C5.28249 21.5 7.52166 21.5 12 21.5C16.4783 21.5 18.7175 21.5 20.1088 20.1088C21.5 18.7175 21.5 16.4783 21.5 12C21.5 7.52166 21.5 5.28249 20.1088 3.89124C18.7175 2.5 16.4783 2.5 12 2.5C7.52166 2.5 5.28249 2.5 3.89124 3.89124C2.5 5.28249 2.5 7.52166 2.5 12Z" stroke="var(--stroke-0, #193624)" stroke-width="1.5" stroke-linejoin="round"/>
<path id="Vector_3" d="M10.3936 12.2221C10.8037 12.1635 11.1836 12.4483 11.2423 12.8584C11.3009 13.2684 11.0161 13.6483 10.606 13.707L10.4998 12.9646L10.3936 12.2221ZM17.4998 13.75C17.914 13.75 18.2498 14.0858 18.2498 14.5C18.2498 14.9142 17.914 15.25 17.4998 15.25V14.5V13.75ZM14.2498 18C14.2498 18.4142 13.914 18.75 13.4998 18.75C13.0856 18.75 12.7498 18.4142 12.7498 18H13.4998H14.2498ZM13.4998 9.5H12.7498C12.7498 7.98122 11.5186 6.75 9.99983 6.75V6V5.25C12.347 5.25 14.2498 7.15279 14.2498 9.5L13.4998 9.5ZM9.99983 6V6.75C8.48105 6.75 7.24983 7.98122 7.24983 9.5H6.49983H5.74983C5.74983 7.15279 7.65262 5.25 9.99983 5.25V6ZM6.49983 9.5H7.24983C7.24983 11.0188 8.48105 12.25 9.99983 12.25V13V13.75C7.65262 13.75 5.74983 11.8472 5.74983 9.5H6.49983ZM9.99983 13V12.25C10.1339 12.25 10.2654 12.2405 10.3936 12.2221L10.4998 12.9646L10.606 13.707C10.4077 13.7354 10.2052 13.75 9.99983 13.75V13ZM17.4998 14.5V15.25C16.7253 15.25 15.8922 15.5692 15.2557 16.1008C14.6199 16.6318 14.2498 17.3117 14.2498 18H13.4998H12.7498C12.7498 16.7554 13.4133 15.6852 14.2942 14.9495C15.1745 14.2143 16.3414 13.75 17.4998 13.75V14.5ZM13.4998 18H12.7498V9.5H13.4998L14.2498 9.5V18H13.4998Z" fill="var(--stroke-0, #193624)"/>
<g id="Vector_4" opacity="0">
</g>
</g>
</svg>
