<svg width="2303" height="380" viewBox="0 0 2303 380" fill="none" xmlns="http://www.w3.org/2000/svg">
<g clip-path="url(#clip0_4007_2318)">
<mask id="mask0_4007_2318" style="mask-type:luminance" maskUnits="userSpaceOnUse" x="0" y="0" width="2303" height="380">
<path d="M2303 0H0V380H2303V0Z" fill="white"/>
</mask>
<g mask="url(#mask0_4007_2318)">
<path d="M2226.44 257.167C2242.41 269.249 2258.18 281.18 2274.88 293.816C2171.11 293.24 2070.72 307.668 1972.55 342.613C1973.25 339.799 1973.46 337.923 1974.17 336.26C1982.2 317.403 1993.72 301.163 2010.06 288.541C2027.7 274.922 2047.41 265.969 2069.41 262.283C2085.38 259.607 2101.48 260.254 2117.56 260.895C2134.54 261.573 2151.52 262.943 2168.51 263.182C2185.38 263.419 2201.97 261.036 2217.63 254.187C2221.46 252.512 2223.7 255.109 2226.44 257.167Z" fill="#FAB550"/>
<path d="M1696.59 268.239C1702.49 263.755 1708.24 259.459 1713.9 255.064C1715.97 253.448 1718.03 253.349 1720.37 254.333C1740.94 262.976 1762.51 263.906 1784.41 262.95C1807.63 261.938 1830.92 260.03 1854.08 260.965C1890.18 262.423 1920.56 277.718 1944.5 304.873C1952.55 313.99 1958.72 324.545 1963.28 335.914C1963.99 337.679 1964.4 339.563 1964.59 341.934C1867.1 307.708 1766.65 293.247 1662.76 293.813C1674.53 284.912 1685.46 276.649 1696.59 268.239Z" fill="#FAB550"/>
<path d="M1033.13 126.332C1034.29 122.894 1035.36 119.701 1036.62 115.905C1030.96 115.905 1026.34 115.639 1021.75 115.958C1011.48 116.675 1004.53 111.668 999.62 103.327C992.353 90.984 992.84 78.3731 999.439 65.9921C1002.52 60.2143 1008.11 56.8917 1014.38 56.5596C1025.67 55.962 1037 56.3908 1048.69 56.3908C1048.74 57.4721 1048.83 58.6963 1048.83 59.9205C1048.85 73.1163 1048.9 86.3121 1048.79 99.5065C1048.76 102.091 1049.49 102.973 1052.11 102.866C1060.08 102.54 1068.06 102.443 1076.05 102.19C1077.48 102.144 1078.91 101.784 1080.44 101.552C1077.58 97.5114 1074.48 94.0142 1072.42 89.9892C1069.59 84.4809 1067.5 78.5843 1065.19 72.819C1064.87 72.027 1064.65 70.6682 1065.08 70.1875C1069.05 65.7173 1071.3 59.6952 1077.63 57.3472C1088.75 53.2213 1099.79 51.739 1111.5 55.155C1119.05 57.3567 1124.23 65.2618 1124.73 72.8315C1125.44 83.6417 1122.2 92.8596 1114.11 100.231C1113.63 100.667 1113.22 101.176 1112.28 102.174C1115.01 102.389 1117.13 102.66 1119.25 102.703C1124.11 102.8 1128.98 102.901 1133.83 102.786C1139.72 102.645 1142.51 99.742 1142.53 93.935C1142.57 84.096 1142.69 74.2542 1142.46 64.4206C1142.39 61.2031 1143.57 59.8597 1146.48 59.1156C1149.46 58.358 1152.32 57.1667 1155.63 56.0285C1155.7 57.5855 1155.79 58.6912 1155.79 59.7969C1155.8 71.1406 1156.01 82.4899 1155.71 93.8253C1155.54 100.437 1160.43 102.92 1165.09 102.821C1170.95 102.697 1174.09 99.6726 1174.12 93.803C1174.17 83.7327 1174.22 73.661 1174.07 63.593C1174.04 61.1599 1174.91 60.0288 1177.12 59.3737C1180.41 58.3999 1183.63 57.2217 1187.21 56.0204C1187.21 68.7196 1187.21 80.9789 1187.21 93.2376C1187.22 100.286 1191.37 103.814 1198.34 102.697C1203.1 101.933 1205.56 99.0821 1205.58 94.0802C1205.61 84.0106 1205.7 73.9382 1205.51 63.871C1205.47 61.1073 1206.5 59.9501 1208.96 59.2499C1212.04 58.3695 1215.05 57.2041 1218.6 55.9876C1218.6 58.2715 1218.6 60.184 1218.6 62.0966C1218.6 72.7454 1218.58 83.3944 1218.6 94.0434C1218.61 99.1724 1221.1 102.212 1226.13 102.642C1229.34 102.916 1232.62 102.783 1235.81 102.384C1239.92 101.87 1241.49 100.075 1241.56 95.9226C1241.7 87.3597 1241.65 78.7934 1241.66 70.2285C1241.67 58.6531 1241.74 47.077 1241.59 35.5039C1241.56 33.0904 1242.33 31.9343 1244.54 31.248C1247.82 30.2316 1251.03 28.9978 1254.75 27.6865C1254.84 29.1084 1254.98 30.1895 1254.98 31.2707C1254.99 52.3373 1254.99 73.4039 1254.97 94.4707C1254.97 96.0851 1254.89 97.7142 1254.67 99.3113C1253.21 109.615 1248.09 114.895 1237.67 115.655C1230.84 116.153 1223.51 117.51 1217.35 113.394C1213.39 110.747 1210.77 111.194 1206.71 113.373C1198.44 117.811 1190.01 116.929 1182.23 111.337C1181.51 110.824 1179.98 110.564 1179.33 110.975C1168.15 117.99 1159.74 117.835 1149.55 110.392C1135.4 119.451 1120.28 116.401 1105.5 113.711C1098.94 112.516 1092.99 111.023 1086.2 113.17C1075.39 116.593 1064.02 116.003 1052.79 115.906C1051.55 115.895 1050.31 115.905 1048.9 115.905C1048.7 127.23 1044.29 136.13 1035.82 143.02C1035.64 143.164 1035.5 143.361 1035.33 143.506C1031.36 146.734 1027.49 148.977 1022.51 144.886C1020.2 142.988 1017.12 142.039 1013.69 140.31C1021.68 137.036 1028.67 133.568 1033.13 126.332ZM1007.69 81.4152C1007.63 83.3756 1007.4 85.3479 1007.53 87.2951C1008.03 94.7631 1013.02 101.835 1018.96 102.462C1024.41 103.036 1029.97 102.584 1035.65 102.584C1035.65 91.407 1035.65 80.3794 1035.65 68.9879C1030.79 68.9879 1026.07 68.916 1021.36 69.0038C1013.1 69.1578 1009.23 72.587 1007.69 81.4152ZM1080.74 76.9955C1083.72 83.8404 1087.75 89.953 1093.56 94.7041C1094.68 95.6239 1096.82 96.413 1098.01 95.9705C1105.99 92.9965 1112.22 83.2749 1112.01 74.735C1111.91 70.9711 1109.99 68.326 1106.35 67.4099C1098.26 65.3724 1090.33 65.7968 1082.69 69.3534C1077.96 71.5574 1077.94 71.7512 1080.74 76.9955Z" fill="white"/>
<path d="M1454.95 225.182C1457.5 224.551 1457.03 226.217 1457.04 227.389C1457.07 232.136 1457.05 236.883 1457.05 241.63C1457.05 257.955 1457.05 274.279 1457.05 290.603C1457.06 296.801 1459.69 299.501 1465.81 299.616C1468.12 299.66 1470.44 299.69 1472.75 299.605C1477.98 299.411 1480.84 296.531 1480.87 291.269C1480.94 281.081 1480.98 270.891 1480.85 260.705C1480.81 258.164 1481.66 256.96 1484.09 256.287C1487.29 255.404 1490.37 254.132 1493.89 252.89C1493.99 254.292 1494.11 255.272 1494.12 256.251C1494.13 267.829 1494.1 279.407 1494.14 290.985C1494.15 296.695 1496.89 299.483 1502.56 299.609C1505.92 299.683 1509.27 299.673 1512.63 299.609C1518.44 299.5 1521.29 296.6 1521.3 290.727C1521.32 271.507 1521.38 252.288 1521.23 233.071C1521.2 230.035 1522.27 228.683 1525.03 227.921C1528 227.102 1530.87 225.932 1534.28 224.741C1534.35 226.37 1534.45 227.57 1534.45 228.77C1534.46 249.147 1534.46 269.524 1534.46 289.9C1534.46 297.147 1536.97 299.598 1544.33 299.625C1546.53 299.632 1548.73 299.648 1550.93 299.616C1557.98 299.516 1559.93 297.567 1560.01 290.432C1560.07 284.76 1560.03 279.087 1560.03 273.414C1560.03 259.752 1560.11 246.089 1559.95 232.429C1559.93 229.845 1560.84 228.64 1563.14 227.947C1566.4 226.968 1569.61 225.833 1573.24 224.631C1573.24 226.113 1573.24 227.018 1573.24 227.921C1573.24 249.224 1573.27 270.527 1573.21 291.83C1573.2 294.123 1572.93 296.455 1572.46 298.701C1570.77 306.7 1565.64 311.665 1557.54 312.34C1551.45 312.848 1545.23 313.059 1539.19 312.317C1535.28 311.835 1531.6 309.4 1527.09 307.537C1520.59 314.356 1511.15 312.63 1502.1 312.749C1497.29 312.812 1493.09 311.198 1489.23 308.357C1488.47 307.793 1486.75 307.537 1486.05 308.004C1474.62 315.615 1463.23 314.031 1451.31 308.372C1447.55 311.257 1442.81 312.727 1437.57 312.724C1424.48 312.715 1411.4 312.745 1398.32 312.747C1397.88 312.747 1397.44 312.601 1396.83 312.491C1396.83 308.286 1396.83 304.181 1396.83 299.624C1398.24 299.624 1399.47 299.582 1400.7 299.63C1414 300.151 1417.95 289.174 1415.86 280.575C1414.65 275.565 1412.58 270.741 1410.67 265.924C1407.28 257.343 1403.7 248.831 1400.21 240.286C1400.04 239.881 1399.99 239.432 1399.8 238.703C1403.78 237.286 1407.64 235.908 1411.95 234.374C1413.53 238.156 1415.13 241.819 1416.62 245.521C1419.94 253.759 1423.3 261.984 1426.48 270.275C1430.06 279.57 1430.79 288.924 1426.46 298.246C1426.32 298.53 1426.38 298.903 1426.34 299.409C1430.31 299.409 1434.22 299.668 1438.08 299.335C1441.8 299.015 1443.53 296.942 1443.85 293.126C1444.05 290.825 1443.97 288.499 1443.98 286.184C1443.98 268.355 1444.05 250.525 1443.91 232.696C1443.88 229.812 1444.88 228.543 1447.53 227.848C1449.97 227.207 1452.3 226.132 1454.95 225.182Z" fill="white"/>
<path d="M211.661 299.466C216.59 299.546 221.221 299.688 225.846 299.596C231.154 299.491 234.078 296.441 234.108 291.022C234.165 280.837 234.199 270.651 234.071 260.467C234.04 258.055 234.874 256.95 237.142 256.306C240.346 255.396 243.452 254.146 247.031 252.89C247.109 254.327 247.216 255.407 247.217 256.485C247.23 267.944 247.21 279.402 247.235 290.86C247.247 296.713 250.049 299.514 255.965 299.618C258.973 299.671 261.984 299.655 264.993 299.621C272.108 299.541 274.125 297.6 274.14 290.542C274.181 271.561 274.254 252.579 274.069 233.6C274.034 230.061 275.069 228.375 278.521 227.615C281.388 226.984 284.11 225.695 287.188 224.593C287.28 225.872 287.385 226.647 287.385 227.423C287.391 248.835 287.428 270.246 287.341 291.657C287.329 294.636 287.109 297.73 286.281 300.565C284.119 307.964 278.625 311.791 271.225 312.389C265.019 312.892 258.691 313.033 252.518 312.382C249.053 312.017 245.657 309.959 242.492 308.195C240.904 307.31 240.157 307.111 238.68 308.315C235.297 311.071 231.358 312.678 226.898 312.71C224.004 312.732 221.107 312.65 218.219 312.779C211.108 313.097 204.335 312.368 198.817 306.719C189.489 315.959 177.706 311.622 166.705 313.01C166.335 315.422 166.022 317.914 165.562 320.378C163.519 331.328 156.47 338.475 147.389 344.008C146.726 344.412 145.504 344.518 144.828 344.184C140.503 342.054 136.258 339.762 131.441 337.237C142.677 332.349 152.667 326.973 153.456 312.761C149.071 312.761 145.032 312.446 141.057 312.816C125.087 314.305 117.698 303.897 113.878 293.018C110.186 282.508 111.637 272.136 117.151 262.616C120.755 256.395 126.979 253.389 134.005 253.147C144.628 252.782 155.273 253.052 166.24 253.052C166.24 268.452 166.24 283.797 166.24 299.382C173.114 299.382 179.681 299.684 186.202 299.267C189.991 299.025 192.193 295.531 192.21 291.166C192.248 281.097 192.306 271.026 192.17 260.959C192.134 258.352 192.812 256.959 195.484 256.271C198.58 255.473 201.544 254.158 205.155 252.854C205.155 254.481 205.155 255.697 205.155 256.912C205.155 268.023 205.148 279.134 205.159 290.245C205.164 295.4 206.624 297.537 211.661 299.466ZM144.159 299.636C147.131 299.636 150.103 299.636 153.205 299.636C153.205 288.254 153.205 277.241 153.205 266.137C147.138 266.137 141.273 265.912 135.437 266.224C132.125 266.402 129.26 268.168 127.658 271.271C123.685 278.971 124.058 286.493 128.6 293.914C132.145 299.705 137.651 299.979 144.159 299.636Z" fill="white"/>
<path d="M1145.37 306.11C1140.31 311.796 1133.84 312.798 1126.92 312.786C1097.76 312.734 1068.59 312.764 1039.43 312.765C1034.77 312.765 1034.88 312.777 1034.49 317.276C1033.57 327.634 1029.75 336.497 1020.79 342.47C1020 342.993 1018.45 343.01 1017.55 342.606C1014.11 341.07 1010.79 339.264 1007.17 337.428C1009.87 335.475 1012.38 333.931 1014.57 332.03C1019.98 327.341 1021.42 321.009 1021.43 314.202C1021.46 296.496 1021.51 278.789 1021.39 261.084C1021.36 258.288 1022.13 256.905 1024.91 256.205C1028 255.425 1030.96 254.11 1034.51 252.834C1034.51 268.629 1034.51 283.933 1034.51 299.428C1042.3 299.428 1049.67 299.428 1057.59 299.428C1057.59 298.171 1057.57 296.961 1057.59 295.75C1057.72 286.498 1057.55 277.231 1058.08 268.001C1058.51 260.44 1064.15 254.276 1071.68 253.671C1080.17 252.99 1088.79 252.898 1097.26 253.595C1105.58 254.278 1111.03 260.5 1111.47 268.927C1111.91 277.353 1111.7 285.814 1111.77 294.259C1111.78 295.873 1111.78 297.487 1111.78 299.202C1118.27 299.202 1124.59 299.356 1130.88 299.126C1133.39 299.034 1135.06 297.267 1135.41 294.623C1135.65 292.798 1135.95 290.959 1135.95 289.126C1135.99 270.263 1136.03 251.4 1135.92 232.537C1135.9 229.842 1136.8 228.576 1139.32 227.879C1142.5 227.004 1145.57 225.789 1149.03 224.602C1149.03 226.897 1149.03 228.732 1149.03 230.567C1149.03 251.282 1148.99 271.997 1149.06 292.711C1149.08 297.479 1148.05 301.869 1145.37 306.11ZM1070.84 272.545C1070.84 281.493 1070.84 290.441 1070.84 299.384C1080.28 299.384 1089.34 299.384 1098.53 299.384C1098.53 290.258 1098.64 281.376 1098.48 272.498C1098.4 268.444 1096.74 266.513 1092.59 266.19C1087.43 265.787 1082.21 265.874 1077.03 266.126C1073.59 266.295 1071.24 268.211 1070.84 272.545Z" fill="white"/>
<path d="M1534.26 44.4625C1534.26 41.5685 1534.51 38.9882 1534.19 36.4824C1533.77 33.2199 1535.05 31.5781 1538.1 30.7432C1540.97 29.9559 1543.77 28.8661 1546.89 27.8115C1546.99 28.8761 1547.15 29.7332 1547.15 30.5904C1547.16 52.473 1547.18 74.3554 1547.14 96.2384C1547.13 102.071 1545.98 107.552 1541.18 111.511C1537.45 114.58 1532.98 115.809 1528.28 115.832C1510.44 115.921 1492.61 116.073 1474.78 115.705C1470.81 115.624 1466.9 113.494 1462.94 112.382C1461.96 112.106 1460.57 111.636 1459.93 112.075C1454.86 115.55 1449.24 116.154 1443.34 115.925C1439.9 115.791 1436.45 115.901 1433.69 115.901C1432.33 121.611 1431.33 126.898 1429.79 132.023C1428.03 137.882 1424.03 142.2 1419 145.552C1418.32 146.002 1417.15 146.458 1416.56 146.178C1412.86 144.43 1409.26 142.473 1405.21 140.371C1407.13 139.188 1408.59 138.342 1409.99 137.406C1417.13 132.643 1419.65 125.589 1419.68 117.411C1419.73 99.6966 1419.79 81.9811 1419.63 64.2683C1419.61 61.2292 1420.62 59.8932 1423.41 59.1535C1426.39 58.3602 1429.27 57.1866 1432.54 56.0623C1432.54 71.644 1432.54 86.885 1432.54 103.08C1438.86 102.751 1444.95 102.831 1450.9 101.961C1454 101.506 1455.69 98.6476 1455.66 95.163C1455.59 88.7961 1455.59 82.4271 1455.65 76.0595C1455.76 63.334 1461.94 56.5563 1474.58 56.1457C1486.13 55.7705 1497.71 56.0662 1509.64 56.0662C1509.64 71.5162 1509.64 86.8391 1509.64 103.127C1516.65 102.754 1523.34 102.83 1529.88 101.893C1533.97 101.306 1534.19 97.1644 1534.21 93.7847C1534.3 80.4702 1534.25 67.1551 1534.25 53.8403C1534.26 50.83 1534.26 47.8197 1534.26 44.4625ZM1469.17 74.6715C1469.07 81.4795 1468.79 88.2925 1468.95 95.0942C1469.09 100.75 1470.87 102.498 1476.57 102.74C1482.56 102.995 1488.58 102.785 1494.58 102.874C1496.42 102.901 1496.98 102.157 1496.97 100.407C1496.92 90.7051 1496.99 81.003 1496.87 71.3022C1496.86 70.5221 1495.77 69.0897 1495.17 69.0836C1488.36 69.0142 1481.55 69.0173 1474.75 69.3259C1471.96 69.4524 1469.68 70.8937 1469.17 74.6715Z" fill="white"/>
<path d="M882.483 310.256C882.483 308.406 882.483 306.864 882.483 305.322C881.997 305.056 881.504 304.792 881.01 304.526C879.1 306.775 877.252 309.079 875.251 311.239C874.605 311.935 873.584 312.597 872.674 312.689C862.649 313.703 854.048 311.576 847.768 302.659C839.904 291.485 838.938 275.111 845.92 263.293C849.887 256.571 856.049 253.429 863.413 253.136C873.917 252.717 884.449 253.029 895.308 253.029C895.308 268.424 895.308 283.758 895.308 299.34C902.748 299.34 909.883 299.67 916.955 299.206C920.755 298.958 922.867 295.415 922.881 291.012C922.93 280.941 922.985 270.866 922.84 260.796C922.805 258.134 923.59 256.85 926.251 256.195C929.356 255.429 932.329 254.106 935.817 252.859C935.817 258.237 935.817 263.177 935.817 268.118C935.817 275.759 935.796 283.401 935.824 291.042C935.852 296.382 938.804 299.462 944.14 299.6C948.19 299.704 952.247 299.699 956.297 299.585C962.216 299.418 964.141 297.511 964.203 291.499C964.307 281.659 964.391 271.813 964.155 261.978C964.071 258.54 964.849 256.645 968.455 255.906C971.338 255.314 974.075 253.997 977.125 252.912C977.222 254.148 977.327 254.933 977.327 255.718C977.34 268.105 977.382 280.494 977.313 292.882C977.25 305.593 970.97 312.144 958.284 312.659C953.199 312.866 948.1 312.722 943.007 312.695C938.686 312.671 934.81 311.261 931.537 308.474C929.912 307.088 928.877 307.532 927.084 308.417C923.437 310.217 919.512 312.299 915.601 312.523C905.444 313.106 895.231 312.724 885.047 312.785C883.414 312.795 882.268 312.543 882.483 310.256ZM854.333 279.796C854.326 281.298 854.222 282.806 854.333 284.299C854.847 291.319 859.412 298.551 864.691 299.16C870.458 299.825 876.356 299.311 882.49 299.311C882.49 288.75 882.539 278.375 882.393 268.003C882.379 267.272 880.969 266 880.135 265.941C876.8 265.702 873.438 265.836 870.089 265.84C859.509 265.853 856.091 268.755 854.333 279.796Z" fill="white"/>
<path d="M1974.45 375.13C1970.76 377.337 1967.55 376.913 1963.77 375.46C1932.39 363.394 1900.03 354.629 1867.1 348.135C1844.44 343.666 1821.59 340.045 1798.76 336.433C1777.42 333.056 1756 330.194 1734.61 327.091C1732.91 326.844 1731.22 326.487 1729.54 325.817C1736.34 326.12 1743.16 326.286 1749.95 326.753C1764.14 327.729 1778.33 328.647 1792.49 329.986C1810.67 331.707 1828.86 333.488 1846.97 335.831C1881.75 340.328 1916.01 347.513 1949.92 356.435C1953.72 357.435 1957.58 358.312 1961.24 359.711C1966.46 361.711 1971.36 361.196 1976.65 359.65C2012.31 349.218 2048.63 341.611 2085.43 336.539C2108.09 333.414 2130.91 331.363 2153.7 329.315C2169.01 327.939 2184.39 327.406 2199.74 326.51C2200.38 326.473 2201.01 326.573 2201.7 327.165C2196.16 328.04 2190.64 328.964 2185.09 329.779C2171.83 331.732 2158.53 333.442 2145.3 335.595C2119.18 339.846 2092.99 343.741 2067.04 348.871C2035.6 355.088 2004.73 363.679 1974.45 375.13Z" fill="#FAB550"/>
<path d="M386.265 299.623C395.985 299.623 405.359 299.665 414.732 299.61C421.914 299.567 423.81 297.695 423.858 290.54C423.924 280.589 423.95 270.637 423.831 260.687C423.802 258.192 424.532 256.921 427.047 256.265C430.226 255.437 433.279 254.126 436.877 252.85C436.877 258.261 436.877 263.096 436.877 267.931C436.877 275.337 436.837 282.743 436.893 290.148C436.941 296.393 440.114 299.559 446.283 299.614C450.102 299.649 453.922 299.681 457.739 299.602C464.146 299.47 466.017 297.633 466.061 291.251C466.133 281.069 466.163 270.884 466.04 260.703C466.01 258.191 466.766 256.948 469.258 256.288C472.445 255.443 475.51 254.136 478.544 253.058C478.866 253.536 479.1 253.722 479.099 253.906C479.028 268.133 479.243 282.371 478.739 296.583C478.418 305.616 472.612 311.589 463.754 312.318C456.517 312.913 449.166 312.909 441.927 312.354C438.443 312.086 435.102 309.935 431.02 308.379C426.199 312.758 419.382 312.8 412.51 312.782C396.194 312.737 379.878 312.76 363.561 312.77C357.796 312.773 352.253 312.08 347.676 308.067C343.636 304.525 342.147 299.763 342.044 294.718C341.806 283.035 341.908 271.345 341.993 259.659C341.999 258.747 342.742 257.335 343.501 257.021C347.104 255.53 350.831 254.339 354.996 252.872C355.08 254.379 355.192 255.467 355.193 256.556C355.207 267.664 355.176 278.773 355.212 289.881C355.237 297.84 357.041 299.595 365.088 299.617C372.031 299.637 378.974 299.622 386.265 299.623Z" fill="white"/>
<path d="M1379.42 53.7726C1377.25 54.8525 1375.32 55.828 1372.85 57.0778C1376.31 58.7424 1379.48 60.1545 1382.54 61.758C1392.9 67.1743 1403.02 78.8594 1401.36 94.4769C1400.06 106.66 1390.94 115.785 1378.7 115.874C1363.77 115.981 1348.84 115.902 1333.91 115.904C1332.66 115.904 1331.41 115.904 1330.85 115.904C1329.48 121.69 1328.54 127.124 1326.86 132.315C1324.99 138.084 1320.96 142.431 1315.9 145.731C1315.25 146.158 1314.05 146.403 1313.41 146.096C1309.82 144.368 1306.32 142.445 1302.59 140.485C1305.29 138.512 1307.81 136.927 1310.03 134.991C1315.43 130.273 1316.78 123.859 1316.82 117.107C1316.91 99.8629 1316.98 82.6171 1316.79 65.3755C1316.75 61.655 1317.61 59.6173 1321.46 58.8659C1324.13 58.3456 1326.65 57.0792 1329.71 55.9783C1329.71 71.6749 1329.71 86.9756 1329.71 102.613C1331.3 102.697 1332.53 102.817 1333.75 102.817C1347.65 102.831 1361.54 102.781 1375.42 102.849C1380.15 102.873 1384.52 102.343 1386.83 97.4565C1389.49 91.8454 1389.09 86.4643 1385.32 81.4611C1381.13 75.9181 1375.25 72.7614 1368.98 70.2938C1365.23 68.8171 1361.36 67.5905 1357.47 66.5433C1355.05 65.8934 1353.83 64.5055 1352.99 62.2632C1350.48 55.5509 1350.36 55.4544 1356.92 52.2306C1372.74 44.4407 1388.64 36.7734 1405.27 28.6841C1405.27 33.1543 1405.4 37.1199 1405.14 41.0601C1405.09 41.8017 1403.58 42.6352 1402.59 43.099C1394.97 46.6675 1387.31 50.1552 1379.42 53.7726Z" fill="white"/>
<path d="M1.82551 289.737C1.17173 284.559 1.27241 279.578 1.82869 274.264C4.11979 260.261 12.3858 253.07 26.2436 252.903C34.9249 252.799 43.6084 252.869 52.2909 252.881C53.1872 252.882 54.0832 253.011 55.3267 253.108C55.3267 268.593 55.3267 283.924 55.3267 299.448C63.984 299.448 72.2892 299.666 80.5745 299.357C84.774 299.2 86.3934 296.821 86.4351 291.902C86.5199 281.948 86.6144 271.988 86.3907 262.038C86.3142 258.626 87.0472 256.671 90.6667 255.921C93.5393 255.325 96.2633 254.013 99.434 252.884C99.434 263.541 99.4389 273.714 99.432 283.887C99.4292 287.823 99.5195 291.763 99.3562 295.693C98.9734 304.921 93.1274 311.901 83.9661 312.294C70.2321 312.882 56.4536 312.447 42.424 312.447C42.424 310.106 42.424 307.719 42.424 305.332C42.1728 305.154 41.9216 304.976 41.6704 304.798C39.9463 306.486 38.0892 308.06 36.5324 309.89C34.6588 312.092 32.5245 312.857 29.598 312.83C14.6613 312.691 4.9962 304.847 1.82551 289.737ZM36.4457 299.636C38.346 299.636 40.2463 299.636 42.3093 299.636C42.3093 288.551 42.3123 278.062 42.2987 267.572C42.298 267.136 42.1418 266.699 41.9766 265.839C37.2418 265.839 32.5449 265.791 27.8494 265.85C20.0496 265.948 15.8427 269.332 14.4501 276.999C13.9422 279.797 13.832 282.778 14.1791 285.597C15.3001 294.7 21.0963 299.636 30.2165 299.637C32.0633 299.637 33.9102 299.636 36.4457 299.636Z" fill="white"/>
<path d="M633.993 263.592C636.51 270.008 638.854 276.234 641.232 282.447C642.834 286.631 644.4 290.831 646.17 294.943C646.646 296.046 647.66 297.424 648.686 297.696C653.769 299.041 652.824 302.959 652.813 306.539C652.806 308.479 652.812 310.419 652.812 312.566C651.452 312.644 650.439 312.755 649.424 312.755C626.272 312.764 603.12 312.747 579.968 312.771C574.424 312.777 569.076 312.105 564.59 308.489C560.76 305.401 558.762 301.109 558.715 296.377C558.501 274.617 558.55 252.854 558.588 231.093C558.59 230.286 559.273 229.025 559.953 228.748C563.549 227.289 567.245 226.078 571.371 224.616C571.448 226.302 571.552 227.521 571.553 228.739C571.563 249.112 571.552 269.485 571.565 289.859C571.57 297.593 573.525 299.603 581.149 299.616C597.703 299.644 614.257 299.628 630.811 299.619C631.699 299.618 632.588 299.508 633.656 299.437C630.782 291.081 628.128 282.893 625.14 274.828C622.614 268.006 616.839 265.92 610.194 265.68C605.588 265.513 600.972 265.648 595.712 265.648C597.202 261.408 598.46 257.644 599.894 253.948C600.099 253.421 601.153 252.923 601.817 252.92C609.206 252.881 616.584 252.527 623.747 255.282C628.1 256.956 631.134 259.873 633.993 263.592Z" fill="white"/>
<path d="M903.582 105.155C898.128 100.493 891.64 98.6699 885.213 96.8657C883.046 96.2572 882.101 95.2526 881.795 93.2554C881.74 92.9143 881.698 92.5454 881.538 92.2508C877.738 85.2594 880.225 79.5969 884.63 73.735C893.21 62.3125 903.631 54.9817 918.581 56.0875C919.366 56.1454 920.144 56.2735 921.311 56.4169C920.484 60.4131 919.831 64.2464 918.775 67.9648C918.588 68.6116 916.719 69.0529 915.594 69.1161C904.86 69.7218 898.337 76.188 892.939 85.0114C896.836 86.8072 900.504 88.3522 904.04 90.1591C909.216 92.8031 913.892 96.046 917.108 101.123C926.07 115.259 917.935 134.473 901.366 135.53C883.178 136.69 864.837 136.031 846.594 135.438C838.487 135.175 832.04 128.604 831.067 120.529C830.185 113.217 830.351 105.776 830.171 98.3892C830.157 97.7049 830.879 96.6163 831.512 96.3669C835.117 94.9491 838.806 93.7285 843.009 92.2515C843.009 98.2079 842.933 103.716 843.037 109.22C843.093 111.982 843.35 114.753 843.732 117.489C844.162 120.605 846.101 122.351 849.234 122.749C849.922 122.836 850.609 123.016 851.297 123.017C866.803 123.03 882.303 123.078 897.809 122.986C901.776 122.962 904.909 121.284 906.514 117.336C908.41 112.661 907.069 108.783 903.582 105.155Z" fill="white"/>
<path d="M1340.14 304.259C1330.38 291.673 1329.37 275.708 1337.53 262.246C1340.37 257.549 1344.9 254.283 1350.13 253.865C1362.06 252.908 1374.05 252.893 1386.45 252.48C1386.45 254.361 1386.45 255.488 1386.45 256.615C1386.45 274.661 1386.16 292.713 1386.54 310.753C1386.84 325.238 1380.73 335.817 1368.69 343.285C1367.59 343.966 1365.71 344.427 1364.66 343.956C1360.38 342.045 1356.29 339.73 1351.29 337.132C1366.41 331.633 1376.06 322.974 1372.8 305.326C1371.67 306.258 1370.71 306.745 1370.19 307.526C1366.79 312.63 1361.87 313.144 1356.3 312.844C1350.65 312.538 1346.06 310.419 1342.14 306.521C1341.49 305.871 1340.89 305.153 1340.14 304.259ZM1345.68 286.821C1347.34 292.414 1349.6 298.089 1355.91 299.16C1361.49 300.107 1367.36 299.358 1373.46 299.358C1373.46 288.701 1373.51 278.207 1373.37 267.715C1373.36 267.082 1371.93 265.952 1371.14 265.929C1366.4 265.789 1361.64 265.686 1356.92 265.993C1351.29 266.359 1347.52 269.391 1346.36 274.874C1345.58 278.54 1345.83 282.422 1345.68 286.821Z" fill="white"/>
<path d="M680.485 242.778C683.704 250.841 686.659 258.726 689.984 266.451C694.631 277.251 696.625 288.059 690.945 299.368C695.374 299.368 699.403 299.698 703.356 299.275C707.254 298.858 708.991 296.213 709.039 291.487C709.116 282.808 709.067 274.128 709.067 265.449C709.067 254.339 709.15 243.228 709.004 232.12C708.977 229.662 709.921 228.613 712.089 227.967C715.264 227.022 718.376 225.87 721.926 224.667C721.926 226.156 721.926 227.177 721.926 228.199C721.926 249.724 722.051 271.25 721.815 292.773C721.766 296.68 720.822 300.842 719.224 304.404C716.917 309.533 711.908 312.151 706.594 312.29C691.7 312.684 676.788 312.427 661.661 312.427C661.661 308.33 661.661 304.226 661.661 299.615C663.408 299.615 665.104 299.663 666.797 299.607C676.685 299.281 683.13 291.962 681.063 282.252C679.687 275.782 676.887 269.592 674.493 263.366C671.392 255.305 668.06 247.333 664.619 238.804C668.408 237.453 672.011 236.056 675.706 234.974C676.26 234.812 677.536 235.971 677.973 236.788C678.947 238.611 679.601 240.605 680.485 242.778Z" fill="white"/>
<path d="M778.539 338.664C777.705 338.117 777.08 337.7 776.101 337.044C784.673 333.549 792.503 329.742 796.317 320.997C798.109 316.877 798.644 310.064 797.31 304.889C795.178 306.963 793.399 309.006 791.294 310.63C789.953 311.662 788.196 312.462 786.528 312.7C763.818 315.954 753.626 290.764 757.294 274.484C758.767 267.956 760.58 261.457 766.513 257.686C769.994 255.473 774.253 253.526 778.268 253.301C788.974 252.701 799.735 253.097 810.948 253.097C810.948 254.241 810.948 255.352 810.948 256.463C810.948 274.966 810.844 293.47 810.976 311.973C811.08 326.333 804.313 336.555 792.364 343.701C791.287 344.342 789.252 344.062 787.966 343.51C784.798 342.155 781.804 340.392 778.539 338.664ZM796.289 265.846C791.898 265.844 787.508 265.779 783.124 265.853C775.614 265.981 770.939 269.977 769.952 277.374C769.577 280.21 769.591 283.162 769.897 286.01C770.577 292.266 775.746 298.914 780.776 299.344C786.362 299.82 792.024 299.453 797.651 299.453C797.804 298.959 797.991 298.641 797.991 298.321C798.019 288.274 798.047 278.226 797.984 268.179C797.977 267.429 797.296 266.684 796.289 265.846Z" fill="white"/>
<path d="M1289.65 256.036C1292.6 254.974 1295.31 254.018 1298.35 252.943C1298.48 254.106 1298.67 254.972 1298.67 255.837C1298.68 268.338 1298.77 280.838 1298.63 293.337C1298.57 299.259 1297.47 305.165 1292.12 308.618C1289.03 310.605 1285.14 312.338 1281.57 312.402C1261.33 312.761 1241.07 312.827 1220.82 312.482C1210.73 312.31 1204.27 305.614 1203.93 295.427C1203.53 283.518 1203.74 271.589 1203.78 259.669C1203.78 258.804 1204.32 257.423 1204.97 257.161C1208.77 255.616 1212.68 254.33 1216.98 252.808C1216.98 262.9 1216.97 272.372 1216.98 281.843C1216.98 285.546 1216.91 289.254 1217.07 292.951C1217.26 296.969 1219.01 298.788 1222.94 299.436C1223.06 299.455 1223.17 299.479 1223.29 299.479C1241.92 299.486 1260.55 299.611 1279.18 299.415C1283.81 299.366 1285.71 296.544 1285.75 290.995C1285.82 280.927 1285.9 270.854 1285.7 260.789C1285.64 257.857 1286.62 256.475 1289.65 256.036Z" fill="white"/>
<path d="M2048.16 335.596C2024.72 340.897 2001.58 346.151 1978.44 351.404C1978.38 351.176 1978.32 350.949 1978.25 350.721C1994.9 345.949 2011.43 340.731 2028.21 336.518C2049.06 331.285 2070 326.328 2091.11 322.284C2110.4 318.59 2129.92 316.143 2149.37 313.381C2178.96 309.178 2208.8 308.111 2238.63 306.952C2253.31 306.382 2267.99 305.56 2282.67 305.05C2284.57 304.984 2286.79 305.694 2288.39 306.748C2293.27 309.948 2297.92 313.493 2302.57 317.335C2217.17 314.921 2132.31 318.265 2048.16 335.596Z" fill="#FAB550"/>
<path d="M1949.31 349.149C1931.17 344.993 1913.14 340.294 1894.88 336.818C1871.52 332.369 1848.04 328.329 1824.47 325.183C1801.91 322.172 1779.21 320.032 1756.5 318.453C1739.44 317.265 1722.27 317.356 1705.15 317.265C1683.05 317.149 1660.95 317.421 1638.86 317.524C1637.64 317.53 1636.42 317.525 1634.96 316.875C1640.36 313.018 1645.72 309.09 1651.22 305.375C1652.13 304.759 1653.68 304.925 1654.92 304.982C1684.27 306.308 1713.67 306.976 1742.94 309.231C1768.95 311.234 1794.89 314.582 1820.76 318.088C1863.92 323.938 1905.99 334.822 1947.64 347.377C1948.07 347.51 1948.5 347.702 1949.14 348.247C1949.33 348.802 1949.32 348.975 1949.31 349.149Z" fill="#FAB550"/>
<path d="M1969.51 328.578C1968.04 329.44 1968.12 329.387 1966.91 327.643C1962.59 321.356 1958.57 314.823 1953.8 308.893C1931.6 281.305 1903.13 264.209 1868.19 257.618C1848.44 253.891 1828.67 251.645 1808.55 252.251C1792.07 252.748 1775.69 251.804 1759.82 246.683C1754.43 244.942 1749.37 242.583 1745.67 238.645C1753.05 236.339 1760.33 234.063 1767.91 231.689C1775.59 240.248 1786.76 242.257 1797.87 243.692C1807.01 244.873 1816.32 244.779 1825.56 245.233C1841.5 246.016 1857.57 246.016 1873.13 249.902C1905.36 257.948 1932.18 274.871 1953.31 300.532C1959.72 308.328 1965 316.919 1967.86 326.773C1968.06 327.461 1968.63 328.041 1969.28 328.636C1969.54 328.601 1969.51 328.578 1969.51 328.578Z" fill="#FAB550"/>
<path d="M1969.55 328.615C1971.72 323.308 1973.24 317.626 1976.11 312.73C1988.43 291.702 2006.41 276.511 2027.37 264.6C2046.81 253.55 2067.64 247.299 2090.07 246.505C2103.94 246.015 2117.82 245.506 2131.67 244.585C2143.59 243.793 2155.41 242.141 2165.69 235.219C2167.29 234.137 2168.63 232.66 2169.72 231.699C2177.21 234.046 2184.52 236.331 2192.25 238.753C2189.93 240.325 2187.49 242.366 2184.72 243.781C2175.19 248.667 2164.79 250.542 2154.28 251.319C2144.03 252.078 2133.7 252.222 2123.41 252.149C2096.46 251.96 2070.12 255.756 2044.63 264.51C2022.22 272.207 2003.65 285.861 1988.3 303.709C1981.62 311.477 1976.06 320.206 1969.75 328.538C1969.51 328.578 1969.54 328.601 1969.55 328.615Z" fill="#FAB550"/>
<path d="M518.77 253.046C522.947 253.796 526.855 254.296 530.638 255.278C539.724 257.639 545.134 263.817 545.564 272.99C546.174 286.014 545.719 299.087 545.719 312.454C528.162 312.454 510.191 312.454 491.936 312.454C491.936 308.304 491.936 304.131 491.936 299.738C505.599 299.738 518.999 299.738 532.314 299.738C532.314 291.958 532.845 284.351 532.152 276.857C531.555 270.402 526.791 267.116 520.478 266.557C515.418 266.109 510.325 266.038 505.243 265.861C502.943 265.78 500.637 265.847 498.095 265.847C498.095 261.505 498.095 257.4 498.095 253.015C504.889 253.015 511.666 253.015 518.77 253.046Z" fill="white"/>
<path d="M963.578 115.905C952.025 115.905 940.826 115.905 929.405 115.905C929.405 111.554 929.405 107.445 929.405 102.937C942.966 102.937 956.429 102.937 970.546 102.937C970.011 94.3176 971.63 86.0264 969.115 77.9137C967.739 73.4663 964.662 70.5145 959.931 70.1366C952.921 69.5759 945.877 69.2153 938.846 69.147C935.886 69.1182 934.99 68.2055 935.199 65.3723C935.407 62.4047 935.24 59.4103 935.24 55.9771C947.662 56.1503 959.903 54.6732 971.456 59.4802C979.112 62.6624 983.002 69.1816 983.28 77.1836C983.718 89.8799 983.398 102.601 983.398 115.905C976.993 115.905 970.463 115.905 963.578 115.905Z" fill="white"/>
<path d="M1943.29 164.071C1941.39 166.498 1939.67 168.746 1938.41 170.403C1935.53 168.097 1933.02 165.72 1930.16 163.858C1923.22 159.324 1918.91 149.259 1920.74 141.163C1922.04 135.405 1924.9 130.555 1929.1 126.126C1937.67 145.045 1954.33 150.426 1972.37 153.511C1983.14 155.353 1993.93 155.956 2004.98 152.94C2002.94 157.902 1994.31 156.812 1996.09 164.651C1993.15 164.339 1990.7 164.133 1988.26 163.813C1978.41 162.521 1968.55 161.205 1958.71 159.876C1953.07 159.114 1947.88 160.031 1943.29 164.071Z" fill="#FAB550"/>
<path d="M1955.44 168.036C1954.4 165.203 1956.37 165.834 1957.56 165.963C1964.68 166.735 1971.8 167.587 1978.91 168.434C1983.5 168.981 1988.12 169.362 1992.64 170.263C1993.88 170.51 1995.7 172.346 1995.71 173.479C1995.82 179.469 1995.9 185.532 1995.09 191.446C1994.22 197.704 1991.84 200.976 1984.64 199.604C1978.99 198.53 1973.15 198.338 1967.37 198.213C1965.39 198.17 1963.21 199.23 1961.41 200.288C1958.48 202.005 1955.81 204.136 1952.63 206.367C1951.71 202.788 1951.64 200.319 1953.81 197.745C1961.33 188.849 1961.93 177.175 1955.44 168.036Z" fill="#FAB550"/>
<path d="M1558.54 72.9433C1558.54 60.2117 1558.61 47.8267 1558.47 35.4441C1558.44 33.0401 1559.19 31.8678 1561.42 31.1892C1564.79 30.1604 1568.1 28.9163 1571.92 27.5981C1571.92 29.2589 1571.92 30.3836 1571.92 31.5083C1571.92 57.2026 1571.86 82.8969 1571.99 108.59C1572 111.338 1571.01 112.507 1568.6 113.224C1565.35 114.192 1562.17 115.376 1558.54 116.611C1558.54 101.712 1558.54 87.5014 1558.54 72.9433Z" fill="white"/>
<path d="M1173.61 275.1C1173.61 285.511 1173.52 295.575 1173.67 305.636C1173.71 308.212 1172.83 309.359 1170.44 310.061C1167.26 310.993 1164.2 312.306 1160.72 313.592C1160.61 312.191 1160.47 311.213 1160.47 310.234C1160.45 284.324 1160.5 258.416 1160.39 232.507C1160.38 229.781 1161.33 228.567 1163.81 227.869C1166.89 227.002 1169.88 225.834 1173.61 224.56C1173.61 241.607 1173.61 258.18 1173.61 275.1Z" fill="white"/>
<path d="M1314.42 227.304C1317.02 226.377 1319.35 225.536 1322.28 224.483C1322.28 226.274 1322.28 227.384 1322.28 228.495C1322.28 254.059 1322.23 279.626 1322.35 305.191C1322.36 307.972 1321.6 309.4 1318.86 310.149C1315.67 311.02 1312.61 312.359 1309 313.678C1309 311.881 1309 310.652 1309 309.423C1309 284.437 1309 259.449 1309 234.462C1309 228.986 1309 228.986 1314.42 227.304Z" fill="white"/>
<path d="M746.686 246.618C746.686 266.51 746.631 286.055 746.756 305.598C746.769 308.173 745.915 309.316 743.574 310.031C740.329 311.023 737.168 312.323 733.584 313.635C733.5 311.93 733.403 310.818 733.403 309.706C733.396 284.032 733.445 258.358 733.327 232.684C733.313 229.79 734.362 228.558 736.981 227.847C740.142 226.991 743.206 225.783 746.686 224.6C746.686 232.197 746.686 239.234 746.686 246.618Z" fill="white"/>
<path d="M311.788 306.671C311.302 307.803 311.006 309.09 310.3 309.383C306.694 310.874 302.981 312.109 298.927 313.57C298.856 312.108 298.758 311.016 298.758 309.925C298.749 284.131 298.793 258.337 298.686 232.543C298.675 229.87 299.485 228.579 302.038 227.886C305.12 227.049 308.1 225.839 311.789 224.56C311.789 252.15 311.789 279.259 311.788 306.671Z" fill="white"/>
<path d="M1279.29 55.5758C1279.29 73.5218 1279.25 91.1206 1279.34 108.718C1279.36 111.183 1278.72 112.509 1276.22 113.184C1273.03 114.046 1269.96 115.321 1266.41 116.565C1266.41 114.969 1266.41 113.944 1266.41 112.919C1266.41 87.2157 1266.46 61.5127 1266.35 35.8102C1266.34 33.1832 1267.04 31.8054 1269.6 31.0759C1272.68 30.195 1275.67 28.9688 1279.29 27.6821C1279.29 37.0555 1279.29 46.1419 1279.29 55.5758Z" fill="white"/>
<path d="M991.881 313.146C991.492 311.941 991.318 310.8 991.318 309.66C991.297 287.43 991.346 265.2 991.249 242.971C991.235 240.418 991.7 238.968 994.445 238.293C997.543 237.533 1000.49 236.186 1003.95 234.933C1004.03 236.498 1004.14 237.599 1004.14 238.7C1004.16 260.93 1004.12 283.16 1004.21 305.389C1004.21 307.94 1003.71 309.43 1000.98 310.113C997.974 310.866 995.104 312.156 991.881 313.146Z" fill="white"/>
<path d="M1951.51 213.098C1956.58 207.831 1961.48 202.372 1969.45 202.872C1976 203.284 1982.54 204.081 1989.07 204.829C1992.44 205.216 1992.82 206.436 1991.17 209.378C1990.35 210.812 1989.81 212.566 1989.74 214.203C1989.54 218.332 1989.67 222.476 1989.67 227.268C1977.38 227.875 1964.68 228.501 1951.49 229.153C1951.49 223.7 1951.49 218.546 1951.51 213.098Z" fill="#FAB550"/>
<path d="M1886.71 239.142C1901.91 243.701 1915.33 250.778 1926.47 261.777C1926.32 262.068 1926.17 262.36 1926.02 262.651C1925.07 262.109 1924.08 261.638 1923.19 261.017C1908.02 250.432 1891.7 242.418 1873.31 239.396C1866.37 238.256 1859.25 238.379 1852.26 237.513C1840.7 236.082 1829.03 234.972 1817.7 232.425C1811.72 231.081 1806.34 227.008 1800.72 224.119C1799.5 223.492 1798.39 222.656 1796.68 221.568C1803.25 220.407 1808.35 219.506 1813.8 218.545C1819.61 227.884 1830.1 229.916 1840.25 231.907C1849.41 233.702 1858.83 234.135 1868.08 235.489C1874.25 236.391 1880.32 237.854 1886.71 239.142Z" fill="#FAB550"/>
<path d="M2013.95 259.07C2032.56 243.149 2054.19 236.013 2078.13 234.701C2089.12 234.098 2099.96 232.198 2110.37 228.411C2115.88 226.404 2121 223.766 2123.6 218.427C2128.92 219.415 2134.04 220.369 2139.62 221.404C2138.28 222.636 2136.86 224.322 2135.1 225.507C2126.69 231.178 2117.32 234.396 2107.28 235.394C2094.4 236.675 2081.45 237.32 2068.59 238.77C2051.14 240.739 2035.38 247.551 2020.65 256.902C2018.31 258.388 2016.09 260.052 2013.77 261.567C2012.96 262.091 2012.03 262.413 2010.68 262.163C2011.71 261.184 2012.73 260.204 2013.95 259.07Z" fill="#FAB550"/>
<path d="M1967.03 142.714C1963.34 147.156 1960.75 147.406 1957.29 143.874C1961.02 138.479 1964.98 133.235 1968.43 127.67C1973.35 119.712 1975.69 110.942 1974.92 101.543C1974.72 99.2245 1975.47 97.5294 1977.49 97.56C1978.92 97.5815 1981.39 99.1092 1981.53 100.204C1982.04 104.134 1982.41 108.301 1981.64 112.133C1979.34 123.387 1974.42 133.538 1967.03 142.714Z" fill="#FAB550"/>
<path d="M1983.16 138.663C1981.26 141.449 1979.63 144.117 1977.7 146.558C1976.84 147.661 1975.48 148.8 1974.18 149.036C1972.79 149.29 1971.21 148.504 1969.71 148.171C1970.15 146.947 1970.34 145.54 1971.07 144.528C1977.87 135.132 1984.27 125.503 1986.85 113.994C1987.65 110.46 1987.6 106.674 1987.47 103.02C1987.4 100.97 1987.16 99.2444 1989.58 98.7247C1992.17 98.1718 1994.23 99.3305 1994.4 101.875C1994.66 105.847 1994.77 109.96 1994.04 113.841C1992.34 122.803 1987.96 130.721 1983.16 138.663Z" fill="#FAB550"/>
<path d="M1957.08 135.52C1955.86 137.084 1955.01 138.767 1953.65 139.707C1952.58 140.445 1950.62 140.871 1949.51 140.385C1945.05 138.427 1945 137.826 1948.09 134.078C1953.74 127.259 1958.77 120.095 1960.72 111.267C1961.2 109.149 1961.13 106.915 1961.35 104.739C1961.48 103.37 1961.26 101.702 1961.97 100.716C1962.91 99.3917 1964.56 97.8897 1965.98 97.8182C1966.94 97.7696 1968.76 99.9502 1968.92 101.287C1969.71 107.863 1968.2 114.228 1965.52 120.151C1963.15 125.385 1960.02 130.277 1957.08 135.52Z" fill="#FAB550"/>
<path d="M1934.17 122.685C1934.65 120.819 1934.72 118.773 1935.78 117.706C1940.57 112.875 1945.59 108.263 1950.64 103.715C1951.75 102.725 1953.38 102.323 1955.81 101.146C1955.37 104.525 1955.26 106.87 1954.74 109.118C1952.76 117.614 1948.84 125.124 1942.92 131.556C1940.47 134.219 1939.62 134.075 1937.99 130.756C1936.72 128.163 1935.47 125.557 1934.17 122.685Z" fill="#FAB550"/>
<path d="M1985.94 149.382C1984.07 149.736 1982.46 149.982 1980.86 150.227C1980.64 149.889 1980.43 149.552 1980.22 149.214C1981.1 148.009 1981.96 146.783 1982.87 145.604C1989.53 137.026 1996.5 128.562 1998.25 117.382C1998.87 113.435 1998.69 109.349 1998.68 105.326C1998.68 103.368 1998.62 101.055 2000.89 101.048C2002.21 101.044 2004.45 102.905 2004.71 104.231C2005.37 107.682 2005.57 111.337 2005.26 114.847C2004.28 125.63 1998.45 134.291 1992.28 142.695C1990.52 145.088 1988.23 147.091 1985.94 149.382Z" fill="#FAB550"/>
<path d="M676.449 208.565C678.381 209.038 680.009 209.488 681.623 209.933C680.2 215.527 679.811 215.807 674.95 215.724C672.768 215.686 670.575 215.959 670.533 218.875C670.491 221.802 672.599 222.08 674.845 222.084C676.811 222.087 678.777 222.126 680.743 222.159C680.849 222.161 680.954 222.247 681.33 222.413C681.33 224.512 681.33 226.742 681.33 229.218C674.577 229.218 667.824 229.218 660.643 229.218C661.387 226.437 658.65 222.876 663.327 221.549C662.749 213.84 665.375 208.582 676.449 208.565Z" fill="white"/>
<path d="M1943.27 194.32C1938.92 187.148 1938.76 179.926 1941.87 172.547C1943.01 169.855 1944.96 167.163 1947.92 167.781C1950.12 168.241 1952.68 170.401 1953.69 172.48C1956.81 178.916 1956.69 185.751 1953.71 192.252C1951.28 197.579 1947.48 198.248 1943.27 194.32ZM1947.73 187.692C1951.14 186.022 1952.08 179.361 1949.05 177.305C1948.43 176.888 1946.57 177.341 1946 178.007C1943.74 180.634 1944.4 184.962 1947.73 187.692Z" fill="#FAB550"/>
<path d="M1948.64 90.2702C1955.35 86.0986 1962.43 84.4292 1970.05 85.0009C1975.58 85.4157 1981.12 85.7825 1986.64 86.3139C1990.54 86.6911 1990.67 86.994 1989.97 91.5631C1986.71 91.2414 1983.44 90.735 1980.14 90.6294C1973.91 90.4286 1967.67 90.2522 1961.43 90.4474C1954.81 90.6558 1949.86 94.7351 1944.88 98.5038C1941.13 101.341 1937.51 104.355 1933.67 107.43C1932.17 104.814 1932.12 102.757 1934.35 101.053C1939.02 97.4805 1943.73 93.9535 1948.64 90.2702Z" fill="#FAB550"/>
<path d="M1940.69 43.3941C1950.03 35.6058 1960.83 36.3011 1971.65 37.1672C1973.95 37.3514 1976.22 37.9362 1978.52 38.0467C1982.05 38.2167 1982.4 40.0962 1981.8 42.1146C1971.56 42.4903 1961.52 41.7935 1951.9 43.5036C1941.79 45.3034 1935.45 54.1023 1927.76 60.6538C1926.13 58.1001 1926.03 56.0143 1928.44 53.9839C1932.51 50.5656 1936.47 47.0268 1940.69 43.3941Z" fill="#FAB550"/>
<path d="M1967.75 65.1528C1973.36 65.5953 1978.66 66.1096 1983.96 66.4091C1987.16 66.5897 1987.9 68.1938 1987.05 71.4976C1983.76 71.2044 1980.39 70.7807 1977 70.6292C1971.47 70.3805 1965.91 70.1381 1960.37 70.2117C1954.76 70.286 1949.79 72.3889 1945.37 75.8401C1940.49 79.6589 1935.59 83.4561 1930.53 87.3958C1929.24 84.7656 1929.1 82.801 1931.41 80.8114C1938.19 74.9815 1944.99 69.0688 1953.78 66.6705C1958.15 65.4821 1962.86 65.6047 1967.75 65.1528Z" fill="#FAB550"/>
<path d="M1970.58 33.5182C1954.19 31.178 1941 36.4707 1930.35 48.5277C1929.59 49.3888 1928.68 50.126 1927.82 50.8953C1927.68 51.0285 1927.41 51.0332 1927.09 51.1312C1925.31 48.3532 1925.88 46.1246 1928.43 44.0862C1933.19 40.2705 1937.65 36.0518 1942.63 32.5529C1947.32 29.2578 1952.76 27.5311 1958.64 27.9355C1964.73 28.3545 1970.82 28.8751 1976.91 29.3343C1980.24 29.585 1981.32 31.2276 1980.03 34.6248C1977.01 34.2749 1973.95 33.921 1970.58 33.5182Z" fill="#FAB550"/>
<path d="M1934.84 88.9839C1942.2 82.6677 1949.76 76.726 1959.37 75.6457C1966.64 74.8294 1974.11 75.8284 1981.48 76.05C1982.4 76.0771 1983.32 76.4203 1984.23 76.3953C1987.72 76.2994 1989.16 77.768 1988.02 81.6194C1983.79 81.229 1979.43 81.1227 1975.18 80.3794C1959.93 77.7111 1947.55 83.129 1936.78 93.4807C1935.31 94.8965 1933.61 96.0831 1931.98 97.4051C1929.79 93.5585 1929.84 93.4057 1934.84 88.9839Z" fill="#FAB550"/>
<path d="M1930.44 38.6983C1928.83 40.2003 1927.41 41.5335 1925.72 43.1047C1924.49 40.7521 1924.29 38.8756 1926.3 37.1619C1932.01 32.3181 1937.46 27.1453 1943.47 22.7188C1948.38 19.102 1954.44 18.5339 1960.43 19.0246C1965.49 19.4387 1970.53 20.1022 1975.56 20.8433C1979.23 21.3843 1979.2 21.5205 1979.14 26.0107C1976.08 25.6011 1973.04 25.2381 1970.01 24.7839C1956.46 22.7477 1944.24 25.1971 1934.27 35.334C1933.14 36.4843 1931.84 37.4683 1930.44 38.6983Z" fill="#FAB550"/>
<path d="M1938.59 60.0497C1935.1 63.0693 1931.82 65.9377 1928.35 68.9607C1926.84 66.7215 1926.85 64.914 1928.9 63.1947C1932.89 59.8635 1936.78 56.437 1940.79 53.1281C1949.8 45.6692 1960.52 45.4858 1971.38 46.2144C1975.14 46.4664 1978.87 47.1011 1982.94 47.6016C1981.85 51.0144 1980.25 52.4505 1976.83 52.152C1970.97 51.6416 1965.06 51.2183 1959.2 51.4328C1951.46 51.716 1944.68 54.8819 1938.59 60.0497Z" fill="#FAB550"/>
<path d="M1939.89 63.4375C1950.47 55.0919 1962.56 54.5622 1975.04 55.2133C1979.41 55.4413 1981.94 57.5763 1984.55 61.5148C1980.93 61.2245 1977.91 60.8585 1974.88 60.7678C1969.8 60.6155 1964.71 60.5675 1959.63 60.603C1950.67 60.6654 1943.95 65.5151 1937.58 71.0655C1934.99 73.3171 1932.46 75.6165 1929.8 77.9778C1928.24 75.5429 1928.39 73.7672 1930.46 72.0055C1933.62 69.3085 1936.62 66.4116 1939.89 63.4375Z" fill="#FAB550"/>
<path d="M1952.91 3.79135C1954.73 5.159 1956.67 6.29895 1957.78 7.9897C1959.56 10.7159 1961.68 12.0714 1964.93 11.8005C1967.78 11.563 1968.51 10.2648 1967.08 7.67903C1966.53 6.68216 1965.9 5.73311 1965.34 4.73706C1965.27 4.59801 1965.46 4.31442 1965.62 3.73986C1969.43 3.71808 1970.6 6.83978 1972.05 9.40216C1974.22 13.2777 1975.97 14.2715 1981.21 13.4791C1979.87 11.3083 1978.7 9.39925 1977.31 7.14516C1980.97 7.29306 1982.52 9.7375 1983.8 12.1953C1985.46 15.3841 1988.17 16.3058 1992.02 16.7221C1991.13 14.5478 1990.41 12.7958 1989.69 11.0439C1990 10.8518 1990.31 10.6596 1990.61 10.4676C1992.99 12.1269 1994.47 14.5973 1995.63 17.2784C1996.7 19.784 1998.28 21.4238 2001.6 21.4544C2000.8 19.8455 2000.16 18.5686 1999.52 17.2917C1999.79 17.1 2000.05 16.9084 2000.31 16.7167C2003.52 19.3563 2005.89 22.6753 2007.94 27.1227C2006.74 26.8519 2006.06 26.875 2005.58 26.5625C1994.4 19.1052 1981.66 16.4269 1968.69 14.5696C1965.16 14.0645 1961.54 14.1887 1957.99 13.76C1956.79 13.615 1955.34 12.9304 1954.63 12.0096C1953.23 10.2151 1952.14 8.13649 1951.23 6.04117C1951.03 5.5898 1952.15 4.56924 1952.91 3.79135Z" fill="#FAB550"/>
<path d="M2002.1 143.02C2000.2 145.053 1998.55 147.012 1996.64 148.668C1995.04 150.044 1993.14 150.981 1991.02 148.93C1993.75 145.58 1996.55 142.397 1999.05 138.994C2004.31 131.845 2008.49 124.153 2009.4 115.13C2009.67 112.41 2009.2 109.619 2009.4 106.883C2009.47 105.749 2010.41 104.676 2010.95 103.575C2011.86 104.288 2013.26 104.818 2013.61 105.744C2016.33 112.877 2015.3 119.969 2012.04 126.538C2009.24 132.193 2005.54 137.406 2002.1 143.02Z" fill="#FAB550"/>
<path d="M2024.29 115.947C2022.62 129.801 2008.72 149.687 2001.51 148.45C2004.06 145.259 2006.67 142.245 2009 139.031C2015.05 130.684 2018.61 121.473 2018.42 110.984C2018.4 109.935 2019.26 108.869 2019.71 107.811C2020.91 108.505 2022.69 108.92 2023.19 109.956C2024.01 111.639 2023.97 113.727 2024.29 115.947Z" fill="#FAB550"/>
<path d="M985.656 222.868C989.435 220.437 993.159 220.034 997.07 221.743C1001.64 223.739 1006.03 222.548 1010.32 220.708C1012.31 227.761 1009.92 229.75 1002.07 230.425C1000.86 230.53 999.453 230.273 998.363 229.723C993.236 227.122 988.428 227.046 983.475 231.973C984.031 228.298 981.946 225.14 985.656 222.868Z" fill="white"/>
<path d="M1927.14 22.2288C1932.07 18.0688 1936.7 13.9054 1941.66 10.183C1945.37 7.39946 1945.57 7.64899 1947.81 11.5817C1948.2 12.2609 1948.5 12.988 1948.99 13.9899C1934.18 19.5651 1924.93 31.0996 1916.33 43.4093C1917.92 35.373 1921.97 28.6535 1927.14 22.2288Z" fill="#FAB550"/>
<path d="M93.9596 338.69C91.1127 336.023 88.4241 333.529 84.756 330.127C88.1052 327.276 90.8042 324.821 93.7054 322.634C94.3237 322.168 96.0007 322.28 96.6343 322.802C99.359 325.045 101.876 327.54 105.11 330.538C101.958 333.412 99.2944 335.93 96.5079 338.304C95.9535 338.776 94.9267 338.693 93.9596 338.69Z" fill="white"/>
<path d="M41.8559 242.127C39.0089 239.46 36.32 236.966 32.6519 233.564C36.0014 230.713 38.7002 228.258 41.601 226.071C42.2195 225.605 43.8969 225.717 44.5303 226.239C47.2546 228.482 49.7716 230.977 53.0056 233.975C49.8538 236.849 47.1904 239.367 44.4036 241.741C43.8497 242.213 42.8229 242.13 41.8559 242.127Z" fill="white"/>
<path d="M396.858 242.127C394.011 239.46 391.322 236.966 387.654 233.564C391.004 230.713 393.703 228.258 396.604 226.071C397.222 225.605 398.899 225.717 399.533 226.239C402.257 228.482 404.774 230.977 408.008 233.975C404.856 236.849 402.193 239.367 399.406 241.741C398.852 242.213 397.825 242.13 396.858 242.127Z" fill="white"/>
<path d="M474.667 338.69C471.82 336.023 469.131 333.529 465.463 330.127C468.812 327.276 471.511 324.821 474.412 322.634C475.031 322.168 476.708 322.28 477.341 322.802C480.066 325.045 482.583 327.54 485.817 330.538C482.665 333.412 480.002 335.93 477.215 338.304C476.661 338.776 475.634 338.693 474.667 338.69Z" fill="white"/>
<path d="M938.047 339.385C935.199 336.717 932.51 334.224 928.842 330.822C932.19 327.97 934.893 325.515 937.79 323.328C938.408 322.862 940.089 322.975 940.722 323.497C943.445 325.74 945.96 328.235 949.197 331.233C946.043 334.107 943.382 336.625 940.597 338.999C940.041 339.47 939.013 339.388 938.047 339.385Z" fill="white"/>
<path d="M883.164 161.542C880.316 158.875 877.627 156.381 873.959 152.979C877.308 150.128 880.01 147.673 882.907 145.486C883.525 145.02 885.207 145.132 885.839 145.654C888.562 147.897 891.077 150.392 894.314 153.39C891.16 156.264 888.5 158.782 885.714 161.156C885.158 161.628 884.13 161.545 883.164 161.542Z" fill="white"/>
<path d="M882.469 242.127C879.621 239.46 876.932 236.966 873.264 233.564C876.613 230.713 879.315 228.258 882.212 226.071C882.831 225.605 884.512 225.717 885.144 226.239C887.867 228.482 890.382 230.977 893.62 233.975C890.466 236.849 887.805 239.367 885.019 241.741C884.463 242.213 883.435 242.13 882.469 242.127Z" fill="white"/>
<path d="M1092.97 242.822C1090.12 240.154 1087.43 237.661 1083.76 234.259C1087.11 231.407 1089.82 228.952 1092.71 226.765C1093.33 226.299 1095.01 226.412 1095.64 226.934C1098.37 229.177 1100.88 231.672 1104.12 234.67C1100.97 237.544 1098.31 240.062 1095.52 242.436C1094.96 242.907 1093.94 242.825 1092.97 242.822Z" fill="white"/>
<path d="M1259.7 242.127C1256.85 239.46 1254.17 236.966 1250.5 233.564C1253.85 230.713 1256.55 228.258 1259.45 226.071C1260.06 225.605 1261.75 225.717 1262.38 226.239C1265.1 228.482 1267.62 230.977 1270.85 233.975C1267.7 236.849 1265.04 239.367 1262.25 241.741C1261.7 242.213 1260.67 242.13 1259.7 242.127Z" fill="white"/>
<path d="M1495.91 241.433C1493.06 238.765 1490.37 236.272 1486.7 232.87C1490.05 230.018 1492.75 227.563 1495.65 225.376C1496.27 224.91 1497.95 225.023 1498.58 225.544C1501.31 227.788 1503.82 230.283 1507.06 233.281C1503.9 236.155 1501.24 238.673 1498.46 241.047C1497.9 241.518 1496.87 241.436 1495.91 241.433Z" fill="white"/>
<path d="M239.851 242.127C237.004 239.46 234.316 236.966 230.647 233.564C233.997 230.713 236.696 228.258 239.597 226.071C240.215 225.605 241.892 225.717 242.526 226.239C245.25 228.482 247.767 230.977 251.001 233.975C247.849 236.849 245.186 239.367 242.399 241.741C241.845 242.213 240.818 242.13 239.851 242.127Z" fill="white"/>
<path d="M76.5916 338.69C73.7446 336.023 71.0561 333.529 67.3879 330.127C70.7372 327.276 73.4362 324.821 76.3373 322.634C76.9556 322.168 78.6327 322.28 79.2663 322.802C81.991 325.045 84.5079 327.54 87.7419 330.538C84.5899 333.412 81.9264 335.93 79.1398 338.304C78.5855 338.776 77.5587 338.693 76.5916 338.69Z" fill="white"/>
<path d="M24.4878 242.127C21.6409 239.46 18.952 236.966 15.2839 233.564C18.6334 230.713 21.3322 228.258 24.233 226.071C24.8514 225.605 26.5288 225.717 27.1622 226.239C29.8866 228.482 32.4036 230.977 35.6375 233.975C32.4857 236.849 29.8224 239.367 27.0356 241.741C26.4817 242.213 25.4549 242.13 24.4878 242.127Z" fill="white"/>
<path d="M457.299 338.69C454.452 336.023 451.763 333.529 448.095 330.127C451.444 327.276 454.143 324.821 457.044 322.634C457.663 322.168 459.34 322.28 459.973 322.802C462.698 325.045 465.215 327.54 468.449 330.538C465.297 333.412 462.633 335.93 459.847 338.304C459.293 338.776 458.266 338.693 457.299 338.69Z" fill="white"/>
<path d="M920.679 339.385C917.831 336.717 915.142 334.224 911.474 330.822C914.822 327.97 917.525 325.515 920.422 323.328C921.04 322.862 922.721 322.975 923.354 323.497C926.077 325.74 928.592 328.235 931.829 331.233C928.675 334.107 926.014 336.625 923.229 338.999C922.673 339.47 921.645 339.388 920.679 339.385Z" fill="white"/>
<path d="M865.796 161.542C862.948 158.875 860.259 156.381 856.591 152.979C859.939 150.128 862.642 147.673 865.539 145.486C866.157 145.02 867.838 145.132 868.471 145.654C871.194 147.897 873.709 150.392 876.946 153.39C873.792 156.264 871.131 158.782 868.346 161.156C867.79 161.628 866.762 161.545 865.796 161.542Z" fill="white"/>
<path d="M379.49 242.127C376.643 239.46 373.954 236.966 370.286 233.564C373.636 230.713 376.335 228.258 379.236 226.071C379.854 225.605 381.531 225.717 382.165 226.239C384.889 228.482 387.406 230.977 390.64 233.975C387.488 236.849 384.825 239.367 382.038 241.741C381.484 242.213 380.457 242.13 379.49 242.127Z" fill="white"/>
<path d="M865.101 242.127C862.253 239.46 859.564 236.966 855.896 233.564C859.245 230.713 861.947 228.258 864.844 226.071C865.463 225.605 867.144 225.717 867.776 226.239C870.499 228.482 873.014 230.977 876.252 233.975C873.098 236.849 870.437 239.367 867.651 241.741C867.095 242.213 866.067 242.13 865.101 242.127Z" fill="white"/>
<path d="M1242.33 242.127C1239.49 239.46 1236.8 236.966 1233.13 233.564C1236.48 230.713 1239.18 228.258 1242.08 226.071C1242.7 225.605 1244.38 225.717 1245.01 226.239C1247.73 228.482 1250.25 230.977 1253.49 233.975C1250.33 236.849 1247.67 239.367 1244.88 241.741C1244.33 242.213 1243.3 242.13 1242.33 242.127Z" fill="white"/>
<path d="M1075.6 242.822C1072.75 240.154 1070.06 237.661 1066.4 234.259C1069.75 231.407 1072.45 228.952 1075.34 226.765C1075.96 226.299 1077.64 226.412 1078.28 226.934C1081 229.177 1083.51 231.672 1086.75 234.67C1083.6 237.544 1080.94 240.062 1078.15 242.436C1077.6 242.907 1076.57 242.825 1075.6 242.822Z" fill="white"/>
<path d="M1478.54 241.433C1475.69 238.765 1473 236.272 1469.33 232.87C1472.68 230.018 1475.39 227.563 1478.28 225.376C1478.9 224.91 1480.58 225.023 1481.21 225.544C1483.94 227.788 1486.45 230.283 1489.69 233.281C1486.54 236.155 1483.88 238.673 1481.09 241.047C1480.53 241.518 1479.51 241.436 1478.54 241.433Z" fill="white"/>
<path d="M1322.23 46.2228C1319.38 43.5546 1316.69 41.0613 1313.02 37.6598C1316.37 34.8079 1319.07 32.353 1321.97 30.1658C1322.59 29.6996 1324.27 29.8125 1324.9 30.334C1327.63 32.5773 1330.14 35.0724 1333.38 38.0703C1330.22 40.9439 1327.56 43.4626 1324.78 45.8363C1324.22 46.3082 1323.19 46.225 1322.23 46.2228Z" fill="white"/>
<path d="M196.648 338.846C193.801 336.178 191.112 333.685 187.444 330.283C190.793 327.431 193.492 324.976 196.393 322.789C197.011 322.323 198.689 322.435 199.322 322.957C202.046 325.2 204.563 327.696 207.797 330.693C204.645 333.567 201.983 336.085 199.195 338.459C198.642 338.931 197.615 338.848 196.648 338.846Z" fill="white"/>
<path d="M977.563 231.287C978.382 232.249 979.036 233.021 980.362 234.586C977.618 236.979 975.013 239.428 972.186 241.588C971.56 242.07 969.824 241.945 969.164 241.406C966.496 239.236 964.043 236.795 961.258 234.216C964.363 231.002 966.989 228.176 969.782 225.536C970.143 225.198 971.644 225.565 972.22 226.061C974.047 227.623 975.687 229.402 977.563 231.287Z" fill="white"/>
<path d="M392.251 224.852C391.366 225.763 390.665 226.501 389.779 227.435C386.76 224.218 383.889 221.158 380.829 217.896C383.555 215.318 386.536 212.499 389.644 209.56C392.351 212.509 395.174 215.586 398.526 219.237C396.851 220.734 394.643 222.707 392.251 224.852Z" fill="white"/>
<path d="M2015.98 94.6024C2017.64 95.4708 2019.07 96.2203 2020.48 96.9998C2024.01 98.954 2024.01 98.9595 2023.09 103.368C2018.84 101.369 2014.65 99.3104 2010.38 97.4277C2008.18 96.4551 2005.89 95.5423 2003.54 95.0512C1999.73 94.253 1998.72 92.0994 1999.9 87.8916C2005.24 90.1195 2010.49 92.3085 2015.98 94.6024Z" fill="#FAB550"/>
<path d="M1917.44 79.1767C1916.09 81.0621 1914.73 82.9482 1913.38 84.8336C1913.1 84.8017 1912.83 84.7697 1912.55 84.7378C1913.54 81.0475 1914.53 77.3573 1915.7 73.2204C1915.96 72.1491 1916.01 71.5239 1916.27 70.9077C1916.58 70.684 1916.68 70.4506 1916.96 70.1067C1917.18 69.6434 1917.22 69.2902 1917.26 68.9371C1917.13 68.9178 1917 68.8986 1916.87 68.8793C1916.78 69.2641 1916.69 69.6489 1916.44 70.1005C1916.19 70.3936 1916.11 70.6208 1915.85 70.964C1915.46 71.6198 1915.25 72.1589 1915.04 72.6979C1914.39 73.7456 1913.75 74.7932 1912.61 76.6383C1912.28 70.4339 1915.1 65.857 1916.17 60.6792C1916.04 60.4326 1916.02 60.4574 1916.24 60.497C1916.56 60.2662 1916.66 59.996 1916.75 59.7359C1916.74 59.7462 1916.72 59.7696 1916.97 59.672C1917.29 58.926 1917.36 58.2776 1917.43 57.6436C1917.42 57.6579 1917.4 57.6813 1917.4 57.6813C1920.79 58.058 1920.46 60.4798 1920.02 62.7482C1919.81 63.8409 1919.05 64.8279 1918.38 66.2604C1918.24 66.8297 1918.26 67.0014 1918.28 67.1729C1918.52 67.0758 1918.76 66.9787 1919 66.8816C1921.43 68.2999 1921.17 70.3394 1920.24 72.4812C1919.83 73.4246 1919.28 74.3034 1918.81 75.4642C1918.81 75.7171 1918.83 75.6949 1918.62 75.7866C1918.31 76.2965 1918.21 76.714 1918.12 77.1211C1918.12 77.11 1918.13 77.085 1917.9 77.1954C1917.59 77.9429 1917.51 78.5807 1917.42 79.2073C1917.43 79.1962 1917.44 79.1767 1917.44 79.1767Z" fill="#FAB550"/>
<path d="M2020.12 88.467C2020.39 89.5875 2020.58 90.4622 2020.89 91.9134C2019.55 91.5369 2018.6 91.3562 2017.71 91.0068C2012.02 88.7574 2006.38 86.3308 2000.62 84.2578C1997.88 83.2714 1997.04 81.7069 1997.75 78.4717C2005.62 80.9267 2013.24 83.5666 2020.12 88.467Z" fill="#FAB550"/>
<path d="M2009.97 74.2209C2012.09 75.2178 2014.04 75.9993 2015.84 77.0267C2018.15 78.3439 2018.98 80.4586 2018.73 82.8046C2011.54 79.8069 2004.35 76.9809 1997.36 73.7429C1996.18 73.192 1995.8 70.8759 1995.05 69.3756C1995.36 69.0177 1995.67 68.6597 1995.98 68.3018C2000.57 70.2395 2005.15 72.1771 2009.97 74.2209Z" fill="#FAB550"/>
<path d="M1991.16 45.6954C1990.62 44.1239 1990.29 42.7131 1989.77 40.4629C1993.2 41.9144 1995.93 42.9782 1998.58 44.2209C2002.23 45.9331 2005.81 47.7921 2009.43 49.5658C2011.98 50.8117 2012.93 52.9394 2013.11 55.6298C2005.74 52.3172 1998.55 49.0867 1991.16 45.6954Z" fill="#FAB550"/>
<path d="M1987.44 27.2093C1987.27 26.1774 1987.16 25.4099 1986.99 24.2822C1988.03 24.469 1988.83 24.4527 1989.49 24.7549C1995.16 27.3747 2000.82 29.998 2006.43 32.7364C2008.9 33.9431 2009.57 35.4242 2009.6 38.4757C2002.62 35.3745 1995.59 32.2723 1988.59 29.0875C1988.09 28.858 1987.86 28.0257 1987.44 27.2093Z" fill="#FAB550"/>
<path d="M1996.61 35.4685C2000.46 37.3609 2004.08 39.1452 2007.68 40.9358C2010.08 42.1279 2011.15 44.1125 2011.23 47.2578C2008.35 45.77 2005.81 44.3756 2003.19 43.1376C1999.66 41.4606 1996.17 39.5663 1992.46 38.3978C1989.3 37.4032 1988.31 35.5853 1988.52 31.9463C1991.27 33.1457 1993.82 34.2544 1996.61 35.4685Z" fill="#FAB550"/>
<path d="M2012.13 67.1775C2015.3 68.5869 2017.62 70.253 2016.63 73.9786C2009.62 70.5684 2002.7 67.2018 1995.8 63.8424C1999.01 60.6366 1999.42 60.5423 2003.32 62.5329C2006.2 64.0053 2009.04 65.5482 2012.13 67.1775Z" fill="#FAB550"/>
<path d="M1984.34 54.7588C1985.42 53.2415 1986.37 51.147 1987.67 50.8929C1990.88 50.2686 1993.3 52.3796 1994.47 55.1381C1995.14 56.6954 1995.1 59.103 1994.31 60.5261C1993.82 61.3983 1991.15 61.6584 1989.72 61.2672C1986.72 60.451 1985.01 58.0831 1984.34 54.7588Z" fill="#FAB550"/>
<path d="M2007.88 60.922C2006 60.0031 2004.34 59.1995 2002.67 58.4398C1997.98 56.3158 1997.86 56.2213 1995.19 50.5229C2000.37 53.0059 2005.56 55.5073 2010.76 57.9639C2013.23 59.1323 2014.9 60.8391 2014.95 63.7334C2014.95 63.9406 2014.8 64.1506 2014.59 64.6889C2012.41 63.4624 2010.25 62.2598 2007.88 60.922Z" fill="#FAB550"/>
<path d="M1918.81 75.7233C1921.4 76.2742 1922.72 78.4958 1921.54 80.8731C1919.35 85.2692 1916.93 89.5527 1914.32 93.807C1913.69 88.726 1916.32 84.364 1917.51 79.4413C1917.44 79.1767 1917.43 79.1961 1917.68 79.1225C1918 78.3944 1918.06 77.74 1918.13 77.0849C1918.13 77.0849 1918.12 77.1099 1918.39 77.1155C1918.72 76.6459 1918.77 76.17 1918.83 75.6948C1918.83 75.6948 1918.81 75.7171 1918.81 75.7233Z" fill="#FAB550"/>
<path d="M1922.66 96.4346C1923.91 98.948 1923.38 100.926 1922.04 103.09C1919.9 106.549 1918.15 110.254 1916.24 113.856C1915.92 113.763 1915.6 113.671 1915.28 113.579C1915.72 111.562 1916.03 109.503 1916.64 107.541C1917.56 104.573 1918.56 101.611 1919.82 98.7764C1920.29 97.7406 1921.58 97.0779 1922.66 96.4346Z" fill="#FAB550"/>
<path d="M1922.05 91.4263C1919.69 95.7168 1917.47 99.8009 1915.26 103.884C1915.35 97.2694 1917.38 91.4068 1920.53 85.9326C1921.03 85.9722 1921.54 86.0118 1922.04 86.0507C1922.09 87.7736 1922.15 89.4964 1922.05 91.4263Z" fill="#FAB550"/>
<path d="M1916.05 60.4188C1914.85 62.4162 1913.64 64.4277 1912.39 66.5137C1911.41 62.67 1914.64 52.6011 1918.01 48.8364C1920.31 51.0919 1920.24 52.0406 1917.42 57.4229C1917.4 57.6816 1917.42 57.6581 1917.22 57.7793C1916.92 58.5236 1916.82 59.1467 1916.72 59.7699C1916.72 59.7699 1916.74 59.7465 1916.53 59.7101C1916.22 59.9351 1916.12 60.1964 1916.02 60.4577C1916.02 60.4577 1916.04 60.4329 1916.05 60.4188Z" fill="#FAB550"/>
<path d="M1918.28 114.779C1919.61 111.891 1920.85 109.262 1922.1 106.633C1922.58 106.837 1923.06 107.04 1923.54 107.244C1924.35 114.017 1917.67 118.262 1917.5 124.702C1915.83 122.451 1915.86 122.252 1918.28 114.779Z" fill="#FAB550"/>
<path d="M1924.75 119.118C1924 121.482 1923.31 123.635 1922.42 125.702C1921.14 128.678 1919.72 131.592 1918.15 134.962C1917.03 130.845 1919.65 122.719 1923.77 116.751C1924.13 117.571 1924.43 118.219 1924.75 119.118Z" fill="#FAB550"/>
<path d="M1949.51 349.274C1949.32 348.976 1949.33 348.802 1949.37 348.368C1954.65 349.686 1959.91 351.265 1965.17 352.844C1965.11 353.063 1965.05 353.283 1964.98 353.501C1959.89 352.134 1954.79 350.766 1949.51 349.274Z" fill="#FAB550"/>
<path d="M79.31 323.433C78.491 323.456 77.6191 323.246 76.4777 322.995C77.419 320.595 78.3277 322.025 79.31 323.433Z" fill="white"/>
<path d="M69.2136 329.82C69.4277 330.248 69.455 330.704 69.4895 331.39C69.3405 331.028 69.1836 330.44 69.2136 329.82Z" fill="white"/>
<path d="M1916.08 70.8988C1916.01 71.5241 1915.96 72.1493 1915.73 72.9586C1915.57 73.142 1915.31 72.919 1915.18 72.8086C1915.25 72.159 1915.46 71.6199 1915.86 70.9766C1916.05 70.8731 1916.08 70.8988 1916.08 70.8988Z" fill="white"/>
<path d="M1917.9 77.1953C1918.06 77.74 1918 78.3944 1917.67 79.1335C1917.51 78.5805 1917.59 77.9428 1917.9 77.1953Z" fill="white"/>
<path d="M1916.97 59.6719C1916.82 59.1464 1916.92 58.5233 1917.23 57.7646C1917.36 58.2775 1917.29 58.9259 1916.97 59.6719Z" fill="white"/>
<path d="M1916.61 70.0339C1916.69 69.649 1916.78 69.2641 1916.87 68.8794C1917 68.8987 1917.13 68.9179 1917.26 68.9372C1917.22 69.2903 1917.18 69.6435 1916.92 70.061C1916.69 70.1249 1916.61 70.0339 1916.61 70.0339Z" fill="white"/>
<path d="M1918.62 75.7866C1918.77 76.1701 1918.72 76.646 1918.38 77.1267C1918.21 76.714 1918.31 76.2965 1918.62 75.7866Z" fill="white"/>
<path d="M1918.87 66.7533C1918.76 66.9786 1918.52 67.0757 1918.28 67.1729C1918.26 67.0013 1918.24 66.8296 1918.35 66.5206C1918.57 66.4638 1918.66 66.5445 1918.87 66.7533Z" fill="white"/>
<path d="M1916.24 60.497C1916.12 60.1962 1916.22 59.9349 1916.54 59.6997C1916.66 59.9961 1916.56 60.2663 1916.24 60.497Z" fill="white"/>
<path d="M1916.04 70.8608C1916.11 70.6211 1916.19 70.3939 1916.44 70.1008C1916.61 70.0341 1916.69 70.1251 1916.74 70.1716C1916.68 70.4509 1916.58 70.6843 1916.27 70.908C1916.08 70.899 1916.05 70.8733 1916.04 70.8608Z" fill="white"/>
</g>
</g>
<defs>
<clipPath id="clip0_4007_2318">
<rect width="2303" height="380" fill="white"/>
</clipPath>
</defs>
</svg>
