<svg width="3315" height="547" viewBox="0 0 3315 547" fill="none" xmlns="http://www.w3.org/2000/svg">
<g clip-path="url(#clip0_4049_2331)">
<path d="M3204.8 370.185C3227.79 387.577 3250.49 404.751 3274.53 422.94C3125.15 422.111 2980.65 442.88 2839.34 493.183C2840.35 489.132 2840.65 486.432 2841.67 484.038C2853.23 456.894 2869.82 433.516 2893.34 415.347C2918.72 395.743 2947.1 382.856 2978.76 377.55C3001.75 373.698 3024.93 374.629 3048.07 375.552C3072.52 376.527 3096.95 378.499 3121.41 378.844C3145.69 379.185 3169.58 375.754 3192.12 365.895C3197.63 363.485 3200.85 367.223 3204.8 370.185Z" fill="#FBB042"/>
<path d="M2442.11 386.124C2450.61 379.669 2458.88 373.485 2467.03 367.158C2470.02 364.832 2472.98 364.689 2476.35 366.106C2505.96 378.547 2537 379.886 2568.53 378.51C2601.95 377.053 2635.47 374.306 2668.81 375.653C2720.77 377.752 2764.5 399.768 2798.97 438.857C2810.55 451.98 2819.44 467.175 2826 483.54C2827.02 486.08 2827.61 488.793 2827.89 492.205C2687.55 442.938 2542.96 422.121 2393.42 422.937C2410.37 410.123 2426.1 398.23 2442.11 386.124Z" fill="#FBB042"/>
<path d="M1487.11 181.851C1488.78 176.903 1490.32 172.307 1492.14 166.842C1483.99 166.842 1477.34 166.459 1470.74 166.919C1455.95 167.951 1445.95 160.743 1438.88 148.737C1428.42 130.969 1429.12 112.816 1438.62 94.9939C1443.06 86.6769 1451.1 81.8941 1460.12 81.4161C1476.37 80.5558 1492.68 81.1731 1509.51 81.1731C1509.58 82.7295 1509.72 84.4917 1509.72 86.254C1509.74 105.249 1509.82 124.244 1509.65 143.237C1509.61 146.958 1510.66 148.227 1514.43 148.073C1525.91 147.604 1537.4 147.464 1548.89 147.1C1550.95 147.034 1553.01 146.515 1555.21 146.182C1551.1 140.365 1546.64 135.331 1543.67 129.537C1539.59 121.608 1536.59 113.12 1533.26 104.821C1532.8 103.681 1532.49 101.725 1533.1 101.033C1538.82 94.5983 1542.06 85.9296 1551.17 82.5498C1567.18 76.6107 1583.07 74.4769 1599.93 79.3942C1610.79 82.5634 1618.25 93.9426 1618.97 104.839C1619.99 120.4 1615.33 133.669 1603.68 144.28C1602.99 144.908 1602.4 145.64 1601.05 147.077C1604.97 147.386 1608.02 147.777 1611.08 147.838C1618.08 147.978 1625.08 148.123 1632.07 147.957C1640.54 147.755 1644.56 143.576 1644.59 135.217C1644.65 121.054 1644.82 106.887 1644.49 92.7317C1644.38 88.1002 1646.08 86.1664 1650.28 85.0954C1654.56 84.0048 1658.68 82.2899 1663.44 80.6515C1663.54 82.8928 1663.67 84.4844 1663.67 86.0761C1663.69 102.405 1663.99 118.742 1663.56 135.059C1663.32 144.577 1670.35 148.151 1677.06 148.008C1685.49 147.829 1690.02 143.476 1690.06 135.027C1690.13 120.531 1690.2 106.033 1689.99 91.5405C1689.94 88.0381 1691.19 86.4098 1694.38 85.4668C1699.11 84.0651 1703.75 82.3691 1708.9 80.6399C1708.9 98.9201 1708.9 116.567 1708.9 134.213C1708.91 144.359 1714.89 149.437 1724.92 147.829C1731.78 146.73 1735.31 142.626 1735.34 135.426C1735.39 120.931 1735.52 106.432 1735.25 91.9406C1735.18 87.9623 1736.67 86.2966 1740.21 85.2886C1744.65 84.0214 1748.97 82.3438 1754.08 80.5926C1754.08 83.8803 1754.08 86.6333 1754.08 89.3864C1754.08 104.715 1754.06 120.044 1754.08 135.373C1754.1 142.756 1757.68 147.132 1764.93 147.751C1769.54 148.145 1774.27 147.953 1778.86 147.379C1784.78 146.639 1787.04 144.056 1787.14 138.078C1787.34 125.752 1787.27 113.421 1787.28 101.092C1787.29 84.4296 1787.4 67.7661 1787.18 51.1069C1787.14 47.6328 1788.24 45.9685 1791.43 44.9807C1796.14 43.5176 1800.76 41.7416 1806.12 39.854C1806.25 41.9008 1806.45 43.457 1806.45 45.0133C1806.47 75.3381 1806.47 105.663 1806.44 135.988C1806.44 138.312 1806.32 140.657 1806 142.956C1803.9 157.788 1796.53 165.389 1781.54 166.482C1771.71 167.199 1761.16 169.153 1752.29 163.227C1746.59 159.417 1742.81 160.061 1736.97 163.198C1725.07 169.586 1712.93 168.316 1701.73 160.267C1700.7 159.528 1698.5 159.154 1697.56 159.746C1681.47 169.844 1669.36 169.62 1654.69 158.907C1634.32 171.947 1612.56 167.556 1591.29 163.684C1581.84 161.964 1573.28 159.815 1563.51 162.905C1547.95 167.832 1531.58 166.983 1515.41 166.844C1513.63 166.828 1511.84 166.842 1509.82 166.842C1509.53 183.144 1503.18 195.956 1490.98 205.873C1490.73 206.081 1490.53 206.364 1490.28 206.573C1484.57 211.219 1478.99 214.448 1471.83 208.559C1468.51 205.827 1464.07 204.462 1459.13 201.972C1470.63 197.259 1480.7 192.267 1487.11 181.851ZM1450.5 117.195C1450.41 120.017 1450.08 122.856 1450.27 125.659C1450.99 136.409 1458.17 146.589 1466.72 147.491C1474.56 148.318 1482.56 147.667 1490.74 147.667C1490.74 131.578 1490.74 115.704 1490.74 99.3063C1483.74 99.3063 1476.95 99.2028 1470.17 99.3292C1458.28 99.5508 1452.71 104.487 1450.5 117.195ZM1555.65 110.833C1559.93 120.686 1565.74 129.485 1574.1 136.324C1575.71 137.648 1578.79 138.784 1580.5 138.147C1591.99 133.866 1600.96 119.872 1600.65 107.579C1600.51 102.161 1597.75 98.3534 1592.51 97.0347C1580.87 94.1018 1569.45 94.7128 1558.46 99.8324C1551.65 103.005 1551.62 103.284 1555.65 110.833Z" fill="#3A3A3A"/>
<path d="M2094.3 324.144C2097.96 323.235 2097.29 325.634 2097.3 327.321C2097.34 334.154 2097.32 340.987 2097.32 347.82C2097.32 371.319 2097.31 394.818 2097.32 418.316C2097.33 427.238 2101.11 431.124 2109.92 431.29C2113.25 431.353 2116.59 431.396 2119.91 431.273C2127.44 430.995 2131.56 426.849 2131.61 419.274C2131.7 404.609 2131.76 389.941 2131.57 375.278C2131.52 371.62 2132.74 369.887 2136.24 368.919C2140.84 367.647 2145.28 365.817 2150.35 364.029C2150.49 366.047 2150.66 367.457 2150.67 368.867C2150.69 385.533 2150.65 402.199 2150.7 418.865C2150.72 427.085 2154.66 431.098 2162.82 431.279C2167.66 431.386 2172.49 431.371 2177.32 431.28C2185.69 431.123 2189.79 426.948 2189.8 418.494C2189.83 390.828 2189.91 363.162 2189.7 335.499C2189.66 331.129 2191.2 329.183 2195.17 328.087C2199.45 326.907 2203.58 325.223 2208.49 323.509C2208.59 325.854 2208.73 327.581 2208.73 329.309C2208.75 358.641 2208.74 387.973 2208.75 417.304C2208.75 427.735 2212.35 431.264 2222.95 431.302C2226.12 431.313 2229.29 431.336 2232.45 431.29C2242.6 431.146 2245.41 428.34 2245.52 418.07C2245.61 409.905 2245.55 401.738 2245.55 393.572C2245.55 373.906 2245.66 354.239 2245.44 334.576C2245.4 330.856 2246.71 329.121 2250.03 328.124C2254.72 326.715 2259.34 325.081 2264.57 323.351C2264.57 325.484 2264.57 326.786 2264.57 328.087C2264.57 358.752 2264.6 389.417 2264.52 420.082C2264.51 423.383 2264.12 426.74 2263.44 429.973C2261.01 441.487 2253.63 448.634 2241.97 449.606C2233.2 450.337 2224.24 450.641 2215.55 449.572C2209.92 448.879 2204.63 445.373 2198.13 442.691C2188.78 452.508 2175.19 450.023 2162.17 450.194C2155.24 450.285 2149.2 447.961 2143.64 443.872C2142.54 443.06 2140.07 442.692 2139.06 443.364C2122.61 454.32 2106.21 452.04 2089.05 443.893C2083.64 448.046 2076.82 450.163 2069.27 450.158C2050.44 450.145 2031.61 450.189 2012.78 450.191C2012.14 450.191 2011.51 449.981 2010.63 449.823C2010.63 443.769 2010.63 437.861 2010.63 431.301C2012.67 431.301 2014.44 431.241 2016.2 431.31C2035.35 432.06 2041.03 416.259 2038.03 403.881C2036.28 396.669 2033.31 389.725 2030.56 382.791C2025.67 370.439 2020.52 358.186 2015.5 345.885C2015.26 345.302 2015.18 344.656 2014.91 343.607C2020.64 341.567 2026.2 339.583 2032.4 337.376C2034.68 342.82 2036.97 348.092 2039.12 353.421C2043.9 365.28 2048.73 377.119 2053.32 389.054C2058.46 402.434 2059.52 415.899 2053.28 429.317C2053.09 429.726 2053.17 430.263 2053.11 430.992C2058.82 430.992 2064.45 431.364 2070.01 430.885C2075.36 430.424 2077.85 427.44 2078.32 421.947C2078.6 418.635 2078.49 415.287 2078.5 411.955C2078.51 386.29 2078.6 360.624 2078.4 334.96C2078.36 330.808 2079.8 328.982 2083.62 327.981C2087.13 327.059 2090.48 325.511 2094.3 324.144Z" fill="#3A3A3A"/>
<path d="M304.671 431.073C311.766 431.189 318.431 431.393 325.089 431.261C332.73 431.11 336.938 426.719 336.981 418.918C337.063 404.258 337.112 389.595 336.928 374.936C336.884 371.463 338.084 369.873 341.349 368.945C345.96 367.635 350.432 365.836 355.583 364.029C355.695 366.097 355.849 367.651 355.851 369.204C355.87 385.698 355.84 402.192 355.876 418.685C355.894 427.111 359.927 431.142 368.443 431.292C372.773 431.368 377.107 431.345 381.438 431.296C391.679 431.181 394.583 428.387 394.605 418.228C394.664 390.905 394.769 363.581 394.502 336.261C394.452 331.166 395.941 328.739 400.91 327.645C405.037 326.737 408.955 324.882 413.386 323.296C413.518 325.137 413.669 326.253 413.669 327.369C413.679 358.191 413.731 389.012 413.606 419.833C413.589 424.121 413.272 428.575 412.08 432.656C408.969 443.306 401.06 448.815 390.409 449.676C381.475 450.399 372.367 450.603 363.481 449.666C358.493 449.14 353.606 446.178 349.05 443.638C346.764 442.364 345.689 442.078 343.562 443.811C338.693 447.778 333.023 450.091 326.603 450.138C322.438 450.169 318.267 450.051 314.11 450.237C303.875 450.695 294.125 449.646 286.183 441.514C272.755 454.815 255.795 448.571 239.96 450.57C239.427 454.042 238.977 457.629 238.315 461.176C235.373 476.938 225.227 487.226 212.156 495.19C211.201 495.772 209.443 495.924 208.469 495.444C202.244 492.378 196.134 489.078 189.199 485.443C205.373 478.408 219.753 470.669 220.888 450.211C214.577 450.211 208.763 449.758 203.041 450.291C180.054 452.434 169.418 437.451 163.919 421.792C158.605 406.663 160.694 391.733 168.631 378.028C173.818 369.074 182.777 364.746 192.891 364.398C208.181 363.873 223.504 364.261 239.29 364.261C239.29 386.43 239.29 408.518 239.29 430.953C249.185 430.953 258.638 431.387 268.024 430.787C273.478 430.438 276.648 425.409 276.672 419.126C276.727 404.632 276.81 390.135 276.614 375.644C276.563 371.891 277.539 369.886 281.385 368.895C285.842 367.747 290.108 365.853 295.306 363.976C295.306 366.319 295.306 368.069 295.306 369.818C295.306 385.812 295.295 401.806 295.311 417.8C295.318 425.221 297.42 428.296 304.671 431.073ZM207.506 431.318C211.784 431.318 216.062 431.318 220.527 431.318C220.527 414.934 220.527 399.081 220.527 383.097C211.794 383.097 203.352 382.773 194.951 383.223C190.184 383.478 186.061 386.02 183.755 390.487C178.036 401.571 178.573 412.399 185.11 423.081C190.213 431.418 198.138 431.812 207.506 431.318Z" fill="#3A3A3A"/>
<path d="M1648.68 440.637C1641.39 448.822 1632.08 450.265 1622.12 450.247C1580.14 450.173 1538.16 450.216 1496.18 450.217C1489.48 450.217 1489.64 450.234 1489.07 456.71C1487.75 471.621 1482.25 484.379 1469.35 492.976C1468.22 493.73 1465.99 493.754 1464.69 493.173C1459.74 490.961 1454.96 488.362 1449.75 485.718C1453.64 482.907 1457.24 480.685 1460.4 477.949C1468.19 471.199 1470.26 462.084 1470.27 452.285C1470.31 426.798 1470.39 401.31 1470.21 375.824C1470.18 371.799 1471.28 369.808 1475.28 368.8C1479.73 367.678 1483.99 365.784 1489.1 363.948C1489.1 386.684 1489.1 408.714 1489.1 431.019C1500.32 431.019 1510.92 431.019 1522.32 431.019C1522.32 429.209 1522.3 427.467 1522.33 425.725C1522.51 412.407 1522.27 399.066 1523.03 385.781C1523.65 374.897 1531.76 366.024 1542.61 365.152C1554.82 364.172 1567.23 364.04 1579.43 365.043C1591.4 366.027 1599.25 374.983 1599.88 387.114C1600.51 399.243 1600.21 411.421 1600.31 423.578C1600.33 425.901 1600.32 428.224 1600.32 430.693C1609.67 430.693 1618.76 430.915 1627.82 430.584C1631.43 430.452 1633.84 427.908 1634.34 424.102C1634.69 421.475 1635.11 418.828 1635.12 416.189C1635.18 389.036 1635.23 361.883 1635.07 334.731C1635.04 330.852 1636.34 329.029 1639.97 328.026C1644.54 326.766 1648.96 325.018 1653.95 323.308C1653.95 326.612 1653.95 329.254 1653.95 331.895C1653.95 361.714 1653.89 391.532 1653.99 421.35C1654.01 428.213 1652.54 434.533 1648.68 440.637ZM1541.4 392.322C1541.4 405.202 1541.4 418.082 1541.4 430.956C1554.99 430.956 1568.03 430.956 1581.25 430.956C1581.25 417.819 1581.41 405.033 1581.18 392.254C1581.07 386.418 1578.68 383.639 1572.7 383.173C1565.27 382.594 1557.76 382.718 1550.31 383.082C1545.36 383.324 1541.97 386.083 1541.4 392.322Z" fill="#3B3B3B"/>
<path d="M2208.45 64.003C2208.45 59.8371 2208.82 56.1229 2208.35 52.5158C2207.75 47.8195 2209.59 45.4562 2213.98 44.2544C2218.12 43.1211 2222.14 41.5523 2226.63 40.0343C2226.78 41.5667 2227.01 42.8005 2227.01 44.0344C2227.02 75.5339 2227.05 107.033 2226.99 138.533C2226.98 146.929 2225.32 154.819 2218.41 160.517C2213.05 164.935 2206.61 166.704 2199.84 166.738C2174.17 166.866 2148.5 167.084 2122.84 166.555C2117.13 166.438 2111.5 163.372 2105.8 161.771C2104.39 161.374 2102.38 160.697 2101.46 161.33C2094.17 166.332 2086.07 167.201 2077.58 166.872C2072.63 166.679 2067.66 166.837 2063.69 166.837C2061.74 175.056 2060.3 182.667 2058.08 190.044C2055.54 198.478 2049.78 204.693 2042.54 209.518C2041.57 210.167 2039.89 210.823 2039.04 210.42C2033.71 207.903 2028.53 205.086 2022.7 202.061C2025.46 200.358 2027.56 199.14 2029.58 197.792C2039.86 190.936 2043.48 180.783 2043.52 169.01C2043.6 143.511 2043.69 118.01 2043.46 92.5129C2043.42 88.1381 2044.88 86.2151 2048.89 85.1503C2053.18 84.0083 2057.33 82.319 2062.03 80.7005C2062.03 103.13 2062.03 125.069 2062.03 148.381C2071.13 147.907 2079.9 148.023 2088.47 146.77C2092.93 146.116 2095.36 142.001 2095.31 136.985C2095.21 127.82 2095.22 118.652 2095.3 109.486C2095.46 91.168 2104.36 81.4117 2122.55 80.8206C2139.18 80.2805 2155.84 80.7061 2173.02 80.7061C2173.02 102.946 2173.02 125.003 2173.02 148.449C2183.11 147.912 2192.73 148.022 2202.15 146.672C2208.04 145.828 2208.35 139.866 2208.38 135.001C2208.51 115.835 2208.44 96.6684 2208.44 77.5021C2208.45 73.1688 2208.45 68.8355 2208.45 64.003ZM2114.76 107.488C2114.62 117.288 2114.22 127.095 2114.45 136.886C2114.65 145.028 2117.21 147.544 2125.41 147.892C2134.04 148.259 2142.7 147.956 2151.34 148.085C2153.98 148.124 2154.8 147.053 2154.78 144.534C2154.71 130.568 2154.81 116.602 2154.64 102.638C2154.62 101.515 2153.05 99.4531 2152.19 99.4443C2142.39 99.3445 2132.58 99.349 2122.79 99.7932C2118.78 99.9753 2115.49 102.05 2114.76 107.488Z" fill="#383838"/>
<path d="M1270.27 446.605C1270.27 443.943 1270.27 441.723 1270.27 439.503C1269.57 439.121 1268.86 438.74 1268.15 438.358C1265.4 441.595 1262.74 444.912 1259.86 448.021C1258.93 449.023 1257.46 449.976 1256.15 450.108C1241.72 451.567 1229.34 448.506 1220.3 435.67C1208.98 419.585 1207.59 396.016 1217.64 379.003C1223.35 369.328 1232.22 364.805 1242.82 364.383C1257.94 363.78 1273.1 364.229 1288.73 364.229C1288.73 386.39 1288.73 408.462 1288.73 430.892C1299.44 430.892 1309.71 431.367 1319.89 430.7C1325.36 430.343 1328.4 425.243 1328.42 418.905C1328.49 404.407 1328.57 389.905 1328.36 375.409C1328.31 371.578 1329.44 369.729 1333.27 368.786C1337.74 367.684 1342.02 365.779 1347.04 363.984C1347.04 371.725 1347.04 378.837 1347.04 385.949C1347.04 396.948 1347.01 407.948 1347.05 418.947C1347.09 426.635 1351.34 431.068 1359.02 431.266C1364.85 431.416 1370.69 431.409 1376.52 431.245C1385.04 431.005 1387.81 428.259 1387.9 419.605C1388.05 405.441 1388.17 391.268 1387.83 377.111C1387.71 372.162 1388.83 369.434 1394.02 368.37C1398.17 367.518 1402.11 365.623 1406.5 364.061C1406.64 365.84 1406.79 366.969 1406.79 368.099C1406.81 385.931 1406.87 403.764 1406.77 421.596C1406.68 439.894 1397.64 449.324 1379.38 450.065C1372.06 450.362 1364.72 450.156 1357.39 450.116C1351.17 450.082 1345.59 448.052 1340.88 444.04C1338.54 442.045 1337.05 442.684 1334.47 443.959C1329.22 446.55 1323.57 449.546 1317.94 449.869C1303.32 450.708 1288.62 450.158 1273.96 450.246C1271.61 450.26 1269.96 449.898 1270.27 446.605ZM1229.75 402.759C1229.74 404.921 1229.59 407.092 1229.75 409.241C1230.49 419.347 1237.06 429.756 1244.66 430.633C1252.96 431.59 1261.45 430.85 1270.28 430.85C1270.28 415.648 1270.35 400.714 1270.14 385.784C1270.12 384.732 1268.09 382.901 1266.89 382.816C1262.09 382.471 1257.25 382.664 1252.43 382.67C1237.2 382.689 1232.28 386.866 1229.75 402.759Z" fill="#3A3A3A"/>
<path d="M2842.07 539.99C2836.76 543.167 2832.14 542.556 2826.7 540.465C2781.54 523.096 2734.96 510.48 2687.56 501.132C2654.93 494.698 2622.05 489.486 2589.19 484.287C2558.47 479.425 2527.63 475.306 2496.84 470.839C2494.39 470.484 2491.97 469.97 2489.55 469.005C2499.34 469.441 2509.15 469.68 2518.92 470.353C2539.35 471.757 2559.78 473.079 2580.16 475.007C2606.33 477.483 2632.51 480.048 2658.58 483.42C2708.64 489.894 2757.96 500.236 2806.76 513.079C2812.23 514.518 2817.8 515.781 2823.06 517.795C2830.58 520.673 2837.63 519.933 2845.24 517.707C2896.58 502.691 2948.86 491.74 3001.82 484.439C3034.44 479.941 3067.29 476.989 3100.09 474.04C3122.13 472.059 3144.27 471.293 3166.37 470.002C3167.28 469.95 3168.19 470.094 3169.18 470.946C3161.21 472.205 3153.26 473.535 3145.28 474.709C3126.19 477.519 3107.04 479.981 3088 483.081C3050.4 489.2 3012.7 494.806 2975.35 502.191C2930.09 511.14 2885.66 523.507 2842.07 539.99Z" fill="#FAB146"/>
<path d="M556 431.299C569.992 431.299 583.485 431.36 596.976 431.28C607.314 431.219 610.044 428.524 610.113 418.225C610.208 403.901 610.245 389.575 610.074 375.252C610.032 371.66 611.083 369.831 614.703 368.887C619.279 367.695 623.674 365.808 628.852 363.971C628.852 371.76 628.852 378.72 628.852 385.68C628.853 396.341 628.795 407.001 628.875 417.661C628.944 426.65 633.512 431.207 642.392 431.287C647.889 431.337 653.387 431.383 658.882 431.269C668.104 431.079 670.797 428.435 670.861 419.248C670.964 404.591 671.008 389.931 670.831 375.275C670.787 371.659 671.875 369.87 675.462 368.92C680.05 367.704 684.462 365.822 688.829 364.27C689.293 364.959 689.63 365.226 689.628 365.491C689.525 385.97 689.835 406.466 689.109 426.924C688.647 439.926 680.291 448.524 667.54 449.573C657.123 450.43 646.541 450.424 636.122 449.625C631.106 449.24 626.298 446.143 620.421 443.903C613.482 450.207 603.669 450.268 593.778 450.241C570.292 450.176 546.806 450.21 523.32 450.224C515.021 450.229 507.042 449.231 500.454 443.455C494.639 438.356 492.495 431.501 492.347 424.239C492.004 407.422 492.151 390.594 492.274 373.772C492.283 372.46 493.352 370.427 494.444 369.975C499.631 367.828 504.996 366.114 510.991 364.002C511.112 366.172 511.273 367.738 511.275 369.305C511.294 385.295 511.25 401.286 511.301 417.276C511.337 428.733 513.934 431.259 525.518 431.291C535.512 431.319 545.506 431.298 556 431.299Z" fill="#3B3B3B"/>
<path d="M1985.57 77.4041C1982.45 78.9587 1979.67 80.3628 1976.11 82.1619C1981.1 84.5581 1985.66 86.5908 1990.07 88.8989C2004.98 96.6956 2019.55 113.516 2017.15 135.997C2015.28 153.534 2002.16 166.67 1984.54 166.797C1963.05 166.952 1941.56 166.838 1920.07 166.84C1918.27 166.84 1916.47 166.84 1915.66 166.84C1913.69 175.17 1912.34 182.992 1909.92 190.464C1907.23 198.768 1901.43 205.025 1894.14 209.776C1893.2 210.39 1891.48 210.743 1890.56 210.301C1885.39 207.814 1880.35 205.046 1874.99 202.224C1878.87 199.384 1882.5 197.103 1885.69 194.316C1893.46 187.524 1895.41 178.291 1895.47 168.572C1895.6 143.75 1895.7 118.925 1895.42 94.1062C1895.36 88.7506 1896.6 85.8174 1902.15 84.7359C1905.99 83.9869 1909.62 82.1639 1914.02 80.5792C1914.02 103.174 1914.02 125.199 1914.02 147.709C1916.31 147.829 1918.08 148.002 1919.84 148.003C1939.84 148.022 1959.83 147.951 1979.82 148.049C1986.63 148.083 1992.91 147.32 1996.24 140.286C2000.07 132.209 1999.5 124.463 1994.06 117.261C1988.03 109.282 1979.57 104.738 1970.55 101.186C1965.15 99.0603 1959.58 97.2947 1953.98 95.7873C1950.5 94.8517 1948.74 92.8539 1947.53 89.6261C1943.92 79.964 1943.75 79.825 1953.18 75.1845C1975.96 63.9712 1998.84 52.9343 2022.78 41.2899C2022.78 47.7247 2022.97 53.433 2022.6 59.1049C2022.53 60.1723 2020.35 61.3722 2018.93 62.0398C2007.96 67.1766 1996.93 72.197 1985.57 77.4041Z" fill="#393939"/>
<path d="M2.62767 417.069C1.6866 409.616 1.83152 402.445 2.63224 394.796C5.93011 374.639 17.8284 364.288 37.7757 364.047C50.2718 363.897 62.7711 363.999 75.2689 364.015C76.559 364.017 77.8488 364.203 79.6387 364.343C79.6387 386.632 79.6387 408.701 79.6387 431.048C92.1002 431.048 104.055 431.362 115.981 430.917C122.026 430.691 124.357 427.266 124.417 420.186C124.539 405.857 124.675 391.52 124.353 377.197C124.243 372.286 125.298 369.471 130.508 368.391C134.643 367.534 138.564 365.645 143.128 364.02C143.128 379.36 143.135 394.004 143.125 408.648C143.121 414.314 143.251 419.986 143.016 425.643C142.465 438.926 134.05 448.974 120.863 449.539C101.094 450.385 81.2608 449.759 61.0662 449.759C61.0662 446.389 61.0662 442.953 61.0662 439.517C60.7046 439.261 60.343 439.005 59.9814 438.749C57.4997 441.178 54.8266 443.445 52.5857 446.079C49.8888 449.248 46.8166 450.35 42.6041 450.311C21.1038 450.11 7.19164 438.819 2.62767 417.069ZM52.4609 431.319C55.1963 431.319 57.9316 431.319 60.9011 431.319C60.9011 415.362 60.9054 400.263 60.8858 385.163C60.8849 384.535 60.66 383.907 60.4222 382.669C53.6068 382.669 46.846 382.599 40.0872 382.684C28.8599 382.826 22.8044 387.696 20.7999 398.733C20.0687 402.76 19.9101 407.052 20.4098 411.11C22.0233 424.213 30.3666 431.318 43.4944 431.32C46.1528 431.32 48.8112 431.319 52.4609 431.319Z" fill="#393939"/>
<path d="M912.587 379.434C916.209 388.67 919.583 397.632 923.007 406.575C925.313 412.597 927.567 418.644 930.115 424.563C930.799 426.151 932.259 428.134 933.736 428.525C941.053 430.462 939.693 436.102 939.676 441.255C939.667 444.047 939.675 446.84 939.675 449.93C937.718 450.043 936.259 450.202 934.799 450.202C901.473 450.216 868.147 450.191 834.821 450.226C826.841 450.234 819.143 449.267 812.686 444.062C807.173 439.616 804.297 433.439 804.23 426.627C803.922 395.304 803.992 363.977 804.047 332.652C804.049 331.49 805.033 329.675 806.012 329.277C811.187 327.177 816.507 325.433 822.447 323.329C822.558 325.756 822.707 327.51 822.708 329.263C822.723 358.59 822.707 387.917 822.726 417.244C822.733 428.377 825.548 431.271 836.522 431.289C860.35 431.33 884.178 431.307 908.006 431.293C909.285 431.292 910.564 431.134 912.102 431.031C907.965 419.004 904.145 407.217 899.844 395.607C896.207 385.787 887.894 382.785 878.33 382.439C871.7 382.199 865.055 382.393 857.484 382.393C859.628 376.29 861.439 370.872 863.504 365.552C863.798 364.793 865.316 364.076 866.271 364.071C876.908 364.016 887.527 363.506 897.838 367.472C904.104 369.881 908.471 374.08 912.587 379.434Z" fill="#3A3A3A"/>
<path d="M1300.64 151.368C1292.79 144.658 1283.45 142.033 1274.2 139.436C1271.08 138.56 1269.72 137.114 1269.28 134.239C1269.2 133.748 1269.14 133.217 1268.91 132.793C1263.44 122.729 1267.02 114.578 1273.36 106.14C1285.71 89.6976 1300.71 79.1451 1322.23 80.7368C1323.36 80.8201 1324.48 81.0045 1326.16 81.211C1324.97 86.9634 1324.03 92.4813 1322.51 97.8339C1322.24 98.765 1319.55 99.4002 1317.93 99.4912C1302.48 100.363 1293.09 109.671 1285.32 122.372C1290.93 124.957 1296.21 127.181 1301.3 129.782C1308.75 133.588 1315.48 138.256 1320.11 145.564C1333.01 165.913 1321.3 193.57 1297.45 195.092C1271.27 196.762 1244.87 195.813 1218.61 194.96C1206.94 194.581 1197.66 185.123 1196.26 173.498C1194.99 162.973 1195.23 152.262 1194.97 141.629C1194.95 140.644 1195.99 139.077 1196.9 138.718C1202.09 136.677 1207.4 134.92 1213.45 132.794C1213.45 141.368 1213.34 149.297 1213.49 157.22C1213.57 161.195 1213.94 165.184 1214.49 169.123C1215.11 173.608 1217.9 176.122 1222.41 176.694C1223.4 176.82 1224.39 177.079 1225.38 177.08C1247.7 177.099 1270.01 177.168 1292.33 177.035C1298.04 177.001 1302.55 174.585 1304.86 168.902C1307.59 162.173 1305.66 156.59 1300.64 151.368Z" fill="#3A3A3A"/>
<path d="M1929.04 437.972C1914.99 419.855 1913.53 396.874 1925.27 377.496C1929.36 370.735 1935.89 366.034 1943.41 365.431C1960.58 364.054 1977.85 364.032 1995.69 363.438C1995.69 366.146 1995.69 367.768 1995.69 369.39C1995.69 395.367 1995.28 421.353 1995.82 447.32C1996.25 468.171 1987.46 483.4 1970.13 494.15C1968.55 495.13 1965.84 495.793 1964.33 495.115C1958.17 492.364 1952.28 489.032 1945.09 485.293C1966.85 477.377 1980.74 464.913 1976.05 439.508C1974.42 440.85 1973.04 441.551 1972.29 442.675C1967.4 450.022 1960.31 450.762 1952.3 450.33C1944.16 449.89 1937.55 446.84 1931.91 441.229C1930.97 440.293 1930.12 439.26 1929.04 437.972ZM1937.01 412.871C1939.4 420.922 1942.65 429.091 1951.73 430.633C1959.76 431.996 1968.21 430.918 1977 430.918C1977 415.577 1977.06 400.471 1976.86 385.368C1976.85 384.457 1974.79 382.831 1973.65 382.798C1966.83 382.596 1959.98 382.447 1953.18 382.89C1945.09 383.417 1939.66 387.781 1937.99 395.674C1936.87 400.951 1937.22 406.539 1937.01 412.871Z" fill="#3B3B3B"/>
<path d="M979.508 349.472C984.142 361.079 988.395 372.429 993.181 383.55C999.87 399.095 1002.74 414.654 994.564 430.933C1000.94 430.933 1006.74 431.407 1012.43 430.799C1018.04 430.199 1020.54 426.391 1020.61 419.588C1020.72 407.095 1020.65 394.6 1020.65 382.107C1020.65 366.114 1020.77 350.121 1020.56 334.131C1020.52 330.593 1021.88 329.082 1025 328.152C1029.57 326.792 1034.05 325.134 1039.16 323.403C1039.16 325.545 1039.16 327.015 1039.16 328.486C1039.16 359.471 1039.34 390.458 1039 421.439C1038.93 427.063 1037.57 433.054 1035.27 438.181C1031.95 445.565 1024.74 449.333 1017.09 449.534C995.651 450.1 974.187 449.731 952.413 449.731C952.413 443.833 952.413 437.926 952.413 431.288C954.927 431.288 957.368 431.357 959.805 431.277C974.039 430.807 983.316 420.271 980.341 406.294C978.36 396.981 974.33 388.071 970.883 379.109C966.42 367.505 961.624 356.029 956.67 343.752C962.125 341.808 967.311 339.797 972.63 338.239C973.427 338.006 975.264 339.674 975.892 340.85C977.294 343.474 978.236 346.344 979.508 349.472Z" fill="#383838"/>
<path d="M1120.65 487.497C1119.45 486.71 1118.55 486.11 1117.14 485.166C1129.48 480.135 1140.75 474.655 1146.24 462.067C1148.82 456.136 1149.59 446.328 1147.67 438.88C1144.6 441.865 1142.04 444.806 1139.01 447.144C1137.08 448.629 1134.55 449.78 1132.15 450.123C1099.46 454.807 1084.79 418.547 1090.07 395.112C1092.19 385.716 1094.8 376.36 1103.34 370.932C1108.35 367.747 1114.48 364.944 1120.26 364.62C1135.67 363.756 1151.16 364.326 1167.3 364.326C1167.3 365.973 1167.3 367.572 1167.3 369.171C1167.3 395.806 1167.15 422.442 1167.34 449.076C1167.49 469.748 1157.75 484.462 1140.55 494.748C1139 495.671 1136.07 495.268 1134.22 494.474C1129.66 492.523 1125.35 489.985 1120.65 487.497ZM1146.2 382.678C1139.88 382.675 1133.56 382.581 1127.25 382.688C1116.44 382.873 1109.71 388.624 1108.29 399.272C1107.75 403.354 1107.77 407.604 1108.21 411.703C1109.19 420.709 1116.63 430.279 1123.87 430.897C1131.91 431.583 1140.06 431.054 1148.16 431.054C1148.38 430.344 1148.65 429.885 1148.65 429.425C1148.69 414.962 1148.73 400.498 1148.64 386.036C1148.63 384.957 1147.65 383.884 1146.2 382.678Z" fill="#393939"/>
<path d="M1856.35 368.557C1860.61 367.028 1864.5 365.653 1868.88 364.105C1869.07 365.779 1869.34 367.025 1869.34 368.271C1869.36 386.265 1869.48 404.259 1869.28 422.251C1869.19 430.776 1867.62 439.277 1859.91 444.248C1855.47 447.108 1849.86 449.603 1844.73 449.694C1815.59 450.211 1786.43 450.307 1757.28 449.81C1742.76 449.562 1733.46 439.923 1732.97 425.259C1732.4 408.117 1732.7 390.945 1732.75 373.787C1732.76 372.541 1733.53 370.554 1734.46 370.176C1739.94 367.952 1745.56 366.102 1751.75 363.91C1751.75 378.438 1751.74 392.072 1751.75 405.706C1751.76 411.036 1751.65 416.374 1751.89 421.696C1752.15 427.479 1754.68 430.097 1760.33 431.031C1760.5 431.058 1760.66 431.092 1760.83 431.092C1787.65 431.103 1814.47 431.282 1841.28 431C1847.95 430.93 1850.69 426.868 1850.75 418.88C1850.85 404.387 1850.96 389.888 1850.67 375.399C1850.59 371.179 1851.99 369.189 1856.35 368.557Z" fill="#3A3A3A"/>
<path d="M2948.18 483.081C2914.44 490.713 2881.13 498.275 2847.82 505.837C2847.73 505.509 2847.64 505.182 2847.55 504.854C2871.51 497.985 2895.3 490.474 2919.46 484.409C2949.47 476.876 2979.62 469.74 3010 463.92C3037.76 458.602 3065.86 455.08 3093.86 451.104C3136.46 445.054 3179.41 443.517 3222.34 441.85C3243.47 441.029 3264.6 439.846 3285.73 439.111C3288.47 439.016 3291.66 440.038 3293.97 441.556C3300.99 446.162 3307.69 451.265 3314.38 456.795C3191.46 453.32 3069.3 458.134 2948.18 483.081Z" fill="#FAB247"/>
<path d="M2805.89 502.591C2779.78 496.608 2753.83 489.844 2727.54 484.84C2693.91 478.436 2660.12 472.621 2626.19 468.092C2593.72 463.758 2561.04 460.678 2528.35 458.404C2503.79 456.695 2479.08 456.825 2454.44 456.695C2422.63 456.528 2390.82 456.919 2359.02 457.068C2357.27 457.076 2355.51 457.069 2353.4 456.133C2361.18 450.581 2368.89 444.927 2376.81 439.579C2378.12 438.693 2380.35 438.932 2382.13 439.013C2424.38 440.922 2466.7 441.884 2508.84 445.13C2546.28 448.013 2583.61 452.833 2620.85 457.879C2682.98 466.3 2743.53 481.967 2803.48 500.04C2804.11 500.231 2804.72 500.508 2805.64 501.293C2805.92 502.091 2805.9 502.341 2805.89 502.591Z" fill="#FAB247"/>
<path d="M2834.97 472.979C2832.85 474.221 2832.96 474.144 2831.23 471.633C2825.01 462.583 2819.22 453.179 2812.35 444.644C2780.4 404.931 2739.41 380.322 2689.12 370.834C2660.69 365.47 2632.23 362.236 2603.27 363.109C2579.55 363.824 2555.97 362.466 2533.13 355.094C2525.37 352.587 2518.09 349.192 2512.77 343.524C2523.38 340.204 2533.86 336.927 2544.78 333.511C2555.83 345.831 2571.91 348.723 2587.9 350.788C2601.06 352.489 2614.46 352.353 2627.76 353.006C2650.7 354.134 2673.84 354.133 2696.24 359.728C2742.62 371.309 2781.23 395.669 2811.64 432.608C2820.87 443.83 2828.47 456.197 2832.59 470.381C2832.88 471.371 2833.7 472.206 2834.64 473.063C2835.01 473.013 2834.97 472.979 2834.97 472.979Z" fill="#FAB147"/>
<path d="M2835.03 473.032C2838.14 465.393 2840.33 457.214 2844.46 450.167C2862.2 419.898 2888.08 398.031 2918.25 380.885C2946.24 364.978 2976.22 355.98 3008.51 354.838C3028.47 354.132 3048.45 353.399 3068.38 352.074C3085.54 350.933 3102.56 348.555 3117.35 338.591C3119.66 337.034 3121.59 334.908 3123.15 333.525C3133.94 336.903 3144.45 340.193 3155.58 343.679C3152.25 345.941 3148.73 348.879 3144.75 350.917C3131.03 357.949 3116.05 360.648 3100.93 361.767C3086.17 362.859 3071.31 363.067 3056.5 362.962C3017.7 362.69 2979.79 368.154 2943.1 380.755C2910.84 391.835 2884.11 411.489 2862.01 437.181C2852.4 448.363 2844.39 460.928 2835.31 472.922C2834.97 472.979 2835.01 473.013 2835.03 473.032Z" fill="#FAB147"/>
<path d="M746.731 364.253C752.744 365.333 758.369 366.052 763.814 367.466C776.893 370.865 784.681 379.757 785.299 392.962C786.177 411.709 785.522 430.528 785.522 449.769C760.25 449.769 734.382 449.769 708.106 449.769C708.106 443.795 708.106 437.789 708.106 431.465C727.772 431.465 747.061 431.465 766.227 431.465C766.227 420.266 766.992 409.316 765.994 398.529C765.134 389.236 758.277 384.507 749.19 383.702C741.907 383.057 734.575 382.955 727.261 382.7C723.95 382.584 720.631 382.68 716.972 382.68C716.972 376.43 716.972 370.521 716.972 364.208C726.751 364.208 736.506 364.208 746.731 364.253Z" fill="#3A3A3A"/>
<path d="M1387 166.842C1370.37 166.842 1354.25 166.842 1337.81 166.842C1337.81 160.58 1337.81 154.665 1337.81 148.176C1357.33 148.176 1376.71 148.176 1397.03 148.176C1396.26 135.768 1398.59 123.833 1394.97 112.155C1392.99 105.753 1388.56 101.504 1381.75 100.96C1371.66 100.153 1361.52 99.6339 1351.4 99.5355C1347.14 99.4941 1345.85 98.1803 1346.15 94.102C1346.45 89.8302 1346.21 85.5198 1346.21 80.5778C1364.09 80.8271 1381.71 78.7009 1398.34 85.6205C1409.36 90.2012 1414.96 99.5854 1415.36 111.104C1415.99 129.38 1415.53 147.692 1415.53 166.842C1406.31 166.842 1396.91 166.842 1387 166.842Z" fill="#3A3A3A"/>
<path d="M2797.22 236.176C2794.49 239.669 2792.02 242.905 2790.2 245.291C2786.06 241.971 2782.44 238.55 2778.33 235.869C2768.33 229.343 2762.13 214.855 2764.76 203.201C2766.63 194.912 2770.75 187.93 2776.8 181.555C2789.14 208.789 2813.12 216.534 2839.08 220.975C2854.58 223.626 2870.12 224.495 2886.02 220.153C2883.08 227.296 2870.66 225.727 2873.23 237.011C2868.99 236.562 2865.46 236.265 2861.95 235.805C2847.77 233.945 2833.59 232.051 2819.42 230.137C2811.3 229.04 2803.83 230.361 2797.22 236.176Z" fill="#FAB145"/>
<path d="M2814.72 241.884C2813.21 237.806 2816.05 238.714 2817.77 238.9C2828.02 240.011 2838.26 241.237 2848.49 242.456C2855.1 243.243 2861.76 243.792 2868.26 245.089C2870.04 245.444 2872.66 248.087 2872.68 249.718C2872.83 258.341 2872.95 267.069 2871.78 275.582C2870.54 284.59 2867.11 289.299 2856.74 287.324C2848.61 285.778 2840.2 285.502 2831.89 285.323C2829.03 285.261 2825.89 286.786 2823.3 288.309C2819.09 290.781 2815.24 293.848 2810.67 297.06C2809.34 291.908 2809.24 288.354 2812.37 284.648C2823.19 271.843 2824.06 255.038 2814.72 241.884Z" fill="#FBB043"/>
<path d="M2243.4 105C2243.4 86.6732 2243.5 68.8453 2243.3 51.0209C2243.26 47.5605 2244.34 45.8729 2247.55 44.8962C2252.4 43.4152 2257.16 41.6244 2262.66 39.7269C2262.66 42.1175 2262.66 43.7365 2262.66 45.3555C2262.66 82.3417 2262.58 119.328 2262.76 156.313C2262.78 160.268 2261.36 161.951 2257.89 162.983C2253.21 164.376 2248.63 166.081 2243.4 167.859C2243.4 146.412 2243.4 125.956 2243.4 105Z" fill="#424242"/>
<path d="M1689.32 396C1689.32 410.986 1689.19 425.473 1689.41 439.955C1689.47 443.663 1688.2 445.315 1684.76 446.325C1680.19 447.666 1675.78 449.556 1670.77 451.408C1670.62 449.391 1670.41 447.983 1670.41 446.574C1670.39 409.278 1670.46 371.983 1670.3 334.688C1670.28 330.764 1671.65 329.017 1675.22 328.012C1679.65 326.764 1683.96 325.083 1689.32 323.248C1689.32 347.787 1689.32 371.643 1689.32 396Z" fill="#3D3D3D"/>
<path d="M1892.01 327.198C1895.75 325.864 1899.11 324.653 1903.33 323.138C1903.33 325.715 1903.33 327.313 1903.33 328.912C1903.33 365.712 1903.26 402.514 1903.42 439.314C1903.44 443.318 1902.35 445.373 1898.4 446.452C1893.81 447.705 1889.41 449.633 1884.21 451.531C1884.21 448.944 1884.21 447.176 1884.21 445.407C1884.21 409.439 1884.21 373.47 1884.21 337.502C1884.21 329.62 1884.21 329.62 1892.01 327.198Z" fill="#3C3C3C"/>
<path d="M1074.8 355C1074.8 383.634 1074.72 411.768 1074.9 439.901C1074.92 443.607 1073.69 445.252 1070.32 446.281C1065.65 447.71 1061.1 449.581 1055.94 451.47C1055.82 449.015 1055.68 447.414 1055.68 445.813C1055.67 408.856 1055.74 371.899 1055.57 334.942C1055.55 330.777 1057.06 329.003 1060.83 327.98C1065.38 326.748 1069.79 325.009 1074.8 323.306C1074.8 334.242 1074.8 344.371 1074.8 355Z" fill="#3C3C3C"/>
<path d="M448.796 441.445C448.097 443.075 447.671 444.928 446.654 445.349C441.463 447.496 436.119 449.273 430.284 451.376C430.182 449.271 430.04 447.7 430.04 446.129C430.027 408.999 430.09 371.869 429.937 334.74C429.921 330.892 431.087 329.034 434.761 328.037C439.198 326.832 443.488 325.089 448.798 323.248C448.798 362.963 448.798 401.986 448.796 441.445Z" fill="#3C3C3C"/>
<path d="M1841.44 80.0002C1841.44 105.833 1841.38 131.166 1841.52 156.497C1841.54 160.045 1840.62 161.954 1837.03 162.925C1832.44 164.167 1828.01 166.002 1822.91 167.792C1822.91 165.495 1822.91 164.019 1822.91 162.544C1822.91 125.545 1822.97 88.5462 1822.82 51.5481C1822.8 47.7667 1823.81 45.7833 1827.49 44.7332C1831.93 43.4652 1836.23 41.7001 1841.44 39.848C1841.44 53.3407 1841.44 66.4204 1841.44 80.0002Z" fill="#373737"/>
<path d="M1427.74 450.766C1427.18 449.031 1426.93 447.389 1426.93 445.747C1426.9 413.748 1426.97 381.749 1426.83 349.75C1426.81 346.075 1427.48 343.988 1431.43 343.017C1435.89 341.922 1440.13 339.984 1445.11 338.18C1445.23 340.433 1445.39 342.018 1445.39 343.603C1445.41 375.602 1445.35 407.601 1445.48 439.6C1445.49 443.272 1444.77 445.416 1440.84 446.399C1436.51 447.483 1432.38 449.34 1427.74 450.766Z" fill="#373737"/>
<path d="M2809.05 306.749C2816.36 299.168 2823.4 291.309 2834.88 292.029C2844.31 292.622 2853.72 293.769 2863.12 294.847C2867.97 295.404 2868.52 297.16 2866.14 301.394C2864.97 303.458 2864.19 305.983 2864.08 308.34C2863.79 314.283 2863.98 320.249 2863.98 327.147C2846.3 328.02 2828.02 328.922 2809.02 329.86C2809.02 322.01 2809.02 314.592 2809.05 306.749Z" fill="#FBB043"/>
<path d="M2715.78 344.239C2737.66 350.801 2756.98 360.988 2773.01 376.822C2772.8 377.241 2772.58 377.66 2772.36 378.079C2771 377.3 2769.57 376.621 2768.29 375.727C2746.46 360.491 2722.96 348.955 2696.49 344.604C2686.51 342.963 2676.25 343.14 2666.19 341.894C2649.55 339.834 2632.76 338.236 2616.45 334.57C2607.84 332.635 2600.1 326.773 2592.01 322.614C2590.25 321.711 2588.65 320.508 2586.19 318.941C2595.65 317.271 2602.99 315.973 2610.83 314.59C2619.2 328.034 2634.3 330.959 2648.91 333.824C2662.09 336.408 2675.65 337.032 2688.97 338.981C2697.84 340.279 2706.59 342.385 2715.78 344.239Z" fill="#FAB34B"/>
<path d="M2898.94 372.924C2925.72 350.007 2956.85 339.734 2991.31 337.845C3007.13 336.978 3022.74 334.242 3037.72 328.791C3045.65 325.903 3053.03 322.105 3056.77 314.42C3064.42 315.842 3071.8 317.215 3079.82 318.705C3077.9 320.479 3075.85 322.905 3073.32 324.611C3061.22 332.774 3047.73 337.407 3033.28 338.843C3014.74 340.687 2996.1 341.615 2977.58 343.703C2952.46 346.537 2929.78 356.343 2908.58 369.803C2905.21 371.942 2902.01 374.338 2898.67 376.519C2897.51 377.273 2896.17 377.736 2894.23 377.377C2895.71 375.967 2897.18 374.557 2898.94 372.924Z" fill="#FAB34B"/>
<path d="M2831.39 205.433C2826.09 211.827 2822.36 212.187 2817.38 207.103C2822.75 199.337 2828.45 191.788 2833.41 183.777C2840.49 172.322 2843.86 159.698 2842.75 146.168C2842.47 142.831 2843.55 140.391 2846.45 140.435C2848.51 140.466 2852.07 142.665 2852.27 144.241C2853 149.898 2853.54 155.897 2852.42 161.413C2849.12 177.612 2842.03 192.224 2831.39 205.433Z" fill="#FAB248"/>
<path d="M2854.61 199.602C2851.88 203.612 2849.53 207.453 2846.76 210.967C2845.51 212.554 2843.56 214.194 2841.69 214.534C2839.69 214.899 2837.41 213.768 2835.25 213.289C2835.89 211.527 2836.16 209.502 2837.21 208.044C2847 194.519 2856.21 180.659 2859.93 164.092C2861.07 159.004 2861.01 153.555 2860.82 148.295C2860.72 145.344 2860.37 142.86 2863.86 142.112C2867.58 141.316 2870.55 142.984 2870.79 146.646C2871.17 152.365 2871.33 158.285 2870.28 163.871C2867.83 176.772 2861.53 188.17 2854.61 199.602Z" fill="#FAB248"/>
<path d="M2817.07 195.078C2815.32 197.329 2814.1 199.752 2812.14 201.105C2810.6 202.167 2807.77 202.78 2806.17 202.081C2799.75 199.262 2799.68 198.397 2804.14 193.002C2812.26 183.187 2819.51 172.874 2822.32 160.166C2823 157.117 2822.91 153.902 2823.22 150.769C2823.41 148.798 2823.09 146.398 2824.11 144.978C2825.47 143.072 2827.84 140.91 2829.88 140.807C2831.26 140.737 2833.89 143.876 2834.12 145.801C2835.26 155.266 2833.08 164.428 2829.22 172.954C2825.81 180.489 2821.31 187.53 2817.07 195.078Z" fill="#FAB247"/>
<path d="M2784.09 176.602C2784.78 173.915 2784.89 170.971 2786.41 169.434C2793.31 162.481 2800.53 155.841 2807.81 149.295C2809.4 147.869 2811.75 147.291 2815.25 145.596C2814.61 150.461 2814.45 153.836 2813.7 157.072C2810.86 169.302 2805.21 180.112 2796.69 189.371C2793.16 193.204 2791.94 192.997 2789.59 188.219C2787.76 184.487 2785.97 180.735 2784.09 176.602Z" fill="#FAB146"/>
<path d="M2858.61 215.032C2855.93 215.542 2853.61 215.895 2851.3 216.248C2850.99 215.762 2850.68 215.276 2850.38 214.79C2851.65 213.056 2852.88 211.291 2854.19 209.594C2863.78 197.246 2873.81 185.062 2876.33 168.969C2877.22 163.287 2876.97 157.405 2876.96 151.614C2876.96 148.796 2876.87 145.466 2880.13 145.456C2882.04 145.45 2885.26 148.129 2885.63 150.038C2886.59 155.006 2886.87 160.267 2886.42 165.32C2885.01 180.842 2876.62 193.308 2867.74 205.406C2865.21 208.851 2861.91 211.734 2858.61 215.032Z" fill="#FAB248"/>
<path d="M973.699 300.224C976.48 300.905 978.823 301.552 981.147 302.194C979.098 310.246 978.538 310.649 971.541 310.529C968.4 310.475 965.243 310.868 965.183 315.065C965.123 319.278 968.157 319.678 971.39 319.684C974.22 319.688 977.05 319.745 979.879 319.792C980.033 319.795 980.184 319.919 980.725 320.158C980.725 323.179 980.725 326.389 980.725 329.954C971.004 329.954 961.284 329.954 950.947 329.954C952.018 325.95 948.078 320.825 954.811 318.914C953.978 307.817 957.759 300.248 973.699 300.224Z" fill="#3F3F3F"/>
<path d="M2797.2 279.719C2790.93 269.394 2790.7 258.998 2795.18 248.377C2796.82 244.502 2799.63 240.626 2803.89 241.516C2807.05 242.178 2810.74 245.288 2812.19 248.28C2816.68 257.544 2816.51 267.383 2812.23 276.742C2808.72 284.41 2803.26 285.373 2797.2 279.719ZM2803.61 270.178C2808.53 267.774 2809.88 258.185 2805.51 255.225C2804.62 254.626 2801.94 255.277 2801.12 256.236C2797.87 260.017 2798.82 266.248 2803.61 270.178Z" fill="#FAB248"/>
<path d="M2804.92 129.942C2814.59 123.937 2824.78 121.534 2835.74 122.357C2843.7 122.954 2851.67 123.482 2859.62 124.247C2865.24 124.79 2865.42 125.226 2864.41 131.803C2859.73 131.34 2855.01 130.611 2850.27 130.459C2841.3 130.17 2832.31 129.916 2823.34 130.197C2813.81 130.497 2806.68 136.369 2799.51 141.794C2794.12 145.878 2788.91 150.216 2783.37 154.643C2781.21 150.878 2781.15 147.917 2784.35 145.464C2791.08 140.321 2797.86 135.244 2804.92 129.942Z" fill="#FAB34A"/>
<path d="M2793.48 62.4645C2806.93 51.2535 2822.47 52.2544 2838.04 53.5011C2841.35 53.7662 2844.62 54.608 2847.93 54.7671C2853.02 55.0118 2853.52 57.7174 2852.66 60.6228C2837.92 61.1636 2823.46 60.1605 2809.62 62.6222C2795.06 65.2129 2785.94 77.8787 2774.87 87.3094C2772.52 83.6335 2772.38 80.631 2775.85 77.7083C2781.71 72.7877 2787.41 67.6938 2793.48 62.4645Z" fill="#FAB34A"/>
<path d="M2832.43 93.7859C2840.51 94.4228 2848.13 95.1632 2855.77 95.5943C2860.37 95.8543 2861.43 98.1633 2860.21 102.919C2855.48 102.497 2850.62 101.887 2845.75 101.669C2837.78 101.311 2829.79 100.962 2821.81 101.068C2813.74 101.175 2806.58 104.202 2800.22 109.17C2793.19 114.667 2786.14 120.133 2778.85 125.804C2777 122.018 2776.8 119.19 2780.13 116.326C2789.88 107.934 2799.67 99.4228 2812.33 95.9706C2818.61 94.2599 2825.4 94.4364 2832.43 93.7859Z" fill="#FAB34A"/>
<path d="M2836.5 48.2484C2812.92 44.8797 2793.93 52.4984 2778.6 69.8542C2777.5 71.0937 2776.2 72.1549 2774.96 73.2623C2774.75 73.454 2774.37 73.4608 2773.91 73.6018C2771.35 69.603 2772.17 66.3949 2775.83 63.4608C2782.68 57.9681 2789.11 51.8955 2796.27 46.8589C2803.02 42.1157 2810.85 39.6301 2819.32 40.2122C2828.09 40.8154 2836.85 41.5648 2845.62 42.2258C2850.41 42.5867 2851.96 44.9511 2850.11 49.8413C2845.76 49.3376 2841.36 48.8282 2836.5 48.2484Z" fill="#FAB34B"/>
<path d="M2785.06 128.09C2795.66 118.998 2806.54 110.445 2820.37 108.89C2830.83 107.715 2841.58 109.153 2852.2 109.472C2853.52 109.511 2854.84 110.005 2856.15 109.969C2861.18 109.831 2863.25 111.945 2861.61 117.489C2855.52 116.927 2849.25 116.774 2843.13 115.704C2821.17 111.863 2803.35 119.662 2787.85 134.563C2785.73 136.601 2783.29 138.309 2780.94 140.212C2777.79 134.675 2777.86 134.455 2785.06 128.09Z" fill="#FAB34A"/>
<path d="M2778.72 55.7049C2776.41 57.8671 2774.36 59.7862 2771.94 62.0478C2770.16 58.6614 2769.87 55.9602 2772.77 53.4934C2780.98 46.5208 2788.83 39.0747 2797.48 32.7029C2804.55 27.4966 2813.27 26.6788 2821.9 27.3851C2829.18 27.9812 2836.44 28.9364 2843.67 30.0032C2848.95 30.7819 2848.92 30.9779 2848.83 37.4415C2844.42 36.8518 2840.05 36.3293 2835.69 35.6755C2816.18 32.7445 2798.59 36.2703 2784.24 50.8621C2782.62 52.5179 2780.74 53.9344 2778.72 55.7049Z" fill="#FAB34A"/>
<path d="M2790.46 86.4402C2785.44 90.7869 2780.71 94.9158 2775.72 99.2674C2773.54 96.0441 2773.56 93.4422 2776.51 90.9674C2782.25 86.1722 2787.86 81.2399 2793.62 76.4768C2806.6 65.7399 2822.02 65.4759 2837.66 66.5247C2843.07 66.8875 2848.44 67.8011 2854.3 68.5215C2852.73 73.4341 2850.43 75.5014 2845.5 75.0717C2837.07 74.337 2828.56 73.7277 2820.13 74.0365C2808.99 74.4441 2799.23 79.0013 2790.46 86.4402Z" fill="#FAB34B"/>
<path d="M2792.33 91.3166C2807.56 79.3034 2824.96 78.5409 2842.92 79.4781C2849.21 79.8063 2852.86 82.8796 2856.61 88.5489C2851.4 88.1311 2847.06 87.6043 2842.7 87.4737C2835.39 87.2544 2828.06 87.1853 2820.74 87.2364C2807.85 87.3263 2798.17 94.3073 2789 102.297C2785.28 105.538 2781.63 108.848 2777.81 112.247C2775.56 108.742 2775.77 106.186 2778.75 103.65C2783.31 99.7678 2787.63 95.5978 2792.33 91.3166Z" fill="#FAB34A"/>
<path d="M2811.07 5.45758C2813.69 7.42627 2816.49 9.06721 2818.08 11.501C2820.64 15.4253 2823.7 17.3765 2828.38 16.9865C2832.48 16.6447 2833.53 14.7759 2831.47 11.0538C2830.68 9.61882 2829.77 8.25269 2828.97 6.8189C2828.86 6.61874 2829.13 6.21053 2829.37 5.38346C2834.85 5.35211 2836.54 9.84571 2838.62 13.5342C2841.75 19.1129 2844.26 20.5435 2851.8 19.4028C2849.88 16.278 2848.19 13.53 2846.19 10.2853C2851.46 10.4982 2853.69 14.0169 2855.53 17.5549C2857.92 22.1451 2861.82 23.4718 2867.37 24.0711C2866.08 20.9412 2865.05 18.4193 2864.02 15.8974C2864.46 15.6209 2864.9 15.3443 2865.34 15.0678C2868.77 17.4564 2870.9 21.0125 2872.56 24.8719C2874.11 28.4786 2876.38 30.839 2881.16 30.8831C2880 28.5671 2879.09 26.729 2878.17 24.891C2878.55 24.6151 2878.92 24.3392 2879.3 24.0633C2883.92 27.8629 2887.33 32.6405 2890.28 39.0425C2888.56 38.6527 2887.57 38.6859 2886.89 38.236C2870.8 27.5015 2852.46 23.6461 2833.78 20.9726C2828.7 20.2455 2823.49 20.4243 2818.39 19.8072C2816.66 19.5985 2814.57 18.613 2813.54 17.2875C2811.53 14.7044 2809.96 11.7123 2808.65 8.69613C2808.37 8.0464 2809.98 6.57733 2811.07 5.45758Z" fill="#FAB550"/>
<path d="M2881.88 205.874C2879.14 208.8 2876.77 211.62 2874.01 214.003C2871.72 215.985 2868.98 217.333 2865.93 214.381C2869.85 209.558 2873.89 204.977 2877.49 200.078C2885.06 189.788 2891.08 178.715 2892.39 165.727C2892.78 161.811 2892.1 157.793 2892.38 153.855C2892.49 152.223 2893.84 150.678 2894.62 149.093C2895.93 150.12 2897.94 150.882 2898.44 152.215C2902.36 162.483 2900.88 172.692 2896.19 182.148C2892.15 190.289 2886.83 197.792 2881.88 205.874Z" fill="#FAB34A"/>
<path d="M2913.82 166.902C2911.41 186.845 2891.41 215.47 2881.03 213.69C2884.7 209.096 2888.45 204.758 2891.81 200.132C2900.52 188.116 2905.64 174.857 2905.37 159.759C2905.34 158.248 2906.57 156.714 2907.22 155.191C2908.95 156.19 2911.52 156.788 2912.24 158.278C2913.41 160.701 2913.36 163.707 2913.82 166.902Z" fill="#FAB44D"/>
<path d="M1418.78 320.813C1424.22 317.314 1429.58 316.733 1435.21 319.194C1441.79 322.067 1448.1 320.353 1454.28 317.704C1457.15 327.856 1453.7 330.72 1442.41 331.691C1440.66 331.842 1438.64 331.472 1437.07 330.68C1429.69 326.936 1422.77 326.827 1415.64 333.919C1416.44 328.63 1413.44 324.083 1418.78 320.813Z" fill="#404040"/>
<path d="M2773.98 31.9978C2781.08 26.0097 2787.74 20.0165 2794.88 14.6582C2800.22 10.6514 2800.5 11.0106 2803.73 16.6717C2804.29 17.6493 2804.73 18.696 2805.43 20.1381C2784.11 28.1635 2770.8 44.7671 2758.42 62.4866C2760.7 50.9186 2766.54 41.246 2773.98 31.9978Z" fill="#FAB34B"/>
<path d="M135.248 487.536C131.15 483.696 127.28 480.107 122 475.21C126.821 471.105 130.706 467.571 134.882 464.423C135.772 463.752 138.186 463.914 139.098 464.665C143.02 467.894 146.643 471.486 151.298 475.801C146.761 479.938 142.927 483.563 138.916 486.98C138.118 487.659 136.64 487.54 135.248 487.536Z" fill="#3D3D3D"/>
<path d="M60.2484 348.536C56.1504 344.696 52.28 341.107 47 336.21C51.8214 332.105 55.7061 328.571 59.8816 325.423C60.7718 324.752 63.1863 324.914 64.098 325.665C68.0195 328.894 71.6426 332.486 76.2976 336.801C71.7608 340.938 67.9271 344.563 63.9157 347.98C63.1184 348.659 61.6404 348.54 60.2484 348.536Z" fill="#3D3D3D"/>
<path d="M571.248 348.536C567.15 344.696 563.28 341.107 558 336.21C562.821 332.105 566.706 328.571 570.882 325.423C571.772 324.752 574.186 324.914 575.098 325.665C579.02 328.894 582.643 332.486 587.298 336.801C582.761 340.938 578.927 344.563 574.916 347.98C574.118 348.659 572.64 348.54 571.248 348.536Z" fill="#3D3D3D"/>
<path d="M683.248 487.536C679.15 483.696 675.28 480.107 670 475.21C674.821 471.105 678.706 467.571 682.882 464.423C683.772 463.752 686.186 463.914 687.098 464.665C691.02 467.894 694.643 471.486 699.298 475.801C694.761 479.938 690.927 483.563 686.916 486.98C686.118 487.659 684.64 487.54 683.248 487.536Z" fill="#3D3D3D"/>
<path d="M1350.25 488.536C1346.15 484.696 1342.28 481.107 1337 476.21C1341.82 472.105 1345.71 468.571 1349.88 465.423C1350.77 464.752 1353.19 464.914 1354.1 465.665C1358.02 468.894 1361.64 472.486 1366.3 476.801C1361.76 480.938 1357.93 484.563 1353.92 487.98C1353.12 488.659 1351.64 488.54 1350.25 488.536Z" fill="#3D3D3D"/>
<path d="M1271.25 232.536C1267.15 228.696 1263.28 225.107 1258 220.21C1262.82 216.105 1266.71 212.571 1270.88 209.423C1271.77 208.752 1274.19 208.914 1275.1 209.665C1279.02 212.894 1282.64 216.486 1287.3 220.801C1282.76 224.938 1278.93 228.563 1274.92 231.98C1274.12 232.659 1272.64 232.54 1271.25 232.536Z" fill="#3D3D3D"/>
<path d="M1270.25 348.536C1266.15 344.696 1262.28 341.107 1257 336.21C1261.82 332.105 1265.71 328.571 1269.88 325.423C1270.77 324.752 1273.19 324.914 1274.1 325.665C1278.02 328.894 1281.64 332.486 1286.3 336.801C1281.76 340.938 1277.93 344.563 1273.92 347.98C1273.12 348.659 1271.64 348.54 1270.25 348.536Z" fill="#3D3D3D"/>
<path d="M1573.25 349.536C1569.15 345.696 1565.28 342.107 1560 337.21C1564.82 333.105 1568.71 329.571 1572.88 326.423C1573.77 325.752 1576.19 325.914 1577.1 326.665C1581.02 329.894 1584.64 333.486 1589.3 337.801C1584.76 341.938 1580.93 345.563 1576.92 348.98C1576.12 349.659 1574.64 349.54 1573.25 349.536Z" fill="#3D3D3D"/>
<path d="M1813.25 348.536C1809.15 344.696 1805.28 341.107 1800 336.21C1804.82 332.105 1808.71 328.571 1812.88 325.423C1813.77 324.752 1816.19 324.914 1817.1 325.665C1821.02 328.894 1824.64 332.486 1829.3 336.801C1824.76 340.938 1820.93 344.563 1816.92 347.98C1816.12 348.659 1814.64 348.54 1813.25 348.536Z" fill="#3D3D3D"/>
<path d="M2153.25 347.536C2149.15 343.696 2145.28 340.107 2140 335.21C2144.82 331.105 2148.71 327.571 2152.88 324.423C2153.77 323.752 2156.19 323.914 2157.1 324.665C2161.02 327.894 2164.64 331.486 2169.3 335.801C2164.76 339.938 2160.93 343.563 2156.92 346.98C2156.12 347.659 2154.64 347.54 2153.25 347.536Z" fill="#3D3D3D"/>
<path d="M345.248 348.536C341.15 344.696 337.28 341.107 332 336.21C336.821 332.105 340.706 328.571 344.882 325.423C345.772 324.752 348.186 324.914 349.098 325.665C353.02 328.894 356.643 332.486 361.298 336.801C356.761 340.938 352.927 344.563 348.916 347.98C348.118 348.659 346.64 348.54 345.248 348.536Z" fill="#3D3D3D"/>
<path d="M110.248 487.536C106.15 483.696 102.28 480.107 97 475.21C101.821 471.105 105.706 467.571 109.882 464.423C110.772 463.752 113.186 463.914 114.098 464.665C118.02 467.894 121.643 471.486 126.298 475.801C121.761 479.938 117.927 483.563 113.916 486.98C113.118 487.659 111.64 487.54 110.248 487.536Z" fill="#3D3D3D"/>
<path d="M35.2484 348.536C31.1504 344.696 27.28 341.107 22 336.21C26.8214 332.105 30.7061 328.571 34.8816 325.423C35.7718 324.752 38.1863 324.914 39.098 325.665C43.0195 328.894 46.6426 332.486 51.2976 336.801C46.7608 340.938 42.9271 344.563 38.9157 347.98C38.1184 348.659 36.6404 348.54 35.2484 348.536Z" fill="#3D3D3D"/>
<path d="M658.248 487.536C654.15 483.696 650.28 480.107 645 475.21C649.821 471.105 653.706 467.571 657.882 464.423C658.772 463.752 661.186 463.914 662.098 464.665C666.02 467.894 669.643 471.486 674.298 475.801C669.761 479.938 665.927 483.563 661.916 486.98C661.118 487.659 659.64 487.54 658.248 487.536Z" fill="#3D3D3D"/>
<path d="M1325.25 488.536C1321.15 484.696 1317.28 481.107 1312 476.21C1316.82 472.105 1320.71 468.571 1324.88 465.423C1325.77 464.752 1328.19 464.914 1329.1 465.665C1333.02 468.894 1336.64 472.486 1341.3 476.801C1336.76 480.938 1332.93 484.563 1328.92 487.98C1328.12 488.659 1326.64 488.54 1325.25 488.536Z" fill="#3D3D3D"/>
<path d="M1246.25 232.536C1242.15 228.696 1238.28 225.107 1233 220.21C1237.82 216.105 1241.71 212.571 1245.88 209.423C1246.77 208.752 1249.19 208.914 1250.1 209.665C1254.02 212.894 1257.64 216.486 1262.3 220.801C1257.76 224.938 1253.93 228.563 1249.92 231.98C1249.12 232.659 1247.64 232.54 1246.25 232.536Z" fill="#3D3D3D"/>
<path d="M546.248 348.536C542.15 344.696 538.28 341.107 533 336.21C537.821 332.105 541.706 328.571 545.882 325.423C546.772 324.752 549.186 324.914 550.098 325.665C554.02 328.894 557.643 332.486 562.298 336.801C557.761 340.938 553.927 344.563 549.916 347.98C549.118 348.659 547.64 348.54 546.248 348.536Z" fill="#3D3D3D"/>
<path d="M1245.25 348.536C1241.15 344.696 1237.28 341.107 1232 336.21C1236.82 332.105 1240.71 328.571 1244.88 325.423C1245.77 324.752 1248.19 324.914 1249.1 325.665C1253.02 328.894 1256.64 332.486 1261.3 336.801C1256.76 340.938 1252.93 344.563 1248.92 347.98C1248.12 348.659 1246.64 348.54 1245.25 348.536Z" fill="#3D3D3D"/>
<path d="M1788.25 348.536C1784.15 344.696 1780.28 341.107 1775 336.21C1779.82 332.105 1783.71 328.571 1787.88 325.423C1788.77 324.752 1791.19 324.914 1792.1 325.665C1796.02 328.894 1799.64 332.486 1804.3 336.801C1799.76 340.938 1795.93 344.563 1791.92 347.98C1791.12 348.659 1789.64 348.54 1788.25 348.536Z" fill="#3D3D3D"/>
<path d="M1548.25 349.536C1544.15 345.696 1540.28 342.107 1535 337.21C1539.82 333.105 1543.71 329.571 1547.88 326.423C1548.77 325.752 1551.19 325.914 1552.1 326.665C1556.02 329.894 1559.64 333.486 1564.3 337.801C1559.76 341.938 1555.93 345.563 1551.92 348.98C1551.12 349.659 1549.64 349.54 1548.25 349.536Z" fill="#3D3D3D"/>
<path d="M2128.25 347.536C2124.15 343.696 2120.28 340.107 2115 335.21C2119.82 331.105 2123.71 327.571 2127.88 324.423C2128.77 323.752 2131.19 323.914 2132.1 324.665C2136.02 327.894 2139.64 331.486 2144.3 335.801C2139.76 339.938 2135.93 343.563 2131.92 346.98C2131.12 347.659 2129.64 347.54 2128.25 347.536Z" fill="#3D3D3D"/>
<path d="M1903.25 66.5365C1899.15 62.6957 1895.28 59.1066 1890 54.2102C1894.82 50.105 1898.71 46.5712 1902.88 43.4229C1903.77 42.7517 1906.19 42.9143 1907.1 43.665C1911.02 46.8942 1914.64 50.4857 1919.3 54.8012C1914.76 58.9376 1910.93 62.5632 1906.92 65.9801C1906.12 66.6594 1904.64 66.5396 1903.25 66.5365Z" fill="#3D3D3D"/>
<path d="M283.06 487.76C278.962 483.919 275.092 480.33 269.812 475.433C274.633 471.328 278.518 467.794 282.693 464.646C283.583 463.975 285.998 464.137 286.91 464.888C290.831 468.117 294.454 471.709 299.109 476.024C294.572 480.161 290.739 483.786 286.727 487.203C285.93 487.882 284.452 487.763 283.06 487.76Z" fill="#3D3D3D"/>
<path d="M1407.13 332.932C1408.31 334.317 1409.25 335.428 1411.16 337.681C1407.21 341.125 1403.46 344.65 1399.39 347.76C1398.49 348.454 1395.99 348.273 1395.04 347.497C1391.2 344.374 1387.67 340.86 1383.66 337.148C1388.13 332.522 1391.91 328.453 1395.93 324.653C1396.45 324.166 1398.61 324.695 1399.44 325.409C1402.07 327.657 1404.43 330.218 1407.13 332.932Z" fill="#3F3F3F"/>
<path d="M564.617 323.668C563.343 324.979 562.334 326.042 561.058 327.387C556.713 322.756 552.58 318.351 548.175 313.656C552.1 309.944 556.39 305.887 560.864 301.656C564.76 305.901 568.824 310.33 573.649 315.586C571.238 317.741 568.06 320.581 564.617 323.668Z" fill="#3F3F3F"/>
<path d="M2901.86 136.178C2904.25 137.428 2906.3 138.507 2908.33 139.629C2913.42 142.442 2913.42 142.45 2912.09 148.796C2905.97 145.918 2899.94 142.955 2893.8 140.245C2890.63 138.845 2887.33 137.531 2883.95 136.824C2878.47 135.675 2877.01 132.575 2878.71 126.518C2886.4 129.725 2893.96 132.876 2901.86 136.178Z" fill="#FAB44D"/>
<path d="M2760.02 113.973C2758.07 116.687 2756.12 119.402 2754.17 122.116C2753.77 122.07 2753.38 122.024 2752.98 121.978C2754.4 116.666 2755.82 111.354 2757.51 105.399C2757.88 103.857 2757.96 102.957 2758.33 102.07C2758.77 101.748 2758.92 101.412 2759.33 100.917C2759.64 100.25 2759.7 99.7416 2759.75 99.2333C2759.57 99.2056 2759.38 99.1779 2759.2 99.1502C2759.07 99.704 2758.94 100.258 2758.57 100.908C2758.21 101.33 2758.1 101.657 2757.72 102.151C2757.16 103.095 2756.86 103.871 2756.56 104.647C2755.63 106.155 2754.7 107.663 2753.06 110.319C2752.59 101.388 2756.65 94.7997 2758.19 87.3464C2758 86.9914 2757.97 87.027 2758.29 87.084C2758.75 86.7519 2758.89 86.3629 2759.02 85.9885C2759 86.0033 2758.98 86.037 2759.34 85.8965C2759.8 84.8226 2759.9 83.8893 2760 82.9766C2759.99 82.9972 2759.96 83.031 2759.96 83.031C2764.84 83.5732 2764.36 87.0593 2763.73 90.3246C2763.42 91.8975 2762.33 93.3183 2761.37 95.3803C2761.17 96.1998 2761.2 96.4469 2761.23 96.6939C2761.57 96.5541 2761.92 96.4143 2762.26 96.2745C2765.76 98.3161 2765.39 101.252 2764.05 104.335C2763.46 105.693 2762.66 106.958 2761.98 108.629C2761.99 108.993 2762.01 108.961 2761.72 109.093C2761.27 109.827 2761.12 110.428 2760.99 111.014C2761 110.998 2761.01 110.962 2760.68 111.121C2760.23 112.197 2760.11 113.115 2759.99 114.017C2760 114.001 2760.02 113.973 2760.02 113.973Z" fill="#FAB550"/>
<path d="M2907.81 127.346C2908.2 128.959 2908.47 130.218 2908.92 132.307C2906.99 131.765 2905.62 131.505 2904.35 131.002C2896.15 127.764 2888.04 124.271 2879.75 121.287C2875.8 119.867 2874.59 117.615 2875.62 112.958C2886.94 116.492 2897.91 120.292 2907.81 127.346Z" fill="#FAB44D"/>
<path d="M2893.21 106.839C2896.26 108.274 2899.06 109.399 2901.65 110.878C2904.98 112.774 2906.18 115.818 2905.82 119.195C2895.46 114.88 2885.12 110.812 2875.06 106.151C2873.35 105.358 2872.81 102.024 2871.73 99.8644C2872.18 99.3492 2872.62 98.8339 2873.07 98.3186C2879.67 101.108 2886.27 103.897 2893.21 106.839Z" fill="#FAB44D"/>
<path d="M2866.13 65.7773C2865.35 63.5152 2864.88 61.4843 2864.13 58.2452C2869.06 60.3346 2872.99 61.8659 2876.81 63.6548C2882.06 66.1194 2887.22 68.7954 2892.43 71.3486C2896.1 73.1421 2897.46 76.2048 2897.73 80.0775C2887.12 75.3092 2876.77 70.6589 2866.13 65.7773Z" fill="#FAB550"/>
<path d="M2860.78 39.1672C2860.53 37.6818 2860.37 36.577 2860.13 34.9537C2861.63 35.2225 2862.78 35.1991 2863.72 35.6341C2871.88 39.4052 2880.03 43.1814 2888.11 47.1233C2891.67 48.8603 2892.63 50.9923 2892.67 55.3848C2882.63 50.9208 2872.5 46.4552 2862.43 41.8707C2861.71 41.5404 2861.38 40.3424 2860.78 39.1672Z" fill="#FAB44D"/>
<path d="M2873.97 51.0559C2879.51 53.7799 2884.72 56.3483 2889.91 58.9259C2893.37 60.6419 2894.9 63.4986 2895.02 68.0262C2890.87 65.8846 2887.21 63.8774 2883.45 62.0953C2878.36 59.6813 2873.34 56.9545 2868 55.2725C2863.45 53.8408 2862.02 51.224 2862.33 45.9857C2866.29 47.7122 2869.96 49.3082 2873.97 51.0559Z" fill="#FAB44D"/>
<path d="M2896.32 96.6999C2900.87 98.7287 2904.21 101.127 2902.79 106.49C2892.7 101.581 2882.74 96.7349 2872.81 91.8992C2877.43 87.2845 2878.02 87.1487 2883.63 90.0142C2887.78 92.1336 2891.87 94.3546 2896.32 96.6999Z" fill="#FAB44D"/>
<path d="M2856.31 78.8242C2857.87 76.64 2859.23 73.6251 2861.11 73.2593C2865.72 72.3607 2869.21 75.3993 2870.9 79.3701C2871.86 81.6118 2871.8 85.0775 2870.66 87.1261C2869.96 88.3815 2866.12 88.7559 2864.05 88.1929C2859.74 87.0179 2857.28 83.6094 2856.31 78.8242Z" fill="#FAB34A"/>
<path d="M2890.2 87.6959C2887.49 86.3732 2885.1 85.2164 2882.69 84.1229C2875.94 81.0654 2875.78 80.9294 2871.93 72.7268C2879.39 76.301 2886.85 79.9017 2894.34 83.4378C2897.9 85.1198 2900.3 87.5767 2900.37 91.7429C2900.37 92.0412 2900.16 92.3435 2899.86 93.1183C2896.71 91.3528 2893.61 89.6217 2890.2 87.6959Z" fill="#FAB44D"/>
<path d="M2761.98 109.002C2765.71 109.795 2767.61 112.993 2765.91 116.415C2762.76 122.743 2759.28 128.909 2755.52 135.033C2754.61 127.719 2758.4 121.44 2760.12 114.354C2760.02 113.973 2760 114.001 2760.36 113.895C2760.82 112.847 2760.91 111.905 2761.01 110.962C2761.01 110.962 2761 110.998 2761.38 111.006C2761.85 110.33 2761.93 109.645 2762.01 108.961C2762.01 108.961 2761.99 108.993 2761.98 109.002Z" fill="#FAB550"/>
<path d="M2767.53 138.815C2769.33 142.433 2768.57 145.28 2766.64 148.396C2763.55 153.374 2761.03 158.708 2758.28 163.892C2757.82 163.759 2757.36 163.626 2756.91 163.494C2757.54 160.591 2757.98 157.627 2758.86 154.802C2760.19 150.53 2761.63 146.266 2763.44 142.186C2764.11 140.695 2765.98 139.741 2767.53 138.815Z" fill="#FAB550"/>
<path d="M2766.65 131.606C2763.25 137.782 2760.06 143.661 2756.88 149.539C2757.01 140.017 2759.93 131.578 2764.46 123.698C2765.18 123.755 2765.91 123.812 2766.64 123.868C2766.71 126.348 2766.79 128.828 2766.65 131.606Z" fill="#FAB550"/>
<path d="M2758.01 86.9711C2756.29 89.8463 2754.55 92.7418 2752.75 95.7445C2751.33 90.2116 2755.99 75.7177 2760.84 70.2986C2764.15 73.5453 2764.05 74.9109 2759.98 82.6586C2759.96 83.031 2759.99 82.9972 2759.7 83.1716C2759.26 84.243 2759.12 85.14 2758.98 86.037C2758.98 86.037 2759 86.0033 2758.7 85.951C2758.26 86.2749 2758.11 86.651 2757.97 87.0271C2757.97 87.0271 2758 86.9914 2758.01 86.9711Z" fill="#FAB550"/>
<path d="M2761.22 165.221C2763.14 161.064 2764.93 157.28 2766.72 153.496C2767.41 153.789 2768.1 154.082 2768.79 154.375C2769.96 164.125 2760.35 170.235 2760.1 179.505C2757.7 176.265 2757.74 175.978 2761.22 165.221Z" fill="#FAB550"/>
<path d="M2770.53 171.467C2769.45 174.871 2768.46 177.97 2767.18 180.945C2765.34 185.229 2763.29 189.424 2761.04 194.275C2759.42 188.349 2763.19 176.651 2769.12 168.061C2769.65 169.241 2770.07 170.174 2770.53 171.467Z" fill="#FAB550"/>
<path d="M2806.17 502.771C2805.9 502.341 2805.92 502.091 2805.97 501.466C2813.57 503.364 2821.14 505.636 2828.72 507.909C2828.63 508.225 2828.54 508.541 2828.45 508.856C2821.12 506.888 2813.78 504.919 2806.17 502.771Z" fill="#FAB550"/>
<path d="M114.161 465.573C112.982 465.607 111.727 465.304 110.084 464.943C111.439 461.488 112.747 463.547 114.161 465.573Z" fill="#404040"/>
<path d="M99.6279 474.768C99.9361 475.383 99.9753 476.04 100.025 477.027C99.8105 476.507 99.5847 475.66 99.6279 474.768Z" fill="#404040"/>
<path d="M2758.05 102.057C2757.96 102.957 2757.88 103.857 2757.56 105.022C2757.33 105.286 2756.95 104.965 2756.76 104.806C2756.86 103.871 2757.16 103.095 2757.74 102.169C2758.02 102.02 2758.05 102.057 2758.05 102.057Z" fill="#FEFEFE"/>
<path d="M2760.68 111.121C2760.91 111.905 2760.82 112.847 2760.35 113.911C2760.11 113.115 2760.23 112.197 2760.68 111.121Z" fill="#FEFEFE"/>
<path d="M2759.34 85.8965C2759.12 85.14 2759.26 84.243 2759.71 83.151C2759.9 83.8893 2759.8 84.8226 2759.34 85.8965Z" fill="#FEFEFE"/>
<path d="M2758.82 100.812C2758.94 100.258 2759.07 99.7039 2759.2 99.1501C2759.38 99.1779 2759.57 99.2056 2759.75 99.2333C2759.7 99.7416 2759.64 100.25 2759.27 100.851C2758.94 100.943 2758.82 100.812 2758.82 100.812Z" fill="#FEFEFE"/>
<path d="M2761.72 109.093C2761.93 109.645 2761.85 110.33 2761.37 111.022C2761.12 110.428 2761.27 109.827 2761.72 109.093Z" fill="#FEFEFE"/>
<path d="M2762.08 96.09C2761.92 96.4143 2761.57 96.5541 2761.23 96.694C2761.2 96.4469 2761.17 96.1998 2761.32 95.755C2761.64 95.6733 2761.77 95.7894 2762.08 96.09Z" fill="#FEFEFE"/>
<path d="M2758.29 87.084C2758.11 86.651 2758.26 86.2749 2758.72 85.9363C2758.89 86.3629 2758.75 86.7519 2758.29 87.084Z" fill="#FEFEFE"/>
<path d="M2758 102.002C2758.1 101.657 2758.21 101.33 2758.57 100.908C2758.82 100.812 2758.94 100.943 2759.01 101.01C2758.92 101.412 2758.77 101.748 2758.33 102.07C2758.05 102.057 2758.02 102.02 2758 102.002Z" fill="#FEFEFE"/>
</g>
<defs>
<clipPath id="clip0_4049_2331">
<rect width="3315" height="547" fill="white"/>
</clipPath>
</defs>
</svg>
