<svg width="159" height="170" viewBox="0 0 159 170" fill="none" xmlns="http://www.w3.org/2000/svg">
<path d="M28.036 130.186C36.1449 136.314 47.9807 139.315 57.7263 138.052C90.7163 133.777 100.653 100.227 96.1883 71.6892C95.0225 64.2367 94.1619 56.3538 93.6355 48.8141C93.4092 41.2076 95.1595 28.1849 104.489 26.7785C110.21 25.916 114.846 30.7145 116.022 35.8677C116.226 36.7591 116.556 38.0566 116.881 38.8971C114.373 38.7201 111.608 37.9646 109.746 40.0301C101.608 49.0572 105.38 66.8798 106.997 77.258C109.609 94.0319 109.408 110.252 102.003 125.573C108.212 126.919 109.869 133.817 111.827 138.909C112.805 133.955 114.239 127.44 118.403 124.202C120.527 122.549 122.632 124.36 123.974 126.043C124.66 126.903 124.147 129.71 123.368 130.325C121.731 130.577 120.943 128.152 119.196 128.37C118.385 128.47 117.733 129.215 117.295 129.851C114.916 133.642 114.033 138.458 112.891 142.716C112.671 143.535 111.951 145.197 111.224 145.556C108.789 146.759 105.21 147.644 102.623 148.426L86.5163 153.287C88.8363 149.769 89.4897 150.662 93.0754 149.322C97.7699 147.567 105.452 146.364 109.638 143.849C108.73 140.035 107.481 135.77 104.154 133.367L101.126 134.054C99.7766 133.37 99.2024 133.064 98.1381 131.915C97.2973 133.779 96.1078 135.271 94.9073 136.896C87.3668 147.107 76.114 152.762 63.3737 152.123C62.4839 152.079 59.8012 151.588 59.2435 151.689L59.2107 151.845C60.1923 152.444 62.9641 152.764 64.318 153.059C75.9213 155.582 87.5962 155.21 99.1052 152.344C112.424 149.026 122.387 142.892 132.159 133.369C131.291 132.707 131.101 132.566 130.436 131.66C130.435 130.368 130.359 129.449 130.765 128.214C131.508 128.498 131.319 128.315 131.768 128.914C131.767 131.991 133.177 132.072 135.106 129.977C141.528 123.002 147.376 113.947 149.913 104.764C151.053 100.495 151.575 96.0837 151.463 91.6665C151.412 89.3135 151.203 81.3175 146.902 85.3732C142.924 89.1243 135.958 96.9508 130.132 96.9671C121.385 96.9917 116.992 84.0962 117.038 76.978C117.067 66.3707 120.566 54.6652 127.884 46.7302C131.569 42.6335 137.18 39.723 141.944 44.1146C144.611 46.5729 148.087 55.1757 145.198 58.0282C143.199 58.3893 141.304 53.9149 137.804 56.8085C132.113 61.5125 126.849 70.5608 125.314 77.6097C122.535 90.3731 134.721 78.2039 137.916 75.5267C140.74 73.1596 144.115 67.2798 148.409 67.8206C151.827 68.2513 153.628 73.022 154.736 75.7808C157.93 84.2751 158.709 94.654 157.485 103.643C154.819 123.825 144.239 142.119 128.075 154.494C115.733 163.842 102.83 169.286 87.0981 169.711C83.6238 169.647 80.0782 169.218 76.63 168.792C39.9759 164.258 8.4933 132.485 0.65928 96.9803C0.420231 95.8967 -0.111739 92.6631 0.0209359 91.7096C0.381405 91.5118 0.223514 91.5526 0.703951 91.6531C1.73538 92.6485 2.98713 96.2414 3.68147 97.6897C8.79292 108.352 17.6217 117.083 29.504 119.519C35.7772 120.806 42.7471 121.255 48.824 118.592C51.4256 117.452 53.554 115.763 55.9504 114.295L56.8029 114.844C56.0578 116.742 55.7475 119.09 55.1233 121.026C54.9514 121.138 54.8025 121.236 54.6766 121.319C52.6373 121.702 47.1385 118.461 45.2211 121.479C44.2262 123.045 43.6143 128.06 43.6262 129.931C45.7213 131.341 51.0036 131.916 53.5773 132.009C57.0151 129.472 54.9448 123.874 58.0473 124.224C59.2553 124.36 63.4969 125.86 64.9795 125.135L65.4235 125.729C58.7311 131.889 52.4511 134.195 43.2533 133.805C39.2717 133.649 35.335 132.906 31.5709 131.599C30.3744 131.176 29.1825 130.585 28.036 130.186ZM70.6033 145.172C72.5721 146.206 78.2286 146.994 80.5672 147.086C82.7014 146.351 82.9099 141.838 83.4827 139.885C83.6205 139.416 83.6586 137.871 83.4308 137.494C82.4582 135.885 74.7741 134.628 73.3581 134.582C71.1418 136.588 69.7179 142.311 70.6033 145.172Z" fill="#A87851"/>
<path d="M49.548 24.1327C50.913 23.8813 52.8577 24.3429 53.8428 25.3762C56.7059 28.3794 56.2853 32.6568 56.3654 36.4619C45.7741 34.979 49.9563 57.1525 50.5082 62.9752C51.6938 75.4829 51.7065 89.1162 43.5586 99.5235C35.9067 109.297 20.5164 110.89 11.0743 102.79C-2.32977 91.1127 -3.94666 65.8116 18.2496 63.8439C19.7452 63.8202 21.2384 63.9681 22.7001 64.2849C29.0819 65.6771 33.9143 70.9773 32.6741 78.1221C32.5428 78.8774 32.132 80.0719 31.4834 80.48C30.7515 80.0967 29.7866 75.6905 29.2843 74.6637C28.5163 73.0944 27.245 71.5837 25.8367 70.551C23.1044 68.5471 19.5774 68.1306 16.2941 68.6366C13.1051 69.1279 10.0917 70.8851 8.17865 73.4984C6.31505 76.0442 5.1641 79.5438 5.69093 82.7007C6.23108 85.9373 8.12144 89.1501 10.7931 91.0693C14.6698 93.8541 19.7913 94.8341 24.4771 94.0508C28.9329 93.3057 32.6375 90.5035 35.1576 86.8399C47.3435 69.1242 36.1535 38.0037 43.746 27.5218C45.2469 25.4497 47.0708 24.5201 49.548 24.1327Z" fill="#242223"/>
<path d="M57.8704 112.451C65.6125 104.833 67.7596 90.3218 67.8376 79.8967C67.8625 76.577 67.7142 73.057 67.3856 69.7542C66.2141 57.9808 61.3498 32.2623 70.35 23.3401C71.0931 22.6033 72.3913 21.5987 73.4277 21.3522C74.0821 21.1966 74.8802 21.2594 75.4573 20.8995L75.4214 20.7464C72.9967 20.6622 69.6842 19.0426 68.0691 17.1848C60.931 8.9743 69.7428 -0.396584 78.7417 0.0129644C81.0549 0.118236 86.6247 1.68619 86.5217 4.56963C86.309 4.84493 86.3265 4.91527 85.9002 4.94166C84.9131 5.00274 83.5908 4.38323 82.6537 4.20746C79.5518 3.62562 76.1784 4.03014 74.0888 6.65975C72.7459 8.34995 72.6278 9.30559 72.7869 11.3988C72.9085 12.9971 74.1274 14.3735 75.312 15.3709C77.0631 16.8453 79.6443 16.9911 81.8309 16.7401C83.0316 16.6021 85.4663 15.8589 86.5546 15.9163C87.4201 16.941 85.2701 18.5068 84.785 19.1187C83.1289 21.2081 78.5695 20.3341 77.3849 20.8698C77.6967 21.3128 79.5115 21.6887 80.2403 21.981C84.4084 23.6524 86.2694 27.8016 86.9228 31.9455C84.7536 31.7041 82.3646 31.4038 80.5628 32.8754C76.908 35.8602 75.9498 41.4753 75.4466 45.8675C74.4395 54.6612 75.9038 63.5142 76.6623 72.2371C77.8602 86.0098 79.4837 102.39 73.1575 115.163C71.8094 117.885 70.2006 120.6 68.1519 122.812C67.6389 122.46 67.7045 122.745 67.0618 122.088C67.7399 120.615 68.4967 116.656 67.6105 115.235C66.488 114.437 59.639 112.731 58.4316 112.915L57.8704 112.451Z" fill="#A87851"/>
<path d="M123.134 31.7956C125.565 32.1246 128.9 32.4849 131.117 33.3636C134.504 34.7063 131.771 41.1729 130.57 43.389L129.271 44.1507C126.158 44.2043 124.563 43.6834 121.561 42.9777C122.189 43.3899 122.804 43.8796 123.402 44.3379C123.651 47.4155 123.325 51.7092 120.416 53.4807C118.388 53.742 112.047 52.9689 110.736 51.2996C109.34 49.5236 110.753 42.8966 112.763 41.7575C114.213 40.9356 118.585 42.2735 120.277 42.6399C117.924 40.1464 119.226 36.3388 120.585 33.5617C121.113 32.4809 121.992 32.0513 123.134 31.7956Z" fill="#242223"/>
<path d="M129.68 102.677C130.753 103.7 129.092 106.445 128.527 107.546C130.242 109.144 132.643 110.253 133.62 112.433C135.363 116.326 132.519 119.65 129.167 121.206C128.736 121.303 128.303 121.389 127.868 121.465C123.875 122.121 122.795 119.234 123.605 115.842C124.703 111.241 126.799 106.458 129.68 102.677ZM129.747 117.096C130.735 116.579 131.676 116.21 132.208 115.214C132.193 114.485 127.606 110.835 126.933 110.487C126.256 112.074 123.288 118.401 127.661 117.885C128.087 117.834 129.291 117.289 129.747 117.096Z" fill="#A87851"/>
<path d="M117.33 91.3064C117.358 91.3777 117.452 91.8572 117.448 91.868C116.693 94.0266 115.604 96.5648 115.109 98.7439C114.786 100.126 114.69 101.551 114.824 102.963C115.108 105.911 116.715 106.6 119.146 104.592C119.672 104.157 120.624 102.738 121.078 102.128C120.778 104.682 120.496 105.465 119.129 107.609C117.837 109.002 117.151 109.206 115.433 109.82C108.736 106.875 114.195 95.2122 117.33 91.3064Z" fill="#A87851"/>
<path d="M138.587 96.0837C140.445 96.0822 141.475 97.3799 140.831 98.9197C136.988 108.104 139.678 108.892 147.054 103.407C147.517 103.064 148.218 102.214 148.728 101.905L148.969 102.055C148.848 103.539 146.659 105.815 145.65 106.874C143.512 108.704 141.647 109.764 138.962 108.409C136.214 104.711 139.625 101.051 139.081 99.1879C137.762 98.2843 134.488 101.175 133.639 101.158C132.393 99.1021 136.776 96.4224 138.587 96.0837Z" fill="#A87851"/>
<path d="M113.062 81.0948C113.365 81.2319 113.264 81.1404 113.412 81.5165C113.262 82.3603 112.729 83.3128 112.342 84.1002C113.138 84.4504 115.328 85.25 115.611 86.0358C116.255 87.8226 114.575 89.7412 113.039 90.4837C111.943 90.9255 109.876 91.5277 109.69 89.626C109.419 86.8616 111.555 83.2985 113.062 81.0948ZM113.201 88.7267C113.639 88.4724 114.035 88.3109 114.21 87.8345C114.132 86.5952 112.709 86.1928 111.636 85.934C111.278 86.884 110.872 87.5621 110.919 88.5273C111.464 89.4025 112.359 89.0402 113.201 88.7267Z" fill="#A87851"/>
<path d="M113.021 112.007L113.282 112.269C113.08 114.424 110.544 118 111.719 120.172C113.04 121.072 114.124 119.293 115.354 119.134C115.594 119.918 114.901 120.659 114.446 121.245C114.02 121.799 113.471 122.526 112.776 122.706C111.545 123.025 110.281 122.586 110.112 121.194C109.755 118.238 111.389 114.351 113.021 112.007Z" fill="#A87851"/>
<path d="M96.7863 139.127L97.2738 139.277C97.2788 139.678 97.1933 139.769 97.0026 140.139C97.0996 140.499 97.0209 140.428 97.2657 140.59C97.1225 141.822 96.78 143.4 98.0556 144.05C99.4031 144.028 100.109 143.063 101.059 142.124C98.2398 149.732 94.1333 146.486 96.7863 139.127Z" fill="#A87851"/>
<path d="M130.765 128.214C131.346 126.529 131.894 124.852 133.025 123.449C132.632 125.198 131.785 127.299 131.768 128.914C131.319 128.315 131.508 128.498 130.765 128.214Z" fill="#BB702D"/>
<path d="M67.0617 122.088C67.7045 122.745 67.6388 122.46 68.1518 122.812C67.2604 123.801 66.3508 124.773 65.4235 125.729L64.9795 125.135C66.0826 124.083 66.5549 123.555 67.0617 122.088Z" fill="#BB702D"/>
<path d="M96.7864 139.127C97.0858 138.278 97.3177 137.402 97.9204 136.741L98.1235 136.731C98.1814 137.329 97.4567 140.232 97.2658 140.591C97.021 140.428 97.0997 140.499 97.0026 140.139C97.1933 139.769 97.2788 139.678 97.2738 139.277L96.7864 139.127Z" fill="#BB702D"/>
<path d="M57.8704 112.451L58.4316 112.915C57.6735 113.615 57.3123 113.912 56.8029 114.844L55.9504 114.295C56.5187 113.871 57.3462 112.981 57.8704 112.451Z" fill="#BB702D"/>
</svg>
